<svg width="720" height="509" viewBox="0 0 720 509" fill="none" xmlns="http://www.w3.org/2000/svg">
<rect x="340" y="176" width="29" height="155" fill="white"/>
<g filter="url(#filter0_bd)">
<rect x="15" y="5" width="689" height="211" rx="20" fill="white" fill-opacity="0.9"/>
</g>
<g filter="url(#filter1_bd)">
<rect x="16" y="262" width="689" height="222" rx="20" fill="white" fill-opacity="0.9"/>
</g>
<path d="M63.5366 41.9199H56.6274V49H52.3428V31.2266H64.2324V34.5347H56.6274V38.624H63.5366V41.9199ZM70.165 49H66.0391V30.25H70.165V49ZM80.1504 49C80.0039 48.7314 79.8737 48.3368 79.7598 47.8159C79.0029 48.7681 77.945 49.2441 76.5859 49.2441C75.3408 49.2441 74.2829 48.8698 73.4121 48.1211C72.5413 47.3643 72.106 46.4162 72.106 45.2769C72.106 43.8446 72.6349 42.7622 73.6929 42.0298C74.7508 41.2974 76.2889 40.9312 78.3071 40.9312H79.5767V40.2354C79.5767 39.0228 79.0518 38.4165 78.002 38.4165C77.0254 38.4165 76.5371 38.8966 76.5371 39.8569H72.4233C72.4233 38.5793 72.9645 37.5417 74.0469 36.7441C75.1374 35.9466 76.5249 35.5479 78.2095 35.5479C79.894 35.5479 81.2246 35.9588 82.2012 36.7808C83.1777 37.6027 83.6782 38.7298 83.7026 40.1621V46.0093C83.7189 47.2218 83.9061 48.1496 84.2642 48.7925V49H80.1504ZM77.5747 46.3145C78.0874 46.3145 78.5106 46.2046 78.8442 45.9849C79.186 45.7651 79.4302 45.5169 79.5767 45.2402V43.1284H78.3804C76.9481 43.1284 76.2319 43.7713 76.2319 45.0571C76.2319 45.4315 76.3581 45.7367 76.6104 45.9727C76.8626 46.2005 77.1841 46.3145 77.5747 46.3145ZM85.5093 42.2983C85.5093 40.9637 85.729 39.7837 86.1685 38.7583C86.6079 37.7329 87.2386 36.9435 88.0605 36.3901C88.8825 35.8286 89.8387 35.5479 90.9292 35.5479C92.3045 35.5479 93.3787 36.0117 94.1519 36.9395L94.2983 35.792H98.0337V48.4995C98.0337 49.6632 97.7611 50.6724 97.2158 51.5269C96.6787 52.3895 95.8975 53.0487 94.8721 53.5044C93.8467 53.9683 92.6585 54.2002 91.3076 54.2002C90.3392 54.2002 89.3993 54.0171 88.4878 53.6509C87.5845 53.2847 86.8927 52.8086 86.4126 52.2227L88.1338 49.8057C88.8988 50.709 89.9079 51.1606 91.1611 51.1606C92.984 51.1606 93.8955 50.2248 93.8955 48.353V47.938C93.1061 48.8088 92.1092 49.2441 90.9048 49.2441C89.2935 49.2441 87.9914 48.6297 86.9985 47.4009C86.0057 46.1639 85.5093 44.5119 85.5093 42.4448V42.2983ZM89.6353 42.5547C89.6353 43.637 89.8387 44.4956 90.2456 45.1304C90.6525 45.757 91.2222 46.0703 91.9546 46.0703C92.8416 46.0703 93.4886 45.7733 93.8955 45.1792V39.625C93.4967 39.0228 92.8579 38.7217 91.979 38.7217C91.2466 38.7217 90.6729 39.0513 90.2578 39.7104C89.8428 40.3615 89.6353 41.3096 89.6353 42.5547ZM118.859 42.4937C118.859 44.5444 118.395 46.1842 117.467 47.4131C116.548 48.6338 115.303 49.2441 113.732 49.2441C112.519 49.2441 111.522 48.8006 110.741 47.9136V54.0781H106.627V35.792H110.473L110.595 37.0127C111.384 36.0361 112.422 35.5479 113.708 35.5479C115.335 35.5479 116.601 36.1501 117.504 37.3545C118.407 38.5508 118.859 40.1987 118.859 42.2983V42.4937ZM114.745 42.2373C114.745 39.8936 114.062 38.7217 112.694 38.7217C111.718 38.7217 111.067 39.0716 110.741 39.7715V44.9717C111.099 45.7041 111.758 46.0703 112.719 46.0703C114.029 46.0703 114.704 44.9391 114.745 42.6768V42.2373ZM120.165 42.2739C120.165 40.9556 120.421 39.7837 120.934 38.7583C121.447 37.7248 122.183 36.9313 123.144 36.3779C124.104 35.8245 125.231 35.5479 126.525 35.5479C128.502 35.5479 130.061 36.1623 131.2 37.3911C132.34 38.6118 132.909 40.276 132.909 42.3838V42.5303C132.909 44.5892 132.335 46.2249 131.188 47.4375C130.049 48.6419 128.502 49.2441 126.549 49.2441C124.669 49.2441 123.16 48.6826 122.021 47.5596C120.881 46.4284 120.267 44.8984 120.177 42.9697L120.165 42.2739ZM124.279 42.5303C124.279 43.751 124.47 44.6462 124.853 45.2158C125.235 45.7855 125.801 46.0703 126.549 46.0703C128.014 46.0703 128.763 44.9432 128.795 42.689V42.2739C128.795 39.9058 128.039 38.7217 126.525 38.7217C125.15 38.7217 124.405 39.743 124.291 41.7856L124.279 42.5303ZM141.637 45.2891C141.637 44.9391 141.454 44.6584 141.088 44.4468C140.722 44.2352 140.026 44.0155 139 43.7876C137.975 43.5597 137.129 43.2627 136.461 42.8965C135.794 42.5221 135.285 42.0705 134.936 41.5415C134.586 41.0125 134.411 40.4062 134.411 39.7227C134.411 38.5101 134.911 37.5132 135.912 36.7319C136.913 35.9425 138.223 35.5479 139.843 35.5479C141.584 35.5479 142.984 35.9425 144.042 36.7319C145.1 37.5213 145.629 38.5589 145.629 39.8447H141.503C141.503 38.7868 140.945 38.2578 139.831 38.2578C139.399 38.2578 139.037 38.3799 138.744 38.624C138.451 38.86 138.305 39.1571 138.305 39.5151C138.305 39.8813 138.484 40.1784 138.842 40.4062C139.2 40.6341 139.77 40.8213 140.551 40.9678C141.34 41.1143 142.032 41.2892 142.626 41.4927C144.612 42.1763 145.604 43.401 145.604 45.167C145.604 46.3714 145.067 47.3521 143.993 48.1089C142.927 48.8657 141.544 49.2441 139.843 49.2441C138.712 49.2441 137.702 49.0407 136.815 48.6338C135.928 48.2269 135.237 47.6735 134.74 46.9736C134.244 46.2738 133.996 45.5373 133.996 44.7642H137.841C137.857 45.3745 138.061 45.8221 138.451 46.1069C138.842 46.3836 139.342 46.522 139.953 46.522C140.514 46.522 140.933 46.408 141.21 46.1802C141.495 45.9523 141.637 45.6553 141.637 45.2891ZM152.331 32.5083V35.792H154.503V38.6484H152.331V44.6909C152.331 45.1873 152.42 45.5332 152.599 45.7285C152.778 45.9238 153.132 46.0215 153.661 46.0215C154.068 46.0215 154.41 45.9971 154.687 45.9482V48.8901C153.946 49.1261 153.173 49.2441 152.367 49.2441C150.951 49.2441 149.905 48.9105 149.23 48.2432C148.555 47.5758 148.217 46.5627 148.217 45.2036V38.6484H146.532V35.792H148.217V32.5083H152.331ZM163.048 45.2891C163.048 44.9391 162.865 44.6584 162.499 44.4468C162.133 44.2352 161.437 44.0155 160.412 43.7876C159.386 43.5597 158.54 43.2627 157.873 42.8965C157.205 42.5221 156.697 42.0705 156.347 41.5415C155.997 41.0125 155.822 40.4062 155.822 39.7227C155.822 38.5101 156.322 37.5132 157.323 36.7319C158.324 35.9425 159.634 35.5479 161.254 35.5479C162.995 35.5479 164.395 35.9425 165.453 36.7319C166.511 37.5213 167.04 38.5589 167.04 39.8447H162.914C162.914 38.7868 162.357 38.2578 161.242 38.2578C160.81 38.2578 160.448 38.3799 160.155 38.624C159.862 38.86 159.716 39.1571 159.716 39.5151C159.716 39.8813 159.895 40.1784 160.253 40.4062C160.611 40.6341 161.181 40.8213 161.962 40.9678C162.751 41.1143 163.443 41.2892 164.037 41.4927C166.023 42.1763 167.016 43.401 167.016 45.167C167.016 46.3714 166.479 47.3521 165.404 48.1089C164.338 48.8657 162.955 49.2441 161.254 49.2441C160.123 49.2441 159.114 49.0407 158.227 48.6338C157.34 48.2269 156.648 47.6735 156.151 46.9736C155.655 46.2738 155.407 45.5373 155.407 44.7642H159.252C159.268 45.3745 159.472 45.8221 159.862 46.1069C160.253 46.3836 160.753 46.522 161.364 46.522C161.925 46.522 162.344 46.408 162.621 46.1802C162.906 45.9523 163.048 45.6553 163.048 45.2891ZM176.085 49V38.6484H174.169V35.792H176.085V34.7422C176.085 33.2367 176.529 32.0688 177.416 31.2388C178.303 30.4087 179.548 29.9937 181.151 29.9937C181.737 29.9937 182.38 30.0791 183.08 30.25L183.092 33.2773C182.84 33.2041 182.502 33.1675 182.079 33.1675C180.834 33.1675 180.211 33.7046 180.211 34.7788V35.792H182.787V38.6484H180.211V49H176.085ZM192.223 39.5151L190.868 39.4175C189.574 39.4175 188.744 39.8244 188.378 40.6382V49H184.264V35.792H188.122L188.256 37.4888C188.948 36.1948 189.912 35.5479 191.149 35.5479C191.588 35.5479 191.971 35.5967 192.296 35.6943L192.223 39.5151ZM192.748 42.2739C192.748 40.9556 193.004 39.7837 193.517 38.7583C194.03 37.7248 194.766 36.9313 195.727 36.3779C196.687 35.8245 197.814 35.5479 199.108 35.5479C201.085 35.5479 202.644 36.1623 203.783 37.3911C204.923 38.6118 205.492 40.276 205.492 42.3838V42.5303C205.492 44.5892 204.918 46.2249 203.771 47.4375C202.632 48.6419 201.085 49.2441 199.132 49.2441C197.252 49.2441 195.743 48.6826 194.604 47.5596C193.464 46.4284 192.85 44.8984 192.76 42.9697L192.748 42.2739ZM196.862 42.5303C196.862 43.751 197.053 44.6462 197.436 45.2158C197.818 45.7855 198.384 46.0703 199.132 46.0703C200.597 46.0703 201.346 44.9432 201.378 42.689V42.2739C201.378 39.9058 200.622 38.7217 199.108 38.7217C197.733 38.7217 196.988 39.743 196.874 41.7856L196.862 42.5303ZM211.193 35.792L211.327 37.3423C212.263 36.146 213.52 35.5479 215.099 35.5479C216.767 35.5479 217.895 36.2111 218.48 37.5376C219.376 36.2111 220.67 35.5479 222.362 35.5479C225.04 35.5479 226.415 37.1673 226.488 40.4062V49H222.362V40.6626C222.362 39.9871 222.248 39.4948 222.021 39.1855C221.793 38.8763 221.378 38.7217 220.775 38.7217C219.962 38.7217 219.355 39.0838 218.957 39.8081L218.969 39.979V49H214.843V40.687C214.843 39.9953 214.733 39.4948 214.513 39.1855C214.293 38.8763 213.874 38.7217 213.256 38.7217C212.466 38.7217 211.864 39.0838 211.449 39.8081V49H207.335V35.792H211.193ZM242.931 47.5718C242.06 48.6867 240.884 49.2441 239.403 49.2441C237.955 49.2441 236.856 48.825 236.107 47.9868C235.367 47.1405 234.997 45.9279 234.997 44.3491V35.792H239.11V44.3735C239.11 45.5047 239.66 46.0703 240.758 46.0703C241.702 46.0703 242.374 45.7326 242.772 45.0571V35.792H246.911V49H243.053L242.931 47.5718ZM252.953 35.792L253.087 37.3423C253.999 36.146 255.256 35.5479 256.859 35.5479C258.235 35.5479 259.26 35.9588 259.936 36.7808C260.619 37.6027 260.973 38.8397 260.998 40.4917V49H256.872V40.6626C256.872 39.9953 256.737 39.507 256.469 39.1978C256.2 38.8804 255.712 38.7217 255.004 38.7217C254.198 38.7217 253.6 39.0391 253.209 39.6738V49H249.096V35.792H252.953ZM268.554 44.105L270.641 35.792H274.975L270.666 49H266.466L262.157 35.792H266.503L268.554 44.105ZM282.421 49.2441C280.395 49.2441 278.755 48.6419 277.501 47.4375C276.248 46.2249 275.622 44.6502 275.622 42.7134V42.3716C275.622 41.0207 275.87 39.8285 276.366 38.7949C276.871 37.7614 277.603 36.9639 278.563 36.4023C279.524 35.8327 280.663 35.5479 281.981 35.5479C283.837 35.5479 285.302 36.1257 286.376 37.2812C287.45 38.4287 287.987 40.0319 287.987 42.0908V43.6899H279.809C279.955 44.4305 280.277 45.0124 280.773 45.4355C281.269 45.8587 281.912 46.0703 282.702 46.0703C284.004 46.0703 285.021 45.6146 285.753 44.7031L287.633 46.9248C287.121 47.6328 286.392 48.1984 285.448 48.6216C284.512 49.0366 283.503 49.2441 282.421 49.2441ZM281.957 38.7217C280.753 38.7217 280.036 39.5192 279.809 41.1143H283.959V40.7969C283.975 40.1377 283.808 39.6291 283.458 39.271C283.109 38.9048 282.608 38.7217 281.957 38.7217ZM297.643 39.5151L296.288 39.4175C294.994 39.4175 294.164 39.8244 293.798 40.6382V49H289.684V35.792H293.542L293.676 37.4888C294.368 36.1948 295.332 35.5479 296.569 35.5479C297.008 35.5479 297.391 35.5967 297.716 35.6943L297.643 39.5151ZM303.466 49H299.34V35.792H303.466V49ZM299.096 32.3862C299.096 31.8003 299.307 31.3201 299.73 30.9458C300.154 30.5715 300.703 30.3843 301.378 30.3843C302.054 30.3843 302.603 30.5715 303.026 30.9458C303.45 31.3201 303.661 31.8003 303.661 32.3862C303.661 32.9722 303.45 33.4523 303.026 33.8267C302.603 34.201 302.054 34.3882 301.378 34.3882C300.703 34.3882 300.154 34.201 299.73 33.8267C299.307 33.4523 299.096 32.9722 299.096 32.3862ZM306.969 49V38.6484H305.053V35.792H306.969V35.3525C306.994 33.5947 307.571 32.2479 308.703 31.312C309.777 30.4331 311.278 29.9937 313.207 29.9937C314.42 29.9937 315.852 30.2297 317.504 30.7017L316.942 33.9487L316.259 33.7656C315.372 33.5296 314.436 33.4116 313.451 33.4116C311.881 33.4116 311.095 34.1278 311.095 35.5601V35.792H313.683V38.6484H311.095V49H306.969ZM319.396 49H315.258V35.792H319.396V49ZM328.295 49.2441C326.269 49.2441 324.629 48.6419 323.375 47.4375C322.122 46.2249 321.496 44.6502 321.496 42.7134V42.3716C321.496 41.0207 321.744 39.8285 322.24 38.7949C322.745 37.7614 323.477 36.9639 324.438 36.4023C325.398 35.8327 326.537 35.5479 327.855 35.5479C329.711 35.5479 331.176 36.1257 332.25 37.2812C333.324 38.4287 333.861 40.0319 333.861 42.0908V43.6899H325.683C325.829 44.4305 326.151 45.0124 326.647 45.4355C327.143 45.8587 327.786 46.0703 328.576 46.0703C329.878 46.0703 330.895 45.6146 331.627 44.7031L333.507 46.9248C332.995 47.6328 332.266 48.1984 331.322 48.6216C330.386 49.0366 329.377 49.2441 328.295 49.2441ZM327.831 38.7217C326.627 38.7217 325.91 39.5192 325.683 41.1143H329.833V40.7969C329.849 40.1377 329.682 39.6291 329.333 39.271C328.983 38.9048 328.482 38.7217 327.831 38.7217ZM335.009 42.2983C335.009 40.2069 335.46 38.5589 336.364 37.3545C337.267 36.1501 338.528 35.5479 340.148 35.5479C341.328 35.5479 342.321 36.0117 343.126 36.9395V30.25H347.252V49H343.554L343.346 47.584C342.5 48.6908 341.426 49.2441 340.124 49.2441C338.553 49.2441 337.308 48.6419 336.388 47.4375C335.469 46.2331 335.009 44.52 335.009 42.2983ZM339.123 42.5547C339.123 44.8984 339.806 46.0703 341.173 46.0703C342.085 46.0703 342.736 45.6878 343.126 44.9229V39.8936C342.752 39.1123 342.109 38.7217 341.198 38.7217C339.928 38.7217 339.241 39.7471 339.135 41.7979L339.123 42.5547ZM363.256 49C363.109 48.7314 362.979 48.3368 362.865 47.8159C362.108 48.7681 361.05 49.2441 359.691 49.2441C358.446 49.2441 357.388 48.8698 356.518 48.1211C355.647 47.3643 355.211 46.4162 355.211 45.2769C355.211 43.8446 355.74 42.7622 356.798 42.0298C357.856 41.2974 359.394 40.9312 361.413 40.9312H362.682V40.2354C362.682 39.0228 362.157 38.4165 361.107 38.4165C360.131 38.4165 359.643 38.8966 359.643 39.8569H355.529C355.529 38.5793 356.07 37.5417 357.152 36.7441C358.243 35.9466 359.63 35.5479 361.315 35.5479C363 35.5479 364.33 35.9588 365.307 36.7808C366.283 37.6027 366.784 38.7298 366.808 40.1621V46.0093C366.824 47.2218 367.012 48.1496 367.37 48.7925V49H363.256ZM360.68 46.3145C361.193 46.3145 361.616 46.2046 361.95 45.9849C362.292 45.7651 362.536 45.5169 362.682 45.2402V43.1284H361.486C360.054 43.1284 359.337 43.7713 359.337 45.0571C359.337 45.4315 359.464 45.7367 359.716 45.9727C359.968 46.2005 360.29 46.3145 360.68 46.3145ZM374.682 46.0703C375.259 46.0703 375.707 45.9157 376.024 45.6064C376.342 45.2891 376.496 44.8496 376.488 44.2881H380.346C380.346 45.7367 379.825 46.9248 378.783 47.8525C377.75 48.7803 376.415 49.2441 374.779 49.2441C372.859 49.2441 371.345 48.6419 370.238 47.4375C369.132 46.2331 368.578 44.5648 368.578 42.4326V42.2617C368.578 40.9271 368.822 39.7511 369.311 38.7339C369.807 37.7085 370.519 36.9232 371.447 36.3779C372.375 35.8245 373.473 35.5479 374.743 35.5479C376.46 35.5479 377.823 36.0239 378.832 36.9761C379.841 37.9282 380.346 39.2181 380.346 40.8457H376.488C376.488 40.1621 376.321 39.6372 375.988 39.271C375.654 38.9048 375.207 38.7217 374.645 38.7217C373.579 38.7217 372.956 39.4012 372.777 40.7603C372.72 41.1916 372.692 41.7856 372.692 42.5425C372.692 43.869 372.851 44.7886 373.168 45.3013C373.485 45.814 373.99 46.0703 374.682 46.0703ZM387.67 46.0703C388.248 46.0703 388.695 45.9157 389.013 45.6064C389.33 45.2891 389.485 44.8496 389.477 44.2881H393.334C393.334 45.7367 392.813 46.9248 391.771 47.8525C390.738 48.7803 389.403 49.2441 387.768 49.2441C385.847 49.2441 384.333 48.6419 383.227 47.4375C382.12 46.2331 381.566 44.5648 381.566 42.4326V42.2617C381.566 40.9271 381.811 39.7511 382.299 38.7339C382.795 37.7085 383.507 36.9232 384.435 36.3779C385.363 35.8245 386.461 35.5479 387.731 35.5479C389.448 35.5479 390.811 36.0239 391.82 36.9761C392.829 37.9282 393.334 39.2181 393.334 40.8457H389.477C389.477 40.1621 389.31 39.6372 388.976 39.271C388.642 38.9048 388.195 38.7217 387.633 38.7217C386.567 38.7217 385.945 39.4012 385.766 40.7603C385.709 41.1916 385.68 41.7856 385.68 42.5425C385.68 43.869 385.839 44.7886 386.156 45.3013C386.474 45.814 386.978 46.0703 387.67 46.0703ZM394.555 42.2739C394.555 40.9556 394.811 39.7837 395.324 38.7583C395.836 37.7248 396.573 36.9313 397.533 36.3779C398.493 35.8245 399.621 35.5479 400.915 35.5479C402.892 35.5479 404.451 36.1623 405.59 37.3911C406.729 38.6118 407.299 40.276 407.299 42.3838V42.5303C407.299 44.5892 406.725 46.2249 405.578 47.4375C404.438 48.6419 402.892 49.2441 400.939 49.2441C399.059 49.2441 397.549 48.6826 396.41 47.5596C395.271 46.4284 394.656 44.8984 394.567 42.9697L394.555 42.2739ZM398.668 42.5303C398.668 43.751 398.86 44.6462 399.242 45.2158C399.625 45.7855 400.19 46.0703 400.939 46.0703C402.404 46.0703 403.153 44.9432 403.185 42.689V42.2739C403.185 39.9058 402.428 38.7217 400.915 38.7217C399.539 38.7217 398.795 39.743 398.681 41.7856L398.668 42.5303ZM416.979 47.5718C416.108 48.6867 414.932 49.2441 413.451 49.2441C412.003 49.2441 410.904 48.825 410.155 47.9868C409.415 47.1405 409.044 45.9279 409.044 44.3491V35.792H413.158V44.3735C413.158 45.5047 413.708 46.0703 414.806 46.0703C415.75 46.0703 416.422 45.7326 416.82 45.0571V35.792H420.958V49H417.101L416.979 47.5718ZM427.001 35.792L427.135 37.3423C428.047 36.146 429.304 35.5479 430.907 35.5479C432.283 35.5479 433.308 35.9588 433.983 36.7808C434.667 37.6027 435.021 38.8397 435.045 40.4917V49H430.919V40.6626C430.919 39.9953 430.785 39.507 430.517 39.1978C430.248 38.8804 429.76 38.7217 429.052 38.7217C428.246 38.7217 427.648 39.0391 427.257 39.6738V49H423.144V35.792H427.001ZM442.125 32.5083V35.792H444.298V38.6484H442.125V44.6909C442.125 45.1873 442.215 45.5332 442.394 45.7285C442.573 45.9238 442.927 46.0215 443.456 46.0215C443.863 46.0215 444.205 45.9971 444.481 45.9482V48.8901C443.741 49.1261 442.968 49.2441 442.162 49.2441C440.746 49.2441 439.7 48.9105 439.025 48.2432C438.349 47.5758 438.012 46.5627 438.012 45.2036V38.6484H436.327V35.792H438.012V32.5083H442.125ZM452.843 45.2891C452.843 44.9391 452.66 44.6584 452.294 44.4468C451.928 44.2352 451.232 44.0155 450.207 43.7876C449.181 43.5597 448.335 43.2627 447.667 42.8965C447 42.5221 446.492 42.0705 446.142 41.5415C445.792 41.0125 445.617 40.4062 445.617 39.7227C445.617 38.5101 446.117 37.5132 447.118 36.7319C448.119 35.9425 449.429 35.5479 451.049 35.5479C452.79 35.5479 454.19 35.9425 455.248 36.7319C456.306 37.5213 456.835 38.5589 456.835 39.8447H452.709C452.709 38.7868 452.152 38.2578 451.037 38.2578C450.605 38.2578 450.243 38.3799 449.95 38.624C449.657 38.86 449.511 39.1571 449.511 39.5151C449.511 39.8813 449.69 40.1784 450.048 40.4062C450.406 40.6341 450.976 40.8213 451.757 40.9678C452.546 41.1143 453.238 41.2892 453.832 41.4927C455.818 42.1763 456.811 43.401 456.811 45.167C456.811 46.3714 456.273 47.3521 455.199 48.1089C454.133 48.8657 452.75 49.2441 451.049 49.2441C449.918 49.2441 448.909 49.0407 448.021 48.6338C447.134 48.2269 446.443 47.6735 445.946 46.9736C445.45 46.2738 445.202 45.5373 445.202 44.7642H449.047C449.063 45.3745 449.267 45.8221 449.657 46.1069C450.048 46.3836 450.548 46.522 451.159 46.522C451.72 46.522 452.139 46.408 452.416 46.1802C452.701 45.9523 452.843 45.6553 452.843 45.2891ZM465.88 49V38.6484H463.964V35.792H465.88V34.7422C465.88 33.2367 466.324 32.0688 467.211 31.2388C468.098 30.4087 469.343 29.9937 470.946 29.9937C471.532 29.9937 472.175 30.0791 472.875 30.25L472.887 33.2773C472.635 33.2041 472.297 33.1675 471.874 33.1675C470.629 33.1675 470.006 33.7046 470.006 34.7788V35.792H472.582V38.6484H470.006V49H465.88ZM473.51 42.2739C473.51 40.9556 473.766 39.7837 474.279 38.7583C474.792 37.7248 475.528 36.9313 476.488 36.3779C477.449 35.8245 478.576 35.5479 479.87 35.5479C481.847 35.5479 483.406 36.1623 484.545 37.3911C485.684 38.6118 486.254 40.276 486.254 42.3838V42.5303C486.254 44.5892 485.68 46.2249 484.533 47.4375C483.393 48.6419 481.847 49.2441 479.894 49.2441C478.014 49.2441 476.505 48.6826 475.365 47.5596C474.226 46.4284 473.611 44.8984 473.522 42.9697L473.51 42.2739ZM477.624 42.5303C477.624 43.751 477.815 44.6462 478.197 45.2158C478.58 45.7855 479.145 46.0703 479.894 46.0703C481.359 46.0703 482.108 44.9432 482.14 42.689V42.2739C482.14 39.9058 481.383 38.7217 479.87 38.7217C478.494 38.7217 477.75 39.743 477.636 41.7856L477.624 42.5303ZM496.056 39.5151L494.701 39.4175C493.407 39.4175 492.577 39.8244 492.211 40.6382V49H488.097V35.792H491.955L492.089 37.4888C492.781 36.1948 493.745 35.5479 494.982 35.5479C495.421 35.5479 495.804 35.5967 496.129 35.6943L496.056 39.5151ZM507.653 35.792L507.787 37.3423C508.723 36.146 509.98 35.5479 511.559 35.5479C513.227 35.5479 514.354 36.2111 514.94 37.5376C515.836 36.2111 517.13 35.5479 518.822 35.5479C521.5 35.5479 522.875 37.1673 522.948 40.4062V49H518.822V40.6626C518.822 39.9871 518.708 39.4948 518.48 39.1855C518.253 38.8763 517.838 38.7217 517.235 38.7217C516.422 38.7217 515.815 39.0838 515.417 39.8081L515.429 39.979V49H511.303V40.687C511.303 39.9953 511.193 39.4948 510.973 39.1855C510.753 38.8763 510.334 38.7217 509.716 38.7217C508.926 38.7217 508.324 39.0838 507.909 39.8081V49H503.795V35.792H507.653ZM532.738 49C532.592 48.7314 532.462 48.3368 532.348 47.8159C531.591 48.7681 530.533 49.2441 529.174 49.2441C527.929 49.2441 526.871 48.8698 526 48.1211C525.129 47.3643 524.694 46.4162 524.694 45.2769C524.694 43.8446 525.223 42.7622 526.281 42.0298C527.339 41.2974 528.877 40.9312 530.895 40.9312H532.165V40.2354C532.165 39.0228 531.64 38.4165 530.59 38.4165C529.613 38.4165 529.125 38.8966 529.125 39.8569H525.011C525.011 38.5793 525.552 37.5417 526.635 36.7441C527.725 35.9466 529.113 35.5479 530.797 35.5479C532.482 35.5479 533.812 35.9588 534.789 36.7808C535.766 37.6027 536.266 38.7298 536.291 40.1621V46.0093C536.307 47.2218 536.494 48.1496 536.852 48.7925V49H532.738ZM530.163 46.3145C530.675 46.3145 531.098 46.2046 531.432 45.9849C531.774 45.7651 532.018 45.5169 532.165 45.2402V43.1284H530.968C529.536 43.1284 528.82 43.7713 528.82 45.0571C528.82 45.4315 528.946 45.7367 529.198 45.9727C529.451 46.2005 529.772 46.3145 530.163 46.3145ZM542.357 35.792L542.492 37.3423C543.403 36.146 544.66 35.5479 546.264 35.5479C547.639 35.5479 548.664 35.9588 549.34 36.7808C550.023 37.6027 550.377 38.8397 550.402 40.4917V49H546.276V40.6626C546.276 39.9953 546.142 39.507 545.873 39.1978C545.604 38.8804 545.116 38.7217 544.408 38.7217C543.603 38.7217 543.004 39.0391 542.614 39.6738V49H538.5V35.792H542.357ZM560.558 47.5718C559.687 48.6867 558.511 49.2441 557.03 49.2441C555.582 49.2441 554.483 48.825 553.734 47.9868C552.994 47.1405 552.624 45.9279 552.624 44.3491V35.792H556.737V44.3735C556.737 45.5047 557.287 46.0703 558.385 46.0703C559.329 46.0703 560.001 45.7326 560.399 45.0571V35.792H564.538V49H560.68L560.558 47.5718ZM574.242 49C574.096 48.7314 573.965 48.3368 573.852 47.8159C573.095 48.7681 572.037 49.2441 570.678 49.2441C569.433 49.2441 568.375 48.8698 567.504 48.1211C566.633 47.3643 566.198 46.4162 566.198 45.2769C566.198 43.8446 566.727 42.7622 567.785 42.0298C568.843 41.2974 570.381 40.9312 572.399 40.9312H573.668V40.2354C573.668 39.0228 573.144 38.4165 572.094 38.4165C571.117 38.4165 570.629 38.8966 570.629 39.8569H566.515C566.515 38.5793 567.056 37.5417 568.139 36.7441C569.229 35.9466 570.617 35.5479 572.301 35.5479C573.986 35.5479 575.316 35.9588 576.293 36.7808C577.27 37.6027 577.77 38.7298 577.794 40.1621V46.0093C577.811 47.2218 577.998 48.1496 578.356 48.7925V49H574.242ZM571.667 46.3145C572.179 46.3145 572.602 46.2046 572.936 45.9849C573.278 45.7651 573.522 45.5169 573.668 45.2402V43.1284H572.472C571.04 43.1284 570.324 43.7713 570.324 45.0571C570.324 45.4315 570.45 45.7367 570.702 45.9727C570.954 46.2005 571.276 46.3145 571.667 46.3145ZM584.423 49H580.297V30.25H584.423V49ZM601.183 39.5151L599.828 39.4175C598.534 39.4175 597.704 39.8244 597.338 40.6382V49H593.224V35.792H597.082L597.216 37.4888C597.908 36.1948 598.872 35.5479 600.109 35.5479C600.548 35.5479 600.931 35.5967 601.256 35.6943L601.183 39.5151ZM608.812 49.2441C606.786 49.2441 605.146 48.6419 603.893 47.4375C602.64 46.2249 602.013 44.6502 602.013 42.7134V42.3716C602.013 41.0207 602.261 39.8285 602.758 38.7949C603.262 37.7614 603.995 36.9639 604.955 36.4023C605.915 35.8327 607.055 35.5479 608.373 35.5479C610.229 35.5479 611.693 36.1257 612.768 37.2812C613.842 38.4287 614.379 40.0319 614.379 42.0908V43.6899H606.2C606.347 44.4305 606.668 45.0124 607.165 45.4355C607.661 45.8587 608.304 46.0703 609.093 46.0703C610.395 46.0703 611.413 45.6146 612.145 44.7031L614.025 46.9248C613.512 47.6328 612.784 48.1984 611.84 48.6216C610.904 49.0366 609.895 49.2441 608.812 49.2441ZM608.349 38.7217C607.144 38.7217 606.428 39.5192 606.2 41.1143H610.351V40.7969C610.367 40.1377 610.2 39.6291 609.85 39.271C609.5 38.9048 609 38.7217 608.349 38.7217ZM621.142 44.105L623.229 35.792H627.562L623.253 49H619.054L614.745 35.792H619.091L621.142 44.105ZM633.129 49H629.003V35.792H633.129V49ZM628.759 32.3862C628.759 31.8003 628.97 31.3201 629.394 30.9458C629.817 30.5715 630.366 30.3843 631.042 30.3843C631.717 30.3843 632.266 30.5715 632.689 30.9458C633.113 31.3201 633.324 31.8003 633.324 32.3862C633.324 32.9722 633.113 33.4523 632.689 33.8267C632.266 34.201 631.717 34.3882 631.042 34.3882C630.366 34.3882 629.817 34.201 629.394 33.8267C628.97 33.4523 628.759 32.9722 628.759 32.3862ZM642.064 49.2441C640.038 49.2441 638.398 48.6419 637.145 47.4375C635.892 46.2249 635.265 44.6502 635.265 42.7134V42.3716C635.265 41.0207 635.513 39.8285 636.01 38.7949C636.514 37.7614 637.247 36.9639 638.207 36.4023C639.167 35.8327 640.307 35.5479 641.625 35.5479C643.48 35.5479 644.945 36.1257 646.02 37.2812C647.094 38.4287 647.631 40.0319 647.631 42.0908V43.6899H639.452C639.599 44.4305 639.92 45.0124 640.417 45.4355C640.913 45.8587 641.556 46.0703 642.345 46.0703C643.647 46.0703 644.665 45.6146 645.397 44.7031L647.277 46.9248C646.764 47.6328 646.036 48.1984 645.092 48.6216C644.156 49.0366 643.147 49.2441 642.064 49.2441ZM641.601 38.7217C640.396 38.7217 639.68 39.5192 639.452 41.1143H643.603V40.7969C643.619 40.1377 643.452 39.6291 643.102 39.271C642.752 38.9048 642.252 38.7217 641.601 38.7217ZM660.705 43.5801L662.035 35.792H665.978L662.865 49H659.386L657.201 41.1631L655.004 49H651.525L648.412 35.792H652.355L653.661 43.7632L655.761 35.792H658.629L660.705 43.5801Z" fill="black"/>
<path d="M62.438 300.68H56.5664L55.541 304H50.9634L57.4819 286.227H61.5103L68.0776 304H63.4756L62.438 300.68ZM57.5918 297.372H61.4126L59.4961 291.207L57.5918 297.372ZM74.7793 301.07C75.3571 301.07 75.8047 300.916 76.1221 300.606C76.4395 300.289 76.5941 299.85 76.5859 299.288H80.4434C80.4434 300.737 79.9225 301.925 78.8809 302.853C77.8473 303.78 76.5127 304.244 74.877 304.244C72.9564 304.244 71.4427 303.642 70.3359 302.438C69.2292 301.233 68.6758 299.565 68.6758 297.433V297.262C68.6758 295.927 68.9199 294.751 69.4082 293.734C69.9046 292.708 70.6167 291.923 71.5444 291.378C72.4722 290.825 73.5708 290.548 74.8403 290.548C76.5575 290.548 77.9206 291.024 78.9297 291.976C79.9388 292.928 80.4434 294.218 80.4434 295.846H76.5859C76.5859 295.162 76.4191 294.637 76.0854 294.271C75.7518 293.905 75.3042 293.722 74.7427 293.722C73.6766 293.722 73.054 294.401 72.875 295.76C72.818 296.192 72.7896 296.786 72.7896 297.542C72.7896 298.869 72.9482 299.789 73.2656 300.301C73.583 300.814 74.0876 301.07 74.7793 301.07ZM86.9741 287.508V290.792H89.147V293.648H86.9741V299.691C86.9741 300.187 87.0636 300.533 87.2427 300.729C87.4217 300.924 87.7757 301.021 88.3047 301.021C88.7116 301.021 89.0534 300.997 89.3301 300.948V303.89C88.5895 304.126 87.8164 304.244 87.0107 304.244C85.5947 304.244 84.549 303.91 83.8735 303.243C83.1981 302.576 82.8604 301.563 82.8604 300.204V293.648H81.1758V290.792H82.8604V287.508H86.9741ZM95.1162 304H90.9902V290.792H95.1162V304ZM90.7461 287.386C90.7461 286.8 90.9577 286.32 91.3809 285.946C91.804 285.571 92.3534 285.384 93.0288 285.384C93.7043 285.384 94.2536 285.571 94.6768 285.946C95.0999 286.32 95.3115 286.8 95.3115 287.386C95.3115 287.972 95.0999 288.452 94.6768 288.827C94.2536 289.201 93.7043 289.388 93.0288 289.388C92.3534 289.388 91.804 289.201 91.3809 288.827C90.9577 288.452 90.7461 287.972 90.7461 287.386ZM97.1426 297.274C97.1426 295.956 97.3989 294.784 97.9116 293.758C98.4243 292.725 99.1608 291.931 100.121 291.378C101.081 290.825 102.208 290.548 103.502 290.548C105.48 290.548 107.038 291.162 108.178 292.391C109.317 293.612 109.887 295.276 109.887 297.384V297.53C109.887 299.589 109.313 301.225 108.166 302.438C107.026 303.642 105.48 304.244 103.527 304.244C101.647 304.244 100.137 303.683 98.998 302.56C97.8587 301.428 97.2443 299.898 97.1548 297.97L97.1426 297.274ZM101.256 297.53C101.256 298.751 101.448 299.646 101.83 300.216C102.213 300.785 102.778 301.07 103.527 301.07C104.992 301.07 105.74 299.943 105.773 297.689V297.274C105.773 294.906 105.016 293.722 103.502 293.722C102.127 293.722 101.382 294.743 101.269 296.786L101.256 297.53ZM115.478 290.792L115.612 292.342C116.523 291.146 117.781 290.548 119.384 290.548C120.759 290.548 121.785 290.959 122.46 291.781C123.144 292.603 123.498 293.84 123.522 295.492V304H119.396V295.663C119.396 294.995 119.262 294.507 118.993 294.198C118.725 293.88 118.236 293.722 117.528 293.722C116.723 293.722 116.125 294.039 115.734 294.674V304H111.62V290.792H115.478Z" fill="black"/>
<rect x="16" y="77" width="688" height="2" fill="#E5E5E5"/>
<rect x="55" y="79" width="3" height="137" fill="#E5E5E5"/>
<path d="M36.8608 123H34.5903V107.949L30.0371 109.621V107.57L36.5068 105.141H36.8608V123ZM41.0845 152H29.439V150.376L35.5913 143.541C36.5028 142.507 37.1294 141.669 37.4712 141.026C37.8211 140.375 37.9961 139.703 37.9961 139.012C37.9961 138.084 37.7153 137.323 37.1538 136.729C36.5923 136.135 35.8436 135.838 34.9077 135.838C33.7847 135.838 32.9098 136.159 32.2832 136.802C31.6647 137.437 31.3555 138.324 31.3555 139.463H29.0972C29.0972 137.828 29.6221 136.505 30.6719 135.496C31.7298 134.487 33.1418 133.982 34.9077 133.982C36.5597 133.982 37.8659 134.418 38.8262 135.289C39.7865 136.151 40.2666 137.303 40.2666 138.743C40.2666 140.493 39.1517 142.576 36.9219 144.993L32.1611 150.157H41.0845V152ZM32.7227 171.015H34.4194C35.4855 170.998 36.3237 170.718 36.9341 170.172C37.5444 169.627 37.8496 168.891 37.8496 167.963C37.8496 165.88 36.812 164.838 34.7368 164.838C33.7603 164.838 32.979 165.119 32.3931 165.68C31.8153 166.234 31.5264 166.97 31.5264 167.89H29.2681C29.2681 166.482 29.7808 165.314 30.8062 164.386C31.8397 163.45 33.1499 162.982 34.7368 162.982C36.4132 162.982 37.7275 163.426 38.6797 164.313C39.6318 165.2 40.1079 166.433 40.1079 168.012C40.1079 168.785 39.8556 169.534 39.3511 170.258C38.8547 170.982 38.1751 171.523 37.3125 171.881C38.2891 172.191 39.0418 172.703 39.5708 173.419C40.1079 174.136 40.3765 175.01 40.3765 176.044C40.3765 177.639 39.8556 178.904 38.814 179.84C37.7723 180.776 36.4173 181.244 34.749 181.244C33.0807 181.244 31.7217 180.792 30.6719 179.889C29.6302 178.986 29.1094 177.794 29.1094 176.312H31.3799C31.3799 177.248 31.6851 177.997 32.2954 178.559C32.9058 179.12 33.7236 179.401 34.749 179.401C35.8395 179.401 36.6737 179.116 37.2515 178.546C37.8293 177.977 38.1182 177.159 38.1182 176.093C38.1182 175.059 37.8008 174.266 37.166 173.712C36.5312 173.159 35.6157 172.874 34.4194 172.858H32.7227V171.015Z" fill="#C4C4C4"/>
<path d="M91.8032 119.337C91.8032 118.645 91.5591 118.116 91.0708 117.75C90.5825 117.376 89.7036 116.985 88.4341 116.578C87.1646 116.163 86.1595 115.756 85.4189 115.357C83.4007 114.267 82.3916 112.798 82.3916 110.951C82.3916 109.99 82.6602 109.136 83.1973 108.387C83.7425 107.63 84.5197 107.04 85.5288 106.617C86.5461 106.194 87.6854 105.982 88.9468 105.982C90.2163 105.982 91.3475 106.214 92.3403 106.678C93.3332 107.134 94.1022 107.781 94.6475 108.619C95.2008 109.457 95.4775 110.41 95.4775 111.476H91.8154C91.8154 110.662 91.5591 110.031 91.0464 109.583C90.5337 109.128 89.8135 108.9 88.8857 108.9C87.9906 108.9 87.2948 109.091 86.7983 109.474C86.3019 109.848 86.0537 110.344 86.0537 110.963C86.0537 111.541 86.3426 112.025 86.9204 112.416C87.5063 112.806 88.3649 113.172 89.4961 113.514C91.5794 114.141 93.0972 114.918 94.0493 115.846C95.0015 116.773 95.4775 117.929 95.4775 119.312C95.4775 120.851 94.8957 122.059 93.7319 122.938C92.5682 123.809 91.0016 124.244 89.0322 124.244C87.665 124.244 86.4199 123.996 85.2969 123.5C84.1738 122.995 83.3153 122.307 82.7212 121.437C82.1353 120.566 81.8423 119.557 81.8423 118.409H85.5166C85.5166 120.37 86.6885 121.351 89.0322 121.351C89.903 121.351 90.5825 121.176 91.0708 120.826C91.5591 120.468 91.8032 119.972 91.8032 119.337ZM108.661 116.297H101.63V121.058H109.882V124H97.9678V106.227H109.857V109.193H101.63V113.429H108.661V116.297ZM115.692 121.058H123.468V124H112.03V106.227H115.692V121.058ZM136.273 116.297H129.242V121.058H137.494V124H125.58V106.227H137.47V109.193H129.242V113.429H136.273V116.297ZM153.595 118.08C153.457 119.992 152.749 121.498 151.471 122.596C150.202 123.695 148.525 124.244 146.442 124.244C144.163 124.244 142.369 123.479 141.059 121.949C139.757 120.411 139.105 118.303 139.105 115.626V114.54C139.105 112.831 139.407 111.325 140.009 110.023C140.611 108.721 141.47 107.724 142.584 107.032C143.708 106.332 145.01 105.982 146.491 105.982C148.542 105.982 150.194 106.532 151.447 107.63C152.7 108.729 153.424 110.271 153.62 112.257H149.958C149.868 111.109 149.547 110.279 148.993 109.767C148.448 109.246 147.614 108.985 146.491 108.985C145.27 108.985 144.354 109.425 143.744 110.304C143.142 111.174 142.833 112.529 142.816 114.369V115.711C142.816 117.632 143.105 119.036 143.683 119.923C144.269 120.81 145.189 121.253 146.442 121.253C147.573 121.253 148.415 120.997 148.969 120.484C149.53 119.964 149.852 119.162 149.933 118.08H153.595ZM169.013 109.193H163.568V124H159.906V109.193H154.535V106.227H169.013V109.193ZM89.7524 135.227H93.4146V147.531C93.4146 148.662 93.1623 149.663 92.6577 150.534C92.1613 151.397 91.4574 152.064 90.5459 152.536C89.6344 153.008 88.605 153.244 87.4575 153.244C85.5776 153.244 84.1128 152.768 83.063 151.816C82.0132 150.856 81.4883 149.501 81.4883 147.751H85.1748C85.1748 148.622 85.3579 149.265 85.7241 149.68C86.0903 150.095 86.6681 150.302 87.4575 150.302C88.1574 150.302 88.7148 150.062 89.1299 149.582C89.5449 149.102 89.7524 148.418 89.7524 147.531V135.227ZM111.151 144.516C111.151 146.266 110.842 147.8 110.224 149.118C109.605 150.437 108.718 151.454 107.562 152.17C106.415 152.886 105.097 153.244 103.607 153.244C102.134 153.244 100.82 152.89 99.6646 152.182C98.509 151.474 97.6138 150.465 96.979 149.155C96.3442 147.836 96.0228 146.323 96.0146 144.614V143.735C96.0146 141.985 96.328 140.447 96.9546 139.121C97.5894 137.786 98.4805 136.765 99.6279 136.057C100.784 135.34 102.102 134.982 103.583 134.982C105.064 134.982 106.378 135.34 107.526 136.057C108.681 136.765 109.573 137.786 110.199 139.121C110.834 140.447 111.151 141.981 111.151 143.723V144.516ZM107.44 143.71C107.44 141.847 107.107 140.431 106.439 139.462C105.772 138.494 104.82 138.01 103.583 138.01C102.354 138.01 101.406 138.49 100.739 139.45C100.071 140.402 99.7337 141.802 99.7256 143.649V144.516C99.7256 146.331 100.059 147.739 100.727 148.74C101.394 149.741 102.354 150.241 103.607 150.241C104.836 150.241 105.78 149.761 106.439 148.801C107.099 147.832 107.432 146.424 107.44 144.577V143.71ZM117.707 153H114.044V135.227H117.707V153ZM135.565 153H131.903L124.774 141.306V153H121.112V135.227H124.774L131.916 146.945V135.227H135.565V153ZM96.4297 176.873L98.8223 164.227H102.472L98.5293 182H94.8428L91.9497 170.11L89.0566 182H85.3701L81.4272 164.227H85.0771L87.4819 176.849L90.4116 164.227H93.5122L96.4297 176.873ZM118.927 182H115.265V174.383H108.124V182H104.462V164.227H108.124V171.429H115.265V164.227H118.927V182ZM132.831 174.297H125.8V179.058H134.052V182H122.138V164.227H134.027V167.193H125.8V171.429H132.831V174.297ZM142.78 175.494H139.862V182H136.2V164.227H142.804C144.904 164.227 146.523 164.694 147.663 165.63C148.802 166.566 149.372 167.889 149.372 169.598C149.372 170.81 149.107 171.823 148.578 172.637C148.057 173.443 147.264 174.086 146.198 174.566L150.043 181.829V182H146.112L142.78 175.494ZM139.862 172.527H142.816C143.736 172.527 144.448 172.295 144.953 171.832C145.457 171.36 145.709 170.713 145.709 169.891C145.709 169.052 145.469 168.393 144.989 167.913C144.517 167.433 143.789 167.193 142.804 167.193H139.862V172.527ZM162.86 174.297H155.829V179.058H164.081V182H152.167V164.227H164.057V167.193H155.829V171.429H162.86V174.297Z" fill="#113D96"/>
<path d="M179.755 112L176.068 110.902L176.63 109.059L180.316 110.426L180.207 106.227H182.074L181.952 110.487L185.578 109.144L186.139 111L182.392 112.11L184.809 115.418L183.295 116.566L181.024 113.05L178.827 116.48L177.301 115.37L179.755 112ZM265.204 117.542C265.204 119.553 264.744 121.172 263.825 122.401C262.905 123.63 261.66 124.244 260.089 124.244C258.486 124.244 257.225 123.736 256.305 122.718V129.078H254.047V110.792H256.11L256.22 112.257C257.139 111.118 258.417 110.548 260.053 110.548C261.64 110.548 262.893 111.146 263.812 112.342C264.74 113.539 265.204 115.203 265.204 117.335V117.542ZM262.946 117.286C262.946 115.797 262.628 114.621 261.994 113.758C261.359 112.896 260.488 112.464 259.381 112.464C258.014 112.464 256.989 113.071 256.305 114.283V120.594C256.981 121.799 258.014 122.401 259.406 122.401C260.488 122.401 261.347 121.974 261.981 121.119C262.624 120.257 262.946 118.979 262.946 117.286ZM267.487 117.274C267.487 115.98 267.739 114.816 268.244 113.783C268.756 112.749 269.464 111.952 270.368 111.39C271.279 110.829 272.317 110.548 273.48 110.548C275.279 110.548 276.732 111.17 277.838 112.416C278.953 113.661 279.511 115.317 279.511 117.384V117.542C279.511 118.828 279.263 119.984 278.766 121.009C278.278 122.027 277.574 122.82 276.654 123.39C275.743 123.959 274.693 124.244 273.505 124.244C271.715 124.244 270.262 123.622 269.147 122.376C268.04 121.131 267.487 119.483 267.487 117.433V117.274ZM269.757 117.542C269.757 119.007 270.095 120.183 270.771 121.07C271.454 121.957 272.366 122.401 273.505 122.401C274.652 122.401 275.564 121.953 276.239 121.058C276.915 120.155 277.252 118.893 277.252 117.274C277.252 115.825 276.907 114.653 276.215 113.758C275.531 112.855 274.62 112.403 273.48 112.403C272.366 112.403 271.466 112.847 270.783 113.734C270.099 114.621 269.757 115.89 269.757 117.542ZM290.033 120.497C290.033 119.886 289.801 119.414 289.337 119.081C288.882 118.739 288.08 118.446 286.933 118.202C285.793 117.958 284.886 117.665 284.21 117.323C283.543 116.981 283.047 116.574 282.721 116.102C282.404 115.63 282.245 115.069 282.245 114.417C282.245 113.335 282.701 112.42 283.612 111.671C284.532 110.922 285.704 110.548 287.128 110.548C288.625 110.548 289.838 110.934 290.766 111.708C291.701 112.481 292.169 113.469 292.169 114.674H289.899C289.899 114.055 289.634 113.522 289.105 113.075C288.585 112.627 287.925 112.403 287.128 112.403C286.306 112.403 285.663 112.582 285.199 112.94C284.735 113.299 284.503 113.766 284.503 114.344C284.503 114.889 284.719 115.3 285.15 115.577C285.582 115.854 286.359 116.118 287.482 116.371C288.613 116.623 289.529 116.924 290.229 117.274C290.928 117.624 291.445 118.047 291.779 118.543C292.121 119.032 292.292 119.63 292.292 120.338C292.292 121.518 291.819 122.466 290.875 123.182C289.931 123.89 288.707 124.244 287.201 124.244C286.143 124.244 285.207 124.057 284.394 123.683C283.58 123.308 282.941 122.787 282.477 122.12C282.021 121.445 281.793 120.716 281.793 119.935H284.052C284.092 120.692 284.394 121.294 284.955 121.742C285.525 122.181 286.273 122.401 287.201 122.401C288.056 122.401 288.739 122.23 289.252 121.888C289.773 121.538 290.033 121.074 290.033 120.497ZM298.297 107.594V110.792H300.763V112.538H298.297V120.729C298.297 121.257 298.407 121.656 298.627 121.925C298.847 122.185 299.221 122.315 299.75 122.315C300.01 122.315 300.368 122.267 300.824 122.169V124C300.23 124.163 299.652 124.244 299.091 124.244C298.082 124.244 297.321 123.939 296.808 123.329C296.295 122.718 296.039 121.852 296.039 120.729V112.538H293.634V110.792H296.039V107.594H298.297ZM311.103 120.497C311.103 119.886 310.871 119.414 310.407 119.081C309.951 118.739 309.149 118.446 308.002 118.202C306.863 117.958 305.955 117.665 305.28 117.323C304.612 116.981 304.116 116.574 303.791 116.102C303.473 115.63 303.314 115.069 303.314 114.417C303.314 113.335 303.77 112.42 304.682 111.671C305.601 110.922 306.773 110.548 308.197 110.548C309.695 110.548 310.907 110.934 311.835 111.708C312.771 112.481 313.239 113.469 313.239 114.674H310.968C310.968 114.055 310.704 113.522 310.175 113.075C309.654 112.627 308.995 112.403 308.197 112.403C307.375 112.403 306.732 112.582 306.269 112.94C305.805 113.299 305.573 113.766 305.573 114.344C305.573 114.889 305.788 115.3 306.22 115.577C306.651 115.854 307.428 116.118 308.551 116.371C309.682 116.623 310.598 116.924 311.298 117.274C311.998 117.624 312.514 118.047 312.848 118.543C313.19 119.032 313.361 119.63 313.361 120.338C313.361 121.518 312.889 122.466 311.945 123.182C311.001 123.89 309.776 124.244 308.271 124.244C307.213 124.244 306.277 124.057 305.463 123.683C304.649 123.308 304.01 122.787 303.546 122.12C303.091 121.445 302.863 120.716 302.863 119.935H305.121C305.162 120.692 305.463 121.294 306.024 121.742C306.594 122.181 307.343 122.401 308.271 122.401C309.125 122.401 309.809 122.23 310.321 121.888C310.842 121.538 311.103 121.074 311.103 120.497ZM153.241 151.694C152.362 152.727 151.072 153.244 149.372 153.244C147.964 153.244 146.889 152.837 146.149 152.023C145.417 151.201 145.046 149.989 145.038 148.386V139.792H147.296V148.325C147.296 150.327 148.11 151.328 149.738 151.328C151.463 151.328 152.611 150.685 153.18 149.399V139.792H155.438V153H153.29L153.241 151.694ZM166.571 149.497C166.571 148.886 166.339 148.414 165.875 148.081C165.42 147.739 164.618 147.446 163.471 147.202C162.331 146.958 161.424 146.665 160.749 146.323C160.081 145.981 159.585 145.574 159.259 145.102C158.942 144.63 158.783 144.069 158.783 143.417C158.783 142.335 159.239 141.42 160.15 140.671C161.07 139.922 162.242 139.548 163.666 139.548C165.163 139.548 166.376 139.934 167.304 140.708C168.24 141.481 168.708 142.469 168.708 143.674H166.437C166.437 143.055 166.173 142.522 165.644 142.075C165.123 141.627 164.464 141.403 163.666 141.403C162.844 141.403 162.201 141.582 161.737 141.94C161.273 142.299 161.042 142.766 161.042 143.344C161.042 143.889 161.257 144.3 161.688 144.577C162.12 144.854 162.897 145.118 164.02 145.371C165.151 145.623 166.067 145.924 166.767 146.274C167.466 146.624 167.983 147.047 168.317 147.543C168.659 148.032 168.83 148.63 168.83 149.338C168.83 150.518 168.358 151.466 167.414 152.182C166.47 152.89 165.245 153.244 163.739 153.244C162.681 153.244 161.745 153.057 160.932 152.683C160.118 152.308 159.479 151.787 159.015 151.12C158.559 150.445 158.332 149.716 158.332 148.935H160.59C160.631 149.692 160.932 150.294 161.493 150.742C162.063 151.181 162.812 151.401 163.739 151.401C164.594 151.401 165.277 151.23 165.79 150.888C166.311 150.538 166.571 150.074 166.571 149.497ZM177.252 153.244C175.462 153.244 174.005 152.658 172.882 151.486C171.759 150.306 171.198 148.732 171.198 146.762V146.347C171.198 145.037 171.446 143.869 171.942 142.844C172.447 141.81 173.147 141.005 174.042 140.427C174.945 139.841 175.922 139.548 176.972 139.548C178.689 139.548 180.023 140.113 180.976 141.245C181.928 142.376 182.404 143.995 182.404 146.103V147.043H173.456C173.489 148.345 173.867 149.399 174.591 150.205C175.324 151.002 176.251 151.401 177.375 151.401C178.172 151.401 178.847 151.238 179.401 150.913C179.954 150.587 180.438 150.156 180.854 149.619L182.233 150.693C181.126 152.394 179.466 153.244 177.252 153.244ZM176.972 141.403C176.06 141.403 175.295 141.737 174.677 142.404C174.058 143.063 173.676 143.991 173.529 145.188H180.146V145.017C180.08 143.869 179.771 142.982 179.218 142.355C178.664 141.721 177.916 141.403 176.972 141.403ZM191.413 141.818C191.071 141.761 190.701 141.733 190.302 141.733C188.821 141.733 187.816 142.364 187.287 143.625V153H185.028V139.792H187.226L187.262 141.318C188.003 140.138 189.053 139.548 190.412 139.548C190.851 139.548 191.185 139.605 191.413 139.719V141.818ZM201.19 149.497C201.19 148.886 200.958 148.414 200.495 148.081C200.039 147.739 199.237 147.446 198.09 147.202C196.951 146.958 196.043 146.665 195.368 146.323C194.7 145.981 194.204 145.574 193.878 145.102C193.561 144.63 193.402 144.069 193.402 143.417C193.402 142.335 193.858 141.42 194.77 140.671C195.689 139.922 196.861 139.548 198.285 139.548C199.783 139.548 200.995 139.934 201.923 140.708C202.859 141.481 203.327 142.469 203.327 143.674H201.056C201.056 143.055 200.792 142.522 200.263 142.075C199.742 141.627 199.083 141.403 198.285 141.403C197.463 141.403 196.82 141.582 196.356 141.94C195.893 142.299 195.661 142.766 195.661 143.344C195.661 143.889 195.876 144.3 196.308 144.577C196.739 144.854 197.516 145.118 198.639 145.371C199.77 145.623 200.686 145.924 201.386 146.274C202.086 146.624 202.602 147.047 202.936 147.543C203.278 148.032 203.449 148.63 203.449 149.338C203.449 150.518 202.977 151.466 202.033 152.182C201.089 152.89 199.864 153.244 198.358 153.244C197.3 153.244 196.365 153.057 195.551 152.683C194.737 152.308 194.098 151.787 193.634 151.12C193.179 150.445 192.951 149.716 192.951 148.935H195.209C195.25 149.692 195.551 150.294 196.112 150.742C196.682 151.181 197.431 151.401 198.358 151.401C199.213 151.401 199.896 151.23 200.409 150.888C200.93 150.538 201.19 150.074 201.19 149.497ZM211.994 146.274C211.994 144.98 212.246 143.816 212.75 142.783C213.263 141.749 213.971 140.952 214.875 140.39C215.786 139.829 216.824 139.548 217.987 139.548C219.786 139.548 221.238 140.17 222.345 141.416C223.46 142.661 224.018 144.317 224.018 146.384V146.542C224.018 147.828 223.769 148.984 223.273 150.009C222.785 151.027 222.081 151.82 221.161 152.39C220.25 152.959 219.2 153.244 218.012 153.244C216.221 153.244 214.769 152.622 213.654 151.376C212.547 150.131 211.994 148.483 211.994 146.433V146.274ZM214.264 146.542C214.264 148.007 214.602 149.183 215.277 150.07C215.961 150.957 216.872 151.401 218.012 151.401C219.159 151.401 220.071 150.953 220.746 150.058C221.422 149.155 221.759 147.893 221.759 146.274C221.759 144.825 221.413 143.653 220.722 142.758C220.038 141.855 219.127 141.403 217.987 141.403C216.872 141.403 215.973 141.847 215.29 142.734C214.606 143.621 214.264 144.89 214.264 146.542ZM228.986 139.792L229.059 141.452C230.068 140.183 231.387 139.548 233.014 139.548C235.806 139.548 237.213 141.123 237.238 144.272V153H234.979V144.26C234.971 143.308 234.752 142.604 234.32 142.148C233.897 141.692 233.234 141.464 232.331 141.464C231.598 141.464 230.955 141.66 230.402 142.05C229.848 142.441 229.417 142.954 229.108 143.588V153H226.85V139.792H228.986ZM254.999 151.694C254.12 152.727 252.83 153.244 251.129 153.244C249.722 153.244 248.647 152.837 247.907 152.023C247.174 151.201 246.804 149.989 246.796 148.386V139.792H249.054V148.325C249.054 150.327 249.868 151.328 251.496 151.328C253.221 151.328 254.368 150.685 254.938 149.399V139.792H257.196V153H255.048L254.999 151.694ZM268.329 149.497C268.329 148.886 268.097 148.414 267.633 148.081C267.178 147.739 266.376 147.446 265.229 147.202C264.089 146.958 263.182 146.665 262.506 146.323C261.839 145.981 261.343 145.574 261.017 145.102C260.7 144.63 260.541 144.069 260.541 143.417C260.541 142.335 260.997 141.42 261.908 140.671C262.828 139.922 264 139.548 265.424 139.548C266.921 139.548 268.134 139.934 269.062 140.708C269.997 141.481 270.465 142.469 270.465 143.674H268.195C268.195 143.055 267.93 142.522 267.401 142.075C266.881 141.627 266.221 141.403 265.424 141.403C264.602 141.403 263.959 141.582 263.495 141.94C263.031 142.299 262.799 142.766 262.799 143.344C262.799 143.889 263.015 144.3 263.446 144.577C263.878 144.854 264.655 145.118 265.778 145.371C266.909 145.623 267.825 145.924 268.524 146.274C269.224 146.624 269.741 147.047 270.075 147.543C270.417 148.032 270.587 148.63 270.587 149.338C270.587 150.518 270.115 151.466 269.171 152.182C268.227 152.89 267.003 153.244 265.497 153.244C264.439 153.244 263.503 153.057 262.689 152.683C261.876 152.308 261.237 151.787 260.773 151.12C260.317 150.445 260.089 149.716 260.089 148.935H262.348C262.388 149.692 262.689 150.294 263.251 150.742C263.821 151.181 264.569 151.401 265.497 151.401C266.352 151.401 267.035 151.23 267.548 150.888C268.069 150.538 268.329 150.074 268.329 149.497ZM279.01 153.244C277.22 153.244 275.763 152.658 274.64 151.486C273.517 150.306 272.956 148.732 272.956 146.762V146.347C272.956 145.037 273.204 143.869 273.7 142.844C274.205 141.81 274.905 141.005 275.8 140.427C276.703 139.841 277.68 139.548 278.729 139.548C280.447 139.548 281.781 140.113 282.733 141.245C283.686 142.376 284.162 143.995 284.162 146.103V147.043H275.214C275.246 148.345 275.625 149.399 276.349 150.205C277.082 151.002 278.009 151.401 279.132 151.401C279.93 151.401 280.605 151.238 281.159 150.913C281.712 150.587 282.196 150.156 282.611 149.619L283.991 150.693C282.884 152.394 281.224 153.244 279.01 153.244ZM278.729 141.403C277.818 141.403 277.053 141.737 276.435 142.404C275.816 143.063 275.434 143.991 275.287 145.188H281.903V145.017C281.838 143.869 281.529 142.982 280.976 142.355C280.422 141.721 279.674 141.403 278.729 141.403ZM293.17 141.818C292.829 141.761 292.458 141.733 292.06 141.733C290.578 141.733 289.573 142.364 289.044 143.625V153H286.786V139.792H288.983L289.02 141.318C289.761 140.138 290.81 139.548 292.169 139.548C292.609 139.548 292.943 139.605 293.17 139.719V141.818ZM302.948 149.497C302.948 148.886 302.716 148.414 302.252 148.081C301.797 147.739 300.995 147.446 299.848 147.202C298.708 146.958 297.801 146.665 297.125 146.323C296.458 145.981 295.962 145.574 295.636 145.102C295.319 144.63 295.16 144.069 295.16 143.417C295.16 142.335 295.616 141.42 296.527 140.671C297.447 139.922 298.619 139.548 300.043 139.548C301.54 139.548 302.753 139.934 303.681 140.708C304.617 141.481 305.084 142.469 305.084 143.674H302.814C302.814 143.055 302.549 142.522 302.021 142.075C301.5 141.627 300.84 141.403 300.043 141.403C299.221 141.403 298.578 141.582 298.114 141.94C297.65 142.299 297.418 142.766 297.418 143.344C297.418 143.889 297.634 144.3 298.065 144.577C298.497 144.854 299.274 145.118 300.397 145.371C301.528 145.623 302.444 145.924 303.144 146.274C303.843 146.624 304.36 147.047 304.694 147.543C305.036 148.032 305.207 148.63 305.207 149.338C305.207 150.518 304.735 151.466 303.791 152.182C302.847 152.89 301.622 153.244 300.116 153.244C299.058 153.244 298.122 153.057 297.309 152.683C296.495 152.308 295.856 151.787 295.392 151.12C294.936 150.445 294.708 149.716 294.708 148.935H296.967C297.007 149.692 297.309 150.294 297.87 150.742C298.44 151.181 299.188 151.401 300.116 151.401C300.971 151.401 301.654 151.23 302.167 150.888C302.688 150.538 302.948 150.074 302.948 149.497ZM308.197 151.816C308.197 151.425 308.311 151.1 308.539 150.839C308.775 150.579 309.125 150.449 309.589 150.449C310.053 150.449 310.403 150.579 310.639 150.839C310.883 151.1 311.005 151.425 311.005 151.816C311.005 152.19 310.883 152.504 310.639 152.756C310.403 153.008 310.053 153.134 309.589 153.134C309.125 153.134 308.775 153.008 308.539 152.756C308.311 152.504 308.197 152.19 308.197 151.816ZM317.194 153H314.936V139.792H317.194V153ZM314.752 136.289C314.752 135.922 314.862 135.613 315.082 135.361C315.31 135.109 315.644 134.982 316.083 134.982C316.522 134.982 316.856 135.109 317.084 135.361C317.312 135.613 317.426 135.922 317.426 136.289C317.426 136.655 317.312 136.96 317.084 137.204C316.856 137.448 316.522 137.57 316.083 137.57C315.644 137.57 315.31 137.448 315.082 137.204C314.862 136.96 314.752 136.655 314.752 136.289ZM320.27 146.286C320.27 144.26 320.75 142.632 321.71 141.403C322.671 140.166 323.928 139.548 325.482 139.548C327.029 139.548 328.253 140.077 329.157 141.135V134.25H331.415V153H329.34L329.23 151.584C328.327 152.691 327.069 153.244 325.458 153.244C323.928 153.244 322.679 152.618 321.71 151.364C320.75 150.111 320.27 148.475 320.27 146.457V146.286ZM322.528 146.542C322.528 148.04 322.838 149.212 323.456 150.058C324.075 150.904 324.929 151.328 326.02 151.328C327.452 151.328 328.498 150.685 329.157 149.399V143.332C328.481 142.087 327.444 141.464 326.044 141.464C324.937 141.464 324.075 141.892 323.456 142.746C322.838 143.601 322.528 144.866 322.528 146.542ZM351.459 143.063H341.278V141.098H351.459V143.063ZM351.459 148.129H341.278V146.176H351.459V148.129ZM372.211 146.542C372.211 148.553 371.751 150.172 370.832 151.401C369.912 152.63 368.667 153.244 367.096 153.244C365.493 153.244 364.232 152.736 363.312 151.718V158.078H361.054V139.792H363.117L363.227 141.257C364.146 140.118 365.424 139.548 367.06 139.548C368.646 139.548 369.9 140.146 370.819 141.342C371.747 142.539 372.211 144.203 372.211 146.335V146.542ZM369.953 146.286C369.953 144.797 369.635 143.621 369 142.758C368.366 141.896 367.495 141.464 366.388 141.464C365.021 141.464 363.996 142.071 363.312 143.283V149.594C363.987 150.799 365.021 151.401 366.413 151.401C367.495 151.401 368.354 150.974 368.988 150.119C369.631 149.257 369.953 147.979 369.953 146.286ZM374.494 146.274C374.494 144.98 374.746 143.816 375.25 142.783C375.763 141.749 376.471 140.952 377.375 140.39C378.286 139.829 379.324 139.548 380.487 139.548C382.286 139.548 383.738 140.17 384.845 141.416C385.96 142.661 386.518 144.317 386.518 146.384V146.542C386.518 147.828 386.269 148.984 385.773 150.009C385.285 151.027 384.581 151.82 383.661 152.39C382.75 152.959 381.7 153.244 380.512 153.244C378.721 153.244 377.269 152.622 376.154 151.376C375.047 150.131 374.494 148.483 374.494 146.433V146.274ZM376.764 146.542C376.764 148.007 377.102 149.183 377.777 150.07C378.461 150.957 379.372 151.401 380.512 151.401C381.659 151.401 382.571 150.953 383.246 150.058C383.922 149.155 384.259 147.893 384.259 146.274C384.259 144.825 383.913 143.653 383.222 142.758C382.538 141.855 381.627 141.403 380.487 141.403C379.372 141.403 378.473 141.847 377.79 142.734C377.106 143.621 376.764 144.89 376.764 146.542ZM397.04 149.497C397.04 148.886 396.808 148.414 396.344 148.081C395.889 147.739 395.087 147.446 393.939 147.202C392.8 146.958 391.893 146.665 391.217 146.323C390.55 145.981 390.054 145.574 389.728 145.102C389.411 144.63 389.252 144.069 389.252 143.417C389.252 142.335 389.708 141.42 390.619 140.671C391.539 139.922 392.711 139.548 394.135 139.548C395.632 139.548 396.845 139.934 397.772 140.708C398.708 141.481 399.176 142.469 399.176 143.674H396.906C396.906 143.055 396.641 142.522 396.112 142.075C395.591 141.627 394.932 141.403 394.135 141.403C393.313 141.403 392.67 141.582 392.206 141.94C391.742 142.299 391.51 142.766 391.51 143.344C391.51 143.889 391.726 144.3 392.157 144.577C392.589 144.854 393.366 145.118 394.489 145.371C395.62 145.623 396.535 145.924 397.235 146.274C397.935 146.624 398.452 147.047 398.786 147.543C399.127 148.032 399.298 148.63 399.298 149.338C399.298 150.518 398.826 151.466 397.882 152.182C396.938 152.89 395.714 153.244 394.208 153.244C393.15 153.244 392.214 153.057 391.4 152.683C390.587 152.308 389.948 151.787 389.484 151.12C389.028 150.445 388.8 149.716 388.8 148.935H391.059C391.099 149.692 391.4 150.294 391.962 150.742C392.532 151.181 393.28 151.401 394.208 151.401C395.062 151.401 395.746 151.23 396.259 150.888C396.78 150.538 397.04 150.074 397.04 149.497ZM405.304 136.594V139.792H407.77V141.538H405.304V149.729C405.304 150.257 405.414 150.656 405.634 150.925C405.854 151.185 406.228 151.315 406.757 151.315C407.017 151.315 407.375 151.267 407.831 151.169V153C407.237 153.163 406.659 153.244 406.098 153.244C405.089 153.244 404.328 152.939 403.815 152.329C403.302 151.718 403.046 150.852 403.046 149.729V141.538H400.641V139.792H403.046V136.594H405.304ZM418.109 149.497C418.109 148.886 417.877 148.414 417.414 148.081C416.958 147.739 416.156 147.446 415.009 147.202C413.869 146.958 412.962 146.665 412.287 146.323C411.619 145.981 411.123 145.574 410.797 145.102C410.48 144.63 410.321 144.069 410.321 143.417C410.321 142.335 410.777 141.42 411.688 140.671C412.608 139.922 413.78 139.548 415.204 139.548C416.701 139.548 417.914 139.934 418.842 140.708C419.778 141.481 420.246 142.469 420.246 143.674H417.975C417.975 143.055 417.711 142.522 417.182 142.075C416.661 141.627 416.002 141.403 415.204 141.403C414.382 141.403 413.739 141.582 413.275 141.94C412.812 142.299 412.58 142.766 412.58 143.344C412.58 143.889 412.795 144.3 413.227 144.577C413.658 144.854 414.435 145.118 415.558 145.371C416.689 145.623 417.605 145.924 418.305 146.274C419.005 146.624 419.521 147.047 419.855 147.543C420.197 148.032 420.368 148.63 420.368 149.338C420.368 150.518 419.896 151.466 418.952 152.182C418.008 152.89 416.783 153.244 415.277 153.244C414.219 153.244 413.284 153.057 412.47 152.683C411.656 152.308 411.017 151.787 410.553 151.12C410.097 150.445 409.87 149.716 409.87 148.935H412.128C412.169 149.692 412.47 150.294 413.031 150.742C413.601 151.181 414.35 151.401 415.277 151.401C416.132 151.401 416.815 151.23 417.328 150.888C417.849 150.538 418.109 150.074 418.109 149.497ZM423.358 151.816C423.358 151.425 423.472 151.1 423.7 150.839C423.936 150.579 424.286 150.449 424.75 150.449C425.214 150.449 425.564 150.579 425.8 150.839C426.044 151.1 426.166 151.425 426.166 151.816C426.166 152.19 426.044 152.504 425.8 152.756C425.564 153.008 425.214 153.134 424.75 153.134C424.286 153.134 423.936 153.008 423.7 152.756C423.472 152.504 423.358 152.19 423.358 151.816ZM438.056 151.694C437.177 152.727 435.887 153.244 434.186 153.244C432.778 153.244 431.704 152.837 430.963 152.023C430.231 151.201 429.861 149.989 429.853 148.386V139.792H432.111V148.325C432.111 150.327 432.925 151.328 434.552 151.328C436.278 151.328 437.425 150.685 437.995 149.399V139.792H440.253V153H438.104L438.056 151.694ZM451.386 149.497C451.386 148.886 451.154 148.414 450.69 148.081C450.234 147.739 449.433 147.446 448.285 147.202C447.146 146.958 446.238 146.665 445.563 146.323C444.896 145.981 444.399 145.574 444.074 145.102C443.756 144.63 443.598 144.069 443.598 143.417C443.598 142.335 444.053 141.42 444.965 140.671C445.884 139.922 447.056 139.548 448.48 139.548C449.978 139.548 451.19 139.934 452.118 140.708C453.054 141.481 453.522 142.469 453.522 143.674H451.251C451.251 143.055 450.987 142.522 450.458 142.075C449.937 141.627 449.278 141.403 448.48 141.403C447.659 141.403 447.016 141.582 446.552 141.94C446.088 142.299 445.856 142.766 445.856 143.344C445.856 143.889 446.072 144.3 446.503 144.577C446.934 144.854 447.711 145.118 448.834 145.371C449.966 145.623 450.881 145.924 451.581 146.274C452.281 146.624 452.798 147.047 453.131 147.543C453.473 148.032 453.644 148.63 453.644 149.338C453.644 150.518 453.172 151.466 452.228 152.182C451.284 152.89 450.059 153.244 448.554 153.244C447.496 153.244 446.56 153.057 445.746 152.683C444.932 152.308 444.293 151.787 443.83 151.12C443.374 150.445 443.146 149.716 443.146 148.935H445.404C445.445 149.692 445.746 150.294 446.308 150.742C446.877 151.181 447.626 151.401 448.554 151.401C449.408 151.401 450.092 151.23 450.604 150.888C451.125 150.538 451.386 150.074 451.386 149.497ZM462.067 153.244C460.277 153.244 458.82 152.658 457.697 151.486C456.574 150.306 456.012 148.732 456.012 146.762V146.347C456.012 145.037 456.26 143.869 456.757 142.844C457.261 141.81 457.961 141.005 458.856 140.427C459.76 139.841 460.736 139.548 461.786 139.548C463.503 139.548 464.838 140.113 465.79 141.245C466.742 142.376 467.218 143.995 467.218 146.103V147.043H458.271C458.303 148.345 458.681 149.399 459.406 150.205C460.138 151.002 461.066 151.401 462.189 151.401C462.986 151.401 463.662 151.238 464.215 150.913C464.769 150.587 465.253 150.156 465.668 149.619L467.047 150.693C465.941 152.394 464.28 153.244 462.067 153.244ZM461.786 141.403C460.875 141.403 460.11 141.737 459.491 142.404C458.873 143.063 458.49 143.991 458.344 145.188H464.96V145.017C464.895 143.869 464.586 142.982 464.032 142.355C463.479 141.721 462.73 141.403 461.786 141.403ZM476.227 141.818C475.885 141.761 475.515 141.733 475.116 141.733C473.635 141.733 472.63 142.364 472.101 143.625V153H469.843V139.792H472.04L472.077 141.318C472.817 140.138 473.867 139.548 475.226 139.548C475.666 139.548 475.999 139.605 476.227 139.719V141.818ZM487.836 154.843H476.654V153H487.836V154.843ZM492.047 153H489.789V139.792H492.047V153ZM489.606 136.289C489.606 135.922 489.716 135.613 489.936 135.361C490.163 135.109 490.497 134.982 490.937 134.982C491.376 134.982 491.71 135.109 491.938 135.361C492.165 135.613 492.279 135.922 492.279 136.289C492.279 136.655 492.165 136.96 491.938 137.204C491.71 137.448 491.376 137.57 490.937 137.57C490.497 137.57 490.163 137.448 489.936 137.204C489.716 136.96 489.606 136.655 489.606 136.289ZM495.124 146.286C495.124 144.26 495.604 142.632 496.564 141.403C497.524 140.166 498.782 139.548 500.336 139.548C501.882 139.548 503.107 140.077 504.01 141.135V134.25H506.269V153H504.193L504.083 151.584C503.18 152.691 501.923 153.244 500.312 153.244C498.782 153.244 497.532 152.618 496.564 151.364C495.604 150.111 495.124 148.475 495.124 146.457V146.286ZM497.382 146.542C497.382 148.04 497.691 149.212 498.31 150.058C498.928 150.904 499.783 151.328 500.873 151.328C502.305 151.328 503.351 150.685 504.01 149.399V143.332C503.335 142.087 502.297 141.464 500.897 141.464C499.791 141.464 498.928 141.892 498.31 142.746C497.691 143.601 497.382 144.866 497.382 146.542ZM180.707 180.694C179.828 181.727 178.538 182.244 176.837 182.244C175.43 182.244 174.355 181.837 173.615 181.023C172.882 180.201 172.512 178.989 172.504 177.386V168.792H174.762V177.325C174.762 179.327 175.576 180.328 177.204 180.328C178.929 180.328 180.076 179.685 180.646 178.399V168.792H182.904V182H180.756L180.707 180.694ZM194.037 178.497C194.037 177.886 193.805 177.414 193.341 177.081C192.886 176.739 192.084 176.446 190.937 176.202C189.797 175.958 188.89 175.665 188.214 175.323C187.547 174.981 187.051 174.574 186.725 174.102C186.408 173.63 186.249 173.069 186.249 172.417C186.249 171.335 186.705 170.42 187.616 169.671C188.536 168.922 189.708 168.548 191.132 168.548C192.629 168.548 193.842 168.934 194.77 169.708C195.705 170.481 196.173 171.469 196.173 172.674H193.903C193.903 172.055 193.638 171.522 193.109 171.075C192.589 170.627 191.929 170.403 191.132 170.403C190.31 170.403 189.667 170.582 189.203 170.94C188.739 171.299 188.507 171.766 188.507 172.344C188.507 172.889 188.723 173.3 189.154 173.577C189.586 173.854 190.363 174.118 191.486 174.371C192.617 174.623 193.533 174.924 194.232 175.274C194.932 175.624 195.449 176.047 195.783 176.543C196.125 177.032 196.295 177.63 196.295 178.338C196.295 179.518 195.823 180.466 194.879 181.182C193.935 181.89 192.711 182.244 191.205 182.244C190.147 182.244 189.211 182.057 188.397 181.683C187.584 181.308 186.945 180.787 186.481 180.12C186.025 179.445 185.797 178.716 185.797 177.935H188.056C188.096 178.692 188.397 179.294 188.959 179.742C189.529 180.181 190.277 180.401 191.205 180.401C192.06 180.401 192.743 180.23 193.256 179.888C193.777 179.538 194.037 179.074 194.037 178.497ZM204.718 182.244C202.928 182.244 201.471 181.658 200.348 180.486C199.225 179.306 198.664 177.732 198.664 175.762V175.347C198.664 174.037 198.912 172.869 199.408 171.844C199.913 170.81 200.613 170.005 201.508 169.427C202.411 168.841 203.388 168.548 204.438 168.548C206.155 168.548 207.489 169.113 208.441 170.245C209.394 171.376 209.87 172.995 209.87 175.103V176.043H200.922C200.954 177.345 201.333 178.399 202.057 179.205C202.79 180.002 203.717 180.401 204.84 180.401C205.638 180.401 206.313 180.238 206.867 179.913C207.42 179.587 207.904 179.156 208.319 178.619L209.699 179.693C208.592 181.394 206.932 182.244 204.718 182.244ZM204.438 170.403C203.526 170.403 202.761 170.737 202.143 171.404C201.524 172.063 201.142 172.991 200.995 174.188H207.611V174.017C207.546 172.869 207.237 171.982 206.684 171.355C206.13 170.721 205.382 170.403 204.438 170.403ZM218.878 170.818C218.537 170.761 218.166 170.733 217.768 170.733C216.286 170.733 215.281 171.364 214.752 172.625V182H212.494V168.792H214.691L214.728 170.318C215.469 169.138 216.518 168.548 217.877 168.548C218.317 168.548 218.651 168.605 218.878 168.719V170.818ZM219.501 180.816C219.501 180.425 219.615 180.1 219.843 179.839C220.079 179.579 220.429 179.449 220.893 179.449C221.356 179.449 221.706 179.579 221.942 179.839C222.187 180.1 222.309 180.425 222.309 180.816C222.309 181.19 222.187 181.504 221.942 181.756C221.706 182.008 221.356 182.134 220.893 182.134C220.429 182.134 220.079 182.008 219.843 181.756C219.615 181.504 219.501 181.19 219.501 180.816ZM231.525 182.244C229.735 182.244 228.278 181.658 227.155 180.486C226.032 179.306 225.47 177.732 225.47 175.762V175.347C225.47 174.037 225.718 172.869 226.215 171.844C226.719 170.81 227.419 170.005 228.314 169.427C229.218 168.841 230.194 168.548 231.244 168.548C232.961 168.548 234.296 169.113 235.248 170.245C236.2 171.376 236.676 172.995 236.676 175.103V176.043H227.729C227.761 177.345 228.139 178.399 228.864 179.205C229.596 180.002 230.524 180.401 231.647 180.401C232.444 180.401 233.12 180.238 233.673 179.913C234.227 179.587 234.711 179.156 235.126 178.619L236.505 179.693C235.399 181.394 233.738 182.244 231.525 182.244ZM231.244 170.403C230.333 170.403 229.568 170.737 228.949 171.404C228.331 172.063 227.948 172.991 227.802 174.188H234.418V174.017C234.353 172.869 234.044 171.982 233.49 171.355C232.937 170.721 232.188 170.403 231.244 170.403ZM241.425 168.792L241.486 170.257C242.454 169.118 243.76 168.548 245.404 168.548C247.252 168.548 248.509 169.256 249.176 170.672C249.616 170.037 250.185 169.524 250.885 169.134C251.593 168.743 252.427 168.548 253.388 168.548C256.285 168.548 257.758 170.082 257.807 173.15V182H255.548V173.284C255.548 172.34 255.333 171.636 254.901 171.172C254.47 170.7 253.746 170.464 252.729 170.464C251.89 170.464 251.194 170.717 250.641 171.221C250.088 171.718 249.766 172.389 249.677 173.235V182H247.406V173.345C247.406 171.425 246.466 170.464 244.586 170.464C243.105 170.464 242.092 171.095 241.547 172.356V182H239.289V168.792H241.425ZM269.379 182C269.249 181.74 269.143 181.276 269.062 180.608C268.012 181.699 266.758 182.244 265.302 182.244C264 182.244 262.93 181.878 262.091 181.146C261.261 180.405 260.846 179.469 260.846 178.338C260.846 176.963 261.367 175.896 262.409 175.14C263.458 174.375 264.931 173.992 266.828 173.992H269.025V172.955C269.025 172.165 268.789 171.539 268.317 171.075C267.845 170.603 267.149 170.367 266.229 170.367C265.424 170.367 264.748 170.57 264.203 170.977C263.658 171.384 263.385 171.876 263.385 172.454H261.115C261.115 171.795 261.347 171.16 261.811 170.55C262.283 169.931 262.917 169.443 263.715 169.085C264.521 168.727 265.403 168.548 266.364 168.548C267.886 168.548 269.078 168.93 269.94 169.695C270.803 170.452 271.251 171.498 271.283 172.833V178.912C271.283 180.124 271.438 181.089 271.747 181.805V182H269.379ZM265.631 180.279C266.339 180.279 267.011 180.096 267.646 179.729C268.28 179.363 268.74 178.887 269.025 178.301V175.591H267.255C264.488 175.591 263.104 176.401 263.104 178.021C263.104 178.729 263.34 179.282 263.812 179.681C264.285 180.079 264.891 180.279 265.631 180.279ZM277.277 182H275.019V168.792H277.277V182ZM274.835 165.289C274.835 164.922 274.945 164.613 275.165 164.361C275.393 164.109 275.727 163.982 276.166 163.982C276.605 163.982 276.939 164.109 277.167 164.361C277.395 164.613 277.509 164.922 277.509 165.289C277.509 165.655 277.395 165.96 277.167 166.204C276.939 166.448 276.605 166.57 276.166 166.57C275.727 166.57 275.393 166.448 275.165 166.204C274.945 165.96 274.835 165.655 274.835 165.289ZM283.356 182H281.098V163.25H283.356V182ZM296.503 183.843H285.321V182H296.503V183.843ZM302.619 178.936L305.89 168.792H308.197L303.461 182H301.74L296.955 168.792H299.262L302.619 178.936ZM315.68 182.244C313.89 182.244 312.433 181.658 311.31 180.486C310.187 179.306 309.625 177.732 309.625 175.762V175.347C309.625 174.037 309.874 172.869 310.37 171.844C310.875 170.81 311.575 170.005 312.47 169.427C313.373 168.841 314.35 168.548 315.399 168.548C317.117 168.548 318.451 169.113 319.403 170.245C320.355 171.376 320.832 172.995 320.832 175.103V176.043H311.884C311.916 177.345 312.295 178.399 313.019 179.205C313.751 180.002 314.679 180.401 315.802 180.401C316.6 180.401 317.275 180.238 317.829 179.913C318.382 179.587 318.866 179.156 319.281 178.619L320.661 179.693C319.554 181.394 317.894 182.244 315.68 182.244ZM315.399 170.403C314.488 170.403 313.723 170.737 313.104 171.404C312.486 172.063 312.104 172.991 311.957 174.188H318.573V174.017C318.508 172.869 318.199 171.982 317.646 171.355C317.092 170.721 316.343 170.403 315.399 170.403ZM329.84 170.818C329.499 170.761 329.128 170.733 328.729 170.733C327.248 170.733 326.243 171.364 325.714 172.625V182H323.456V168.792H325.653L325.69 170.318C326.431 169.138 327.48 168.548 328.839 168.548C329.279 168.548 329.612 168.605 329.84 168.719V170.818ZM334.381 182H332.123V168.792H334.381V182ZM331.94 165.289C331.94 164.922 332.05 164.613 332.27 164.361C332.497 164.109 332.831 163.982 333.271 163.982C333.71 163.982 334.044 164.109 334.271 164.361C334.499 164.613 334.613 164.922 334.613 165.289C334.613 165.655 334.499 165.96 334.271 166.204C334.044 166.448 333.71 166.57 333.271 166.57C332.831 166.57 332.497 166.448 332.27 166.204C332.05 165.96 331.94 165.655 331.94 165.289ZM338.764 182V170.538H336.676V168.792H338.764V167.669C338.764 166.196 339.183 165.049 340.021 164.227C340.867 163.405 342.06 162.994 343.598 162.994C344.509 162.994 345.661 163.242 347.052 163.738L346.674 165.643C345.657 165.236 344.688 165.032 343.769 165.032C342.8 165.032 342.1 165.252 341.669 165.691C341.246 166.123 341.034 166.774 341.034 167.645V168.792H343.732V170.538H341.034V182H338.764ZM348.175 182H345.905V168.792H348.175V182ZM357.331 182.244C355.54 182.244 354.083 181.658 352.96 180.486C351.837 179.306 351.276 177.732 351.276 175.762V175.347C351.276 174.037 351.524 172.869 352.021 171.844C352.525 170.81 353.225 170.005 354.12 169.427C355.023 168.841 356 168.548 357.05 168.548C358.767 168.548 360.102 169.113 361.054 170.245C362.006 171.376 362.482 172.995 362.482 175.103V176.043H353.534C353.567 177.345 353.945 178.399 354.669 179.205C355.402 180.002 356.33 180.401 357.453 180.401C358.25 180.401 358.926 180.238 359.479 179.913C360.032 179.587 360.517 179.156 360.932 178.619L362.311 179.693C361.204 181.394 359.544 182.244 357.331 182.244ZM357.05 170.403C356.138 170.403 355.373 170.737 354.755 171.404C354.136 172.063 353.754 172.991 353.607 174.188H360.224V174.017C360.159 172.869 359.849 171.982 359.296 171.355C358.743 170.721 357.994 170.403 357.05 170.403ZM364.557 175.286C364.557 173.26 365.037 171.632 365.998 170.403C366.958 169.166 368.215 168.548 369.77 168.548C371.316 168.548 372.541 169.077 373.444 170.135V163.25H375.702V182H373.627L373.517 180.584C372.614 181.691 371.356 182.244 369.745 182.244C368.215 182.244 366.966 181.618 365.998 180.364C365.037 179.111 364.557 177.475 364.557 175.457V175.286ZM366.815 175.542C366.815 177.04 367.125 178.212 367.743 179.058C368.362 179.904 369.216 180.328 370.307 180.328C371.739 180.328 372.785 179.685 373.444 178.399V172.332C372.768 171.087 371.731 170.464 370.331 170.464C369.224 170.464 368.362 170.892 367.743 171.746C367.125 172.601 366.815 173.866 366.815 175.542ZM387.873 182H385.614V168.792H387.873V182ZM385.431 165.289C385.431 164.922 385.541 164.613 385.761 164.361C385.989 164.109 386.322 163.982 386.762 163.982C387.201 163.982 387.535 164.109 387.763 164.361C387.991 164.613 388.104 164.922 388.104 165.289C388.104 165.655 387.991 165.96 387.763 166.204C387.535 166.448 387.201 166.57 386.762 166.57C386.322 166.57 385.989 166.448 385.761 166.204C385.541 165.96 385.431 165.655 385.431 165.289ZM399.188 178.497C399.188 177.886 398.957 177.414 398.493 177.081C398.037 176.739 397.235 176.446 396.088 176.202C394.949 175.958 394.041 175.665 393.366 175.323C392.698 174.981 392.202 174.574 391.876 174.102C391.559 173.63 391.4 173.069 391.4 172.417C391.4 171.335 391.856 170.42 392.768 169.671C393.687 168.922 394.859 168.548 396.283 168.548C397.781 168.548 398.993 168.934 399.921 169.708C400.857 170.481 401.325 171.469 401.325 172.674H399.054C399.054 172.055 398.79 171.522 398.261 171.075C397.74 170.627 397.081 170.403 396.283 170.403C395.461 170.403 394.818 170.582 394.354 170.94C393.891 171.299 393.659 171.766 393.659 172.344C393.659 172.889 393.874 173.3 394.306 173.577C394.737 173.854 395.514 174.118 396.637 174.371C397.768 174.623 398.684 174.924 399.384 175.274C400.084 175.624 400.6 176.047 400.934 176.543C401.276 177.032 401.447 177.63 401.447 178.338C401.447 179.518 400.975 180.466 400.031 181.182C399.087 181.89 397.862 182.244 396.356 182.244C395.299 182.244 394.363 182.057 393.549 181.683C392.735 181.308 392.096 180.787 391.632 180.12C391.177 179.445 390.949 178.716 390.949 177.935H393.207C393.248 178.692 393.549 179.294 394.11 179.742C394.68 180.181 395.429 180.401 396.356 180.401C397.211 180.401 397.895 180.23 398.407 179.888C398.928 179.538 399.188 179.074 399.188 178.497Z" fill="black"/>
<path d="M195.014 124V113.38H193.048V110.792H195.014V109.669C195.014 108.188 195.437 107.04 196.283 106.227C197.138 105.405 198.33 104.994 199.86 104.994C200.348 104.994 200.946 105.075 201.654 105.238L201.618 107.972C201.325 107.899 200.967 107.862 200.543 107.862C199.217 107.862 198.554 108.485 198.554 109.73V110.792H201.178V113.38H198.554V124H195.014ZM210.431 114.1C209.951 114.035 209.528 114.002 209.162 114.002C207.827 114.002 206.952 114.454 206.537 115.357V124H203.009V110.792H206.342L206.439 112.367C207.147 111.154 208.128 110.548 209.381 110.548C209.772 110.548 210.138 110.601 210.48 110.707L210.431 114.1ZM211.151 117.274C211.151 115.964 211.404 114.796 211.908 113.771C212.413 112.745 213.137 111.952 214.081 111.39C215.033 110.829 216.136 110.548 217.389 110.548C219.171 110.548 220.624 111.093 221.747 112.184C222.878 113.274 223.509 114.755 223.639 116.627L223.664 117.53C223.664 119.557 223.098 121.184 221.967 122.413C220.836 123.634 219.318 124.244 217.414 124.244C215.509 124.244 213.987 123.634 212.848 122.413C211.717 121.192 211.151 119.532 211.151 117.433V117.274ZM214.679 117.53C214.679 118.784 214.915 119.744 215.387 120.411C215.859 121.07 216.535 121.4 217.414 121.4C218.268 121.4 218.935 121.074 219.416 120.423C219.896 119.764 220.136 118.714 220.136 117.274C220.136 116.045 219.896 115.093 219.416 114.417C218.935 113.742 218.26 113.404 217.389 113.404C216.527 113.404 215.859 113.742 215.387 114.417C214.915 115.085 214.679 116.122 214.679 117.53ZM229.145 110.792L229.254 112.269C230.19 111.122 231.456 110.548 233.051 110.548C234.752 110.548 235.919 111.219 236.554 112.562C237.482 111.219 238.804 110.548 240.521 110.548C241.954 110.548 243.02 110.967 243.72 111.805C244.42 112.635 244.77 113.889 244.77 115.565V124H241.229V115.577C241.229 114.828 241.083 114.283 240.79 113.941C240.497 113.591 239.98 113.417 239.24 113.417C238.182 113.417 237.449 113.921 237.042 114.93L237.055 124H233.527V115.589C233.527 114.824 233.376 114.271 233.075 113.929C232.774 113.587 232.261 113.417 231.537 113.417C230.536 113.417 229.812 113.832 229.364 114.662V124H225.836V110.792H229.145ZM411.2 182V171.38H409.235V168.792H411.2V167.669C411.2 166.188 411.623 165.04 412.47 164.227C413.324 163.405 414.516 162.994 416.046 162.994C416.535 162.994 417.133 163.075 417.841 163.238L417.804 165.972C417.511 165.899 417.153 165.862 416.73 165.862C415.403 165.862 414.74 166.485 414.74 167.73V168.792H417.365V171.38H414.74V182H411.2ZM426.85 182C426.687 181.683 426.569 181.288 426.496 180.816C425.641 181.768 424.53 182.244 423.163 182.244C421.869 182.244 420.795 181.87 419.94 181.121C419.094 180.372 418.671 179.428 418.671 178.289C418.671 176.889 419.188 175.815 420.221 175.066C421.263 174.318 422.764 173.939 424.726 173.931H426.349V173.174C426.349 172.564 426.19 172.076 425.873 171.709C425.564 171.343 425.071 171.16 424.396 171.16C423.802 171.16 423.334 171.303 422.992 171.587C422.659 171.872 422.492 172.263 422.492 172.759H418.964C418.964 171.994 419.2 171.286 419.672 170.635C420.144 169.984 420.811 169.476 421.674 169.109C422.536 168.735 423.505 168.548 424.579 168.548C426.207 168.548 427.497 168.959 428.449 169.781C429.409 170.595 429.889 171.742 429.889 173.223V178.948C429.897 180.201 430.072 181.15 430.414 181.792V182H426.85ZM423.932 179.546C424.453 179.546 424.933 179.432 425.373 179.205C425.812 178.969 426.138 178.655 426.349 178.265V175.994H425.031C423.265 175.994 422.325 176.604 422.211 177.825L422.199 178.033C422.199 178.472 422.353 178.834 422.663 179.119C422.972 179.404 423.395 179.546 423.932 179.546ZM436.322 182H432.782V163.25H436.322V182ZM446.393 178.35C446.393 177.919 446.177 177.581 445.746 177.337C445.323 177.085 444.639 176.861 443.695 176.666C440.554 176.006 438.983 174.672 438.983 172.662C438.983 171.49 439.468 170.513 440.436 169.732C441.413 168.943 442.686 168.548 444.257 168.548C445.933 168.548 447.272 168.943 448.273 169.732C449.282 170.521 449.787 171.547 449.787 172.808H446.259C446.259 172.304 446.096 171.889 445.771 171.563C445.445 171.229 444.936 171.062 444.245 171.062C443.651 171.062 443.191 171.197 442.865 171.465C442.54 171.734 442.377 172.076 442.377 172.491C442.377 172.881 442.56 173.199 442.926 173.443C443.301 173.679 443.927 173.886 444.806 174.065C445.685 174.236 446.426 174.432 447.028 174.651C448.891 175.335 449.823 176.519 449.823 178.204C449.823 179.408 449.306 180.385 448.273 181.133C447.239 181.874 445.905 182.244 444.269 182.244C443.162 182.244 442.178 182.049 441.315 181.658C440.46 181.259 439.789 180.718 439.301 180.035C438.812 179.343 438.568 178.598 438.568 177.801H441.913C441.946 178.427 442.178 178.908 442.609 179.241C443.04 179.575 443.618 179.742 444.342 179.742C445.018 179.742 445.526 179.616 445.868 179.363C446.218 179.103 446.393 178.765 446.393 178.35ZM458.185 182.244C456.248 182.244 454.669 181.65 453.449 180.462C452.236 179.274 451.63 177.691 451.63 175.713V175.372C451.63 174.045 451.886 172.861 452.399 171.819C452.912 170.77 453.636 169.964 454.572 169.402C455.516 168.833 456.59 168.548 457.794 168.548C459.601 168.548 461.021 169.118 462.055 170.257C463.096 171.396 463.617 173.012 463.617 175.103V176.543H455.207C455.32 177.406 455.662 178.098 456.232 178.619C456.81 179.139 457.538 179.4 458.417 179.4C459.776 179.4 460.838 178.908 461.603 177.923L463.336 179.864C462.807 180.612 462.091 181.198 461.188 181.622C460.285 182.037 459.284 182.244 458.185 182.244ZM457.782 171.404C457.082 171.404 456.513 171.64 456.073 172.112C455.642 172.584 455.365 173.26 455.243 174.139H460.15V173.858C460.134 173.077 459.923 172.474 459.516 172.051C459.109 171.62 458.531 171.404 457.782 171.404Z" fill="#004DFF"/>
<path d="M82.0903 343.227L87.9009 357.729L93.7114 343.227H96.751V361H94.4072V354.079L94.627 346.608L88.792 361H86.9976L81.1748 346.645L81.4067 354.079V361H79.063V343.227H82.0903ZM99.937 354.274C99.937 352.98 100.189 351.816 100.694 350.783C101.207 349.749 101.915 348.952 102.818 348.39C103.729 347.829 104.767 347.548 105.931 347.548C107.729 347.548 109.182 348.17 110.289 349.416C111.403 350.661 111.961 352.317 111.961 354.384V354.542C111.961 355.828 111.713 356.984 111.216 358.009C110.728 359.027 110.024 359.82 109.104 360.39C108.193 360.959 107.143 361.244 105.955 361.244C104.165 361.244 102.712 360.622 101.597 359.376C100.49 358.131 99.937 356.483 99.937 354.433V354.274ZM102.208 354.542C102.208 356.007 102.545 357.183 103.221 358.07C103.904 358.957 104.816 359.401 105.955 359.401C107.103 359.401 108.014 358.953 108.689 358.058C109.365 357.155 109.703 355.893 109.703 354.274C109.703 352.825 109.357 351.653 108.665 350.758C107.981 349.855 107.07 349.403 105.931 349.403C104.816 349.403 103.917 349.847 103.233 350.734C102.549 351.621 102.208 352.89 102.208 354.542ZM118.956 357.936L122.227 347.792H124.534L119.798 361H118.077L113.292 347.792H115.599L118.956 357.936ZM132.017 361.244C130.227 361.244 128.77 360.658 127.647 359.486C126.524 358.306 125.962 356.732 125.962 354.762V354.347C125.962 353.037 126.211 351.869 126.707 350.844C127.212 349.81 127.911 349.005 128.807 348.427C129.71 347.841 130.687 347.548 131.736 347.548C133.453 347.548 134.788 348.113 135.74 349.245C136.692 350.376 137.168 351.995 137.168 354.103V355.043H128.221C128.253 356.345 128.632 357.399 129.356 358.205C130.088 359.002 131.016 359.401 132.139 359.401C132.937 359.401 133.612 359.238 134.166 358.913C134.719 358.587 135.203 358.156 135.618 357.619L136.998 358.693C135.891 360.394 134.231 361.244 132.017 361.244ZM131.736 349.403C130.825 349.403 130.06 349.737 129.441 350.404C128.823 351.063 128.44 351.991 128.294 353.188H134.91V353.017C134.845 351.869 134.536 350.982 133.982 350.355C133.429 349.721 132.68 349.403 131.736 349.403ZM149.058 344.594V347.792H151.524V349.538H149.058V357.729C149.058 358.257 149.168 358.656 149.388 358.925C149.607 359.185 149.982 359.315 150.511 359.315C150.771 359.315 151.129 359.267 151.585 359.169V361C150.991 361.163 150.413 361.244 149.852 361.244C148.842 361.244 148.082 360.939 147.569 360.329C147.056 359.718 146.8 358.852 146.8 357.729V349.538H144.395V347.792H146.8V344.594H149.058ZM153.331 354.274C153.331 352.98 153.583 351.816 154.087 350.783C154.6 349.749 155.308 348.952 156.211 348.39C157.123 347.829 158.16 347.548 159.324 347.548C161.123 347.548 162.575 348.17 163.682 349.416C164.797 350.661 165.354 352.317 165.354 354.384V354.542C165.354 355.828 165.106 356.984 164.61 358.009C164.122 359.027 163.418 359.82 162.498 360.39C161.587 360.959 160.537 361.244 159.349 361.244C157.558 361.244 156.106 360.622 154.991 359.376C153.884 358.131 153.331 356.483 153.331 354.433V354.274ZM155.601 354.542C155.601 356.007 155.939 357.183 156.614 358.07C157.298 358.957 158.209 359.401 159.349 359.401C160.496 359.401 161.408 358.953 162.083 358.058C162.758 357.155 163.096 355.893 163.096 354.274C163.096 352.825 162.75 351.653 162.059 350.758C161.375 349.855 160.464 349.403 159.324 349.403C158.209 349.403 157.31 349.847 156.626 350.734C155.943 351.621 155.601 352.89 155.601 354.542ZM173.838 354.286C173.838 352.211 174.314 350.571 175.267 349.367C176.219 348.154 177.496 347.548 179.1 347.548C180.662 347.548 181.895 348.073 182.798 349.123L182.896 347.792H184.971V366.078H182.713V359.779C181.801 360.756 180.589 361.244 179.075 361.244C177.48 361.244 176.207 360.626 175.254 359.389C174.31 358.144 173.838 356.496 173.838 354.445V354.286ZM176.097 354.542C176.097 356.056 176.414 357.244 177.049 358.107C177.692 358.97 178.554 359.401 179.637 359.401C180.979 359.401 182.005 358.807 182.713 357.619V351.149C181.997 349.985 180.979 349.403 179.661 349.403C178.571 349.403 177.704 349.839 177.061 350.709C176.418 351.572 176.097 352.85 176.097 354.542ZM196.751 359.694C195.872 360.727 194.582 361.244 192.881 361.244C191.473 361.244 190.399 360.837 189.659 360.023C188.926 359.201 188.556 357.989 188.548 356.386V347.792H190.806V356.325C190.806 358.327 191.62 359.328 193.248 359.328C194.973 359.328 196.12 358.685 196.69 357.399V347.792H198.948V361H196.8L196.751 359.694ZM207.872 361.244C206.081 361.244 204.625 360.658 203.501 359.486C202.378 358.306 201.817 356.732 201.817 354.762V354.347C201.817 353.037 202.065 351.869 202.562 350.844C203.066 349.81 203.766 349.005 204.661 348.427C205.564 347.841 206.541 347.548 207.591 347.548C209.308 347.548 210.643 348.113 211.595 349.245C212.547 350.376 213.023 351.995 213.023 354.103V355.043H204.075C204.108 356.345 204.486 357.399 205.21 358.205C205.943 359.002 206.871 359.401 207.994 359.401C208.791 359.401 209.467 359.238 210.02 358.913C210.573 358.587 211.058 358.156 211.473 357.619L212.852 358.693C211.745 360.394 210.085 361.244 207.872 361.244ZM207.591 349.403C206.679 349.403 205.914 349.737 205.296 350.404C204.677 351.063 204.295 351.991 204.148 353.188H210.765V353.017C210.7 351.869 210.39 350.982 209.837 350.355C209.284 349.721 208.535 349.403 207.591 349.403ZM223.802 359.694C222.923 360.727 221.633 361.244 219.932 361.244C218.524 361.244 217.45 360.837 216.709 360.023C215.977 359.201 215.607 357.989 215.599 356.386V347.792H217.857V356.325C217.857 358.327 218.671 359.328 220.298 359.328C222.024 359.328 223.171 358.685 223.741 357.399V347.792H225.999V361H223.851L223.802 359.694ZM234.922 361.244C233.132 361.244 231.675 360.658 230.552 359.486C229.429 358.306 228.868 356.732 228.868 354.762V354.347C228.868 353.037 229.116 351.869 229.612 350.844C230.117 349.81 230.817 349.005 231.712 348.427C232.615 347.841 233.592 347.548 234.642 347.548C236.359 347.548 237.693 348.113 238.646 349.245C239.598 350.376 240.074 351.995 240.074 354.103V355.043H231.126C231.159 356.345 231.537 357.399 232.261 358.205C232.994 359.002 233.921 359.401 235.044 359.401C235.842 359.401 236.517 359.238 237.071 358.913C237.624 358.587 238.108 358.156 238.523 357.619L239.903 358.693C238.796 360.394 237.136 361.244 234.922 361.244ZM234.642 349.403C233.73 349.403 232.965 349.737 232.347 350.404C231.728 351.063 231.346 351.991 231.199 353.188H237.815V353.017C237.75 351.869 237.441 350.982 236.888 350.355C236.334 349.721 235.586 349.403 234.642 349.403Z" fill="#565656"/>
<path d="M82.0903 413.227L87.9009 427.729L93.7114 413.227H96.751V431H94.4072V424.079L94.627 416.608L88.792 431H86.9976L81.1748 416.645L81.4067 424.079V431H79.063V413.227H82.0903ZM108.689 431C108.559 430.74 108.453 430.276 108.372 429.608C107.322 430.699 106.069 431.244 104.612 431.244C103.31 431.244 102.24 430.878 101.402 430.146C100.572 429.405 100.157 428.469 100.157 427.338C100.157 425.963 100.678 424.896 101.719 424.14C102.769 423.375 104.242 422.992 106.138 422.992H108.335V421.955C108.335 421.165 108.099 420.539 107.627 420.075C107.155 419.603 106.46 419.367 105.54 419.367C104.734 419.367 104.059 419.57 103.514 419.977C102.968 420.384 102.696 420.876 102.696 421.454H100.425C100.425 420.795 100.657 420.16 101.121 419.55C101.593 418.931 102.228 418.443 103.025 418.085C103.831 417.727 104.714 417.548 105.674 417.548C107.196 417.548 108.388 417.93 109.251 418.695C110.114 419.452 110.561 420.498 110.594 421.833V427.912C110.594 429.124 110.748 430.089 111.058 430.805V431H108.689ZM104.942 429.279C105.65 429.279 106.321 429.096 106.956 428.729C107.591 428.363 108.051 427.887 108.335 427.301V424.591H106.565C103.799 424.591 102.415 425.401 102.415 427.021C102.415 427.729 102.651 428.282 103.123 428.681C103.595 429.079 104.201 429.279 104.942 429.279ZM116.27 417.792L116.343 419.452C117.352 418.183 118.671 417.548 120.298 417.548C123.09 417.548 124.498 419.123 124.522 422.272V431H122.264V422.26C122.256 421.308 122.036 420.604 121.604 420.148C121.181 419.692 120.518 419.464 119.615 419.464C118.882 419.464 118.239 419.66 117.686 420.05C117.133 420.441 116.701 420.954 116.392 421.588V431H114.134V417.792H116.27ZM136.082 429.694C135.203 430.727 133.913 431.244 132.212 431.244C130.805 431.244 129.73 430.837 128.99 430.023C128.257 429.201 127.887 427.989 127.879 426.386V417.792H130.137V426.325C130.137 428.327 130.951 429.328 132.579 429.328C134.304 429.328 135.451 428.685 136.021 427.399V417.792H138.279V431H136.131L136.082 429.694ZM149.876 431C149.746 430.74 149.64 430.276 149.559 429.608C148.509 430.699 147.256 431.244 145.799 431.244C144.497 431.244 143.427 430.878 142.588 430.146C141.758 429.405 141.343 428.469 141.343 427.338C141.343 425.963 141.864 424.896 142.906 424.14C143.956 423.375 145.429 422.992 147.325 422.992H149.522V421.955C149.522 421.165 149.286 420.539 148.814 420.075C148.342 419.603 147.646 419.367 146.727 419.367C145.921 419.367 145.245 419.57 144.7 419.977C144.155 420.384 143.882 420.876 143.882 421.454H141.612C141.612 420.795 141.844 420.16 142.308 419.55C142.78 418.931 143.414 418.443 144.212 418.085C145.018 417.727 145.901 417.548 146.861 417.548C148.383 417.548 149.575 417.93 150.438 418.695C151.3 419.452 151.748 420.498 151.78 421.833V427.912C151.78 429.124 151.935 430.089 152.244 430.805V431H149.876ZM146.128 429.279C146.836 429.279 147.508 429.096 148.143 428.729C148.777 428.363 149.237 427.887 149.522 427.301V424.591H147.752C144.985 424.591 143.602 425.401 143.602 427.021C143.602 427.729 143.838 428.282 144.31 428.681C144.782 429.079 145.388 429.279 146.128 429.279ZM157.774 431H155.516V412.25H157.774V431ZM174.473 423.81H170.298V431H167.942V413.227H173.826C175.828 413.227 177.366 413.682 178.44 414.594C179.523 415.505 180.064 416.832 180.064 418.573C180.064 419.68 179.763 420.644 179.161 421.466C178.567 422.288 177.736 422.903 176.67 423.31L180.845 430.854V431H178.331L174.473 423.81ZM170.298 421.894H173.899C175.063 421.894 175.987 421.592 176.67 420.99C177.362 420.388 177.708 419.582 177.708 418.573C177.708 417.475 177.378 416.632 176.719 416.046C176.068 415.46 175.124 415.163 173.887 415.155H170.298V421.894ZM188.487 431.244C186.696 431.244 185.24 430.658 184.117 429.486C182.994 428.306 182.432 426.732 182.432 424.762V424.347C182.432 423.037 182.68 421.869 183.177 420.844C183.681 419.81 184.381 419.005 185.276 418.427C186.18 417.841 187.156 417.548 188.206 417.548C189.923 417.548 191.258 418.113 192.21 419.245C193.162 420.376 193.638 421.995 193.638 424.103V425.043H184.69C184.723 426.345 185.101 427.399 185.826 428.205C186.558 429.002 187.486 429.401 188.609 429.401C189.406 429.401 190.082 429.238 190.635 428.913C191.189 428.587 191.673 428.156 192.088 427.619L193.467 428.693C192.361 430.394 190.7 431.244 188.487 431.244ZM188.206 419.403C187.295 419.403 186.53 419.737 185.911 420.404C185.293 421.063 184.91 421.991 184.764 423.188H191.38V423.017C191.315 421.869 191.006 420.982 190.452 420.355C189.899 419.721 189.15 419.403 188.206 419.403ZM200.45 427.936L203.721 417.792H206.028L201.292 431H199.571L194.786 417.792H197.093L200.45 427.936ZM210.655 431H208.396V417.792H210.655V431ZM208.213 414.289C208.213 413.922 208.323 413.613 208.543 413.361C208.771 413.109 209.104 412.982 209.544 412.982C209.983 412.982 210.317 413.109 210.545 413.361C210.773 413.613 210.887 413.922 210.887 414.289C210.887 414.655 210.773 414.96 210.545 415.204C210.317 415.448 209.983 415.57 209.544 415.57C209.104 415.57 208.771 415.448 208.543 415.204C208.323 414.96 208.213 414.655 208.213 414.289ZM219.761 431.244C217.971 431.244 216.514 430.658 215.391 429.486C214.268 428.306 213.707 426.732 213.707 424.762V424.347C213.707 423.037 213.955 421.869 214.451 420.844C214.956 419.81 215.656 419.005 216.551 418.427C217.454 417.841 218.431 417.548 219.48 417.548C221.198 417.548 222.532 418.113 223.484 419.245C224.437 420.376 224.913 421.995 224.913 424.103V425.043H215.965C215.997 426.345 216.376 427.399 217.1 428.205C217.833 429.002 218.76 429.401 219.883 429.401C220.681 429.401 221.356 429.238 221.91 428.913C222.463 428.587 222.947 428.156 223.362 427.619L224.742 428.693C223.635 430.394 221.975 431.244 219.761 431.244ZM219.48 419.403C218.569 419.403 217.804 419.737 217.186 420.404C216.567 421.063 216.185 421.991 216.038 423.188H222.654V423.017C222.589 421.869 222.28 420.982 221.727 420.355C221.173 419.721 220.424 419.403 219.48 419.403ZM239.231 427.887L241.771 417.792H244.029L240.184 431H238.353L235.142 420.99L232.017 431H230.186L226.353 417.792H228.599L231.199 427.68L234.275 417.792H236.094L239.231 427.887Z" fill="#565656"/>
<rect x="51.5" y="326.5" width="606" height="51" rx="8.5" stroke="#C4C4C4" stroke-width="3"/>
<rect x="51.5" y="397.5" width="606" height="51" rx="8.5" stroke="#C4C4C4" stroke-width="3"/>
<path d="M627.5 363L616.675 345.75H638.325L627.5 363Z" fill="#C4C4C4"/>
<path d="M627.5 434L616.675 416.75H638.325L627.5 434Z" fill="#C4C4C4"/>
<defs>
<filter id="filter0_bd" x="-85" y="-95" width="889" height="411" filterUnits="userSpaceOnUse" color-interpolation-filters="sRGB">
<feFlood flood-opacity="0" result="BackgroundImageFix"/>
<feGaussianBlur in="BackgroundImage" stdDeviation="50"/>
<feComposite in2="SourceAlpha" operator="in" result="effect1_backgroundBlur"/>
<feColorMatrix in="SourceAlpha" type="matrix" values="0 0 0 0 0 0 0 0 0 0 0 0 0 0 0 0 0 0 127 0"/>
<feMorphology radius="5" operator="dilate" in="SourceAlpha" result="effect2_dropShadow"/>
<feOffset dy="10"/>
<feGaussianBlur stdDeviation="5"/>
<feColorMatrix type="matrix" values="0 0 0 0 0.06375 0 0 0 0 0.144217 0 0 0 0 0.566667 0 0 0 0.1 0"/>
<feBlend mode="normal" in2="effect1_backgroundBlur" result="effect2_dropShadow"/>
<feBlend mode="normal" in="SourceGraphic" in2="effect2_dropShadow" result="shape"/>
</filter>
<filter id="filter1_bd" x="-84" y="162" width="889" height="422" filterUnits="userSpaceOnUse" color-interpolation-filters="sRGB">
<feFlood flood-opacity="0" result="BackgroundImageFix"/>
<feGaussianBlur in="BackgroundImage" stdDeviation="50"/>
<feComposite in2="SourceAlpha" operator="in" result="effect1_backgroundBlur"/>
<feColorMatrix in="SourceAlpha" type="matrix" values="0 0 0 0 0 0 0 0 0 0 0 0 0 0 0 0 0 0 127 0"/>
<feMorphology radius="5" operator="dilate" in="SourceAlpha" result="effect2_dropShadow"/>
<feOffset dy="10"/>
<feGaussianBlur stdDeviation="5"/>
<feColorMatrix type="matrix" values="0 0 0 0 0.06375 0 0 0 0 0.144217 0 0 0 0 0.566667 0 0 0 0.1 0"/>
<feBlend mode="normal" in2="effect1_backgroundBlur" result="effect2_dropShadow"/>
<feBlend mode="normal" in="SourceGraphic" in2="effect2_dropShadow" result="shape"/>
</filter>
</defs>
</svg>
