<svg width="720" height="509" viewBox="0 0 720 509" fill="none" xmlns="http://www.w3.org/2000/svg">
<rect x="340" y="176" width="29" height="155" fill="white"/>
<g filter="url(#filter0_bd)">
<rect x="15" y="5" width="689" height="211" rx="20" fill="white" fill-opacity="0.9"/>
</g>
<g filter="url(#filter1_bd)">
<rect x="16" y="262" width="689" height="222" rx="20" fill="white" fill-opacity="0.9"/>
</g>
<path d="M58.9468 42.7256H56.6274V49H52.3428V31.2266H59.3374C61.4451 31.2266 63.0931 31.6945 64.2812 32.6304C65.4694 33.5662 66.0635 34.8887 66.0635 36.5977C66.0635 37.8346 65.8112 38.86 65.3066 39.6738C64.8102 40.4876 64.029 41.1468 62.9629 41.6514L66.6738 48.8169V49H62.084L58.9468 42.7256ZM56.6274 39.4175H59.3374C60.1512 39.4175 60.7616 39.2059 61.1685 38.7827C61.5835 38.3514 61.791 37.7533 61.791 36.9883C61.791 36.2233 61.5835 35.6252 61.1685 35.1938C60.7534 34.7544 60.1431 34.5347 59.3374 34.5347H56.6274V39.4175ZM74.8525 49.2441C72.8262 49.2441 71.1864 48.6419 69.9331 47.4375C68.6799 46.2249 68.0532 44.6502 68.0532 42.7134V42.3716C68.0532 41.0207 68.3014 39.8285 68.7979 38.7949C69.3024 37.7614 70.0348 36.9639 70.9951 36.4023C71.9554 35.8327 73.0947 35.5479 74.4131 35.5479C76.2686 35.5479 77.7334 36.1257 78.8076 37.2812C79.8818 38.4287 80.4189 40.0319 80.4189 42.0908V43.6899H72.2402C72.3867 44.4305 72.7082 45.0124 73.2046 45.4355C73.701 45.8587 74.3439 46.0703 75.1333 46.0703C76.4354 46.0703 77.4526 45.6146 78.1851 44.7031L80.0649 46.9248C79.5522 47.6328 78.8239 48.1984 77.8799 48.6216C76.944 49.0366 75.9349 49.2441 74.8525 49.2441ZM74.3887 38.7217C73.1842 38.7217 72.4681 39.5192 72.2402 41.1143H76.3906V40.7969C76.4069 40.1377 76.2401 39.6291 75.8901 39.271C75.5402 38.9048 75.0397 38.7217 74.3887 38.7217ZM89.5254 49C89.3789 48.7314 89.2487 48.3368 89.1348 47.8159C88.3779 48.7681 87.32 49.2441 85.9609 49.2441C84.7158 49.2441 83.6579 48.8698 82.7871 48.1211C81.9163 47.3643 81.481 46.4162 81.481 45.2769C81.481 43.8446 82.0099 42.7622 83.0679 42.0298C84.1258 41.2974 85.6639 40.9312 87.6821 40.9312H88.9517V40.2354C88.9517 39.0228 88.4268 38.4165 87.377 38.4165C86.4004 38.4165 85.9121 38.8966 85.9121 39.8569H81.7983C81.7983 38.5793 82.3395 37.5417 83.4219 36.7441C84.5124 35.9466 85.8999 35.5479 87.5845 35.5479C89.269 35.5479 90.5996 35.9588 91.5762 36.7808C92.5527 37.6027 93.0532 38.7298 93.0776 40.1621V46.0093C93.0939 47.2218 93.2811 48.1496 93.6392 48.7925V49H89.5254ZM86.9497 46.3145C87.4624 46.3145 87.8856 46.2046 88.2192 45.9849C88.561 45.7651 88.8052 45.5169 88.9517 45.2402V43.1284H87.7554C86.3231 43.1284 85.6069 43.7713 85.6069 45.0571C85.6069 45.4315 85.7331 45.7367 85.9854 45.9727C86.2376 46.2005 86.5591 46.3145 86.9497 46.3145ZM100.951 46.0703C101.529 46.0703 101.977 45.9157 102.294 45.6064C102.611 45.2891 102.766 44.8496 102.758 44.2881H106.615C106.615 45.7367 106.094 46.9248 105.053 47.8525C104.019 48.7803 102.685 49.2441 101.049 49.2441C99.1283 49.2441 97.6146 48.6419 96.5078 47.4375C95.401 46.2331 94.8477 44.5648 94.8477 42.4326V42.2617C94.8477 40.9271 95.0918 39.7511 95.5801 38.7339C96.0765 37.7085 96.7886 36.9232 97.7163 36.3779C98.644 35.8245 99.7427 35.5479 101.012 35.5479C102.729 35.5479 104.092 36.0239 105.102 36.9761C106.111 37.9282 106.615 39.2181 106.615 40.8457H102.758C102.758 40.1621 102.591 39.6372 102.257 39.271C101.924 38.9048 101.476 38.7217 100.915 38.7217C99.8485 38.7217 99.2259 39.4012 99.0469 40.7603C98.9899 41.1916 98.9614 41.7856 98.9614 42.5425C98.9614 43.869 99.1201 44.7886 99.4375 45.3013C99.7549 45.814 100.259 46.0703 100.951 46.0703ZM112.377 37.208C113.256 36.1012 114.379 35.5479 115.746 35.5479C117.203 35.5479 118.301 35.9792 119.042 36.8418C119.783 37.7044 120.161 38.978 120.177 40.6626V49H116.051V40.7603C116.051 40.0604 115.909 39.5477 115.624 39.2222C115.339 38.8885 114.855 38.7217 114.171 38.7217C113.325 38.7217 112.727 38.9902 112.377 39.5273V49H108.263V30.25H112.377V37.208ZM128.173 42.2739C128.173 40.9556 128.429 39.7837 128.942 38.7583C129.455 37.7248 130.191 36.9313 131.151 36.3779C132.112 35.8245 133.239 35.5479 134.533 35.5479C136.51 35.5479 138.069 36.1623 139.208 37.3911C140.347 38.6118 140.917 40.276 140.917 42.3838V42.5303C140.917 44.5892 140.343 46.2249 139.196 47.4375C138.056 48.6419 136.51 49.2441 134.557 49.2441C132.677 49.2441 131.168 48.6826 130.028 47.5596C128.889 46.4284 128.275 44.8984 128.185 42.9697L128.173 42.2739ZM132.287 42.5303C132.287 43.751 132.478 44.6462 132.86 45.2158C133.243 45.7855 133.808 46.0703 134.557 46.0703C136.022 46.0703 136.771 44.9432 136.803 42.689V42.2739C136.803 39.9058 136.046 38.7217 134.533 38.7217C133.157 38.7217 132.413 39.743 132.299 41.7856L132.287 42.5303ZM150.597 47.5718C149.726 48.6867 148.55 49.2441 147.069 49.2441C145.621 49.2441 144.522 48.825 143.773 47.9868C143.033 47.1405 142.663 45.9279 142.663 44.3491V35.792H146.776V44.3735C146.776 45.5047 147.326 46.0703 148.424 46.0703C149.368 46.0703 150.04 45.7326 150.438 45.0571V35.792H154.577V49H150.719L150.597 47.5718ZM161.632 32.5083V35.792H163.805V38.6484H161.632V44.6909C161.632 45.1873 161.722 45.5332 161.901 45.7285C162.08 45.9238 162.434 46.0215 162.963 46.0215C163.37 46.0215 163.712 45.9971 163.988 45.9482V48.8901C163.248 49.1261 162.475 49.2441 161.669 49.2441C160.253 49.2441 159.207 48.9105 158.532 48.2432C157.856 47.5758 157.519 46.5627 157.519 45.2036V38.6484H155.834V35.792H157.519V32.5083H161.632ZM176.452 32.5083V35.792H178.625V38.6484H176.452V44.6909C176.452 45.1873 176.541 45.5332 176.72 45.7285C176.899 45.9238 177.253 46.0215 177.782 46.0215C178.189 46.0215 178.531 45.9971 178.808 45.9482V48.8901C178.067 49.1261 177.294 49.2441 176.488 49.2441C175.072 49.2441 174.027 48.9105 173.351 48.2432C172.676 47.5758 172.338 46.5627 172.338 45.2036V38.6484H170.653V35.792H172.338V32.5083H176.452ZM179.369 42.2739C179.369 40.9556 179.625 39.7837 180.138 38.7583C180.651 37.7248 181.387 36.9313 182.348 36.3779C183.308 35.8245 184.435 35.5479 185.729 35.5479C187.707 35.5479 189.265 36.1623 190.404 37.3911C191.544 38.6118 192.113 40.276 192.113 42.3838V42.5303C192.113 44.5892 191.54 46.2249 190.392 47.4375C189.253 48.6419 187.707 49.2441 185.753 49.2441C183.874 49.2441 182.364 48.6826 181.225 47.5596C180.085 46.4284 179.471 44.8984 179.381 42.9697L179.369 42.2739ZM183.483 42.5303C183.483 43.751 183.674 44.6462 184.057 45.2158C184.439 45.7855 185.005 46.0703 185.753 46.0703C187.218 46.0703 187.967 44.9432 188 42.689V42.2739C188 39.9058 187.243 38.7217 185.729 38.7217C184.354 38.7217 183.609 39.743 183.495 41.7856L183.483 42.5303ZM204.491 49H200.365V35.792H204.491V49ZM200.121 32.3862C200.121 31.8003 200.333 31.3201 200.756 30.9458C201.179 30.5715 201.728 30.3843 202.404 30.3843C203.079 30.3843 203.629 30.5715 204.052 30.9458C204.475 31.3201 204.687 31.8003 204.687 32.3862C204.687 32.9722 204.475 33.4523 204.052 33.8267C203.629 34.201 203.079 34.3882 202.404 34.3882C201.728 34.3882 201.179 34.201 200.756 33.8267C200.333 33.4523 200.121 32.9722 200.121 32.3862ZM210.814 35.792L210.949 37.3423C211.86 36.146 213.118 35.5479 214.721 35.5479C216.096 35.5479 217.121 35.9588 217.797 36.7808C218.48 37.6027 218.834 38.8397 218.859 40.4917V49H214.733V40.6626C214.733 39.9953 214.599 39.507 214.33 39.1978C214.062 38.8804 213.573 38.7217 212.865 38.7217C212.06 38.7217 211.461 39.0391 211.071 39.6738V49H206.957V35.792H210.814ZM228.588 49C228.441 48.7314 228.311 48.3368 228.197 47.8159C227.44 48.7681 226.382 49.2441 225.023 49.2441C223.778 49.2441 222.72 48.8698 221.85 48.1211C220.979 47.3643 220.543 46.4162 220.543 45.2769C220.543 43.8446 221.072 42.7622 222.13 42.0298C223.188 41.2974 224.726 40.9312 226.745 40.9312H228.014V40.2354C228.014 39.0228 227.489 38.4165 226.439 38.4165C225.463 38.4165 224.975 38.8966 224.975 39.8569H220.861C220.861 38.5793 221.402 37.5417 222.484 36.7441C223.575 35.9466 224.962 35.5479 226.647 35.5479C228.332 35.5479 229.662 35.9588 230.639 36.7808C231.615 37.6027 232.116 38.7298 232.14 40.1621V46.0093C232.156 47.2218 232.344 48.1496 232.702 48.7925V49H228.588ZM226.012 46.3145C226.525 46.3145 226.948 46.2046 227.282 45.9849C227.624 45.7651 227.868 45.5169 228.014 45.2402V43.1284H226.818C225.386 43.1284 224.669 43.7713 224.669 45.0571C224.669 45.4315 224.796 45.7367 225.048 45.9727C225.3 46.2005 225.622 46.3145 226.012 46.3145ZM240.014 46.0703C240.591 46.0703 241.039 45.9157 241.356 45.6064C241.674 45.2891 241.828 44.8496 241.82 44.2881H245.678C245.678 45.7367 245.157 46.9248 244.115 47.8525C243.082 48.7803 241.747 49.2441 240.111 49.2441C238.191 49.2441 236.677 48.6419 235.57 47.4375C234.464 46.2331 233.91 44.5648 233.91 42.4326V42.2617C233.91 40.9271 234.154 39.7511 234.643 38.7339C235.139 37.7085 235.851 36.9232 236.779 36.3779C237.707 35.8245 238.805 35.5479 240.075 35.5479C241.792 35.5479 243.155 36.0239 244.164 36.9761C245.173 37.9282 245.678 39.2181 245.678 40.8457H241.82C241.82 40.1621 241.653 39.6372 241.32 39.271C240.986 38.9048 240.539 38.7217 239.977 38.7217C238.911 38.7217 238.288 39.4012 238.109 40.7603C238.052 41.1916 238.024 41.7856 238.024 42.5425C238.024 43.869 238.183 44.7886 238.5 45.3013C238.817 45.814 239.322 46.0703 240.014 46.0703ZM252.208 32.5083V35.792H254.381V38.6484H252.208V44.6909C252.208 45.1873 252.298 45.5332 252.477 45.7285C252.656 45.9238 253.01 46.0215 253.539 46.0215C253.946 46.0215 254.288 45.9971 254.564 45.9482V48.8901C253.824 49.1261 253.051 49.2441 252.245 49.2441C250.829 49.2441 249.783 48.9105 249.108 48.2432C248.432 47.5758 248.095 46.5627 248.095 45.2036V38.6484H246.41V35.792H248.095V32.5083H252.208ZM260.351 49H256.225V35.792H260.351V49ZM255.98 32.3862C255.98 31.8003 256.192 31.3201 256.615 30.9458C257.038 30.5715 257.588 30.3843 258.263 30.3843C258.939 30.3843 259.488 30.5715 259.911 30.9458C260.334 31.3201 260.546 31.8003 260.546 32.3862C260.546 32.9722 260.334 33.4523 259.911 33.8267C259.488 34.201 258.939 34.3882 258.263 34.3882C257.588 34.3882 257.038 34.201 256.615 33.8267C256.192 33.4523 255.98 32.9722 255.98 32.3862ZM268.163 44.105L270.25 35.792H274.584L270.275 49H266.076L261.767 35.792H266.112L268.163 44.105ZM282.03 49.2441C280.004 49.2441 278.364 48.6419 277.111 47.4375C275.858 46.2249 275.231 44.6502 275.231 42.7134V42.3716C275.231 41.0207 275.479 39.8285 275.976 38.7949C276.48 37.7614 277.213 36.9639 278.173 36.4023C279.133 35.8327 280.272 35.5479 281.591 35.5479C283.446 35.5479 284.911 36.1257 285.985 37.2812C287.06 38.4287 287.597 40.0319 287.597 42.0908V43.6899H279.418C279.564 44.4305 279.886 45.0124 280.382 45.4355C280.879 45.8587 281.522 46.0703 282.311 46.0703C283.613 46.0703 284.63 45.6146 285.363 44.7031L287.243 46.9248C286.73 47.6328 286.002 48.1984 285.058 48.6216C284.122 49.0366 283.113 49.2441 282.03 49.2441ZM281.566 38.7217C280.362 38.7217 279.646 39.5192 279.418 41.1143H283.568V40.7969C283.585 40.1377 283.418 39.6291 283.068 39.271C282.718 38.9048 282.217 38.7217 281.566 38.7217ZM303.356 47.5718C302.485 48.6867 301.309 49.2441 299.828 49.2441C298.38 49.2441 297.281 48.825 296.532 47.9868C295.792 47.1405 295.421 45.9279 295.421 44.3491V35.792H299.535V44.3735C299.535 45.5047 300.084 46.0703 301.183 46.0703C302.127 46.0703 302.799 45.7326 303.197 45.0571V35.792H307.335V49H303.478L303.356 47.5718ZM316.515 45.2891C316.515 44.9391 316.332 44.6584 315.966 44.4468C315.6 44.2352 314.904 44.0155 313.878 43.7876C312.853 43.5597 312.007 43.2627 311.339 42.8965C310.672 42.5221 310.163 42.0705 309.813 41.5415C309.464 41.0125 309.289 40.4062 309.289 39.7227C309.289 38.5101 309.789 37.5132 310.79 36.7319C311.791 35.9425 313.101 35.5479 314.721 35.5479C316.462 35.5479 317.862 35.9425 318.92 36.7319C319.978 37.5213 320.507 38.5589 320.507 39.8447H316.381C316.381 38.7868 315.823 38.2578 314.708 38.2578C314.277 38.2578 313.915 38.3799 313.622 38.624C313.329 38.86 313.183 39.1571 313.183 39.5151C313.183 39.8813 313.362 40.1784 313.72 40.4062C314.078 40.6341 314.647 40.8213 315.429 40.9678C316.218 41.1143 316.91 41.2892 317.504 41.4927C319.49 42.1763 320.482 43.401 320.482 45.167C320.482 46.3714 319.945 47.3521 318.871 48.1089C317.805 48.8657 316.422 49.2441 314.721 49.2441C313.59 49.2441 312.58 49.0407 311.693 48.6338C310.806 48.2269 310.115 47.6735 309.618 46.9736C309.122 46.2738 308.874 45.5373 308.874 44.7642H312.719C312.735 45.3745 312.938 45.8221 313.329 46.1069C313.72 46.3836 314.22 46.522 314.831 46.522C315.392 46.522 315.811 46.408 316.088 46.1802C316.373 45.9523 316.515 45.6553 316.515 45.2891ZM328.808 49.2441C326.781 49.2441 325.141 48.6419 323.888 47.4375C322.635 46.2249 322.008 44.6502 322.008 42.7134V42.3716C322.008 41.0207 322.257 39.8285 322.753 38.7949C323.257 37.7614 323.99 36.9639 324.95 36.4023C325.91 35.8327 327.05 35.5479 328.368 35.5479C330.224 35.5479 331.688 36.1257 332.763 37.2812C333.837 38.4287 334.374 40.0319 334.374 42.0908V43.6899H326.195C326.342 44.4305 326.663 45.0124 327.16 45.4355C327.656 45.8587 328.299 46.0703 329.088 46.0703C330.39 46.0703 331.408 45.6146 332.14 44.7031L334.02 46.9248C333.507 47.6328 332.779 48.1984 331.835 48.6216C330.899 49.0366 329.89 49.2441 328.808 49.2441ZM328.344 38.7217C327.139 38.7217 326.423 39.5192 326.195 41.1143H330.346V40.7969C330.362 40.1377 330.195 39.6291 329.845 39.271C329.495 38.9048 328.995 38.7217 328.344 38.7217ZM344.03 39.5151L342.675 39.4175C341.381 39.4175 340.551 39.8244 340.185 40.6382V49H336.071V35.792H339.928L340.062 37.4888C340.754 36.1948 341.719 35.5479 342.956 35.5479C343.395 35.5479 343.778 35.5967 344.103 35.6943L344.03 39.5151ZM352.428 45.2891C352.428 44.9391 352.245 44.6584 351.879 44.4468C351.513 44.2352 350.817 44.0155 349.792 43.7876C348.766 43.5597 347.92 43.2627 347.252 42.8965C346.585 42.5221 346.076 42.0705 345.727 41.5415C345.377 41.0125 345.202 40.4062 345.202 39.7227C345.202 38.5101 345.702 37.5132 346.703 36.7319C347.704 35.9425 349.014 35.5479 350.634 35.5479C352.375 35.5479 353.775 35.9425 354.833 36.7319C355.891 37.5213 356.42 38.5589 356.42 39.8447H352.294C352.294 38.7868 351.736 38.2578 350.622 38.2578C350.19 38.2578 349.828 38.3799 349.535 38.624C349.242 38.86 349.096 39.1571 349.096 39.5151C349.096 39.8813 349.275 40.1784 349.633 40.4062C349.991 40.6341 350.561 40.8213 351.342 40.9678C352.131 41.1143 352.823 41.2892 353.417 41.4927C355.403 42.1763 356.396 43.401 356.396 45.167C356.396 46.3714 355.858 47.3521 354.784 48.1089C353.718 48.8657 352.335 49.2441 350.634 49.2441C349.503 49.2441 348.493 49.0407 347.606 48.6338C346.719 48.2269 346.028 47.6735 345.531 46.9736C345.035 46.2738 344.787 45.5373 344.787 44.7642H348.632C348.648 45.3745 348.852 45.8221 349.242 46.1069C349.633 46.3836 350.133 46.522 350.744 46.522C351.305 46.522 351.724 46.408 352.001 46.1802C352.286 45.9523 352.428 45.6553 352.428 45.2891ZM371.996 49C371.85 48.7314 371.719 48.3368 371.605 47.8159C370.849 48.7681 369.791 49.2441 368.432 49.2441C367.187 49.2441 366.129 48.8698 365.258 48.1211C364.387 47.3643 363.952 46.4162 363.952 45.2769C363.952 43.8446 364.481 42.7622 365.539 42.0298C366.597 41.2974 368.135 40.9312 370.153 40.9312H371.422V40.2354C371.422 39.0228 370.897 38.4165 369.848 38.4165C368.871 38.4165 368.383 38.8966 368.383 39.8569H364.269C364.269 38.5793 364.81 37.5417 365.893 36.7441C366.983 35.9466 368.371 35.5479 370.055 35.5479C371.74 35.5479 373.07 35.9588 374.047 36.7808C375.023 37.6027 375.524 38.7298 375.548 40.1621V46.0093C375.565 47.2218 375.752 48.1496 376.11 48.7925V49H371.996ZM369.42 46.3145C369.933 46.3145 370.356 46.2046 370.69 45.9849C371.032 45.7651 371.276 45.5169 371.422 45.2402V43.1284H370.226C368.794 43.1284 368.078 43.7713 368.078 45.0571C368.078 45.4315 368.204 45.7367 368.456 45.9727C368.708 46.2005 369.03 46.3145 369.42 46.3145ZM382.628 32.5083V35.792H384.801V38.6484H382.628V44.6909C382.628 45.1873 382.718 45.5332 382.897 45.7285C383.076 45.9238 383.43 46.0215 383.959 46.0215C384.366 46.0215 384.708 45.9971 384.984 45.9482V48.8901C384.244 49.1261 383.471 49.2441 382.665 49.2441C381.249 49.2441 380.203 48.9105 379.528 48.2432C378.852 47.5758 378.515 46.5627 378.515 45.2036V38.6484H376.83V35.792H378.515V32.5083H382.628ZM400.646 39.5151L399.291 39.4175C397.997 39.4175 397.167 39.8244 396.801 40.6382V49H392.687V35.792H396.544L396.679 37.4888C397.37 36.1948 398.335 35.5479 399.572 35.5479C400.011 35.5479 400.394 35.5967 400.719 35.6943L400.646 39.5151ZM406.469 49H402.343V35.792H406.469V49ZM402.099 32.3862C402.099 31.8003 402.31 31.3201 402.733 30.9458C403.157 30.5715 403.706 30.3843 404.381 30.3843C405.057 30.3843 405.606 30.5715 406.029 30.9458C406.452 31.3201 406.664 31.8003 406.664 32.3862C406.664 32.9722 406.452 33.4523 406.029 33.8267C405.606 34.201 405.057 34.3882 404.381 34.3882C403.706 34.3882 403.157 34.201 402.733 33.8267C402.31 33.4523 402.099 32.9722 402.099 32.3862ZM415.929 45.2891C415.929 44.9391 415.746 44.6584 415.38 44.4468C415.014 44.2352 414.318 44.0155 413.292 43.7876C412.267 43.5597 411.421 43.2627 410.753 42.8965C410.086 42.5221 409.577 42.0705 409.228 41.5415C408.878 41.0125 408.703 40.4062 408.703 39.7227C408.703 38.5101 409.203 37.5132 410.204 36.7319C411.205 35.9425 412.515 35.5479 414.135 35.5479C415.876 35.5479 417.276 35.9425 418.334 36.7319C419.392 37.5213 419.921 38.5589 419.921 39.8447H415.795C415.795 38.7868 415.237 38.2578 414.123 38.2578C413.691 38.2578 413.329 38.3799 413.036 38.624C412.743 38.86 412.597 39.1571 412.597 39.5151C412.597 39.8813 412.776 40.1784 413.134 40.4062C413.492 40.6341 414.062 40.8213 414.843 40.9678C415.632 41.1143 416.324 41.2892 416.918 41.4927C418.904 42.1763 419.896 43.401 419.896 45.167C419.896 46.3714 419.359 47.3521 418.285 48.1089C417.219 48.8657 415.836 49.2441 414.135 49.2441C413.004 49.2441 411.994 49.0407 411.107 48.6338C410.22 48.2269 409.529 47.6735 409.032 46.9736C408.536 46.2738 408.288 45.5373 408.288 44.7642H412.133C412.149 45.3745 412.353 45.8221 412.743 46.1069C413.134 46.3836 413.634 46.522 414.245 46.522C414.806 46.522 415.225 46.408 415.502 46.1802C415.787 45.9523 415.929 45.6553 415.929 45.2891ZM427.135 44.0806L425.976 45.2402V49H421.862V30.2378H425.976V40.1987L426.391 39.6494L429.491 35.792H434.423L429.796 41.2241L434.728 49H430.016L427.135 44.0806ZM441.21 42.2739C441.21 40.9556 441.466 39.7837 441.979 38.7583C442.492 37.7248 443.228 36.9313 444.188 36.3779C445.149 35.8245 446.276 35.5479 447.57 35.5479C449.547 35.5479 451.106 36.1623 452.245 37.3911C453.384 38.6118 453.954 40.276 453.954 42.3838V42.5303C453.954 44.5892 453.38 46.2249 452.233 47.4375C451.094 48.6419 449.547 49.2441 447.594 49.2441C445.714 49.2441 444.205 48.6826 443.065 47.5596C441.926 46.4284 441.312 44.8984 441.222 42.9697L441.21 42.2739ZM445.324 42.5303C445.324 43.751 445.515 44.6462 445.897 45.2158C446.28 45.7855 446.846 46.0703 447.594 46.0703C449.059 46.0703 449.808 44.9432 449.84 42.689V42.2739C449.84 39.9058 449.083 38.7217 447.57 38.7217C446.194 38.7217 445.45 39.743 445.336 41.7856L445.324 42.5303ZM456.676 49V38.6484H454.76V35.792H456.676V34.7422C456.676 33.2367 457.12 32.0688 458.007 31.2388C458.894 30.4087 460.139 29.9937 461.742 29.9937C462.328 29.9937 462.971 30.0791 463.671 30.25L463.683 33.2773C463.431 33.2041 463.093 33.1675 462.67 33.1675C461.425 33.1675 460.802 33.7046 460.802 34.7788V35.792H463.378V38.6484H460.802V49H456.676ZM476.635 46.0703C477.213 46.0703 477.66 45.9157 477.978 45.6064C478.295 45.2891 478.45 44.8496 478.441 44.2881H482.299C482.299 45.7367 481.778 46.9248 480.736 47.8525C479.703 48.7803 478.368 49.2441 476.732 49.2441C474.812 49.2441 473.298 48.6419 472.191 47.4375C471.085 46.2331 470.531 44.5648 470.531 42.4326V42.2617C470.531 40.9271 470.775 39.7511 471.264 38.7339C471.76 37.7085 472.472 36.9232 473.4 36.3779C474.328 35.8245 475.426 35.5479 476.696 35.5479C478.413 35.5479 479.776 36.0239 480.785 36.9761C481.794 37.9282 482.299 39.2181 482.299 40.8457H478.441C478.441 40.1621 478.275 39.6372 477.941 39.271C477.607 38.9048 477.16 38.7217 476.598 38.7217C475.532 38.7217 474.91 39.4012 474.73 40.7603C474.674 41.1916 474.645 41.7856 474.645 42.5425C474.645 43.869 474.804 44.7886 475.121 45.3013C475.438 45.814 475.943 46.0703 476.635 46.0703ZM488.061 37.208C488.939 36.1012 490.062 35.5479 491.43 35.5479C492.886 35.5479 493.985 35.9792 494.726 36.8418C495.466 37.7044 495.845 38.978 495.861 40.6626V49H491.735V40.7603C491.735 40.0604 491.592 39.5477 491.308 39.2222C491.023 38.8885 490.539 38.7217 489.855 38.7217C489.009 38.7217 488.41 38.9902 488.061 39.5273V49H483.947V30.25H488.061V37.208ZM506.017 47.5718C505.146 48.6867 503.97 49.2441 502.489 49.2441C501.041 49.2441 499.942 48.825 499.193 47.9868C498.453 47.1405 498.083 45.9279 498.083 44.3491V35.792H502.196V44.3735C502.196 45.5047 502.746 46.0703 503.844 46.0703C504.788 46.0703 505.46 45.7326 505.858 45.0571V35.792H509.997V49H506.139L506.017 47.5718ZM520.25 39.5151L518.896 39.4175C517.602 39.4175 516.771 39.8244 516.405 40.6382V49H512.292V35.792H516.149L516.283 37.4888C516.975 36.1948 517.939 35.5479 519.176 35.5479C519.616 35.5479 519.998 35.5967 520.324 35.6943L520.25 39.5151ZM525.512 35.792L525.646 37.3423C526.557 36.146 527.815 35.5479 529.418 35.5479C530.793 35.5479 531.819 35.9588 532.494 36.7808C533.178 37.6027 533.532 38.8397 533.556 40.4917V49H529.43V40.6626C529.43 39.9953 529.296 39.507 529.027 39.1978C528.759 38.8804 528.271 38.7217 527.562 38.7217C526.757 38.7217 526.159 39.0391 525.768 39.6738V49H521.654V35.792H525.512Z" fill="black"/>
<path d="M62.438 300.68H56.5664L55.541 304H50.9634L57.4819 286.227H61.5103L68.0776 304H63.4756L62.438 300.68ZM57.5918 297.372H61.4126L59.4961 291.207L57.5918 297.372ZM74.7793 301.07C75.3571 301.07 75.8047 300.916 76.1221 300.606C76.4395 300.289 76.5941 299.85 76.5859 299.288H80.4434C80.4434 300.737 79.9225 301.925 78.8809 302.853C77.8473 303.78 76.5127 304.244 74.877 304.244C72.9564 304.244 71.4427 303.642 70.3359 302.438C69.2292 301.233 68.6758 299.565 68.6758 297.433V297.262C68.6758 295.927 68.9199 294.751 69.4082 293.734C69.9046 292.708 70.6167 291.923 71.5444 291.378C72.4722 290.825 73.5708 290.548 74.8403 290.548C76.5575 290.548 77.9206 291.024 78.9297 291.976C79.9388 292.928 80.4434 294.218 80.4434 295.846H76.5859C76.5859 295.162 76.4191 294.637 76.0854 294.271C75.7518 293.905 75.3042 293.722 74.7427 293.722C73.6766 293.722 73.054 294.401 72.875 295.76C72.818 296.192 72.7896 296.786 72.7896 297.542C72.7896 298.869 72.9482 299.789 73.2656 300.301C73.583 300.814 74.0876 301.07 74.7793 301.07ZM86.9741 287.508V290.792H89.147V293.648H86.9741V299.691C86.9741 300.187 87.0636 300.533 87.2427 300.729C87.4217 300.924 87.7757 301.021 88.3047 301.021C88.7116 301.021 89.0534 300.997 89.3301 300.948V303.89C88.5895 304.126 87.8164 304.244 87.0107 304.244C85.5947 304.244 84.549 303.91 83.8735 303.243C83.1981 302.576 82.8604 301.563 82.8604 300.204V293.648H81.1758V290.792H82.8604V287.508H86.9741ZM95.1162 304H90.9902V290.792H95.1162V304ZM90.7461 287.386C90.7461 286.8 90.9577 286.32 91.3809 285.946C91.804 285.571 92.3534 285.384 93.0288 285.384C93.7043 285.384 94.2536 285.571 94.6768 285.946C95.0999 286.32 95.3115 286.8 95.3115 287.386C95.3115 287.972 95.0999 288.452 94.6768 288.827C94.2536 289.201 93.7043 289.388 93.0288 289.388C92.3534 289.388 91.804 289.201 91.3809 288.827C90.9577 288.452 90.7461 287.972 90.7461 287.386ZM97.1426 297.274C97.1426 295.956 97.3989 294.784 97.9116 293.758C98.4243 292.725 99.1608 291.931 100.121 291.378C101.081 290.825 102.208 290.548 103.502 290.548C105.48 290.548 107.038 291.162 108.178 292.391C109.317 293.612 109.887 295.276 109.887 297.384V297.53C109.887 299.589 109.313 301.225 108.166 302.438C107.026 303.642 105.48 304.244 103.527 304.244C101.647 304.244 100.137 303.683 98.998 302.56C97.8587 301.428 97.2443 299.898 97.1548 297.97L97.1426 297.274ZM101.256 297.53C101.256 298.751 101.448 299.646 101.83 300.216C102.213 300.785 102.778 301.07 103.527 301.07C104.992 301.07 105.74 299.943 105.773 297.689V297.274C105.773 294.906 105.016 293.722 103.502 293.722C102.127 293.722 101.382 294.743 101.269 296.786L101.256 297.53ZM115.478 290.792L115.612 292.342C116.523 291.146 117.781 290.548 119.384 290.548C120.759 290.548 121.785 290.959 122.46 291.781C123.144 292.603 123.498 293.84 123.522 295.492V304H119.396V295.663C119.396 294.995 119.262 294.507 118.993 294.198C118.725 293.88 118.236 293.722 117.528 293.722C116.723 293.722 116.125 294.039 115.734 294.674V304H111.62V290.792H115.478Z" fill="black"/>
<rect x="16" y="77" width="688" height="2" fill="#E5E5E5"/>
<rect x="55" y="79" width="3" height="137" fill="#E5E5E5"/>
<path d="M36.8608 123H34.5903V107.949L30.0371 109.621V107.57L36.5068 105.141H36.8608V123ZM41.0845 152H29.439V150.376L35.5913 143.541C36.5028 142.507 37.1294 141.669 37.4712 141.026C37.8211 140.375 37.9961 139.703 37.9961 139.012C37.9961 138.084 37.7153 137.323 37.1538 136.729C36.5923 136.135 35.8436 135.838 34.9077 135.838C33.7847 135.838 32.9098 136.159 32.2832 136.802C31.6647 137.437 31.3555 138.324 31.3555 139.463H29.0972C29.0972 137.828 29.6221 136.505 30.6719 135.496C31.7298 134.487 33.1418 133.982 34.9077 133.982C36.5597 133.982 37.8659 134.418 38.8262 135.289C39.7865 136.151 40.2666 137.303 40.2666 138.743C40.2666 140.493 39.1517 142.576 36.9219 144.993L32.1611 150.157H41.0845V152ZM32.7227 171.015H34.4194C35.4855 170.998 36.3237 170.718 36.9341 170.172C37.5444 169.627 37.8496 168.891 37.8496 167.963C37.8496 165.88 36.812 164.838 34.7368 164.838C33.7603 164.838 32.979 165.119 32.3931 165.68C31.8153 166.234 31.5264 166.97 31.5264 167.89H29.2681C29.2681 166.482 29.7808 165.314 30.8062 164.386C31.8397 163.45 33.1499 162.982 34.7368 162.982C36.4132 162.982 37.7275 163.426 38.6797 164.313C39.6318 165.2 40.1079 166.433 40.1079 168.012C40.1079 168.785 39.8556 169.534 39.3511 170.258C38.8547 170.982 38.1751 171.523 37.3125 171.881C38.2891 172.191 39.0418 172.703 39.5708 173.419C40.1079 174.136 40.3765 175.01 40.3765 176.044C40.3765 177.639 39.8556 178.904 38.814 179.84C37.7723 180.776 36.4173 181.244 34.749 181.244C33.0807 181.244 31.7217 180.792 30.6719 179.889C29.6302 178.986 29.1094 177.794 29.1094 176.312H31.3799C31.3799 177.248 31.6851 177.997 32.2954 178.559C32.9058 179.12 33.7236 179.401 34.749 179.401C35.8395 179.401 36.6737 179.116 37.2515 178.546C37.8293 177.977 38.1182 177.159 38.1182 176.093C38.1182 175.059 37.8008 174.266 37.166 173.712C36.5312 173.159 35.6157 172.874 34.4194 172.858H32.7227V171.015Z" fill="#C4C4C4"/>
<path d="M91.8032 119.337C91.8032 118.645 91.5591 118.116 91.0708 117.75C90.5825 117.376 89.7036 116.985 88.4341 116.578C87.1646 116.163 86.1595 115.756 85.4189 115.357C83.4007 114.267 82.3916 112.798 82.3916 110.951C82.3916 109.99 82.6602 109.136 83.1973 108.387C83.7425 107.63 84.5197 107.04 85.5288 106.617C86.5461 106.194 87.6854 105.982 88.9468 105.982C90.2163 105.982 91.3475 106.214 92.3403 106.678C93.3332 107.134 94.1022 107.781 94.6475 108.619C95.2008 109.457 95.4775 110.41 95.4775 111.476H91.8154C91.8154 110.662 91.5591 110.031 91.0464 109.583C90.5337 109.128 89.8135 108.9 88.8857 108.9C87.9906 108.9 87.2948 109.091 86.7983 109.474C86.3019 109.848 86.0537 110.344 86.0537 110.963C86.0537 111.541 86.3426 112.025 86.9204 112.416C87.5063 112.806 88.3649 113.172 89.4961 113.514C91.5794 114.141 93.0972 114.918 94.0493 115.846C95.0015 116.773 95.4775 117.929 95.4775 119.312C95.4775 120.851 94.8957 122.059 93.7319 122.938C92.5682 123.809 91.0016 124.244 89.0322 124.244C87.665 124.244 86.4199 123.996 85.2969 123.5C84.1738 122.995 83.3153 122.307 82.7212 121.437C82.1353 120.566 81.8423 119.557 81.8423 118.409H85.5166C85.5166 120.37 86.6885 121.351 89.0322 121.351C89.903 121.351 90.5825 121.176 91.0708 120.826C91.5591 120.468 91.8032 119.972 91.8032 119.337ZM108.661 116.297H101.63V121.058H109.882V124H97.9678V106.227H109.857V109.193H101.63V113.429H108.661V116.297ZM115.692 121.058H123.468V124H112.03V106.227H115.692V121.058ZM136.273 116.297H129.242V121.058H137.494V124H125.58V106.227H137.47V109.193H129.242V113.429H136.273V116.297ZM153.595 118.08C153.457 119.992 152.749 121.498 151.471 122.596C150.202 123.695 148.525 124.244 146.442 124.244C144.163 124.244 142.369 123.479 141.059 121.949C139.757 120.411 139.105 118.303 139.105 115.626V114.54C139.105 112.831 139.407 111.325 140.009 110.023C140.611 108.721 141.47 107.724 142.584 107.032C143.708 106.332 145.01 105.982 146.491 105.982C148.542 105.982 150.194 106.532 151.447 107.63C152.7 108.729 153.424 110.271 153.62 112.257H149.958C149.868 111.109 149.547 110.279 148.993 109.767C148.448 109.246 147.614 108.985 146.491 108.985C145.27 108.985 144.354 109.425 143.744 110.304C143.142 111.174 142.833 112.529 142.816 114.369V115.711C142.816 117.632 143.105 119.036 143.683 119.923C144.269 120.81 145.189 121.253 146.442 121.253C147.573 121.253 148.415 120.997 148.969 120.484C149.53 119.964 149.852 119.162 149.933 118.08H153.595ZM169.013 109.193H163.568V124H159.906V109.193H154.535V106.227H169.013V109.193ZM96.4297 147.873L98.8223 135.227H102.472L98.5293 153H94.8428L91.9497 141.11L89.0566 153H85.3701L81.4272 135.227H85.0771L87.4819 147.849L90.4116 135.227H93.5122L96.4297 147.873ZM118.927 153H115.265V145.383H108.124V153H104.462V135.227H108.124V142.429H115.265V135.227H118.927V153ZM132.831 145.297H125.8V150.058H134.052V153H122.138V135.227H134.027V138.193H125.8V142.429H132.831V145.297ZM142.78 146.494H139.862V153H136.2V135.227H142.804C144.904 135.227 146.523 135.694 147.663 136.63C148.802 137.566 149.372 138.889 149.372 140.598C149.372 141.81 149.107 142.823 148.578 143.637C148.057 144.443 147.264 145.086 146.198 145.566L150.043 152.829V153H146.112L142.78 146.494ZM139.862 143.527H142.816C143.736 143.527 144.448 143.295 144.953 142.832C145.457 142.36 145.709 141.713 145.709 140.891C145.709 140.052 145.469 139.393 144.989 138.913C144.517 138.433 143.789 138.193 142.804 138.193H139.862V143.527ZM162.86 145.297H155.829V150.058H164.081V153H152.167V135.227H164.057V138.193H155.829V142.429H162.86V145.297Z" fill="#113D96"/>
<path d="M179.755 112L176.068 110.902L176.63 109.059L180.316 110.426L180.207 106.227H182.074L181.952 110.487L185.578 109.144L186.139 111L182.392 112.11L184.809 115.418L183.295 116.566L181.024 113.05L178.827 116.48L177.301 115.37L179.755 112ZM262.201 122.694C261.322 123.727 260.032 124.244 258.332 124.244C256.924 124.244 255.849 123.837 255.109 123.023C254.376 122.201 254.006 120.989 253.998 119.386V110.792H256.256V119.325C256.256 121.327 257.07 122.328 258.698 122.328C260.423 122.328 261.57 121.685 262.14 120.399V110.792H264.398V124H262.25L262.201 122.694ZM275.531 120.497C275.531 119.886 275.299 119.414 274.835 119.081C274.38 118.739 273.578 118.446 272.431 118.202C271.291 117.958 270.384 117.665 269.708 117.323C269.041 116.981 268.545 116.574 268.219 116.102C267.902 115.63 267.743 115.069 267.743 114.417C267.743 113.335 268.199 112.42 269.11 111.671C270.03 110.922 271.202 110.548 272.626 110.548C274.123 110.548 275.336 110.934 276.264 111.708C277.2 112.481 277.667 113.469 277.667 114.674H275.397C275.397 114.055 275.132 113.522 274.604 113.075C274.083 112.627 273.424 112.403 272.626 112.403C271.804 112.403 271.161 112.582 270.697 112.94C270.233 113.299 270.001 113.766 270.001 114.344C270.001 114.889 270.217 115.3 270.648 115.577C271.08 115.854 271.857 116.118 272.98 116.371C274.111 116.623 275.027 116.924 275.727 117.274C276.426 117.624 276.943 118.047 277.277 118.543C277.619 119.032 277.79 119.63 277.79 120.338C277.79 121.518 277.318 122.466 276.374 123.182C275.43 123.89 274.205 124.244 272.699 124.244C271.641 124.244 270.705 124.057 269.892 123.683C269.078 123.308 268.439 122.787 267.975 122.12C267.519 121.445 267.292 120.716 267.292 119.935H269.55C269.59 120.692 269.892 121.294 270.453 121.742C271.023 122.181 271.771 122.401 272.699 122.401C273.554 122.401 274.237 122.23 274.75 121.888C275.271 121.538 275.531 121.074 275.531 120.497ZM286.212 124.244C284.422 124.244 282.965 123.658 281.842 122.486C280.719 121.306 280.158 119.732 280.158 117.762V117.347C280.158 116.037 280.406 114.869 280.902 113.844C281.407 112.81 282.107 112.005 283.002 111.427C283.905 110.841 284.882 110.548 285.932 110.548C287.649 110.548 288.983 111.113 289.936 112.245C290.888 113.376 291.364 114.995 291.364 117.103V118.043H282.416C282.449 119.345 282.827 120.399 283.551 121.205C284.284 122.002 285.211 122.401 286.334 122.401C287.132 122.401 287.807 122.238 288.361 121.913C288.914 121.587 289.398 121.156 289.813 120.619L291.193 121.693C290.086 123.394 288.426 124.244 286.212 124.244ZM285.932 112.403C285.02 112.403 284.255 112.737 283.637 113.404C283.018 114.063 282.636 114.991 282.489 116.188H289.105V116.017C289.04 114.869 288.731 113.982 288.178 113.355C287.624 112.721 286.876 112.403 285.932 112.403ZM300.373 112.818C300.031 112.761 299.66 112.733 299.262 112.733C297.781 112.733 296.776 113.364 296.247 114.625V124H293.988V110.792H296.186L296.222 112.318C296.963 111.138 298.013 110.548 299.372 110.548C299.811 110.548 300.145 110.605 300.373 110.719V112.818ZM310.15 120.497C310.15 119.886 309.918 119.414 309.455 119.081C308.999 118.739 308.197 118.446 307.05 118.202C305.91 117.958 305.003 117.665 304.328 117.323C303.66 116.981 303.164 116.574 302.838 116.102C302.521 115.63 302.362 115.069 302.362 114.417C302.362 113.335 302.818 112.42 303.729 111.671C304.649 110.922 305.821 110.548 307.245 110.548C308.743 110.548 309.955 110.934 310.883 111.708C311.819 112.481 312.287 113.469 312.287 114.674H310.016C310.016 114.055 309.752 113.522 309.223 113.075C308.702 112.627 308.043 112.403 307.245 112.403C306.423 112.403 305.78 112.582 305.316 112.94C304.853 113.299 304.621 113.766 304.621 114.344C304.621 114.889 304.836 115.3 305.268 115.577C305.699 115.854 306.476 116.118 307.599 116.371C308.73 116.623 309.646 116.924 310.346 117.274C311.046 117.624 311.562 118.047 311.896 118.543C312.238 119.032 312.409 119.63 312.409 120.338C312.409 121.518 311.937 122.466 310.993 123.182C310.049 123.89 308.824 124.244 307.318 124.244C306.26 124.244 305.325 124.057 304.511 123.683C303.697 123.308 303.058 122.787 302.594 122.12C302.139 121.445 301.911 120.716 301.911 119.935H304.169C304.21 120.692 304.511 121.294 305.072 121.742C305.642 122.181 306.391 122.401 307.318 122.401C308.173 122.401 308.856 122.23 309.369 121.888C309.89 121.538 310.15 121.074 310.15 120.497ZM175.006 153H172.748V134.25H175.006V153ZM186.786 153C186.656 152.74 186.55 152.276 186.469 151.608C185.419 152.699 184.166 153.244 182.709 153.244C181.407 153.244 180.337 152.878 179.499 152.146C178.668 151.405 178.253 150.469 178.253 149.338C178.253 147.963 178.774 146.896 179.816 146.14C180.866 145.375 182.339 144.992 184.235 144.992H186.432V143.955C186.432 143.165 186.196 142.539 185.724 142.075C185.252 141.603 184.556 141.367 183.637 141.367C182.831 141.367 182.156 141.57 181.61 141.977C181.065 142.384 180.792 142.876 180.792 143.454H178.522C178.522 142.795 178.754 142.16 179.218 141.55C179.69 140.931 180.325 140.443 181.122 140.085C181.928 139.727 182.811 139.548 183.771 139.548C185.293 139.548 186.485 139.93 187.348 140.695C188.21 141.452 188.658 142.498 188.69 143.833V149.912C188.69 151.124 188.845 152.089 189.154 152.805V153H186.786ZM183.039 151.279C183.747 151.279 184.418 151.096 185.053 150.729C185.688 150.363 186.147 149.887 186.432 149.301V146.591H184.662C181.895 146.591 180.512 147.401 180.512 149.021C180.512 149.729 180.748 150.282 181.22 150.681C181.692 151.079 182.298 151.279 183.039 151.279ZM199.921 149.497C199.921 148.886 199.689 148.414 199.225 148.081C198.769 147.739 197.968 147.446 196.82 147.202C195.681 146.958 194.774 146.665 194.098 146.323C193.431 145.981 192.934 145.574 192.609 145.102C192.292 144.63 192.133 144.069 192.133 143.417C192.133 142.335 192.589 141.42 193.5 140.671C194.42 139.922 195.591 139.548 197.016 139.548C198.513 139.548 199.726 139.934 200.653 140.708C201.589 141.481 202.057 142.469 202.057 143.674H199.787C199.787 143.055 199.522 142.522 198.993 142.075C198.472 141.627 197.813 141.403 197.016 141.403C196.194 141.403 195.551 141.582 195.087 141.94C194.623 142.299 194.391 142.766 194.391 143.344C194.391 143.889 194.607 144.3 195.038 144.577C195.469 144.854 196.247 145.118 197.37 145.371C198.501 145.623 199.416 145.924 200.116 146.274C200.816 146.624 201.333 147.047 201.667 147.543C202.008 148.032 202.179 148.63 202.179 149.338C202.179 150.518 201.707 151.466 200.763 152.182C199.819 152.89 198.594 153.244 197.089 153.244C196.031 153.244 195.095 153.057 194.281 152.683C193.467 152.308 192.829 151.787 192.365 151.12C191.909 150.445 191.681 149.716 191.681 148.935H193.939C193.98 149.692 194.281 150.294 194.843 150.742C195.412 151.181 196.161 151.401 197.089 151.401C197.943 151.401 198.627 151.23 199.14 150.888C199.66 150.538 199.921 150.074 199.921 149.497ZM208.185 136.594V139.792H210.651V141.538H208.185V149.729C208.185 150.257 208.295 150.656 208.515 150.925C208.734 151.185 209.109 151.315 209.638 151.315C209.898 151.315 210.256 151.267 210.712 151.169V153C210.118 153.163 209.54 153.244 208.979 153.244C207.969 153.244 207.208 152.939 206.696 152.329C206.183 151.718 205.927 150.852 205.927 149.729V141.538H203.522V139.792H205.927V136.594H208.185ZM222.821 154.843H211.64V153H222.821V154.843ZM227.033 153H224.774V134.25H227.033V153ZM230.06 146.274C230.06 144.98 230.312 143.816 230.817 142.783C231.33 141.749 232.038 140.952 232.941 140.39C233.852 139.829 234.89 139.548 236.054 139.548C237.852 139.548 239.305 140.17 240.412 141.416C241.527 142.661 242.084 144.317 242.084 146.384V146.542C242.084 147.828 241.836 148.984 241.339 150.009C240.851 151.027 240.147 151.82 239.228 152.39C238.316 152.959 237.266 153.244 236.078 153.244C234.288 153.244 232.835 152.622 231.72 151.376C230.613 150.131 230.06 148.483 230.06 146.433V146.274ZM232.331 146.542C232.331 148.007 232.668 149.183 233.344 150.07C234.027 150.957 234.939 151.401 236.078 151.401C237.226 151.401 238.137 150.953 238.812 150.058C239.488 149.155 239.826 147.893 239.826 146.274C239.826 144.825 239.48 143.653 238.788 142.758C238.104 141.855 237.193 141.403 236.054 141.403C234.939 141.403 234.04 141.847 233.356 142.734C232.672 143.621 232.331 144.89 232.331 146.542ZM244.379 146.286C244.379 144.227 244.855 142.591 245.807 141.379C246.759 140.158 248.021 139.548 249.591 139.548C251.203 139.548 252.46 140.118 253.363 141.257L253.473 139.792H255.536V152.683C255.536 154.392 255.028 155.738 254.01 156.723C253.001 157.708 251.642 158.2 249.933 158.2C248.981 158.2 248.049 157.997 247.138 157.59C246.226 157.183 245.53 156.625 245.05 155.917L246.222 154.562C247.191 155.759 248.375 156.357 249.774 156.357C250.873 156.357 251.728 156.048 252.338 155.429C252.956 154.811 253.266 153.94 253.266 152.817V151.682C252.362 152.723 251.129 153.244 249.567 153.244C248.021 153.244 246.767 152.622 245.807 151.376C244.855 150.131 244.379 148.435 244.379 146.286ZM246.649 146.542C246.649 148.032 246.955 149.204 247.565 150.058C248.175 150.904 249.03 151.328 250.128 151.328C251.553 151.328 252.598 150.681 253.266 149.387V143.356C252.574 142.095 251.536 141.464 250.153 141.464C249.054 141.464 248.196 141.892 247.577 142.746C246.959 143.601 246.649 144.866 246.649 146.542ZM261.408 153H259.149V139.792H261.408V153ZM258.966 136.289C258.966 135.922 259.076 135.613 259.296 135.361C259.524 135.109 259.857 134.982 260.297 134.982C260.736 134.982 261.07 135.109 261.298 135.361C261.526 135.613 261.64 135.922 261.64 136.289C261.64 136.655 261.526 136.96 261.298 137.204C261.07 137.448 260.736 137.57 260.297 137.57C259.857 137.57 259.524 137.448 259.296 137.204C259.076 136.96 258.966 136.655 258.966 136.289ZM267.169 139.792L267.243 141.452C268.252 140.183 269.57 139.548 271.198 139.548C273.989 139.548 275.397 141.123 275.421 144.272V153H273.163V144.26C273.155 143.308 272.935 142.604 272.504 142.148C272.081 141.692 271.417 141.464 270.514 141.464C269.782 141.464 269.139 141.66 268.585 142.05C268.032 142.441 267.601 142.954 267.292 143.588V153H265.033V139.792H267.169ZM288.349 154.843H277.167V153H288.349V154.843ZM298.261 153C298.131 152.74 298.025 152.276 297.943 151.608C296.894 152.699 295.64 153.244 294.184 153.244C292.882 153.244 291.811 152.878 290.973 152.146C290.143 151.405 289.728 150.469 289.728 149.338C289.728 147.963 290.249 146.896 291.291 146.14C292.34 145.375 293.813 144.992 295.709 144.992H297.907V143.955C297.907 143.165 297.671 142.539 297.199 142.075C296.727 141.603 296.031 141.367 295.111 141.367C294.306 141.367 293.63 141.57 293.085 141.977C292.54 142.384 292.267 142.876 292.267 143.454H289.997C289.997 142.795 290.229 142.16 290.692 141.55C291.164 140.931 291.799 140.443 292.597 140.085C293.402 139.727 294.285 139.548 295.246 139.548C296.767 139.548 297.96 139.93 298.822 140.695C299.685 141.452 300.132 142.498 300.165 143.833V149.912C300.165 151.124 300.32 152.089 300.629 152.805V153H298.261ZM294.513 151.279C295.221 151.279 295.893 151.096 296.527 150.729C297.162 150.363 297.622 149.887 297.907 149.301V146.591H296.137C293.37 146.591 291.986 147.401 291.986 149.021C291.986 149.729 292.222 150.282 292.694 150.681C293.166 151.079 293.773 151.279 294.513 151.279ZM306.769 136.594V139.792H309.235V141.538H306.769V149.729C306.769 150.257 306.879 150.656 307.099 150.925C307.318 151.185 307.693 151.315 308.222 151.315C308.482 151.315 308.84 151.267 309.296 151.169V153C308.702 153.163 308.124 153.244 307.562 153.244C306.553 153.244 305.792 152.939 305.28 152.329C304.767 151.718 304.511 150.852 304.511 149.729V141.538H302.106V139.792H304.511V136.594H306.769ZM319.599 145.139L327.24 148.227V150.62L317.255 145.993V144.211L327.24 139.597V141.989L319.599 145.139ZM344.196 153H341.925V137.949L337.372 139.621V137.57L343.842 135.141H344.196V153ZM359.369 139.792L359.43 141.257C360.399 140.118 361.705 139.548 363.349 139.548C365.196 139.548 366.453 140.256 367.121 141.672C367.56 141.037 368.13 140.524 368.83 140.134C369.538 139.743 370.372 139.548 371.332 139.548C374.229 139.548 375.702 141.082 375.751 144.15V153H373.493V144.284C373.493 143.34 373.277 142.636 372.846 142.172C372.414 141.7 371.69 141.464 370.673 141.464C369.835 141.464 369.139 141.717 368.585 142.221C368.032 142.718 367.711 143.389 367.621 144.235V153H365.351V144.345C365.351 142.425 364.411 141.464 362.531 141.464C361.05 141.464 360.036 142.095 359.491 143.356V153H357.233V139.792H359.369ZM378.571 146.274C378.571 144.98 378.823 143.816 379.328 142.783C379.84 141.749 380.548 140.952 381.452 140.39C382.363 139.829 383.401 139.548 384.564 139.548C386.363 139.548 387.816 140.17 388.922 141.416C390.037 142.661 390.595 144.317 390.595 146.384V146.542C390.595 147.828 390.347 148.984 389.85 150.009C389.362 151.027 388.658 151.82 387.738 152.39C386.827 152.959 385.777 153.244 384.589 153.244C382.799 153.244 381.346 152.622 380.231 151.376C379.124 150.131 378.571 148.483 378.571 146.433V146.274ZM380.841 146.542C380.841 148.007 381.179 149.183 381.854 150.07C382.538 150.957 383.45 151.401 384.589 151.401C385.736 151.401 386.648 150.953 387.323 150.058C387.999 149.155 388.336 147.893 388.336 146.274C388.336 144.825 387.991 143.653 387.299 142.758C386.615 141.855 385.704 141.403 384.564 141.403C383.45 141.403 382.55 141.847 381.867 142.734C381.183 143.621 380.841 144.89 380.841 146.542ZM395.563 139.792L395.636 141.452C396.645 140.183 397.964 139.548 399.591 139.548C402.383 139.548 403.791 141.123 403.815 144.272V153H401.557V144.26C401.549 143.308 401.329 142.604 400.897 142.148C400.474 141.692 399.811 141.464 398.908 141.464C398.175 141.464 397.532 141.66 396.979 142.05C396.426 142.441 395.994 142.954 395.685 143.588V153H393.427V139.792H395.563ZM410.285 136.594V139.792H412.75V141.538H410.285V149.729C410.285 150.257 410.395 150.656 410.614 150.925C410.834 151.185 411.208 151.315 411.737 151.315C411.998 151.315 412.356 151.267 412.812 151.169V153C412.217 153.163 411.64 153.244 411.078 153.244C410.069 153.244 409.308 152.939 408.795 152.329C408.283 151.718 408.026 150.852 408.026 149.729V141.538H405.622V139.792H408.026V136.594H410.285ZM417.658 141.391C418.659 140.162 419.961 139.548 421.564 139.548C424.355 139.548 425.763 141.123 425.788 144.272V153H423.529V144.26C423.521 143.308 423.301 142.604 422.87 142.148C422.447 141.692 421.784 141.464 420.88 141.464C420.148 141.464 419.505 141.66 418.952 142.05C418.398 142.441 417.967 142.954 417.658 143.588V153H415.399V134.25H417.658V141.391ZM443.524 153C443.394 152.74 443.288 152.276 443.207 151.608C442.157 152.699 440.904 153.244 439.447 153.244C438.145 153.244 437.075 152.878 436.237 152.146C435.407 151.405 434.992 150.469 434.992 149.338C434.992 147.963 435.513 146.896 436.554 146.14C437.604 145.375 439.077 144.992 440.973 144.992H443.17V143.955C443.17 143.165 442.934 142.539 442.462 142.075C441.99 141.603 441.295 141.367 440.375 141.367C439.569 141.367 438.894 141.57 438.349 141.977C437.803 142.384 437.531 142.876 437.531 143.454H435.26C435.26 142.795 435.492 142.16 435.956 141.55C436.428 140.931 437.063 140.443 437.86 140.085C438.666 139.727 439.549 139.548 440.509 139.548C442.031 139.548 443.223 139.93 444.086 140.695C444.949 141.452 445.396 142.498 445.429 143.833V149.912C445.429 151.124 445.583 152.089 445.893 152.805V153H443.524ZM439.777 151.279C440.485 151.279 441.156 151.096 441.791 150.729C442.426 150.363 442.886 149.887 443.17 149.301V146.591H441.4C438.633 146.591 437.25 147.401 437.25 149.021C437.25 149.729 437.486 150.282 437.958 150.681C438.43 151.079 439.036 151.279 439.777 151.279ZM448.432 146.286C448.432 144.227 448.908 142.591 449.86 141.379C450.812 140.158 452.073 139.548 453.644 139.548C455.255 139.548 456.513 140.118 457.416 141.257L457.526 139.792H459.589V152.683C459.589 154.392 459.08 155.738 458.063 156.723C457.054 157.708 455.695 158.2 453.986 158.2C453.034 158.2 452.102 157.997 451.19 157.59C450.279 157.183 449.583 156.625 449.103 155.917L450.275 154.562C451.243 155.759 452.427 156.357 453.827 156.357C454.926 156.357 455.78 156.048 456.391 155.429C457.009 154.811 457.318 153.94 457.318 152.817V151.682C456.415 152.723 455.182 153.244 453.62 153.244C452.073 153.244 450.82 152.622 449.86 151.376C448.908 150.131 448.432 148.435 448.432 146.286ZM450.702 146.542C450.702 148.032 451.007 149.204 451.618 150.058C452.228 150.904 453.083 151.328 454.181 151.328C455.605 151.328 456.651 150.681 457.318 149.387V143.356C456.627 142.095 455.589 141.464 454.206 141.464C453.107 141.464 452.248 141.892 451.63 142.746C451.011 143.601 450.702 144.866 450.702 146.542ZM462.409 146.274C462.409 144.98 462.661 143.816 463.166 142.783C463.678 141.749 464.386 140.952 465.29 140.39C466.201 139.829 467.239 139.548 468.402 139.548C470.201 139.548 471.653 140.17 472.76 141.416C473.875 142.661 474.433 144.317 474.433 146.384V146.542C474.433 147.828 474.184 148.984 473.688 150.009C473.2 151.027 472.496 151.82 471.576 152.39C470.665 152.959 469.615 153.244 468.427 153.244C466.636 153.244 465.184 152.622 464.069 151.376C462.962 150.131 462.409 148.483 462.409 146.433V146.274ZM464.679 146.542C464.679 148.007 465.017 149.183 465.692 150.07C466.376 150.957 467.287 151.401 468.427 151.401C469.574 151.401 470.486 150.953 471.161 150.058C471.837 149.155 472.174 147.893 472.174 146.274C472.174 144.825 471.828 143.653 471.137 142.758C470.453 141.855 469.542 141.403 468.402 141.403C467.287 141.403 466.388 141.847 465.705 142.734C465.021 143.621 464.679 144.89 464.679 146.542Z" fill="black"/>
<path d="M195.014 124V113.38H193.048V110.792H195.014V109.669C195.014 108.188 195.437 107.04 196.283 106.227C197.138 105.405 198.33 104.994 199.86 104.994C200.348 104.994 200.946 105.075 201.654 105.238L201.618 107.972C201.325 107.899 200.967 107.862 200.543 107.862C199.217 107.862 198.554 108.485 198.554 109.73V110.792H201.178V113.38H198.554V124H195.014ZM210.431 114.1C209.951 114.035 209.528 114.002 209.162 114.002C207.827 114.002 206.952 114.454 206.537 115.357V124H203.009V110.792H206.342L206.439 112.367C207.147 111.154 208.128 110.548 209.381 110.548C209.772 110.548 210.138 110.601 210.48 110.707L210.431 114.1ZM211.151 117.274C211.151 115.964 211.404 114.796 211.908 113.771C212.413 112.745 213.137 111.952 214.081 111.39C215.033 110.829 216.136 110.548 217.389 110.548C219.171 110.548 220.624 111.093 221.747 112.184C222.878 113.274 223.509 114.755 223.639 116.627L223.664 117.53C223.664 119.557 223.098 121.184 221.967 122.413C220.836 123.634 219.318 124.244 217.414 124.244C215.509 124.244 213.987 123.634 212.848 122.413C211.717 121.192 211.151 119.532 211.151 117.433V117.274ZM214.679 117.53C214.679 118.784 214.915 119.744 215.387 120.411C215.859 121.07 216.535 121.4 217.414 121.4C218.268 121.4 218.935 121.074 219.416 120.423C219.896 119.764 220.136 118.714 220.136 117.274C220.136 116.045 219.896 115.093 219.416 114.417C218.935 113.742 218.26 113.404 217.389 113.404C216.527 113.404 215.859 113.742 215.387 114.417C214.915 115.085 214.679 116.122 214.679 117.53ZM229.145 110.792L229.254 112.269C230.19 111.122 231.456 110.548 233.051 110.548C234.752 110.548 235.919 111.219 236.554 112.562C237.482 111.219 238.804 110.548 240.521 110.548C241.954 110.548 243.02 110.967 243.72 111.805C244.42 112.635 244.77 113.889 244.77 115.565V124H241.229V115.577C241.229 114.828 241.083 114.283 240.79 113.941C240.497 113.591 239.98 113.417 239.24 113.417C238.182 113.417 237.449 113.921 237.042 114.93L237.055 124H233.527V115.589C233.527 114.824 233.376 114.271 233.075 113.929C232.774 113.587 232.261 113.417 231.537 113.417C230.536 113.417 229.812 113.832 229.364 114.662V124H225.836V110.792H229.145Z" fill="#004DFF"/>
<path d="M84.2998 353.078C82.2897 352.5 80.8249 351.792 79.9053 350.954C78.9938 350.107 78.5381 349.066 78.5381 347.829C78.5381 346.429 79.0955 345.273 80.2104 344.362C81.3335 343.442 82.7902 342.982 84.5806 342.982C85.8013 342.982 86.8877 343.218 87.8398 343.69C88.8001 344.162 89.5407 344.813 90.0615 345.644C90.5905 346.474 90.855 347.381 90.855 348.366H88.499C88.499 347.292 88.1572 346.449 87.4736 345.839C86.79 345.22 85.8257 344.911 84.5806 344.911C83.425 344.911 82.5216 345.167 81.8706 345.68C81.2277 346.185 80.9062 346.889 80.9062 347.792C80.9062 348.516 81.2114 349.131 81.8218 349.635C82.4403 350.132 83.486 350.587 84.959 351.002C86.4401 351.417 87.5957 351.877 88.4258 352.382C89.264 352.878 89.8825 353.46 90.2812 354.127C90.6882 354.795 90.8916 355.58 90.8916 356.483C90.8916 357.924 90.3301 359.079 89.207 359.95C88.084 360.813 86.5825 361.244 84.7026 361.244C83.4819 361.244 82.3426 361.012 81.2847 360.548C80.2267 360.076 79.4089 359.433 78.8311 358.62C78.2614 357.806 77.9766 356.882 77.9766 355.849H80.3325C80.3325 356.923 80.7272 357.773 81.5166 358.4C82.3141 359.018 83.3761 359.328 84.7026 359.328C85.9396 359.328 86.8877 359.075 87.5469 358.571C88.2061 358.066 88.5356 357.379 88.5356 356.508C88.5356 355.637 88.2305 354.966 87.6201 354.494C87.0098 354.014 85.903 353.542 84.2998 353.078ZM96.0063 361H93.748V342.25H96.0063V361ZM107.786 361C107.656 360.74 107.55 360.276 107.469 359.608C106.419 360.699 105.166 361.244 103.709 361.244C102.407 361.244 101.337 360.878 100.499 360.146C99.6685 359.405 99.2534 358.469 99.2534 357.338C99.2534 355.963 99.7743 354.896 100.816 354.14C101.866 353.375 103.339 352.992 105.235 352.992H107.432V351.955C107.432 351.165 107.196 350.539 106.724 350.075C106.252 349.603 105.556 349.367 104.637 349.367C103.831 349.367 103.156 349.57 102.61 349.977C102.065 350.384 101.792 350.876 101.792 351.454H99.522C99.522 350.795 99.7539 350.16 100.218 349.55C100.69 348.931 101.325 348.443 102.122 348.085C102.928 347.727 103.811 347.548 104.771 347.548C106.293 347.548 107.485 347.93 108.348 348.695C109.21 349.452 109.658 350.498 109.69 351.833V357.912C109.69 359.124 109.845 360.089 110.154 360.805V361H107.786ZM104.039 359.279C104.747 359.279 105.418 359.096 106.053 358.729C106.688 358.363 107.147 357.887 107.432 357.301V354.591H105.662C102.895 354.591 101.512 355.401 101.512 357.021C101.512 357.729 101.748 358.282 102.22 358.681C102.692 359.079 103.298 359.279 104.039 359.279ZM118.528 359.401C119.334 359.401 120.038 359.157 120.64 358.668C121.242 358.18 121.576 357.57 121.641 356.837H123.777C123.737 357.594 123.476 358.314 122.996 358.998C122.516 359.682 121.873 360.227 121.067 360.634C120.27 361.041 119.424 361.244 118.528 361.244C116.73 361.244 115.298 360.646 114.231 359.45C113.174 358.245 112.645 356.601 112.645 354.518V354.14C112.645 352.854 112.881 351.71 113.353 350.709C113.825 349.708 114.5 348.931 115.379 348.378C116.266 347.825 117.312 347.548 118.516 347.548C119.997 347.548 121.226 347.991 122.203 348.878C123.187 349.765 123.712 350.917 123.777 352.333H121.641C121.576 351.479 121.25 350.779 120.665 350.233C120.087 349.68 119.371 349.403 118.516 349.403C117.369 349.403 116.478 349.818 115.843 350.648C115.216 351.47 114.903 352.663 114.903 354.225V354.652C114.903 356.174 115.216 357.346 115.843 358.168C116.469 358.99 117.365 359.401 118.528 359.401ZM130.003 354.884L128.587 356.361V361H126.329V342.25H128.587V353.59L129.795 352.138L133.909 347.792H136.656L131.517 353.31L137.254 361H134.605L130.003 354.884ZM148.057 361H145.713V343.227H148.057V361ZM154.136 347.792L154.209 349.452C155.219 348.183 156.537 347.548 158.165 347.548C160.956 347.548 162.364 349.123 162.388 352.272V361H160.13V352.26C160.122 351.308 159.902 350.604 159.471 350.148C159.048 349.692 158.384 349.464 157.481 349.464C156.749 349.464 156.106 349.66 155.552 350.05C154.999 350.441 154.568 350.954 154.258 351.588V361H152V347.792H154.136ZM168.858 344.594V347.792H171.324V349.538H168.858V357.729C168.858 358.257 168.968 358.656 169.188 358.925C169.407 359.185 169.782 359.315 170.311 359.315C170.571 359.315 170.929 359.267 171.385 359.169V361C170.791 361.163 170.213 361.244 169.651 361.244C168.642 361.244 167.881 360.939 167.369 360.329C166.856 359.718 166.6 358.852 166.6 357.729V349.538H164.195V347.792H166.6V344.594H168.858ZM179.454 361.244C177.663 361.244 176.207 360.658 175.083 359.486C173.96 358.306 173.399 356.732 173.399 354.762V354.347C173.399 353.037 173.647 351.869 174.144 350.844C174.648 349.81 175.348 349.005 176.243 348.427C177.146 347.841 178.123 347.548 179.173 347.548C180.89 347.548 182.225 348.113 183.177 349.245C184.129 350.376 184.605 351.995 184.605 354.103V355.043H175.657C175.69 356.345 176.068 357.399 176.792 358.205C177.525 359.002 178.453 359.401 179.576 359.401C180.373 359.401 181.049 359.238 181.602 358.913C182.155 358.587 182.64 358.156 183.055 357.619L184.434 358.693C183.327 360.394 181.667 361.244 179.454 361.244ZM179.173 349.403C178.261 349.403 177.496 349.737 176.878 350.404C176.259 351.063 175.877 351.991 175.73 353.188H182.347V353.017C182.282 351.869 181.972 350.982 181.419 350.355C180.866 349.721 180.117 349.403 179.173 349.403ZM186.692 354.286C186.692 352.227 187.168 350.591 188.121 349.379C189.073 348.158 190.334 347.548 191.905 347.548C193.516 347.548 194.773 348.118 195.677 349.257L195.787 347.792H197.85V360.683C197.85 362.392 197.341 363.738 196.324 364.723C195.315 365.708 193.956 366.2 192.247 366.2C191.294 366.2 190.363 365.997 189.451 365.59C188.54 365.183 187.844 364.625 187.364 363.917L188.536 362.562C189.504 363.759 190.688 364.357 192.088 364.357C193.187 364.357 194.041 364.048 194.651 363.429C195.27 362.811 195.579 361.94 195.579 360.817V359.682C194.676 360.723 193.443 361.244 191.88 361.244C190.334 361.244 189.081 360.622 188.121 359.376C187.168 358.131 186.692 356.435 186.692 354.286ZM188.963 354.542C188.963 356.032 189.268 357.204 189.878 358.058C190.489 358.904 191.343 359.328 192.442 359.328C193.866 359.328 194.912 358.681 195.579 357.387V351.356C194.887 350.095 193.85 349.464 192.466 349.464C191.368 349.464 190.509 349.892 189.891 350.746C189.272 351.601 188.963 352.866 188.963 354.542ZM207.652 349.818C207.31 349.761 206.94 349.733 206.541 349.733C205.06 349.733 204.055 350.364 203.526 351.625V361H201.268V347.792H203.465L203.501 349.318C204.242 348.138 205.292 347.548 206.651 347.548C207.09 347.548 207.424 347.605 207.652 347.719V349.818ZM217.405 361C217.275 360.74 217.169 360.276 217.088 359.608C216.038 360.699 214.785 361.244 213.328 361.244C212.026 361.244 210.956 360.878 210.118 360.146C209.288 359.405 208.873 358.469 208.873 357.338C208.873 355.963 209.393 354.896 210.435 354.14C211.485 353.375 212.958 352.992 214.854 352.992H217.051V351.955C217.051 351.165 216.815 350.539 216.343 350.075C215.871 349.603 215.175 349.367 214.256 349.367C213.45 349.367 212.775 349.57 212.229 349.977C211.684 350.384 211.412 350.876 211.412 351.454H209.141C209.141 350.795 209.373 350.16 209.837 349.55C210.309 348.931 210.944 348.443 211.741 348.085C212.547 347.727 213.43 347.548 214.39 347.548C215.912 347.548 217.104 347.93 217.967 348.695C218.829 349.452 219.277 350.498 219.31 351.833V357.912C219.31 359.124 219.464 360.089 219.773 360.805V361H217.405ZM213.658 359.279C214.366 359.279 215.037 359.096 215.672 358.729C216.307 358.363 216.766 357.887 217.051 357.301V354.591H215.281C212.514 354.591 211.131 355.401 211.131 357.021C211.131 357.729 211.367 358.282 211.839 358.681C212.311 359.079 212.917 359.279 213.658 359.279ZM225.914 344.594V347.792H228.379V349.538H225.914V357.729C225.914 358.257 226.023 358.656 226.243 358.925C226.463 359.185 226.837 359.315 227.366 359.315C227.627 359.315 227.985 359.267 228.44 359.169V361C227.846 361.163 227.269 361.244 226.707 361.244C225.698 361.244 224.937 360.939 224.424 360.329C223.912 359.718 223.655 358.852 223.655 357.729V349.538H221.25V347.792H223.655V344.594H225.914ZM233.482 361H231.224V347.792H233.482V361ZM231.041 344.289C231.041 343.922 231.15 343.613 231.37 343.361C231.598 343.109 231.932 342.982 232.371 342.982C232.811 342.982 233.144 343.109 233.372 343.361C233.6 343.613 233.714 343.922 233.714 344.289C233.714 344.655 233.6 344.96 233.372 345.204C233.144 345.448 232.811 345.57 232.371 345.57C231.932 345.57 231.598 345.448 231.37 345.204C231.15 344.96 231.041 344.655 231.041 344.289ZM236.509 354.274C236.509 352.98 236.762 351.816 237.266 350.783C237.779 349.749 238.487 348.952 239.39 348.39C240.302 347.829 241.339 347.548 242.503 347.548C244.301 347.548 245.754 348.17 246.861 349.416C247.976 350.661 248.533 352.317 248.533 354.384V354.542C248.533 355.828 248.285 356.984 247.789 358.009C247.3 359.027 246.596 359.82 245.677 360.39C244.765 360.959 243.715 361.244 242.527 361.244C240.737 361.244 239.284 360.622 238.169 359.376C237.063 358.131 236.509 356.483 236.509 354.433V354.274ZM238.78 354.542C238.78 356.007 239.118 357.183 239.793 358.07C240.477 358.957 241.388 359.401 242.527 359.401C243.675 359.401 244.586 358.953 245.262 358.058C245.937 357.155 246.275 355.893 246.275 354.274C246.275 352.825 245.929 351.653 245.237 350.758C244.554 349.855 243.642 349.403 242.503 349.403C241.388 349.403 240.489 349.847 239.805 350.734C239.122 351.621 238.78 352.89 238.78 354.542ZM253.501 347.792L253.575 349.452C254.584 348.183 255.902 347.548 257.53 347.548C260.321 347.548 261.729 349.123 261.753 352.272V361H259.495V352.26C259.487 351.308 259.267 350.604 258.836 350.148C258.413 349.692 257.75 349.464 256.846 349.464C256.114 349.464 255.471 349.66 254.917 350.05C254.364 350.441 253.933 350.954 253.624 351.588V361H251.365V347.792H253.501Z" fill="#565656"/>
<path d="M85.5815 423.81H81.4067V431H79.0508V413.227H84.9346C86.9365 413.227 88.4746 413.682 89.5488 414.594C90.6312 415.505 91.1724 416.832 91.1724 418.573C91.1724 419.68 90.8713 420.644 90.269 421.466C89.675 422.288 88.8449 422.903 87.7788 423.31L91.9536 430.854V431H89.439L85.5815 423.81ZM81.4067 421.894H85.0078C86.1715 421.894 87.0952 421.592 87.7788 420.99C88.4705 420.388 88.8164 419.582 88.8164 418.573C88.8164 417.475 88.4868 416.632 87.8276 416.046C87.1766 415.46 86.2326 415.163 84.9956 415.155H81.4067V421.894ZM99.5952 431.244C97.8049 431.244 96.3481 430.658 95.2251 429.486C94.1021 428.306 93.5405 426.732 93.5405 424.762V424.347C93.5405 423.037 93.7887 421.869 94.2852 420.844C94.7897 419.81 95.4896 419.005 96.3848 418.427C97.2881 417.841 98.2646 417.548 99.3145 417.548C101.032 417.548 102.366 418.113 103.318 419.245C104.271 420.376 104.747 421.995 104.747 424.103V425.043H95.7988C95.8314 426.345 96.2098 427.399 96.9341 428.205C97.6665 429.002 98.5942 429.401 99.7173 429.401C100.515 429.401 101.19 429.238 101.744 428.913C102.297 428.587 102.781 428.156 103.196 427.619L104.576 428.693C103.469 430.394 101.809 431.244 99.5952 431.244ZM99.3145 419.403C98.403 419.403 97.638 419.737 97.0195 420.404C96.401 421.063 96.0186 421.991 95.8721 423.188H102.488V423.017C102.423 421.869 102.114 420.982 101.561 420.355C101.007 419.721 100.258 419.403 99.3145 419.403ZM118.528 424.542C118.528 426.553 118.069 428.172 117.149 429.401C116.229 430.63 114.984 431.244 113.414 431.244C111.81 431.244 110.549 430.736 109.629 429.718V436.078H107.371V417.792H109.434L109.544 419.257C110.464 418.118 111.741 417.548 113.377 417.548C114.964 417.548 116.217 418.146 117.137 419.342C118.064 420.539 118.528 422.203 118.528 424.335V424.542ZM116.27 424.286C116.27 422.797 115.953 421.621 115.318 420.758C114.683 419.896 113.812 419.464 112.706 419.464C111.338 419.464 110.313 420.071 109.629 421.283V427.594C110.305 428.799 111.338 429.401 112.73 429.401C113.812 429.401 114.671 428.974 115.306 428.119C115.949 427.257 116.27 425.979 116.27 424.286ZM120.811 424.274C120.811 422.98 121.063 421.816 121.568 420.783C122.081 419.749 122.789 418.952 123.692 418.39C124.603 417.829 125.641 417.548 126.805 417.548C128.603 417.548 130.056 418.17 131.163 419.416C132.278 420.661 132.835 422.317 132.835 424.384V424.542C132.835 425.828 132.587 426.984 132.09 428.009C131.602 429.027 130.898 429.82 129.979 430.39C129.067 430.959 128.017 431.244 126.829 431.244C125.039 431.244 123.586 430.622 122.471 429.376C121.364 428.131 120.811 426.483 120.811 424.433V424.274ZM123.082 424.542C123.082 426.007 123.419 427.183 124.095 428.07C124.778 428.957 125.69 429.401 126.829 429.401C127.977 429.401 128.888 428.953 129.563 428.058C130.239 427.155 130.577 425.893 130.577 424.274C130.577 422.825 130.231 421.653 129.539 420.758C128.855 419.855 127.944 419.403 126.805 419.403C125.69 419.403 124.791 419.847 124.107 420.734C123.423 421.621 123.082 422.89 123.082 424.542ZM142.051 419.818C141.709 419.761 141.339 419.733 140.94 419.733C139.459 419.733 138.454 420.364 137.925 421.625V431H135.667V417.792H137.864L137.901 419.318C138.641 418.138 139.691 417.548 141.05 417.548C141.49 417.548 141.823 417.605 142.051 417.719V419.818ZM147.813 414.594V417.792H150.279V419.538H147.813V427.729C147.813 428.257 147.923 428.656 148.143 428.925C148.362 429.185 148.737 429.315 149.266 429.315C149.526 429.315 149.884 429.267 150.34 429.169V431C149.746 431.163 149.168 431.244 148.606 431.244C147.597 431.244 146.836 430.939 146.324 430.329C145.811 429.718 145.555 428.852 145.555 427.729V419.538H143.15V417.792H145.555V414.594H147.813ZM162.193 414.594V417.792H164.659V419.538H162.193V427.729C162.193 428.257 162.303 428.656 162.522 428.925C162.742 429.185 163.117 429.315 163.646 429.315C163.906 429.315 164.264 429.267 164.72 429.169V431C164.126 431.163 163.548 431.244 162.986 431.244C161.977 431.244 161.216 430.939 160.704 430.329C160.191 429.718 159.935 428.852 159.935 427.729V419.538H157.53V417.792H159.935V414.594H162.193ZM166.465 424.274C166.465 422.98 166.718 421.816 167.222 420.783C167.735 419.749 168.443 418.952 169.346 418.39C170.258 417.829 171.295 417.548 172.459 417.548C174.257 417.548 175.71 418.17 176.817 419.416C177.932 420.661 178.489 422.317 178.489 424.384V424.542C178.489 425.828 178.241 426.984 177.745 428.009C177.256 429.027 176.552 429.82 175.633 430.39C174.721 430.959 173.672 431.244 172.483 431.244C170.693 431.244 169.24 430.622 168.125 429.376C167.019 428.131 166.465 426.483 166.465 424.433V424.274ZM168.736 424.542C168.736 426.007 169.074 427.183 169.749 428.07C170.433 428.957 171.344 429.401 172.483 429.401C173.631 429.401 174.542 428.953 175.218 428.058C175.893 427.155 176.231 425.893 176.231 424.274C176.231 422.825 175.885 421.653 175.193 420.758C174.51 419.855 173.598 419.403 172.459 419.403C171.344 419.403 170.445 419.847 169.761 420.734C169.078 421.621 168.736 422.89 168.736 424.542ZM195.152 425.995H191.929L190.953 431H189.207L190.184 425.995H187.266V424.323H190.501L191.343 420.001H188.194V418.305H191.673L192.674 413.227H194.419L193.418 418.305H196.641L197.642 413.227H199.4L198.399 418.305H200.889V420.001H198.069L197.227 424.323H199.974V425.995H196.91L195.933 431H194.175L195.152 425.995ZM192.247 424.323H195.469L196.312 420.001H193.089L192.247 424.323ZM208.226 429.401C209.031 429.401 209.735 429.157 210.337 428.668C210.94 428.18 211.273 427.57 211.338 426.837H213.475C213.434 427.594 213.174 428.314 212.693 428.998C212.213 429.682 211.57 430.227 210.765 430.634C209.967 431.041 209.121 431.244 208.226 431.244C206.427 431.244 204.995 430.646 203.929 429.45C202.871 428.245 202.342 426.601 202.342 424.518V424.14C202.342 422.854 202.578 421.71 203.05 420.709C203.522 419.708 204.197 418.931 205.076 418.378C205.963 417.825 207.009 417.548 208.213 417.548C209.694 417.548 210.923 417.991 211.9 418.878C212.885 419.765 213.41 420.917 213.475 422.333H211.338C211.273 421.479 210.948 420.779 210.362 420.233C209.784 419.68 209.068 419.403 208.213 419.403C207.066 419.403 206.175 419.818 205.54 420.648C204.913 421.47 204.6 422.663 204.6 424.225V424.652C204.6 426.174 204.913 427.346 205.54 428.168C206.167 428.99 207.062 429.401 208.226 429.401ZM224.168 429.694C223.289 430.727 221.999 431.244 220.298 431.244C218.89 431.244 217.816 430.837 217.076 430.023C216.343 429.201 215.973 427.989 215.965 426.386V417.792H218.223V426.325C218.223 428.327 219.037 429.328 220.665 429.328C222.39 429.328 223.537 428.685 224.107 427.399V417.792H226.365V431H224.217L224.168 429.694ZM237.498 427.497C237.498 426.886 237.266 426.414 236.802 426.081C236.347 425.739 235.545 425.446 234.397 425.202C233.258 424.958 232.351 424.665 231.675 424.323C231.008 423.981 230.512 423.574 230.186 423.102C229.869 422.63 229.71 422.069 229.71 421.417C229.71 420.335 230.166 419.42 231.077 418.671C231.997 417.922 233.169 417.548 234.593 417.548C236.09 417.548 237.303 417.934 238.23 418.708C239.166 419.481 239.634 420.469 239.634 421.674H237.364C237.364 421.055 237.099 420.522 236.57 420.075C236.049 419.627 235.39 419.403 234.593 419.403C233.771 419.403 233.128 419.582 232.664 419.94C232.2 420.299 231.968 420.766 231.968 421.344C231.968 421.889 232.184 422.3 232.615 422.577C233.047 422.854 233.824 423.118 234.947 423.371C236.078 423.623 236.993 423.924 237.693 424.274C238.393 424.624 238.91 425.047 239.244 425.543C239.585 426.032 239.756 426.63 239.756 427.338C239.756 428.518 239.284 429.466 238.34 430.182C237.396 430.89 236.172 431.244 234.666 431.244C233.608 431.244 232.672 431.057 231.858 430.683C231.045 430.308 230.406 429.787 229.942 429.12C229.486 428.445 229.258 427.716 229.258 426.935H231.517C231.557 427.692 231.858 428.294 232.42 428.742C232.99 429.181 233.738 429.401 234.666 429.401C235.521 429.401 236.204 429.23 236.717 428.888C237.238 428.538 237.498 428.074 237.498 427.497ZM245.762 414.594V417.792H248.228V419.538H245.762V427.729C245.762 428.257 245.872 428.656 246.092 428.925C246.312 429.185 246.686 429.315 247.215 429.315C247.475 429.315 247.833 429.267 248.289 429.169V431C247.695 431.163 247.117 431.244 246.556 431.244C245.547 431.244 244.786 430.939 244.273 430.329C243.76 429.718 243.504 428.852 243.504 427.729V419.538H241.099V417.792H243.504V414.594H245.762ZM250.035 424.274C250.035 422.98 250.287 421.816 250.792 420.783C251.304 419.749 252.012 418.952 252.916 418.39C253.827 417.829 254.865 417.548 256.028 417.548C257.827 417.548 259.279 418.17 260.386 419.416C261.501 420.661 262.059 422.317 262.059 424.384V424.542C262.059 425.828 261.81 426.984 261.314 428.009C260.826 429.027 260.122 429.82 259.202 430.39C258.291 430.959 257.241 431.244 256.053 431.244C254.262 431.244 252.81 430.622 251.695 429.376C250.588 428.131 250.035 426.483 250.035 424.433V424.274ZM252.305 424.542C252.305 426.007 252.643 427.183 253.318 428.07C254.002 428.957 254.913 429.401 256.053 429.401C257.2 429.401 258.112 428.953 258.787 428.058C259.463 427.155 259.8 425.893 259.8 424.274C259.8 422.825 259.454 421.653 258.763 420.758C258.079 419.855 257.168 419.403 256.028 419.403C254.913 419.403 254.014 419.847 253.331 420.734C252.647 421.621 252.305 422.89 252.305 424.542ZM267.015 417.792L267.076 419.257C268.044 418.118 269.35 417.548 270.994 417.548C272.841 417.548 274.099 418.256 274.766 419.672C275.206 419.037 275.775 418.524 276.475 418.134C277.183 417.743 278.017 417.548 278.978 417.548C281.875 417.548 283.348 419.082 283.396 422.15V431H281.138V422.284C281.138 421.34 280.923 420.636 280.491 420.172C280.06 419.7 279.336 419.464 278.318 419.464C277.48 419.464 276.784 419.717 276.231 420.221C275.678 420.718 275.356 421.389 275.267 422.235V431H272.996V422.345C272.996 420.425 272.056 419.464 270.176 419.464C268.695 419.464 267.682 420.095 267.137 421.356V431H264.878V417.792H267.015ZM292.295 431.244C290.505 431.244 289.048 430.658 287.925 429.486C286.802 428.306 286.241 426.732 286.241 424.762V424.347C286.241 423.037 286.489 421.869 286.985 420.844C287.49 419.81 288.19 419.005 289.085 418.427C289.988 417.841 290.965 417.548 292.015 417.548C293.732 417.548 295.066 418.113 296.019 419.245C296.971 420.376 297.447 421.995 297.447 424.103V425.043H288.499C288.532 426.345 288.91 427.399 289.634 428.205C290.367 429.002 291.294 429.401 292.417 429.401C293.215 429.401 293.89 429.238 294.444 428.913C294.997 428.587 295.481 428.156 295.896 427.619L297.276 428.693C296.169 430.394 294.509 431.244 292.295 431.244ZM292.015 419.403C291.103 419.403 290.338 419.737 289.72 420.404C289.101 421.063 288.719 421.991 288.572 423.188H295.188V423.017C295.123 421.869 294.814 420.982 294.261 420.355C293.707 419.721 292.959 419.403 292.015 419.403ZM306.456 419.818C306.114 419.761 305.743 419.733 305.345 419.733C303.864 419.733 302.859 420.364 302.33 421.625V431H300.071V417.792H302.269L302.305 419.318C303.046 418.138 304.096 417.548 305.455 417.548C305.894 417.548 306.228 417.605 306.456 417.719V419.818ZM313.243 424.372H307.286V422.528H313.243V424.372ZM323.143 427.497C323.143 426.886 322.911 426.414 322.447 426.081C321.991 425.739 321.189 425.446 320.042 425.202C318.903 424.958 317.995 424.665 317.32 424.323C316.653 423.981 316.156 423.574 315.831 423.102C315.513 422.63 315.354 422.069 315.354 421.417C315.354 420.335 315.81 419.42 316.722 418.671C317.641 417.922 318.813 417.548 320.237 417.548C321.735 417.548 322.947 417.934 323.875 418.708C324.811 419.481 325.279 420.469 325.279 421.674H323.008C323.008 421.055 322.744 420.522 322.215 420.075C321.694 419.627 321.035 419.403 320.237 419.403C319.415 419.403 318.772 419.582 318.309 419.94C317.845 420.299 317.613 420.766 317.613 421.344C317.613 421.889 317.828 422.3 318.26 422.577C318.691 422.854 319.468 423.118 320.591 423.371C321.722 423.623 322.638 423.924 323.338 424.274C324.038 424.624 324.555 425.047 324.888 425.543C325.23 426.032 325.401 426.63 325.401 427.338C325.401 428.518 324.929 429.466 323.985 430.182C323.041 430.89 321.816 431.244 320.311 431.244C319.253 431.244 318.317 431.057 317.503 430.683C316.689 430.308 316.05 429.787 315.586 429.12C315.131 428.445 314.903 427.716 314.903 426.935H317.161C317.202 427.692 317.503 428.294 318.064 428.742C318.634 429.181 319.383 429.401 320.311 429.401C321.165 429.401 321.849 429.23 322.361 428.888C322.882 428.538 323.143 428.074 323.143 427.497ZM336.497 429.694C335.618 430.727 334.328 431.244 332.627 431.244C331.22 431.244 330.145 430.837 329.405 430.023C328.672 429.201 328.302 427.989 328.294 426.386V417.792H330.552V426.325C330.552 428.327 331.366 429.328 332.994 429.328C334.719 429.328 335.866 428.685 336.436 427.399V417.792H338.694V431H336.546L336.497 429.694ZM347.435 429.401C348.24 429.401 348.944 429.157 349.546 428.668C350.149 428.18 350.482 427.57 350.547 426.837H352.684C352.643 427.594 352.382 428.314 351.902 428.998C351.422 429.682 350.779 430.227 349.974 430.634C349.176 431.041 348.33 431.244 347.435 431.244C345.636 431.244 344.204 430.646 343.138 429.45C342.08 428.245 341.551 426.601 341.551 424.518V424.14C341.551 422.854 341.787 421.71 342.259 420.709C342.731 419.708 343.406 418.931 344.285 418.378C345.172 417.825 346.218 417.548 347.422 417.548C348.903 417.548 350.132 417.991 351.109 418.878C352.094 419.765 352.618 420.917 352.684 422.333H350.547C350.482 421.479 350.157 420.779 349.571 420.233C348.993 419.68 348.277 419.403 347.422 419.403C346.275 419.403 345.384 419.818 344.749 420.648C344.122 421.47 343.809 422.663 343.809 424.225V424.652C343.809 426.174 344.122 427.346 344.749 428.168C345.376 428.99 346.271 429.401 347.435 429.401ZM360.521 429.401C361.326 429.401 362.03 429.157 362.632 428.668C363.235 428.18 363.568 427.57 363.633 426.837H365.77C365.729 427.594 365.468 428.314 364.988 428.998C364.508 429.682 363.865 430.227 363.06 430.634C362.262 431.041 361.416 431.244 360.521 431.244C358.722 431.244 357.29 430.646 356.224 429.45C355.166 428.245 354.637 426.601 354.637 424.518V424.14C354.637 422.854 354.873 421.71 355.345 420.709C355.817 419.708 356.492 418.931 357.371 418.378C358.258 417.825 359.304 417.548 360.508 417.548C361.989 417.548 363.218 417.991 364.195 418.878C365.18 419.765 365.704 420.917 365.77 422.333H363.633C363.568 421.479 363.243 420.779 362.657 420.233C362.079 419.68 361.363 419.403 360.508 419.403C359.361 419.403 358.47 419.818 357.835 420.648C357.208 421.47 356.895 422.663 356.895 424.225V424.652C356.895 426.174 357.208 427.346 357.835 428.168C358.462 428.99 359.357 429.401 360.521 429.401ZM373.79 431.244C371.999 431.244 370.542 430.658 369.419 429.486C368.296 428.306 367.735 426.732 367.735 424.762V424.347C367.735 423.037 367.983 421.869 368.479 420.844C368.984 419.81 369.684 419.005 370.579 418.427C371.482 417.841 372.459 417.548 373.509 417.548C375.226 417.548 376.561 418.113 377.513 419.245C378.465 420.376 378.941 421.995 378.941 424.103V425.043H369.993C370.026 426.345 370.404 427.399 371.128 428.205C371.861 429.002 372.789 429.401 373.912 429.401C374.709 429.401 375.385 429.238 375.938 428.913C376.491 428.587 376.976 428.156 377.391 427.619L378.77 428.693C377.663 430.394 376.003 431.244 373.79 431.244ZM373.509 419.403C372.597 419.403 371.832 419.737 371.214 420.404C370.595 421.063 370.213 421.991 370.066 423.188H376.683V423.017C376.618 421.869 376.308 420.982 375.755 420.355C375.201 419.721 374.453 419.403 373.509 419.403ZM389.256 427.497C389.256 426.886 389.024 426.414 388.56 426.081C388.104 425.739 387.303 425.446 386.155 425.202C385.016 424.958 384.109 424.665 383.433 424.323C382.766 423.981 382.269 423.574 381.944 423.102C381.626 422.63 381.468 422.069 381.468 421.417C381.468 420.335 381.924 419.42 382.835 418.671C383.755 417.922 384.926 417.548 386.351 417.548C387.848 417.548 389.061 417.934 389.988 418.708C390.924 419.481 391.392 420.469 391.392 421.674H389.122C389.122 421.055 388.857 420.522 388.328 420.075C387.807 419.627 387.148 419.403 386.351 419.403C385.529 419.403 384.886 419.582 384.422 419.94C383.958 420.299 383.726 420.766 383.726 421.344C383.726 421.889 383.942 422.3 384.373 422.577C384.804 422.854 385.582 423.118 386.705 423.371C387.836 423.623 388.751 423.924 389.451 424.274C390.151 424.624 390.668 425.047 391.001 425.543C391.343 426.032 391.514 426.63 391.514 427.338C391.514 428.518 391.042 429.466 390.098 430.182C389.154 430.89 387.929 431.244 386.424 431.244C385.366 431.244 384.43 431.057 383.616 430.683C382.802 430.308 382.164 429.787 381.7 429.12C381.244 428.445 381.016 427.716 381.016 426.935H383.274C383.315 427.692 383.616 428.294 384.178 428.742C384.747 429.181 385.496 429.401 386.424 429.401C387.278 429.401 387.962 429.23 388.475 428.888C388.995 428.538 389.256 428.074 389.256 427.497ZM402.146 427.497C402.146 426.886 401.915 426.414 401.451 426.081C400.995 425.739 400.193 425.446 399.046 425.202C397.907 424.958 396.999 424.665 396.324 424.323C395.656 423.981 395.16 423.574 394.834 423.102C394.517 422.63 394.358 422.069 394.358 421.417C394.358 420.335 394.814 419.42 395.726 418.671C396.645 417.922 397.817 417.548 399.241 417.548C400.739 417.548 401.951 417.934 402.879 418.708C403.815 419.481 404.283 420.469 404.283 421.674H402.012C402.012 421.055 401.748 420.522 401.219 420.075C400.698 419.627 400.039 419.403 399.241 419.403C398.419 419.403 397.776 419.582 397.312 419.94C396.849 420.299 396.617 420.766 396.617 421.344C396.617 421.889 396.832 422.3 397.264 422.577C397.695 422.854 398.472 423.118 399.595 423.371C400.726 423.623 401.642 423.924 402.342 424.274C403.042 424.624 403.558 425.047 403.892 425.543C404.234 426.032 404.405 426.63 404.405 427.338C404.405 428.518 403.933 429.466 402.989 430.182C402.045 430.89 400.82 431.244 399.314 431.244C398.257 431.244 397.321 431.057 396.507 430.683C395.693 430.308 395.054 429.787 394.59 429.12C394.135 428.445 393.907 427.716 393.907 426.935H396.165C396.206 427.692 396.507 428.294 397.068 428.742C397.638 429.181 398.387 429.401 399.314 429.401C400.169 429.401 400.853 429.23 401.365 428.888C401.886 428.538 402.146 428.074 402.146 427.497ZM412.046 424.372H406.089V422.528H412.046V424.372ZM413.658 424.274C413.658 422.98 413.91 421.816 414.415 420.783C414.927 419.749 415.635 418.952 416.539 418.39C417.45 417.829 418.488 417.548 419.651 417.548C421.45 417.548 422.903 418.17 424.009 419.416C425.124 420.661 425.682 422.317 425.682 424.384V424.542C425.682 425.828 425.433 426.984 424.937 428.009C424.449 429.027 423.745 429.82 422.825 430.39C421.914 430.959 420.864 431.244 419.676 431.244C417.885 431.244 416.433 430.622 415.318 429.376C414.211 428.131 413.658 426.483 413.658 424.433V424.274ZM415.928 424.542C415.928 426.007 416.266 427.183 416.941 428.07C417.625 428.957 418.536 429.401 419.676 429.401C420.823 429.401 421.735 428.953 422.41 428.058C423.086 427.155 423.423 425.893 423.423 424.274C423.423 422.825 423.077 421.653 422.386 420.758C421.702 419.855 420.791 419.403 419.651 419.403C418.536 419.403 417.637 419.847 416.954 420.734C416.27 421.621 415.928 422.89 415.928 424.542ZM439.671 424.542C439.671 426.553 439.211 428.172 438.292 429.401C437.372 430.63 436.127 431.244 434.556 431.244C432.953 431.244 431.692 430.736 430.772 429.718V436.078H428.514V417.792H430.577L430.687 419.257C431.606 418.118 432.884 417.548 434.52 417.548C436.106 417.548 437.36 418.146 438.279 419.342C439.207 420.539 439.671 422.203 439.671 424.335V424.542ZM437.413 424.286C437.413 422.797 437.095 421.621 436.46 420.758C435.826 419.896 434.955 419.464 433.848 419.464C432.481 419.464 431.456 420.071 430.772 421.283V427.594C431.447 428.799 432.481 429.401 433.873 429.401C434.955 429.401 435.813 428.974 436.448 428.119C437.091 427.257 437.413 425.979 437.413 424.286ZM450.242 427.497C450.242 426.886 450.01 426.414 449.546 426.081C449.091 425.739 448.289 425.446 447.142 425.202C446.002 424.958 445.095 424.665 444.419 424.323C443.752 423.981 443.256 423.574 442.93 423.102C442.613 422.63 442.454 422.069 442.454 421.417C442.454 420.335 442.91 419.42 443.821 418.671C444.741 417.922 445.913 417.548 447.337 417.548C448.834 417.548 450.047 417.934 450.975 418.708C451.91 419.481 452.378 420.469 452.378 421.674H450.108C450.108 421.055 449.843 420.522 449.314 420.075C448.794 419.627 448.134 419.403 447.337 419.403C446.515 419.403 445.872 419.582 445.408 419.94C444.944 420.299 444.712 420.766 444.712 421.344C444.712 421.889 444.928 422.3 445.359 422.577C445.791 422.854 446.568 423.118 447.691 423.371C448.822 423.623 449.738 423.924 450.438 424.274C451.137 424.624 451.654 425.047 451.988 425.543C452.33 426.032 452.5 426.63 452.5 427.338C452.5 428.518 452.028 429.466 451.084 430.182C450.14 430.89 448.916 431.244 447.41 431.244C446.352 431.244 445.416 431.057 444.603 430.683C443.789 430.308 443.15 429.787 442.686 429.12C442.23 428.445 442.002 427.716 442.002 426.935H444.261C444.301 427.692 444.603 428.294 445.164 428.742C445.734 429.181 446.482 429.401 447.41 429.401C448.265 429.401 448.948 429.23 449.461 428.888C449.982 428.538 450.242 428.074 450.242 427.497ZM466.941 429.401C467.747 429.401 468.451 429.157 469.053 428.668C469.655 428.18 469.989 427.57 470.054 426.837H472.19C472.15 427.594 471.889 428.314 471.409 428.998C470.929 429.682 470.286 430.227 469.48 430.634C468.683 431.041 467.837 431.244 466.941 431.244C465.143 431.244 463.711 430.646 462.645 429.45C461.587 428.245 461.058 426.601 461.058 424.518V424.14C461.058 422.854 461.294 421.71 461.766 420.709C462.238 419.708 462.913 418.931 463.792 418.378C464.679 417.825 465.725 417.548 466.929 417.548C468.41 417.548 469.639 417.991 470.616 418.878C471.6 419.765 472.125 420.917 472.19 422.333H470.054C469.989 421.479 469.664 420.779 469.078 420.233C468.5 419.68 467.784 419.403 466.929 419.403C465.782 419.403 464.891 419.818 464.256 420.648C463.629 421.47 463.316 422.663 463.316 424.225V424.652C463.316 426.174 463.629 427.346 464.256 428.168C464.882 428.99 465.778 429.401 466.941 429.401ZM476.988 419.391C477.989 418.162 479.291 417.548 480.894 417.548C483.685 417.548 485.093 419.123 485.118 422.272V431H482.859V422.26C482.851 421.308 482.632 420.604 482.2 420.148C481.777 419.692 481.114 419.464 480.21 419.464C479.478 419.464 478.835 419.66 478.282 420.05C477.728 420.441 477.297 420.954 476.988 421.588V431H474.729V412.25H476.988V419.391ZM496.653 431C496.523 430.74 496.417 430.276 496.336 429.608C495.286 430.699 494.033 431.244 492.576 431.244C491.274 431.244 490.204 430.878 489.366 430.146C488.536 429.405 488.121 428.469 488.121 427.338C488.121 425.963 488.641 424.896 489.683 424.14C490.733 423.375 492.206 422.992 494.102 422.992H496.299V421.955C496.299 421.165 496.063 420.539 495.591 420.075C495.119 419.603 494.424 419.367 493.504 419.367C492.698 419.367 492.023 419.57 491.478 419.977C490.932 420.384 490.66 420.876 490.66 421.454H488.389C488.389 420.795 488.621 420.16 489.085 419.55C489.557 418.931 490.192 418.443 490.989 418.085C491.795 417.727 492.678 417.548 493.638 417.548C495.16 417.548 496.352 417.93 497.215 418.695C498.077 419.452 498.525 420.498 498.558 421.833V427.912C498.558 429.124 498.712 430.089 499.021 430.805V431H496.653ZM492.906 429.279C493.614 429.279 494.285 429.096 494.92 428.729C495.555 428.363 496.014 427.887 496.299 427.301V424.591H494.529C491.762 424.591 490.379 425.401 490.379 427.021C490.379 427.729 490.615 428.282 491.087 428.681C491.559 429.079 492.165 429.279 492.906 429.279ZM504.234 417.792L504.307 419.452C505.316 418.183 506.635 417.548 508.262 417.548C511.054 417.548 512.461 419.123 512.486 422.272V431H510.228V422.26C510.219 421.308 510 420.604 509.568 420.148C509.145 419.692 508.482 419.464 507.579 419.464C506.846 419.464 506.203 419.66 505.65 420.05C505.097 420.441 504.665 420.954 504.356 421.588V431H502.098V417.792H504.234ZM518.028 417.792L518.101 419.452C519.11 418.183 520.429 417.548 522.056 417.548C524.847 417.548 526.255 419.123 526.28 422.272V431H524.021V422.26C524.013 421.308 523.794 420.604 523.362 420.148C522.939 419.692 522.276 419.464 521.373 419.464C520.64 419.464 519.997 419.66 519.444 420.05C518.89 420.441 518.459 420.954 518.15 421.588V431H515.892V417.792H518.028ZM535.167 431.244C533.376 431.244 531.919 430.658 530.796 429.486C529.673 428.306 529.112 426.732 529.112 424.762V424.347C529.112 423.037 529.36 421.869 529.856 420.844C530.361 419.81 531.061 419.005 531.956 418.427C532.859 417.841 533.836 417.548 534.886 417.548C536.603 417.548 537.938 418.113 538.89 419.245C539.842 420.376 540.318 421.995 540.318 424.103V425.043H531.37C531.403 426.345 531.781 427.399 532.505 428.205C533.238 429.002 534.166 429.401 535.289 429.401C536.086 429.401 536.762 429.238 537.315 428.913C537.868 428.587 538.353 428.156 538.768 427.619L540.147 428.693C539.04 430.394 537.38 431.244 535.167 431.244ZM534.886 419.403C533.974 419.403 533.209 419.737 532.591 420.404C531.972 421.063 531.59 421.991 531.443 423.188H538.06V423.017C537.994 421.869 537.685 420.982 537.132 420.355C536.578 419.721 535.83 419.403 534.886 419.403ZM545.396 431H543.138V412.25H545.396V431Z" fill="#565656"/>
<rect x="51.5" y="326.5" width="606" height="51" rx="8.5" stroke="#C4C4C4" stroke-width="3"/>
<rect x="51.5" y="397.5" width="606" height="51" rx="8.5" stroke="#C4C4C4" stroke-width="3"/>
<path d="M627.5 363L616.675 345.75H638.325L627.5 363Z" fill="#C4C4C4"/>
<path d="M627.5 434L616.675 416.75H638.325L627.5 434Z" fill="#C4C4C4"/>
<defs>
<filter id="filter0_bd" x="-85" y="-95" width="889" height="411" filterUnits="userSpaceOnUse" color-interpolation-filters="sRGB">
<feFlood flood-opacity="0" result="BackgroundImageFix"/>
<feGaussianBlur in="BackgroundImage" stdDeviation="50"/>
<feComposite in2="SourceAlpha" operator="in" result="effect1_backgroundBlur"/>
<feColorMatrix in="SourceAlpha" type="matrix" values="0 0 0 0 0 0 0 0 0 0 0 0 0 0 0 0 0 0 127 0"/>
<feMorphology radius="5" operator="dilate" in="SourceAlpha" result="effect2_dropShadow"/>
<feOffset dy="10"/>
<feGaussianBlur stdDeviation="5"/>
<feColorMatrix type="matrix" values="0 0 0 0 0.06375 0 0 0 0 0.144217 0 0 0 0 0.566667 0 0 0 0.1 0"/>
<feBlend mode="normal" in2="effect1_backgroundBlur" result="effect2_dropShadow"/>
<feBlend mode="normal" in="SourceGraphic" in2="effect2_dropShadow" result="shape"/>
</filter>
<filter id="filter1_bd" x="-84" y="162" width="889" height="422" filterUnits="userSpaceOnUse" color-interpolation-filters="sRGB">
<feFlood flood-opacity="0" result="BackgroundImageFix"/>
<feGaussianBlur in="BackgroundImage" stdDeviation="50"/>
<feComposite in2="SourceAlpha" operator="in" result="effect1_backgroundBlur"/>
<feColorMatrix in="SourceAlpha" type="matrix" values="0 0 0 0 0 0 0 0 0 0 0 0 0 0 0 0 0 0 127 0"/>
<feMorphology radius="5" operator="dilate" in="SourceAlpha" result="effect2_dropShadow"/>
<feOffset dy="10"/>
<feGaussianBlur stdDeviation="5"/>
<feColorMatrix type="matrix" values="0 0 0 0 0.06375 0 0 0 0 0.144217 0 0 0 0 0.566667 0 0 0 0.1 0"/>
<feBlend mode="normal" in2="effect1_backgroundBlur" result="effect2_dropShadow"/>
<feBlend mode="normal" in="SourceGraphic" in2="effect2_dropShadow" result="shape"/>
</filter>
</defs>
</svg>
