<svg width="720" height="509" viewBox="0 0 720 509" fill="none" xmlns="http://www.w3.org/2000/svg">
<rect x="340" y="176" width="29" height="155" fill="white"/>
<g filter="url(#filter0_bd)">
<rect x="15" y="5" width="689" height="211" rx="20" fill="white" fill-opacity="0.9"/>
</g>
<g filter="url(#filter1_bd)">
<rect x="16" y="262" width="689" height="222" rx="20" fill="white" fill-opacity="0.9"/>
</g>
<path d="M58.9468 42.7256H56.6274V49H52.3428V31.2266H59.3374C61.4451 31.2266 63.0931 31.6945 64.2812 32.6304C65.4694 33.5662 66.0635 34.8887 66.0635 36.5977C66.0635 37.8346 65.8112 38.86 65.3066 39.6738C64.8102 40.4876 64.029 41.1468 62.9629 41.6514L66.6738 48.8169V49H62.084L58.9468 42.7256ZM56.6274 39.4175H59.3374C60.1512 39.4175 60.7616 39.2059 61.1685 38.7827C61.5835 38.3514 61.791 37.7533 61.791 36.9883C61.791 36.2233 61.5835 35.6252 61.1685 35.1938C60.7534 34.7544 60.1431 34.5347 59.3374 34.5347H56.6274V39.4175ZM74.8525 49.2441C72.8262 49.2441 71.1864 48.6419 69.9331 47.4375C68.6799 46.2249 68.0532 44.6502 68.0532 42.7134V42.3716C68.0532 41.0207 68.3014 39.8285 68.7979 38.7949C69.3024 37.7614 70.0348 36.9639 70.9951 36.4023C71.9554 35.8327 73.0947 35.5479 74.4131 35.5479C76.2686 35.5479 77.7334 36.1257 78.8076 37.2812C79.8818 38.4287 80.4189 40.0319 80.4189 42.0908V43.6899H72.2402C72.3867 44.4305 72.7082 45.0124 73.2046 45.4355C73.701 45.8587 74.3439 46.0703 75.1333 46.0703C76.4354 46.0703 77.4526 45.6146 78.1851 44.7031L80.0649 46.9248C79.5522 47.6328 78.8239 48.1984 77.8799 48.6216C76.944 49.0366 75.9349 49.2441 74.8525 49.2441ZM74.3887 38.7217C73.1842 38.7217 72.4681 39.5192 72.2402 41.1143H76.3906V40.7969C76.4069 40.1377 76.2401 39.6291 75.8901 39.271C75.5402 38.9048 75.0397 38.7217 74.3887 38.7217ZM89.5254 49C89.3789 48.7314 89.2487 48.3368 89.1348 47.8159C88.3779 48.7681 87.32 49.2441 85.9609 49.2441C84.7158 49.2441 83.6579 48.8698 82.7871 48.1211C81.9163 47.3643 81.481 46.4162 81.481 45.2769C81.481 43.8446 82.0099 42.7622 83.0679 42.0298C84.1258 41.2974 85.6639 40.9312 87.6821 40.9312H88.9517V40.2354C88.9517 39.0228 88.4268 38.4165 87.377 38.4165C86.4004 38.4165 85.9121 38.8966 85.9121 39.8569H81.7983C81.7983 38.5793 82.3395 37.5417 83.4219 36.7441C84.5124 35.9466 85.8999 35.5479 87.5845 35.5479C89.269 35.5479 90.5996 35.9588 91.5762 36.7808C92.5527 37.6027 93.0532 38.7298 93.0776 40.1621V46.0093C93.0939 47.2218 93.2811 48.1496 93.6392 48.7925V49H89.5254ZM86.9497 46.3145C87.4624 46.3145 87.8856 46.2046 88.2192 45.9849C88.561 45.7651 88.8052 45.5169 88.9517 45.2402V43.1284H87.7554C86.3231 43.1284 85.6069 43.7713 85.6069 45.0571C85.6069 45.4315 85.7331 45.7367 85.9854 45.9727C86.2376 46.2005 86.5591 46.3145 86.9497 46.3145ZM100.951 46.0703C101.529 46.0703 101.977 45.9157 102.294 45.6064C102.611 45.2891 102.766 44.8496 102.758 44.2881H106.615C106.615 45.7367 106.094 46.9248 105.053 47.8525C104.019 48.7803 102.685 49.2441 101.049 49.2441C99.1283 49.2441 97.6146 48.6419 96.5078 47.4375C95.401 46.2331 94.8477 44.5648 94.8477 42.4326V42.2617C94.8477 40.9271 95.0918 39.7511 95.5801 38.7339C96.0765 37.7085 96.7886 36.9232 97.7163 36.3779C98.644 35.8245 99.7427 35.5479 101.012 35.5479C102.729 35.5479 104.092 36.0239 105.102 36.9761C106.111 37.9282 106.615 39.2181 106.615 40.8457H102.758C102.758 40.1621 102.591 39.6372 102.257 39.271C101.924 38.9048 101.476 38.7217 100.915 38.7217C99.8485 38.7217 99.2259 39.4012 99.0469 40.7603C98.9899 41.1916 98.9614 41.7856 98.9614 42.5425C98.9614 43.869 99.1201 44.7886 99.4375 45.3013C99.7549 45.814 100.259 46.0703 100.951 46.0703ZM112.377 37.208C113.256 36.1012 114.379 35.5479 115.746 35.5479C117.203 35.5479 118.301 35.9792 119.042 36.8418C119.783 37.7044 120.161 38.978 120.177 40.6626V49H116.051V40.7603C116.051 40.0604 115.909 39.5477 115.624 39.2222C115.339 38.8885 114.855 38.7217 114.171 38.7217C113.325 38.7217 112.727 38.9902 112.377 39.5273V49H108.263V30.25H112.377V37.208ZM128.173 42.2739C128.173 40.9556 128.429 39.7837 128.942 38.7583C129.455 37.7248 130.191 36.9313 131.151 36.3779C132.112 35.8245 133.239 35.5479 134.533 35.5479C136.51 35.5479 138.069 36.1623 139.208 37.3911C140.347 38.6118 140.917 40.276 140.917 42.3838V42.5303C140.917 44.5892 140.343 46.2249 139.196 47.4375C138.056 48.6419 136.51 49.2441 134.557 49.2441C132.677 49.2441 131.168 48.6826 130.028 47.5596C128.889 46.4284 128.275 44.8984 128.185 42.9697L128.173 42.2739ZM132.287 42.5303C132.287 43.751 132.478 44.6462 132.86 45.2158C133.243 45.7855 133.808 46.0703 134.557 46.0703C136.022 46.0703 136.771 44.9432 136.803 42.689V42.2739C136.803 39.9058 136.046 38.7217 134.533 38.7217C133.157 38.7217 132.413 39.743 132.299 41.7856L132.287 42.5303ZM150.597 47.5718C149.726 48.6867 148.55 49.2441 147.069 49.2441C145.621 49.2441 144.522 48.825 143.773 47.9868C143.033 47.1405 142.663 45.9279 142.663 44.3491V35.792H146.776V44.3735C146.776 45.5047 147.326 46.0703 148.424 46.0703C149.368 46.0703 150.04 45.7326 150.438 45.0571V35.792H154.577V49H150.719L150.597 47.5718ZM161.632 32.5083V35.792H163.805V38.6484H161.632V44.6909C161.632 45.1873 161.722 45.5332 161.901 45.7285C162.08 45.9238 162.434 46.0215 162.963 46.0215C163.37 46.0215 163.712 45.9971 163.988 45.9482V48.8901C163.248 49.1261 162.475 49.2441 161.669 49.2441C160.253 49.2441 159.207 48.9105 158.532 48.2432C157.856 47.5758 157.519 46.5627 157.519 45.2036V38.6484H155.834V35.792H157.519V32.5083H161.632ZM176.452 32.5083V35.792H178.625V38.6484H176.452V44.6909C176.452 45.1873 176.541 45.5332 176.72 45.7285C176.899 45.9238 177.253 46.0215 177.782 46.0215C178.189 46.0215 178.531 45.9971 178.808 45.9482V48.8901C178.067 49.1261 177.294 49.2441 176.488 49.2441C175.072 49.2441 174.027 48.9105 173.351 48.2432C172.676 47.5758 172.338 46.5627 172.338 45.2036V38.6484H170.653V35.792H172.338V32.5083H176.452ZM179.369 42.2739C179.369 40.9556 179.625 39.7837 180.138 38.7583C180.651 37.7248 181.387 36.9313 182.348 36.3779C183.308 35.8245 184.435 35.5479 185.729 35.5479C187.707 35.5479 189.265 36.1623 190.404 37.3911C191.544 38.6118 192.113 40.276 192.113 42.3838V42.5303C192.113 44.5892 191.54 46.2249 190.392 47.4375C189.253 48.6419 187.707 49.2441 185.753 49.2441C183.874 49.2441 182.364 48.6826 181.225 47.5596C180.085 46.4284 179.471 44.8984 179.381 42.9697L179.369 42.2739ZM183.483 42.5303C183.483 43.751 183.674 44.6462 184.057 45.2158C184.439 45.7855 185.005 46.0703 185.753 46.0703C187.218 46.0703 187.967 44.9432 188 42.689V42.2739C188 39.9058 187.243 38.7217 185.729 38.7217C184.354 38.7217 183.609 39.743 183.495 41.7856L183.483 42.5303ZM204.491 49H200.365V35.792H204.491V49ZM200.121 32.3862C200.121 31.8003 200.333 31.3201 200.756 30.9458C201.179 30.5715 201.728 30.3843 202.404 30.3843C203.079 30.3843 203.629 30.5715 204.052 30.9458C204.475 31.3201 204.687 31.8003 204.687 32.3862C204.687 32.9722 204.475 33.4523 204.052 33.8267C203.629 34.201 203.079 34.3882 202.404 34.3882C201.728 34.3882 201.179 34.201 200.756 33.8267C200.333 33.4523 200.121 32.9722 200.121 32.3862ZM210.814 35.792L210.949 37.3423C211.86 36.146 213.118 35.5479 214.721 35.5479C216.096 35.5479 217.121 35.9588 217.797 36.7808C218.48 37.6027 218.834 38.8397 218.859 40.4917V49H214.733V40.6626C214.733 39.9953 214.599 39.507 214.33 39.1978C214.062 38.8804 213.573 38.7217 212.865 38.7217C212.06 38.7217 211.461 39.0391 211.071 39.6738V49H206.957V35.792H210.814ZM228.588 49C228.441 48.7314 228.311 48.3368 228.197 47.8159C227.44 48.7681 226.382 49.2441 225.023 49.2441C223.778 49.2441 222.72 48.8698 221.85 48.1211C220.979 47.3643 220.543 46.4162 220.543 45.2769C220.543 43.8446 221.072 42.7622 222.13 42.0298C223.188 41.2974 224.726 40.9312 226.745 40.9312H228.014V40.2354C228.014 39.0228 227.489 38.4165 226.439 38.4165C225.463 38.4165 224.975 38.8966 224.975 39.8569H220.861C220.861 38.5793 221.402 37.5417 222.484 36.7441C223.575 35.9466 224.962 35.5479 226.647 35.5479C228.332 35.5479 229.662 35.9588 230.639 36.7808C231.615 37.6027 232.116 38.7298 232.14 40.1621V46.0093C232.156 47.2218 232.344 48.1496 232.702 48.7925V49H228.588ZM226.012 46.3145C226.525 46.3145 226.948 46.2046 227.282 45.9849C227.624 45.7651 227.868 45.5169 228.014 45.2402V43.1284H226.818C225.386 43.1284 224.669 43.7713 224.669 45.0571C224.669 45.4315 224.796 45.7367 225.048 45.9727C225.3 46.2005 225.622 46.3145 226.012 46.3145ZM240.014 46.0703C240.591 46.0703 241.039 45.9157 241.356 45.6064C241.674 45.2891 241.828 44.8496 241.82 44.2881H245.678C245.678 45.7367 245.157 46.9248 244.115 47.8525C243.082 48.7803 241.747 49.2441 240.111 49.2441C238.191 49.2441 236.677 48.6419 235.57 47.4375C234.464 46.2331 233.91 44.5648 233.91 42.4326V42.2617C233.91 40.9271 234.154 39.7511 234.643 38.7339C235.139 37.7085 235.851 36.9232 236.779 36.3779C237.707 35.8245 238.805 35.5479 240.075 35.5479C241.792 35.5479 243.155 36.0239 244.164 36.9761C245.173 37.9282 245.678 39.2181 245.678 40.8457H241.82C241.82 40.1621 241.653 39.6372 241.32 39.271C240.986 38.9048 240.539 38.7217 239.977 38.7217C238.911 38.7217 238.288 39.4012 238.109 40.7603C238.052 41.1916 238.024 41.7856 238.024 42.5425C238.024 43.869 238.183 44.7886 238.5 45.3013C238.817 45.814 239.322 46.0703 240.014 46.0703ZM252.208 32.5083V35.792H254.381V38.6484H252.208V44.6909C252.208 45.1873 252.298 45.5332 252.477 45.7285C252.656 45.9238 253.01 46.0215 253.539 46.0215C253.946 46.0215 254.288 45.9971 254.564 45.9482V48.8901C253.824 49.1261 253.051 49.2441 252.245 49.2441C250.829 49.2441 249.783 48.9105 249.108 48.2432C248.432 47.5758 248.095 46.5627 248.095 45.2036V38.6484H246.41V35.792H248.095V32.5083H252.208ZM260.351 49H256.225V35.792H260.351V49ZM255.98 32.3862C255.98 31.8003 256.192 31.3201 256.615 30.9458C257.038 30.5715 257.588 30.3843 258.263 30.3843C258.939 30.3843 259.488 30.5715 259.911 30.9458C260.334 31.3201 260.546 31.8003 260.546 32.3862C260.546 32.9722 260.334 33.4523 259.911 33.8267C259.488 34.201 258.939 34.3882 258.263 34.3882C257.588 34.3882 257.038 34.201 256.615 33.8267C256.192 33.4523 255.98 32.9722 255.98 32.3862ZM268.163 44.105L270.25 35.792H274.584L270.275 49H266.076L261.767 35.792H266.112L268.163 44.105ZM282.03 49.2441C280.004 49.2441 278.364 48.6419 277.111 47.4375C275.858 46.2249 275.231 44.6502 275.231 42.7134V42.3716C275.231 41.0207 275.479 39.8285 275.976 38.7949C276.48 37.7614 277.213 36.9639 278.173 36.4023C279.133 35.8327 280.272 35.5479 281.591 35.5479C283.446 35.5479 284.911 36.1257 285.985 37.2812C287.06 38.4287 287.597 40.0319 287.597 42.0908V43.6899H279.418C279.564 44.4305 279.886 45.0124 280.382 45.4355C280.879 45.8587 281.522 46.0703 282.311 46.0703C283.613 46.0703 284.63 45.6146 285.363 44.7031L287.243 46.9248C286.73 47.6328 286.002 48.1984 285.058 48.6216C284.122 49.0366 283.113 49.2441 282.03 49.2441ZM281.566 38.7217C280.362 38.7217 279.646 39.5192 279.418 41.1143H283.568V40.7969C283.585 40.1377 283.418 39.6291 283.068 39.271C282.718 38.9048 282.217 38.7217 281.566 38.7217ZM303.356 47.5718C302.485 48.6867 301.309 49.2441 299.828 49.2441C298.38 49.2441 297.281 48.825 296.532 47.9868C295.792 47.1405 295.421 45.9279 295.421 44.3491V35.792H299.535V44.3735C299.535 45.5047 300.084 46.0703 301.183 46.0703C302.127 46.0703 302.799 45.7326 303.197 45.0571V35.792H307.335V49H303.478L303.356 47.5718ZM316.515 45.2891C316.515 44.9391 316.332 44.6584 315.966 44.4468C315.6 44.2352 314.904 44.0155 313.878 43.7876C312.853 43.5597 312.007 43.2627 311.339 42.8965C310.672 42.5221 310.163 42.0705 309.813 41.5415C309.464 41.0125 309.289 40.4062 309.289 39.7227C309.289 38.5101 309.789 37.5132 310.79 36.7319C311.791 35.9425 313.101 35.5479 314.721 35.5479C316.462 35.5479 317.862 35.9425 318.92 36.7319C319.978 37.5213 320.507 38.5589 320.507 39.8447H316.381C316.381 38.7868 315.823 38.2578 314.708 38.2578C314.277 38.2578 313.915 38.3799 313.622 38.624C313.329 38.86 313.183 39.1571 313.183 39.5151C313.183 39.8813 313.362 40.1784 313.72 40.4062C314.078 40.6341 314.647 40.8213 315.429 40.9678C316.218 41.1143 316.91 41.2892 317.504 41.4927C319.49 42.1763 320.482 43.401 320.482 45.167C320.482 46.3714 319.945 47.3521 318.871 48.1089C317.805 48.8657 316.422 49.2441 314.721 49.2441C313.59 49.2441 312.58 49.0407 311.693 48.6338C310.806 48.2269 310.115 47.6735 309.618 46.9736C309.122 46.2738 308.874 45.5373 308.874 44.7642H312.719C312.735 45.3745 312.938 45.8221 313.329 46.1069C313.72 46.3836 314.22 46.522 314.831 46.522C315.392 46.522 315.811 46.408 316.088 46.1802C316.373 45.9523 316.515 45.6553 316.515 45.2891ZM328.808 49.2441C326.781 49.2441 325.141 48.6419 323.888 47.4375C322.635 46.2249 322.008 44.6502 322.008 42.7134V42.3716C322.008 41.0207 322.257 39.8285 322.753 38.7949C323.257 37.7614 323.99 36.9639 324.95 36.4023C325.91 35.8327 327.05 35.5479 328.368 35.5479C330.224 35.5479 331.688 36.1257 332.763 37.2812C333.837 38.4287 334.374 40.0319 334.374 42.0908V43.6899H326.195C326.342 44.4305 326.663 45.0124 327.16 45.4355C327.656 45.8587 328.299 46.0703 329.088 46.0703C330.39 46.0703 331.408 45.6146 332.14 44.7031L334.02 46.9248C333.507 47.6328 332.779 48.1984 331.835 48.6216C330.899 49.0366 329.89 49.2441 328.808 49.2441ZM328.344 38.7217C327.139 38.7217 326.423 39.5192 326.195 41.1143H330.346V40.7969C330.362 40.1377 330.195 39.6291 329.845 39.271C329.495 38.9048 328.995 38.7217 328.344 38.7217ZM344.03 39.5151L342.675 39.4175C341.381 39.4175 340.551 39.8244 340.185 40.6382V49H336.071V35.792H339.928L340.062 37.4888C340.754 36.1948 341.719 35.5479 342.956 35.5479C343.395 35.5479 343.778 35.5967 344.103 35.6943L344.03 39.5151ZM352.428 45.2891C352.428 44.9391 352.245 44.6584 351.879 44.4468C351.513 44.2352 350.817 44.0155 349.792 43.7876C348.766 43.5597 347.92 43.2627 347.252 42.8965C346.585 42.5221 346.076 42.0705 345.727 41.5415C345.377 41.0125 345.202 40.4062 345.202 39.7227C345.202 38.5101 345.702 37.5132 346.703 36.7319C347.704 35.9425 349.014 35.5479 350.634 35.5479C352.375 35.5479 353.775 35.9425 354.833 36.7319C355.891 37.5213 356.42 38.5589 356.42 39.8447H352.294C352.294 38.7868 351.736 38.2578 350.622 38.2578C350.19 38.2578 349.828 38.3799 349.535 38.624C349.242 38.86 349.096 39.1571 349.096 39.5151C349.096 39.8813 349.275 40.1784 349.633 40.4062C349.991 40.6341 350.561 40.8213 351.342 40.9678C352.131 41.1143 352.823 41.2892 353.417 41.4927C355.403 42.1763 356.396 43.401 356.396 45.167C356.396 46.3714 355.858 47.3521 354.784 48.1089C353.718 48.8657 352.335 49.2441 350.634 49.2441C349.503 49.2441 348.493 49.0407 347.606 48.6338C346.719 48.2269 346.028 47.6735 345.531 46.9736C345.035 46.2738 344.787 45.5373 344.787 44.7642H348.632C348.648 45.3745 348.852 45.8221 349.242 46.1069C349.633 46.3836 350.133 46.522 350.744 46.522C351.305 46.522 351.724 46.408 352.001 46.1802C352.286 45.9523 352.428 45.6553 352.428 45.2891ZM371.996 49C371.85 48.7314 371.719 48.3368 371.605 47.8159C370.849 48.7681 369.791 49.2441 368.432 49.2441C367.187 49.2441 366.129 48.8698 365.258 48.1211C364.387 47.3643 363.952 46.4162 363.952 45.2769C363.952 43.8446 364.481 42.7622 365.539 42.0298C366.597 41.2974 368.135 40.9312 370.153 40.9312H371.422V40.2354C371.422 39.0228 370.897 38.4165 369.848 38.4165C368.871 38.4165 368.383 38.8966 368.383 39.8569H364.269C364.269 38.5793 364.81 37.5417 365.893 36.7441C366.983 35.9466 368.371 35.5479 370.055 35.5479C371.74 35.5479 373.07 35.9588 374.047 36.7808C375.023 37.6027 375.524 38.7298 375.548 40.1621V46.0093C375.565 47.2218 375.752 48.1496 376.11 48.7925V49H371.996ZM369.42 46.3145C369.933 46.3145 370.356 46.2046 370.69 45.9849C371.032 45.7651 371.276 45.5169 371.422 45.2402V43.1284H370.226C368.794 43.1284 368.078 43.7713 368.078 45.0571C368.078 45.4315 368.204 45.7367 368.456 45.9727C368.708 46.2005 369.03 46.3145 369.42 46.3145ZM382.628 32.5083V35.792H384.801V38.6484H382.628V44.6909C382.628 45.1873 382.718 45.5332 382.897 45.7285C383.076 45.9238 383.43 46.0215 383.959 46.0215C384.366 46.0215 384.708 45.9971 384.984 45.9482V48.8901C384.244 49.1261 383.471 49.2441 382.665 49.2441C381.249 49.2441 380.203 48.9105 379.528 48.2432C378.852 47.5758 378.515 46.5627 378.515 45.2036V38.6484H376.83V35.792H378.515V32.5083H382.628ZM400.646 39.5151L399.291 39.4175C397.997 39.4175 397.167 39.8244 396.801 40.6382V49H392.687V35.792H396.544L396.679 37.4888C397.37 36.1948 398.335 35.5479 399.572 35.5479C400.011 35.5479 400.394 35.5967 400.719 35.6943L400.646 39.5151ZM406.469 49H402.343V35.792H406.469V49ZM402.099 32.3862C402.099 31.8003 402.31 31.3201 402.733 30.9458C403.157 30.5715 403.706 30.3843 404.381 30.3843C405.057 30.3843 405.606 30.5715 406.029 30.9458C406.452 31.3201 406.664 31.8003 406.664 32.3862C406.664 32.9722 406.452 33.4523 406.029 33.8267C405.606 34.201 405.057 34.3882 404.381 34.3882C403.706 34.3882 403.157 34.201 402.733 33.8267C402.31 33.4523 402.099 32.9722 402.099 32.3862ZM415.929 45.2891C415.929 44.9391 415.746 44.6584 415.38 44.4468C415.014 44.2352 414.318 44.0155 413.292 43.7876C412.267 43.5597 411.421 43.2627 410.753 42.8965C410.086 42.5221 409.577 42.0705 409.228 41.5415C408.878 41.0125 408.703 40.4062 408.703 39.7227C408.703 38.5101 409.203 37.5132 410.204 36.7319C411.205 35.9425 412.515 35.5479 414.135 35.5479C415.876 35.5479 417.276 35.9425 418.334 36.7319C419.392 37.5213 419.921 38.5589 419.921 39.8447H415.795C415.795 38.7868 415.237 38.2578 414.123 38.2578C413.691 38.2578 413.329 38.3799 413.036 38.624C412.743 38.86 412.597 39.1571 412.597 39.5151C412.597 39.8813 412.776 40.1784 413.134 40.4062C413.492 40.6341 414.062 40.8213 414.843 40.9678C415.632 41.1143 416.324 41.2892 416.918 41.4927C418.904 42.1763 419.896 43.401 419.896 45.167C419.896 46.3714 419.359 47.3521 418.285 48.1089C417.219 48.8657 415.836 49.2441 414.135 49.2441C413.004 49.2441 411.994 49.0407 411.107 48.6338C410.22 48.2269 409.529 47.6735 409.032 46.9736C408.536 46.2738 408.288 45.5373 408.288 44.7642H412.133C412.149 45.3745 412.353 45.8221 412.743 46.1069C413.134 46.3836 413.634 46.522 414.245 46.522C414.806 46.522 415.225 46.408 415.502 46.1802C415.787 45.9523 415.929 45.6553 415.929 45.2891ZM427.135 44.0806L425.976 45.2402V49H421.862V30.2378H425.976V40.1987L426.391 39.6494L429.491 35.792H434.423L429.796 41.2241L434.728 49H430.016L427.135 44.0806ZM441.21 42.2739C441.21 40.9556 441.466 39.7837 441.979 38.7583C442.492 37.7248 443.228 36.9313 444.188 36.3779C445.149 35.8245 446.276 35.5479 447.57 35.5479C449.547 35.5479 451.106 36.1623 452.245 37.3911C453.384 38.6118 453.954 40.276 453.954 42.3838V42.5303C453.954 44.5892 453.38 46.2249 452.233 47.4375C451.094 48.6419 449.547 49.2441 447.594 49.2441C445.714 49.2441 444.205 48.6826 443.065 47.5596C441.926 46.4284 441.312 44.8984 441.222 42.9697L441.21 42.2739ZM445.324 42.5303C445.324 43.751 445.515 44.6462 445.897 45.2158C446.28 45.7855 446.846 46.0703 447.594 46.0703C449.059 46.0703 449.808 44.9432 449.84 42.689V42.2739C449.84 39.9058 449.083 38.7217 447.57 38.7217C446.194 38.7217 445.45 39.743 445.336 41.7856L445.324 42.5303ZM456.676 49V38.6484H454.76V35.792H456.676V34.7422C456.676 33.2367 457.12 32.0688 458.007 31.2388C458.894 30.4087 460.139 29.9937 461.742 29.9937C462.328 29.9937 462.971 30.0791 463.671 30.25L463.683 33.2773C463.431 33.2041 463.093 33.1675 462.67 33.1675C461.425 33.1675 460.802 33.7046 460.802 34.7788V35.792H463.378V38.6484H460.802V49H456.676ZM476.635 46.0703C477.213 46.0703 477.66 45.9157 477.978 45.6064C478.295 45.2891 478.45 44.8496 478.441 44.2881H482.299C482.299 45.7367 481.778 46.9248 480.736 47.8525C479.703 48.7803 478.368 49.2441 476.732 49.2441C474.812 49.2441 473.298 48.6419 472.191 47.4375C471.085 46.2331 470.531 44.5648 470.531 42.4326V42.2617C470.531 40.9271 470.775 39.7511 471.264 38.7339C471.76 37.7085 472.472 36.9232 473.4 36.3779C474.328 35.8245 475.426 35.5479 476.696 35.5479C478.413 35.5479 479.776 36.0239 480.785 36.9761C481.794 37.9282 482.299 39.2181 482.299 40.8457H478.441C478.441 40.1621 478.275 39.6372 477.941 39.271C477.607 38.9048 477.16 38.7217 476.598 38.7217C475.532 38.7217 474.91 39.4012 474.73 40.7603C474.674 41.1916 474.645 41.7856 474.645 42.5425C474.645 43.869 474.804 44.7886 475.121 45.3013C475.438 45.814 475.943 46.0703 476.635 46.0703ZM488.061 37.208C488.939 36.1012 490.062 35.5479 491.43 35.5479C492.886 35.5479 493.985 35.9792 494.726 36.8418C495.466 37.7044 495.845 38.978 495.861 40.6626V49H491.735V40.7603C491.735 40.0604 491.592 39.5477 491.308 39.2222C491.023 38.8885 490.539 38.7217 489.855 38.7217C489.009 38.7217 488.41 38.9902 488.061 39.5273V49H483.947V30.25H488.061V37.208ZM506.017 47.5718C505.146 48.6867 503.97 49.2441 502.489 49.2441C501.041 49.2441 499.942 48.825 499.193 47.9868C498.453 47.1405 498.083 45.9279 498.083 44.3491V35.792H502.196V44.3735C502.196 45.5047 502.746 46.0703 503.844 46.0703C504.788 46.0703 505.46 45.7326 505.858 45.0571V35.792H509.997V49H506.139L506.017 47.5718ZM520.25 39.5151L518.896 39.4175C517.602 39.4175 516.771 39.8244 516.405 40.6382V49H512.292V35.792H516.149L516.283 37.4888C516.975 36.1948 517.939 35.5479 519.176 35.5479C519.616 35.5479 519.998 35.5967 520.324 35.6943L520.25 39.5151ZM525.512 35.792L525.646 37.3423C526.557 36.146 527.815 35.5479 529.418 35.5479C530.793 35.5479 531.819 35.9588 532.494 36.7808C533.178 37.6027 533.532 38.8397 533.556 40.4917V49H529.43V40.6626C529.43 39.9953 529.296 39.507 529.027 39.1978C528.759 38.8804 528.271 38.7217 527.562 38.7217C526.757 38.7217 526.159 39.0391 525.768 39.6738V49H521.654V35.792H525.512Z" fill="black"/>
<path d="M62.438 300.68H56.5664L55.541 304H50.9634L57.4819 286.227H61.5103L68.0776 304H63.4756L62.438 300.68ZM57.5918 297.372H61.4126L59.4961 291.207L57.5918 297.372ZM74.7793 301.07C75.3571 301.07 75.8047 300.916 76.1221 300.606C76.4395 300.289 76.5941 299.85 76.5859 299.288H80.4434C80.4434 300.737 79.9225 301.925 78.8809 302.853C77.8473 303.78 76.5127 304.244 74.877 304.244C72.9564 304.244 71.4427 303.642 70.3359 302.438C69.2292 301.233 68.6758 299.565 68.6758 297.433V297.262C68.6758 295.927 68.9199 294.751 69.4082 293.734C69.9046 292.708 70.6167 291.923 71.5444 291.378C72.4722 290.825 73.5708 290.548 74.8403 290.548C76.5575 290.548 77.9206 291.024 78.9297 291.976C79.9388 292.928 80.4434 294.218 80.4434 295.846H76.5859C76.5859 295.162 76.4191 294.637 76.0854 294.271C75.7518 293.905 75.3042 293.722 74.7427 293.722C73.6766 293.722 73.054 294.401 72.875 295.76C72.818 296.192 72.7896 296.786 72.7896 297.542C72.7896 298.869 72.9482 299.789 73.2656 300.301C73.583 300.814 74.0876 301.07 74.7793 301.07ZM86.9741 287.508V290.792H89.147V293.648H86.9741V299.691C86.9741 300.187 87.0636 300.533 87.2427 300.729C87.4217 300.924 87.7757 301.021 88.3047 301.021C88.7116 301.021 89.0534 300.997 89.3301 300.948V303.89C88.5895 304.126 87.8164 304.244 87.0107 304.244C85.5947 304.244 84.549 303.91 83.8735 303.243C83.1981 302.576 82.8604 301.563 82.8604 300.204V293.648H81.1758V290.792H82.8604V287.508H86.9741ZM95.1162 304H90.9902V290.792H95.1162V304ZM90.7461 287.386C90.7461 286.8 90.9577 286.32 91.3809 285.946C91.804 285.571 92.3534 285.384 93.0288 285.384C93.7043 285.384 94.2536 285.571 94.6768 285.946C95.0999 286.32 95.3115 286.8 95.3115 287.386C95.3115 287.972 95.0999 288.452 94.6768 288.827C94.2536 289.201 93.7043 289.388 93.0288 289.388C92.3534 289.388 91.804 289.201 91.3809 288.827C90.9577 288.452 90.7461 287.972 90.7461 287.386ZM97.1426 297.274C97.1426 295.956 97.3989 294.784 97.9116 293.758C98.4243 292.725 99.1608 291.931 100.121 291.378C101.081 290.825 102.208 290.548 103.502 290.548C105.48 290.548 107.038 291.162 108.178 292.391C109.317 293.612 109.887 295.276 109.887 297.384V297.53C109.887 299.589 109.313 301.225 108.166 302.438C107.026 303.642 105.48 304.244 103.527 304.244C101.647 304.244 100.137 303.683 98.998 302.56C97.8587 301.428 97.2443 299.898 97.1548 297.97L97.1426 297.274ZM101.256 297.53C101.256 298.751 101.448 299.646 101.83 300.216C102.213 300.785 102.778 301.07 103.527 301.07C104.992 301.07 105.74 299.943 105.773 297.689V297.274C105.773 294.906 105.016 293.722 103.502 293.722C102.127 293.722 101.382 294.743 101.269 296.786L101.256 297.53ZM115.478 290.792L115.612 292.342C116.523 291.146 117.781 290.548 119.384 290.548C120.759 290.548 121.785 290.959 122.46 291.781C123.144 292.603 123.498 293.84 123.522 295.492V304H119.396V295.663C119.396 294.995 119.262 294.507 118.993 294.198C118.725 293.88 118.236 293.722 117.528 293.722C116.723 293.722 116.125 294.039 115.734 294.674V304H111.62V290.792H115.478Z" fill="black"/>
<rect x="16" y="77" width="688" height="2" fill="#E5E5E5"/>
<rect x="55" y="79" width="3" height="137" fill="#E5E5E5"/>
<path d="M36.8608 123H34.5903V107.949L30.0371 109.621V107.57L36.5068 105.141H36.8608V123ZM41.0845 152H29.439V150.376L35.5913 143.541C36.5028 142.507 37.1294 141.669 37.4712 141.026C37.8211 140.375 37.9961 139.703 37.9961 139.012C37.9961 138.084 37.7153 137.323 37.1538 136.729C36.5923 136.135 35.8436 135.838 34.9077 135.838C33.7847 135.838 32.9098 136.159 32.2832 136.802C31.6647 137.437 31.3555 138.324 31.3555 139.463H29.0972C29.0972 137.828 29.6221 136.505 30.6719 135.496C31.7298 134.487 33.1418 133.982 34.9077 133.982C36.5597 133.982 37.8659 134.418 38.8262 135.289C39.7865 136.151 40.2666 137.303 40.2666 138.743C40.2666 140.493 39.1517 142.576 36.9219 144.993L32.1611 150.157H41.0845V152ZM32.7227 171.015H34.4194C35.4855 170.998 36.3237 170.718 36.9341 170.172C37.5444 169.627 37.8496 168.891 37.8496 167.963C37.8496 165.88 36.812 164.838 34.7368 164.838C33.7603 164.838 32.979 165.119 32.3931 165.68C31.8153 166.234 31.5264 166.97 31.5264 167.89H29.2681C29.2681 166.482 29.7808 165.314 30.8062 164.386C31.8397 163.45 33.1499 162.982 34.7368 162.982C36.4132 162.982 37.7275 163.426 38.6797 164.313C39.6318 165.2 40.1079 166.433 40.1079 168.012C40.1079 168.785 39.8556 169.534 39.3511 170.258C38.8547 170.982 38.1751 171.523 37.3125 171.881C38.2891 172.191 39.0418 172.703 39.5708 173.419C40.1079 174.136 40.3765 175.01 40.3765 176.044C40.3765 177.639 39.8556 178.904 38.814 179.84C37.7723 180.776 36.4173 181.244 34.749 181.244C33.0807 181.244 31.7217 180.792 30.6719 179.889C29.6302 178.986 29.1094 177.794 29.1094 176.312H31.3799C31.3799 177.248 31.6851 177.997 32.2954 178.559C32.9058 179.12 33.7236 179.401 34.749 179.401C35.8395 179.401 36.6737 179.116 37.2515 178.546C37.8293 177.977 38.1182 177.159 38.1182 176.093C38.1182 175.059 37.8008 174.266 37.166 173.712C36.5312 173.159 35.6157 172.874 34.4194 172.858H32.7227V171.015Z" fill="#C4C4C4"/>
<path d="M91.8032 119.337C91.8032 118.645 91.5591 118.116 91.0708 117.75C90.5825 117.376 89.7036 116.985 88.4341 116.578C87.1646 116.163 86.1595 115.756 85.4189 115.357C83.4007 114.267 82.3916 112.798 82.3916 110.951C82.3916 109.99 82.6602 109.136 83.1973 108.387C83.7425 107.63 84.5197 107.04 85.5288 106.617C86.5461 106.194 87.6854 105.982 88.9468 105.982C90.2163 105.982 91.3475 106.214 92.3403 106.678C93.3332 107.134 94.1022 107.781 94.6475 108.619C95.2008 109.457 95.4775 110.41 95.4775 111.476H91.8154C91.8154 110.662 91.5591 110.031 91.0464 109.583C90.5337 109.128 89.8135 108.9 88.8857 108.9C87.9906 108.9 87.2948 109.091 86.7983 109.474C86.3019 109.848 86.0537 110.344 86.0537 110.963C86.0537 111.541 86.3426 112.025 86.9204 112.416C87.5063 112.806 88.3649 113.172 89.4961 113.514C91.5794 114.141 93.0972 114.918 94.0493 115.846C95.0015 116.773 95.4775 117.929 95.4775 119.312C95.4775 120.851 94.8957 122.059 93.7319 122.938C92.5682 123.809 91.0016 124.244 89.0322 124.244C87.665 124.244 86.4199 123.996 85.2969 123.5C84.1738 122.995 83.3153 122.307 82.7212 121.437C82.1353 120.566 81.8423 119.557 81.8423 118.409H85.5166C85.5166 120.37 86.6885 121.351 89.0322 121.351C89.903 121.351 90.5825 121.176 91.0708 120.826C91.5591 120.468 91.8032 119.972 91.8032 119.337ZM108.661 116.297H101.63V121.058H109.882V124H97.9678V106.227H109.857V109.193H101.63V113.429H108.661V116.297ZM115.692 121.058H123.468V124H112.03V106.227H115.692V121.058ZM136.273 116.297H129.242V121.058H137.494V124H125.58V106.227H137.47V109.193H129.242V113.429H136.273V116.297ZM153.595 118.08C153.457 119.992 152.749 121.498 151.471 122.596C150.202 123.695 148.525 124.244 146.442 124.244C144.163 124.244 142.369 123.479 141.059 121.949C139.757 120.411 139.105 118.303 139.105 115.626V114.54C139.105 112.831 139.407 111.325 140.009 110.023C140.611 108.721 141.47 107.724 142.584 107.032C143.708 106.332 145.01 105.982 146.491 105.982C148.542 105.982 150.194 106.532 151.447 107.63C152.7 108.729 153.424 110.271 153.62 112.257H149.958C149.868 111.109 149.547 110.279 148.993 109.767C148.448 109.246 147.614 108.985 146.491 108.985C145.27 108.985 144.354 109.425 143.744 110.304C143.142 111.174 142.833 112.529 142.816 114.369V115.711C142.816 117.632 143.105 119.036 143.683 119.923C144.269 120.81 145.189 121.253 146.442 121.253C147.573 121.253 148.415 120.997 148.969 120.484C149.53 119.964 149.852 119.162 149.933 118.08H153.595ZM169.013 109.193H163.568V124H159.906V109.193H154.535V106.227H169.013V109.193ZM96.4297 147.873L98.8223 135.227H102.472L98.5293 153H94.8428L91.9497 141.11L89.0566 153H85.3701L81.4272 135.227H85.0771L87.4819 147.849L90.4116 135.227H93.5122L96.4297 147.873ZM118.927 153H115.265V145.383H108.124V153H104.462V135.227H108.124V142.429H115.265V135.227H118.927V153ZM132.831 145.297H125.8V150.058H134.052V153H122.138V135.227H134.027V138.193H125.8V142.429H132.831V145.297ZM142.78 146.494H139.862V153H136.2V135.227H142.804C144.904 135.227 146.523 135.694 147.663 136.63C148.802 137.566 149.372 138.889 149.372 140.598C149.372 141.81 149.107 142.823 148.578 143.637C148.057 144.443 147.264 145.086 146.198 145.566L150.043 152.829V153H146.112L142.78 146.494ZM139.862 143.527H142.816C143.736 143.527 144.448 143.295 144.953 142.832C145.457 142.36 145.709 141.713 145.709 140.891C145.709 140.052 145.469 139.393 144.989 138.913C144.517 138.433 143.789 138.193 142.804 138.193H139.862V143.527ZM162.86 145.297H155.829V150.058H164.081V153H152.167V135.227H164.057V138.193H155.829V142.429H162.86V145.297Z" fill="#113D96"/>
<path d="M179.755 112L176.068 110.902L176.63 109.059L180.316 110.426L180.207 106.227H182.074L181.952 110.487L185.578 109.144L186.139 111L182.392 112.11L184.809 115.418L183.295 116.566L181.024 113.05L178.827 116.48L177.301 115.37L179.755 112ZM262.201 122.694C261.322 123.727 260.032 124.244 258.332 124.244C256.924 124.244 255.849 123.837 255.109 123.023C254.376 122.201 254.006 120.989 253.998 119.386V110.792H256.256V119.325C256.256 121.327 257.07 122.328 258.698 122.328C260.423 122.328 261.57 121.685 262.14 120.399V110.792H264.398V124H262.25L262.201 122.694ZM275.531 120.497C275.531 119.886 275.299 119.414 274.835 119.081C274.38 118.739 273.578 118.446 272.431 118.202C271.291 117.958 270.384 117.665 269.708 117.323C269.041 116.981 268.545 116.574 268.219 116.102C267.902 115.63 267.743 115.069 267.743 114.417C267.743 113.335 268.199 112.42 269.11 111.671C270.03 110.922 271.202 110.548 272.626 110.548C274.123 110.548 275.336 110.934 276.264 111.708C277.2 112.481 277.667 113.469 277.667 114.674H275.397C275.397 114.055 275.132 113.522 274.604 113.075C274.083 112.627 273.424 112.403 272.626 112.403C271.804 112.403 271.161 112.582 270.697 112.94C270.233 113.299 270.001 113.766 270.001 114.344C270.001 114.889 270.217 115.3 270.648 115.577C271.08 115.854 271.857 116.118 272.98 116.371C274.111 116.623 275.027 116.924 275.727 117.274C276.426 117.624 276.943 118.047 277.277 118.543C277.619 119.032 277.79 119.63 277.79 120.338C277.79 121.518 277.318 122.466 276.374 123.182C275.43 123.89 274.205 124.244 272.699 124.244C271.641 124.244 270.705 124.057 269.892 123.683C269.078 123.308 268.439 122.787 267.975 122.12C267.519 121.445 267.292 120.716 267.292 119.935H269.55C269.59 120.692 269.892 121.294 270.453 121.742C271.023 122.181 271.771 122.401 272.699 122.401C273.554 122.401 274.237 122.23 274.75 121.888C275.271 121.538 275.531 121.074 275.531 120.497ZM286.212 124.244C284.422 124.244 282.965 123.658 281.842 122.486C280.719 121.306 280.158 119.732 280.158 117.762V117.347C280.158 116.037 280.406 114.869 280.902 113.844C281.407 112.81 282.107 112.005 283.002 111.427C283.905 110.841 284.882 110.548 285.932 110.548C287.649 110.548 288.983 111.113 289.936 112.245C290.888 113.376 291.364 114.995 291.364 117.103V118.043H282.416C282.449 119.345 282.827 120.399 283.551 121.205C284.284 122.002 285.211 122.401 286.334 122.401C287.132 122.401 287.807 122.238 288.361 121.913C288.914 121.587 289.398 121.156 289.813 120.619L291.193 121.693C290.086 123.394 288.426 124.244 286.212 124.244ZM285.932 112.403C285.02 112.403 284.255 112.737 283.637 113.404C283.018 114.063 282.636 114.991 282.489 116.188H289.105V116.017C289.04 114.869 288.731 113.982 288.178 113.355C287.624 112.721 286.876 112.403 285.932 112.403ZM300.373 112.818C300.031 112.761 299.66 112.733 299.262 112.733C297.781 112.733 296.776 113.364 296.247 114.625V124H293.988V110.792H296.186L296.222 112.318C296.963 111.138 298.013 110.548 299.372 110.548C299.811 110.548 300.145 110.605 300.373 110.719V112.818ZM310.15 120.497C310.15 119.886 309.918 119.414 309.455 119.081C308.999 118.739 308.197 118.446 307.05 118.202C305.91 117.958 305.003 117.665 304.328 117.323C303.66 116.981 303.164 116.574 302.838 116.102C302.521 115.63 302.362 115.069 302.362 114.417C302.362 113.335 302.818 112.42 303.729 111.671C304.649 110.922 305.821 110.548 307.245 110.548C308.743 110.548 309.955 110.934 310.883 111.708C311.819 112.481 312.287 113.469 312.287 114.674H310.016C310.016 114.055 309.752 113.522 309.223 113.075C308.702 112.627 308.043 112.403 307.245 112.403C306.423 112.403 305.78 112.582 305.316 112.94C304.853 113.299 304.621 113.766 304.621 114.344C304.621 114.889 304.836 115.3 305.268 115.577C305.699 115.854 306.476 116.118 307.599 116.371C308.73 116.623 309.646 116.924 310.346 117.274C311.046 117.624 311.562 118.047 311.896 118.543C312.238 119.032 312.409 119.63 312.409 120.338C312.409 121.518 311.937 122.466 310.993 123.182C310.049 123.89 308.824 124.244 307.318 124.244C306.26 124.244 305.325 124.057 304.511 123.683C303.697 123.308 303.058 122.787 302.594 122.12C302.139 121.445 301.911 120.716 301.911 119.935H304.169C304.21 120.692 304.511 121.294 305.072 121.742C305.642 122.181 306.391 122.401 307.318 122.401C308.173 122.401 308.856 122.23 309.369 121.888C309.89 121.538 310.15 121.074 310.15 120.497ZM175.006 153H172.748V134.25H175.006V153ZM186.786 153C186.656 152.74 186.55 152.276 186.469 151.608C185.419 152.699 184.166 153.244 182.709 153.244C181.407 153.244 180.337 152.878 179.499 152.146C178.668 151.405 178.253 150.469 178.253 149.338C178.253 147.963 178.774 146.896 179.816 146.14C180.866 145.375 182.339 144.992 184.235 144.992H186.432V143.955C186.432 143.165 186.196 142.539 185.724 142.075C185.252 141.603 184.556 141.367 183.637 141.367C182.831 141.367 182.156 141.57 181.61 141.977C181.065 142.384 180.792 142.876 180.792 143.454H178.522C178.522 142.795 178.754 142.16 179.218 141.55C179.69 140.931 180.325 140.443 181.122 140.085C181.928 139.727 182.811 139.548 183.771 139.548C185.293 139.548 186.485 139.93 187.348 140.695C188.21 141.452 188.658 142.498 188.69 143.833V149.912C188.69 151.124 188.845 152.089 189.154 152.805V153H186.786ZM183.039 151.279C183.747 151.279 184.418 151.096 185.053 150.729C185.688 150.363 186.147 149.887 186.432 149.301V146.591H184.662C181.895 146.591 180.512 147.401 180.512 149.021C180.512 149.729 180.748 150.282 181.22 150.681C181.692 151.079 182.298 151.279 183.039 151.279ZM199.921 149.497C199.921 148.886 199.689 148.414 199.225 148.081C198.769 147.739 197.968 147.446 196.82 147.202C195.681 146.958 194.774 146.665 194.098 146.323C193.431 145.981 192.934 145.574 192.609 145.102C192.292 144.63 192.133 144.069 192.133 143.417C192.133 142.335 192.589 141.42 193.5 140.671C194.42 139.922 195.591 139.548 197.016 139.548C198.513 139.548 199.726 139.934 200.653 140.708C201.589 141.481 202.057 142.469 202.057 143.674H199.787C199.787 143.055 199.522 142.522 198.993 142.075C198.472 141.627 197.813 141.403 197.016 141.403C196.194 141.403 195.551 141.582 195.087 141.94C194.623 142.299 194.391 142.766 194.391 143.344C194.391 143.889 194.607 144.3 195.038 144.577C195.469 144.854 196.247 145.118 197.37 145.371C198.501 145.623 199.416 145.924 200.116 146.274C200.816 146.624 201.333 147.047 201.667 147.543C202.008 148.032 202.179 148.63 202.179 149.338C202.179 150.518 201.707 151.466 200.763 152.182C199.819 152.89 198.594 153.244 197.089 153.244C196.031 153.244 195.095 153.057 194.281 152.683C193.467 152.308 192.829 151.787 192.365 151.12C191.909 150.445 191.681 149.716 191.681 148.935H193.939C193.98 149.692 194.281 150.294 194.843 150.742C195.412 151.181 196.161 151.401 197.089 151.401C197.943 151.401 198.627 151.23 199.14 150.888C199.66 150.538 199.921 150.074 199.921 149.497ZM208.185 136.594V139.792H210.651V141.538H208.185V149.729C208.185 150.257 208.295 150.656 208.515 150.925C208.734 151.185 209.109 151.315 209.638 151.315C209.898 151.315 210.256 151.267 210.712 151.169V153C210.118 153.163 209.54 153.244 208.979 153.244C207.969 153.244 207.208 152.939 206.696 152.329C206.183 151.718 205.927 150.852 205.927 149.729V141.538H203.522V139.792H205.927V136.594H208.185ZM222.821 154.843H211.64V153H222.821V154.843ZM227.033 153H224.774V134.25H227.033V153ZM230.06 146.274C230.06 144.98 230.312 143.816 230.817 142.783C231.33 141.749 232.038 140.952 232.941 140.39C233.852 139.829 234.89 139.548 236.054 139.548C237.852 139.548 239.305 140.17 240.412 141.416C241.527 142.661 242.084 144.317 242.084 146.384V146.542C242.084 147.828 241.836 148.984 241.339 150.009C240.851 151.027 240.147 151.82 239.228 152.39C238.316 152.959 237.266 153.244 236.078 153.244C234.288 153.244 232.835 152.622 231.72 151.376C230.613 150.131 230.06 148.483 230.06 146.433V146.274ZM232.331 146.542C232.331 148.007 232.668 149.183 233.344 150.07C234.027 150.957 234.939 151.401 236.078 151.401C237.226 151.401 238.137 150.953 238.812 150.058C239.488 149.155 239.826 147.893 239.826 146.274C239.826 144.825 239.48 143.653 238.788 142.758C238.104 141.855 237.193 141.403 236.054 141.403C234.939 141.403 234.04 141.847 233.356 142.734C232.672 143.621 232.331 144.89 232.331 146.542ZM244.379 146.286C244.379 144.227 244.855 142.591 245.807 141.379C246.759 140.158 248.021 139.548 249.591 139.548C251.203 139.548 252.46 140.118 253.363 141.257L253.473 139.792H255.536V152.683C255.536 154.392 255.028 155.738 254.01 156.723C253.001 157.708 251.642 158.2 249.933 158.2C248.981 158.2 248.049 157.997 247.138 157.59C246.226 157.183 245.53 156.625 245.05 155.917L246.222 154.562C247.191 155.759 248.375 156.357 249.774 156.357C250.873 156.357 251.728 156.048 252.338 155.429C252.956 154.811 253.266 153.94 253.266 152.817V151.682C252.362 152.723 251.129 153.244 249.567 153.244C248.021 153.244 246.767 152.622 245.807 151.376C244.855 150.131 244.379 148.435 244.379 146.286ZM246.649 146.542C246.649 148.032 246.955 149.204 247.565 150.058C248.175 150.904 249.03 151.328 250.128 151.328C251.553 151.328 252.598 150.681 253.266 149.387V143.356C252.574 142.095 251.536 141.464 250.153 141.464C249.054 141.464 248.196 141.892 247.577 142.746C246.959 143.601 246.649 144.866 246.649 146.542ZM261.408 153H259.149V139.792H261.408V153ZM258.966 136.289C258.966 135.922 259.076 135.613 259.296 135.361C259.524 135.109 259.857 134.982 260.297 134.982C260.736 134.982 261.07 135.109 261.298 135.361C261.526 135.613 261.64 135.922 261.64 136.289C261.64 136.655 261.526 136.96 261.298 137.204C261.07 137.448 260.736 137.57 260.297 137.57C259.857 137.57 259.524 137.448 259.296 137.204C259.076 136.96 258.966 136.655 258.966 136.289ZM267.169 139.792L267.243 141.452C268.252 140.183 269.57 139.548 271.198 139.548C273.989 139.548 275.397 141.123 275.421 144.272V153H273.163V144.26C273.155 143.308 272.935 142.604 272.504 142.148C272.081 141.692 271.417 141.464 270.514 141.464C269.782 141.464 269.139 141.66 268.585 142.05C268.032 142.441 267.601 142.954 267.292 143.588V153H265.033V139.792H267.169ZM288.349 154.843H277.167V153H288.349V154.843ZM298.261 153C298.131 152.74 298.025 152.276 297.943 151.608C296.894 152.699 295.64 153.244 294.184 153.244C292.882 153.244 291.811 152.878 290.973 152.146C290.143 151.405 289.728 150.469 289.728 149.338C289.728 147.963 290.249 146.896 291.291 146.14C292.34 145.375 293.813 144.992 295.709 144.992H297.907V143.955C297.907 143.165 297.671 142.539 297.199 142.075C296.727 141.603 296.031 141.367 295.111 141.367C294.306 141.367 293.63 141.57 293.085 141.977C292.54 142.384 292.267 142.876 292.267 143.454H289.997C289.997 142.795 290.229 142.16 290.692 141.55C291.164 140.931 291.799 140.443 292.597 140.085C293.402 139.727 294.285 139.548 295.246 139.548C296.767 139.548 297.96 139.93 298.822 140.695C299.685 141.452 300.132 142.498 300.165 143.833V149.912C300.165 151.124 300.32 152.089 300.629 152.805V153H298.261ZM294.513 151.279C295.221 151.279 295.893 151.096 296.527 150.729C297.162 150.363 297.622 149.887 297.907 149.301V146.591H296.137C293.37 146.591 291.986 147.401 291.986 149.021C291.986 149.729 292.222 150.282 292.694 150.681C293.166 151.079 293.773 151.279 294.513 151.279ZM306.769 136.594V139.792H309.235V141.538H306.769V149.729C306.769 150.257 306.879 150.656 307.099 150.925C307.318 151.185 307.693 151.315 308.222 151.315C308.482 151.315 308.84 151.267 309.296 151.169V153C308.702 153.163 308.124 153.244 307.562 153.244C306.553 153.244 305.792 152.939 305.28 152.329C304.767 151.718 304.511 150.852 304.511 149.729V141.538H302.106V139.792H304.511V136.594H306.769ZM319.599 145.139L327.24 148.227V150.62L317.255 145.993V144.211L327.24 139.597V141.989L319.599 145.139ZM344.196 153H341.925V137.949L337.372 139.621V137.57L343.842 135.141H344.196V153ZM359.369 139.792L359.43 141.257C360.399 140.118 361.705 139.548 363.349 139.548C365.196 139.548 366.453 140.256 367.121 141.672C367.56 141.037 368.13 140.524 368.83 140.134C369.538 139.743 370.372 139.548 371.332 139.548C374.229 139.548 375.702 141.082 375.751 144.15V153H373.493V144.284C373.493 143.34 373.277 142.636 372.846 142.172C372.414 141.7 371.69 141.464 370.673 141.464C369.835 141.464 369.139 141.717 368.585 142.221C368.032 142.718 367.711 143.389 367.621 144.235V153H365.351V144.345C365.351 142.425 364.411 141.464 362.531 141.464C361.05 141.464 360.036 142.095 359.491 143.356V153H357.233V139.792H359.369ZM378.571 146.274C378.571 144.98 378.823 143.816 379.328 142.783C379.84 141.749 380.548 140.952 381.452 140.39C382.363 139.829 383.401 139.548 384.564 139.548C386.363 139.548 387.816 140.17 388.922 141.416C390.037 142.661 390.595 144.317 390.595 146.384V146.542C390.595 147.828 390.347 148.984 389.85 150.009C389.362 151.027 388.658 151.82 387.738 152.39C386.827 152.959 385.777 153.244 384.589 153.244C382.799 153.244 381.346 152.622 380.231 151.376C379.124 150.131 378.571 148.483 378.571 146.433V146.274ZM380.841 146.542C380.841 148.007 381.179 149.183 381.854 150.07C382.538 150.957 383.45 151.401 384.589 151.401C385.736 151.401 386.648 150.953 387.323 150.058C387.999 149.155 388.336 147.893 388.336 146.274C388.336 144.825 387.991 143.653 387.299 142.758C386.615 141.855 385.704 141.403 384.564 141.403C383.45 141.403 382.55 141.847 381.867 142.734C381.183 143.621 380.841 144.89 380.841 146.542ZM395.563 139.792L395.636 141.452C396.645 140.183 397.964 139.548 399.591 139.548C402.383 139.548 403.791 141.123 403.815 144.272V153H401.557V144.26C401.549 143.308 401.329 142.604 400.897 142.148C400.474 141.692 399.811 141.464 398.908 141.464C398.175 141.464 397.532 141.66 396.979 142.05C396.426 142.441 395.994 142.954 395.685 143.588V153H393.427V139.792H395.563ZM410.285 136.594V139.792H412.75V141.538H410.285V149.729C410.285 150.257 410.395 150.656 410.614 150.925C410.834 151.185 411.208 151.315 411.737 151.315C411.998 151.315 412.356 151.267 412.812 151.169V153C412.217 153.163 411.64 153.244 411.078 153.244C410.069 153.244 409.308 152.939 408.795 152.329C408.283 151.718 408.026 150.852 408.026 149.729V141.538H405.622V139.792H408.026V136.594H410.285ZM417.658 141.391C418.659 140.162 419.961 139.548 421.564 139.548C424.355 139.548 425.763 141.123 425.788 144.272V153H423.529V144.26C423.521 143.308 423.301 142.604 422.87 142.148C422.447 141.692 421.784 141.464 420.88 141.464C420.148 141.464 419.505 141.66 418.952 142.05C418.398 142.441 417.967 142.954 417.658 143.588V153H415.399V134.25H417.658V141.391ZM443.524 153C443.394 152.74 443.288 152.276 443.207 151.608C442.157 152.699 440.904 153.244 439.447 153.244C438.145 153.244 437.075 152.878 436.237 152.146C435.407 151.405 434.992 150.469 434.992 149.338C434.992 147.963 435.513 146.896 436.554 146.14C437.604 145.375 439.077 144.992 440.973 144.992H443.17V143.955C443.17 143.165 442.934 142.539 442.462 142.075C441.99 141.603 441.295 141.367 440.375 141.367C439.569 141.367 438.894 141.57 438.349 141.977C437.803 142.384 437.531 142.876 437.531 143.454H435.26C435.26 142.795 435.492 142.16 435.956 141.55C436.428 140.931 437.063 140.443 437.86 140.085C438.666 139.727 439.549 139.548 440.509 139.548C442.031 139.548 443.223 139.93 444.086 140.695C444.949 141.452 445.396 142.498 445.429 143.833V149.912C445.429 151.124 445.583 152.089 445.893 152.805V153H443.524ZM439.777 151.279C440.485 151.279 441.156 151.096 441.791 150.729C442.426 150.363 442.886 149.887 443.17 149.301V146.591H441.4C438.633 146.591 437.25 147.401 437.25 149.021C437.25 149.729 437.486 150.282 437.958 150.681C438.43 151.079 439.036 151.279 439.777 151.279ZM448.432 146.286C448.432 144.227 448.908 142.591 449.86 141.379C450.812 140.158 452.073 139.548 453.644 139.548C455.255 139.548 456.513 140.118 457.416 141.257L457.526 139.792H459.589V152.683C459.589 154.392 459.08 155.738 458.063 156.723C457.054 157.708 455.695 158.2 453.986 158.2C453.034 158.2 452.102 157.997 451.19 157.59C450.279 157.183 449.583 156.625 449.103 155.917L450.275 154.562C451.243 155.759 452.427 156.357 453.827 156.357C454.926 156.357 455.78 156.048 456.391 155.429C457.009 154.811 457.318 153.94 457.318 152.817V151.682C456.415 152.723 455.182 153.244 453.62 153.244C452.073 153.244 450.82 152.622 449.86 151.376C448.908 150.131 448.432 148.435 448.432 146.286ZM450.702 146.542C450.702 148.032 451.007 149.204 451.618 150.058C452.228 150.904 453.083 151.328 454.181 151.328C455.605 151.328 456.651 150.681 457.318 149.387V143.356C456.627 142.095 455.589 141.464 454.206 141.464C453.107 141.464 452.248 141.892 451.63 142.746C451.011 143.601 450.702 144.866 450.702 146.542ZM462.409 146.274C462.409 144.98 462.661 143.816 463.166 142.783C463.678 141.749 464.386 140.952 465.29 140.39C466.201 139.829 467.239 139.548 468.402 139.548C470.201 139.548 471.653 140.17 472.76 141.416C473.875 142.661 474.433 144.317 474.433 146.384V146.542C474.433 147.828 474.184 148.984 473.688 150.009C473.2 151.027 472.496 151.82 471.576 152.39C470.665 152.959 469.615 153.244 468.427 153.244C466.636 153.244 465.184 152.622 464.069 151.376C462.962 150.131 462.409 148.483 462.409 146.433V146.274ZM464.679 146.542C464.679 148.007 465.017 149.183 465.692 150.07C466.376 150.957 467.287 151.401 468.427 151.401C469.574 151.401 470.486 150.953 471.161 150.058C471.837 149.155 472.174 147.893 472.174 146.274C472.174 144.825 471.828 143.653 471.137 142.758C470.453 141.855 469.542 141.403 468.402 141.403C467.287 141.403 466.388 141.847 465.705 142.734C465.021 143.621 464.679 144.89 464.679 146.542Z" fill="black"/>
<path d="M195.014 124V113.38H193.048V110.792H195.014V109.669C195.014 108.188 195.437 107.04 196.283 106.227C197.138 105.405 198.33 104.994 199.86 104.994C200.348 104.994 200.946 105.075 201.654 105.238L201.618 107.972C201.325 107.899 200.967 107.862 200.543 107.862C199.217 107.862 198.554 108.485 198.554 109.73V110.792H201.178V113.38H198.554V124H195.014ZM210.431 114.1C209.951 114.035 209.528 114.002 209.162 114.002C207.827 114.002 206.952 114.454 206.537 115.357V124H203.009V110.792H206.342L206.439 112.367C207.147 111.154 208.128 110.548 209.381 110.548C209.772 110.548 210.138 110.601 210.48 110.707L210.431 114.1ZM211.151 117.274C211.151 115.964 211.404 114.796 211.908 113.771C212.413 112.745 213.137 111.952 214.081 111.39C215.033 110.829 216.136 110.548 217.389 110.548C219.171 110.548 220.624 111.093 221.747 112.184C222.878 113.274 223.509 114.755 223.639 116.627L223.664 117.53C223.664 119.557 223.098 121.184 221.967 122.413C220.836 123.634 219.318 124.244 217.414 124.244C215.509 124.244 213.987 123.634 212.848 122.413C211.717 121.192 211.151 119.532 211.151 117.433V117.274ZM214.679 117.53C214.679 118.784 214.915 119.744 215.387 120.411C215.859 121.07 216.535 121.4 217.414 121.4C218.268 121.4 218.935 121.074 219.416 120.423C219.896 119.764 220.136 118.714 220.136 117.274C220.136 116.045 219.896 115.093 219.416 114.417C218.935 113.742 218.26 113.404 217.389 113.404C216.527 113.404 215.859 113.742 215.387 114.417C214.915 115.085 214.679 116.122 214.679 117.53ZM229.145 110.792L229.254 112.269C230.19 111.122 231.456 110.548 233.051 110.548C234.752 110.548 235.919 111.219 236.554 112.562C237.482 111.219 238.804 110.548 240.521 110.548C241.954 110.548 243.02 110.967 243.72 111.805C244.42 112.635 244.77 113.889 244.77 115.565V124H241.229V115.577C241.229 114.828 241.083 114.283 240.79 113.941C240.497 113.591 239.98 113.417 239.24 113.417C238.182 113.417 237.449 113.921 237.042 114.93L237.055 124H233.527V115.589C233.527 114.824 233.376 114.271 233.075 113.929C232.774 113.587 232.261 113.417 231.537 113.417C230.536 113.417 229.812 113.832 229.364 114.662V124H225.836V110.792H229.145Z" fill="#004DFF"/>
<path d="M82.0903 343.227L87.9009 357.729L93.7114 343.227H96.751V361H94.4072V354.079L94.627 346.608L88.792 361H86.9976L81.1748 346.645L81.4067 354.079V361H79.063V343.227H82.0903ZM99.937 354.274C99.937 352.98 100.189 351.816 100.694 350.783C101.207 349.749 101.915 348.952 102.818 348.39C103.729 347.829 104.767 347.548 105.931 347.548C107.729 347.548 109.182 348.17 110.289 349.416C111.403 350.661 111.961 352.317 111.961 354.384V354.542C111.961 355.828 111.713 356.984 111.216 358.009C110.728 359.027 110.024 359.82 109.104 360.39C108.193 360.959 107.143 361.244 105.955 361.244C104.165 361.244 102.712 360.622 101.597 359.376C100.49 358.131 99.937 356.483 99.937 354.433V354.274ZM102.208 354.542C102.208 356.007 102.545 357.183 103.221 358.07C103.904 358.957 104.816 359.401 105.955 359.401C107.103 359.401 108.014 358.953 108.689 358.058C109.365 357.155 109.703 355.893 109.703 354.274C109.703 352.825 109.357 351.653 108.665 350.758C107.981 349.855 107.07 349.403 105.931 349.403C104.816 349.403 103.917 349.847 103.233 350.734C102.549 351.621 102.208 352.89 102.208 354.542ZM118.956 357.936L122.227 347.792H124.534L119.798 361H118.077L113.292 347.792H115.599L118.956 357.936ZM132.017 361.244C130.227 361.244 128.77 360.658 127.647 359.486C126.524 358.306 125.962 356.732 125.962 354.762V354.347C125.962 353.037 126.211 351.869 126.707 350.844C127.212 349.81 127.911 349.005 128.807 348.427C129.71 347.841 130.687 347.548 131.736 347.548C133.453 347.548 134.788 348.113 135.74 349.245C136.692 350.376 137.168 351.995 137.168 354.103V355.043H128.221C128.253 356.345 128.632 357.399 129.356 358.205C130.088 359.002 131.016 359.401 132.139 359.401C132.937 359.401 133.612 359.238 134.166 358.913C134.719 358.587 135.203 358.156 135.618 357.619L136.998 358.693C135.891 360.394 134.231 361.244 132.017 361.244ZM131.736 349.403C130.825 349.403 130.06 349.737 129.441 350.404C128.823 351.063 128.44 351.991 128.294 353.188H134.91V353.017C134.845 351.869 134.536 350.982 133.982 350.355C133.429 349.721 132.68 349.403 131.736 349.403ZM149.058 344.594V347.792H151.524V349.538H149.058V357.729C149.058 358.257 149.168 358.656 149.388 358.925C149.607 359.185 149.982 359.315 150.511 359.315C150.771 359.315 151.129 359.267 151.585 359.169V361C150.991 361.163 150.413 361.244 149.852 361.244C148.842 361.244 148.082 360.939 147.569 360.329C147.056 359.718 146.8 358.852 146.8 357.729V349.538H144.395V347.792H146.8V344.594H149.058ZM153.331 354.274C153.331 352.98 153.583 351.816 154.087 350.783C154.6 349.749 155.308 348.952 156.211 348.39C157.123 347.829 158.16 347.548 159.324 347.548C161.123 347.548 162.575 348.17 163.682 349.416C164.797 350.661 165.354 352.317 165.354 354.384V354.542C165.354 355.828 165.106 356.984 164.61 358.009C164.122 359.027 163.418 359.82 162.498 360.39C161.587 360.959 160.537 361.244 159.349 361.244C157.558 361.244 156.106 360.622 154.991 359.376C153.884 358.131 153.331 356.483 153.331 354.433V354.274ZM155.601 354.542C155.601 356.007 155.939 357.183 156.614 358.07C157.298 358.957 158.209 359.401 159.349 359.401C160.496 359.401 161.408 358.953 162.083 358.058C162.758 357.155 163.096 355.893 163.096 354.274C163.096 352.825 162.75 351.653 162.059 350.758C161.375 349.855 160.464 349.403 159.324 349.403C158.209 349.403 157.31 349.847 156.626 350.734C155.943 351.621 155.601 352.89 155.601 354.542ZM173.838 354.286C173.838 352.211 174.314 350.571 175.267 349.367C176.219 348.154 177.496 347.548 179.1 347.548C180.662 347.548 181.895 348.073 182.798 349.123L182.896 347.792H184.971V366.078H182.713V359.779C181.801 360.756 180.589 361.244 179.075 361.244C177.48 361.244 176.207 360.626 175.254 359.389C174.31 358.144 173.838 356.496 173.838 354.445V354.286ZM176.097 354.542C176.097 356.056 176.414 357.244 177.049 358.107C177.692 358.97 178.554 359.401 179.637 359.401C180.979 359.401 182.005 358.807 182.713 357.619V351.149C181.997 349.985 180.979 349.403 179.661 349.403C178.571 349.403 177.704 349.839 177.061 350.709C176.418 351.572 176.097 352.85 176.097 354.542ZM196.751 359.694C195.872 360.727 194.582 361.244 192.881 361.244C191.473 361.244 190.399 360.837 189.659 360.023C188.926 359.201 188.556 357.989 188.548 356.386V347.792H190.806V356.325C190.806 358.327 191.62 359.328 193.248 359.328C194.973 359.328 196.12 358.685 196.69 357.399V347.792H198.948V361H196.8L196.751 359.694ZM207.872 361.244C206.081 361.244 204.625 360.658 203.501 359.486C202.378 358.306 201.817 356.732 201.817 354.762V354.347C201.817 353.037 202.065 351.869 202.562 350.844C203.066 349.81 203.766 349.005 204.661 348.427C205.564 347.841 206.541 347.548 207.591 347.548C209.308 347.548 210.643 348.113 211.595 349.245C212.547 350.376 213.023 351.995 213.023 354.103V355.043H204.075C204.108 356.345 204.486 357.399 205.21 358.205C205.943 359.002 206.871 359.401 207.994 359.401C208.791 359.401 209.467 359.238 210.02 358.913C210.573 358.587 211.058 358.156 211.473 357.619L212.852 358.693C211.745 360.394 210.085 361.244 207.872 361.244ZM207.591 349.403C206.679 349.403 205.914 349.737 205.296 350.404C204.677 351.063 204.295 351.991 204.148 353.188H210.765V353.017C210.7 351.869 210.39 350.982 209.837 350.355C209.284 349.721 208.535 349.403 207.591 349.403ZM223.802 359.694C222.923 360.727 221.633 361.244 219.932 361.244C218.524 361.244 217.45 360.837 216.709 360.023C215.977 359.201 215.607 357.989 215.599 356.386V347.792H217.857V356.325C217.857 358.327 218.671 359.328 220.298 359.328C222.024 359.328 223.171 358.685 223.741 357.399V347.792H225.999V361H223.851L223.802 359.694ZM234.922 361.244C233.132 361.244 231.675 360.658 230.552 359.486C229.429 358.306 228.868 356.732 228.868 354.762V354.347C228.868 353.037 229.116 351.869 229.612 350.844C230.117 349.81 230.817 349.005 231.712 348.427C232.615 347.841 233.592 347.548 234.642 347.548C236.359 347.548 237.693 348.113 238.646 349.245C239.598 350.376 240.074 351.995 240.074 354.103V355.043H231.126C231.159 356.345 231.537 357.399 232.261 358.205C232.994 359.002 233.921 359.401 235.044 359.401C235.842 359.401 236.517 359.238 237.071 358.913C237.624 358.587 238.108 358.156 238.523 357.619L239.903 358.693C238.796 360.394 237.136 361.244 234.922 361.244ZM234.642 349.403C233.73 349.403 232.965 349.737 232.347 350.404C231.728 351.063 231.346 351.991 231.199 353.188H237.815V353.017C237.75 351.869 237.441 350.982 236.888 350.355C236.334 349.721 235.586 349.403 234.642 349.403Z" fill="#565656"/>
<path d="M92.1367 425.36C91.917 427.24 91.2212 428.693 90.0493 429.718C88.8856 430.736 87.3353 431.244 85.3984 431.244C83.2988 431.244 81.6143 430.491 80.3447 428.986C79.0833 427.48 78.4526 425.466 78.4526 422.943V421.234C78.4526 419.582 78.7456 418.13 79.3315 416.876C79.9256 415.623 80.7638 414.663 81.8462 413.996C82.9285 413.32 84.1818 412.982 85.606 412.982C87.494 412.982 89.0076 413.511 90.147 414.569C91.2863 415.619 91.9495 417.076 92.1367 418.939H89.7808C89.5773 417.523 89.1338 416.498 88.4502 415.863C87.7747 415.229 86.8267 414.911 85.606 414.911C84.1086 414.911 82.9326 415.465 82.0781 416.571C81.2318 417.678 80.8086 419.253 80.8086 421.295V423.017C80.8086 424.945 81.2114 426.479 82.0171 427.619C82.8228 428.758 83.9499 429.328 85.3984 429.328C86.7005 429.328 87.6974 429.035 88.3892 428.449C89.089 427.855 89.5529 426.825 89.7808 425.36H92.1367ZM103.147 429.694C102.269 430.727 100.979 431.244 99.2778 431.244C97.87 431.244 96.7957 430.837 96.0552 430.023C95.3228 429.201 94.9525 427.989 94.9443 426.386V417.792H97.2026V426.325C97.2026 428.327 98.0164 429.328 99.644 429.328C101.369 429.328 102.517 428.685 103.086 427.399V417.792H105.345V431H103.196L103.147 429.694ZM116.478 427.497C116.478 426.886 116.246 426.414 115.782 426.081C115.326 425.739 114.524 425.446 113.377 425.202C112.238 424.958 111.33 424.665 110.655 424.323C109.987 423.981 109.491 423.574 109.166 423.102C108.848 422.63 108.689 422.069 108.689 421.417C108.689 420.335 109.145 419.42 110.057 418.671C110.976 417.922 112.148 417.548 113.572 417.548C115.07 417.548 116.282 417.934 117.21 418.708C118.146 419.481 118.614 420.469 118.614 421.674H116.343C116.343 421.055 116.079 420.522 115.55 420.075C115.029 419.627 114.37 419.403 113.572 419.403C112.75 419.403 112.107 419.582 111.644 419.94C111.18 420.299 110.948 420.766 110.948 421.344C110.948 421.889 111.163 422.3 111.595 422.577C112.026 422.854 112.803 423.118 113.926 423.371C115.057 423.623 115.973 423.924 116.673 424.274C117.373 424.624 117.889 425.047 118.223 425.543C118.565 426.032 118.736 426.63 118.736 427.338C118.736 428.518 118.264 429.466 117.32 430.182C116.376 430.89 115.151 431.244 113.646 431.244C112.588 431.244 111.652 431.057 110.838 430.683C110.024 430.308 109.385 429.787 108.921 429.12C108.466 428.445 108.238 427.716 108.238 426.935H110.496C110.537 427.692 110.838 428.294 111.399 428.742C111.969 429.181 112.718 429.401 113.646 429.401C114.5 429.401 115.184 429.23 115.696 428.888C116.217 428.538 116.478 428.074 116.478 427.497ZM124.742 414.594V417.792H127.208V419.538H124.742V427.729C124.742 428.257 124.852 428.656 125.071 428.925C125.291 429.185 125.665 429.315 126.194 429.315C126.455 429.315 126.813 429.267 127.269 429.169V431C126.674 431.163 126.097 431.244 125.535 431.244C124.526 431.244 123.765 430.939 123.252 430.329C122.74 429.718 122.483 428.852 122.483 427.729V419.538H120.079V417.792H122.483V414.594H124.742ZM129.014 424.274C129.014 422.98 129.266 421.816 129.771 420.783C130.284 419.749 130.992 418.952 131.895 418.39C132.806 417.829 133.844 417.548 135.008 417.548C136.806 417.548 138.259 418.17 139.366 419.416C140.481 420.661 141.038 422.317 141.038 424.384V424.542C141.038 425.828 140.79 426.984 140.293 428.009C139.805 429.027 139.101 429.82 138.182 430.39C137.27 430.959 136.22 431.244 135.032 431.244C133.242 431.244 131.789 430.622 130.674 429.376C129.568 428.131 129.014 426.483 129.014 424.433V424.274ZM131.285 424.542C131.285 426.007 131.622 427.183 132.298 428.07C132.981 428.957 133.893 429.401 135.032 429.401C136.18 429.401 137.091 428.953 137.767 428.058C138.442 427.155 138.78 425.893 138.78 424.274C138.78 422.825 138.434 421.653 137.742 420.758C137.059 419.855 136.147 419.403 135.008 419.403C133.893 419.403 132.994 419.847 132.31 420.734C131.626 421.621 131.285 422.89 131.285 424.542ZM145.994 417.792L146.055 419.257C147.024 418.118 148.33 417.548 149.974 417.548C151.821 417.548 153.078 418.256 153.746 419.672C154.185 419.037 154.755 418.524 155.455 418.134C156.163 417.743 156.997 417.548 157.957 417.548C160.854 417.548 162.327 419.082 162.376 422.15V431H160.118V422.284C160.118 421.34 159.902 420.636 159.471 420.172C159.039 419.7 158.315 419.464 157.298 419.464C156.46 419.464 155.764 419.717 155.21 420.221C154.657 420.718 154.336 421.389 154.246 422.235V431H151.976V422.345C151.976 420.425 151.036 419.464 149.156 419.464C147.675 419.464 146.661 420.095 146.116 421.356V431H143.858V417.792H145.994ZM171.275 431.244C169.485 431.244 168.028 430.658 166.905 429.486C165.782 428.306 165.22 426.732 165.22 424.762V424.347C165.22 423.037 165.468 421.869 165.965 420.844C166.469 419.81 167.169 419.005 168.064 418.427C168.968 417.841 169.944 417.548 170.994 417.548C172.711 417.548 174.046 418.113 174.998 419.245C175.95 420.376 176.426 421.995 176.426 424.103V425.043H167.479C167.511 426.345 167.889 427.399 168.614 428.205C169.346 429.002 170.274 429.401 171.397 429.401C172.194 429.401 172.87 429.238 173.423 428.913C173.977 428.587 174.461 428.156 174.876 427.619L176.255 428.693C175.149 430.394 173.488 431.244 171.275 431.244ZM170.994 419.403C170.083 419.403 169.318 419.737 168.699 420.404C168.081 421.063 167.698 421.991 167.552 423.188H174.168V423.017C174.103 421.869 173.794 420.982 173.24 420.355C172.687 419.721 171.938 419.403 170.994 419.403ZM185.435 419.818C185.093 419.761 184.723 419.733 184.324 419.733C182.843 419.733 181.838 420.364 181.309 421.625V431H179.051V417.792H181.248L181.285 419.318C182.025 418.138 183.075 417.548 184.434 417.548C184.874 417.548 185.207 417.605 185.435 417.719V419.818ZM199.314 423.078C197.304 422.5 195.84 421.792 194.92 420.954C194.008 420.107 193.553 419.066 193.553 417.829C193.553 416.429 194.11 415.273 195.225 414.362C196.348 413.442 197.805 412.982 199.595 412.982C200.816 412.982 201.902 413.218 202.854 413.69C203.815 414.162 204.555 414.813 205.076 415.644C205.605 416.474 205.87 417.381 205.87 418.366H203.514C203.514 417.292 203.172 416.449 202.488 415.839C201.805 415.22 200.84 414.911 199.595 414.911C198.44 414.911 197.536 415.167 196.885 415.68C196.242 416.185 195.921 416.889 195.921 417.792C195.921 418.516 196.226 419.131 196.836 419.635C197.455 420.132 198.501 420.587 199.974 421.002C201.455 421.417 202.61 421.877 203.44 422.382C204.279 422.878 204.897 423.46 205.296 424.127C205.703 424.795 205.906 425.58 205.906 426.483C205.906 427.924 205.345 429.079 204.222 429.95C203.099 430.813 201.597 431.244 199.717 431.244C198.497 431.244 197.357 431.012 196.299 430.548C195.241 430.076 194.424 429.433 193.846 428.62C193.276 427.806 192.991 426.882 192.991 425.849H195.347C195.347 426.923 195.742 427.773 196.531 428.4C197.329 429.018 198.391 429.328 199.717 429.328C200.954 429.328 201.902 429.075 202.562 428.571C203.221 428.066 203.55 427.379 203.55 426.508C203.55 425.637 203.245 424.966 202.635 424.494C202.024 424.014 200.918 423.542 199.314 423.078ZM216.722 429.694C215.843 430.727 214.553 431.244 212.852 431.244C211.444 431.244 210.37 430.837 209.629 430.023C208.897 429.201 208.527 427.989 208.519 426.386V417.792H210.777V426.325C210.777 428.327 211.591 429.328 213.218 429.328C214.944 429.328 216.091 428.685 216.661 427.399V417.792H218.919V431H216.771L216.722 429.694ZM233.519 424.542C233.519 426.553 233.059 428.172 232.139 429.401C231.22 430.63 229.974 431.244 228.404 431.244C226.801 431.244 225.539 430.736 224.62 429.718V436.078H222.361V417.792H224.424L224.534 419.257C225.454 418.118 226.731 417.548 228.367 417.548C229.954 417.548 231.207 418.146 232.127 419.342C233.055 420.539 233.519 422.203 233.519 424.335V424.542ZM231.26 424.286C231.26 422.797 230.943 421.621 230.308 420.758C229.673 419.896 228.803 419.464 227.696 419.464C226.329 419.464 225.303 420.071 224.62 421.283V427.594C225.295 428.799 226.329 429.401 227.72 429.401C228.803 429.401 229.661 428.974 230.296 428.119C230.939 427.257 231.26 425.979 231.26 424.286ZM247.557 424.542C247.557 426.553 247.097 428.172 246.177 429.401C245.258 430.63 244.013 431.244 242.442 431.244C240.839 431.244 239.577 430.736 238.658 429.718V436.078H236.399V417.792H238.462L238.572 419.257C239.492 418.118 240.77 417.548 242.405 417.548C243.992 417.548 245.245 418.146 246.165 419.342C247.093 420.539 247.557 422.203 247.557 424.335V424.542ZM245.298 424.286C245.298 422.797 244.981 421.621 244.346 420.758C243.711 419.896 242.841 419.464 241.734 419.464C240.367 419.464 239.341 420.071 238.658 421.283V427.594C239.333 428.799 240.367 429.401 241.758 429.401C242.841 429.401 243.699 428.974 244.334 428.119C244.977 427.257 245.298 425.979 245.298 424.286ZM249.839 424.274C249.839 422.98 250.092 421.816 250.596 420.783C251.109 419.749 251.817 418.952 252.72 418.39C253.632 417.829 254.669 417.548 255.833 417.548C257.632 417.548 259.084 418.17 260.191 419.416C261.306 420.661 261.863 422.317 261.863 424.384V424.542C261.863 425.828 261.615 426.984 261.119 428.009C260.63 429.027 259.926 429.82 259.007 430.39C258.095 430.959 257.046 431.244 255.857 431.244C254.067 431.244 252.614 430.622 251.5 429.376C250.393 428.131 249.839 426.483 249.839 424.433V424.274ZM252.11 424.542C252.11 426.007 252.448 427.183 253.123 428.07C253.807 428.957 254.718 429.401 255.857 429.401C257.005 429.401 257.916 428.953 258.592 428.058C259.267 427.155 259.605 425.893 259.605 424.274C259.605 422.825 259.259 421.653 258.567 420.758C257.884 419.855 256.972 419.403 255.833 419.403C254.718 419.403 253.819 419.847 253.135 420.734C252.452 421.621 252.11 422.89 252.11 424.542ZM271.08 419.818C270.738 419.761 270.368 419.733 269.969 419.733C268.488 419.733 267.483 420.364 266.954 421.625V431H264.695V417.792H266.893L266.929 419.318C267.67 418.138 268.72 417.548 270.079 417.548C270.518 417.548 270.852 417.605 271.08 417.719V419.818ZM276.841 414.594V417.792H279.307V419.538H276.841V427.729C276.841 428.257 276.951 428.656 277.171 428.925C277.391 429.185 277.765 429.315 278.294 429.315C278.554 429.315 278.912 429.267 279.368 429.169V431C278.774 431.163 278.196 431.244 277.635 431.244C276.626 431.244 275.865 430.939 275.352 430.329C274.839 429.718 274.583 428.852 274.583 427.729V419.538H272.178V417.792H274.583V414.594H276.841ZM291.026 431H288.682V413.227H291.026V431ZM297.105 417.792L297.178 419.452C298.187 418.183 299.506 417.548 301.133 417.548C303.925 417.548 305.333 419.123 305.357 422.272V431H303.099V422.26C303.09 421.308 302.871 420.604 302.439 420.148C302.016 419.692 301.353 419.464 300.45 419.464C299.717 419.464 299.074 419.66 298.521 420.05C297.968 420.441 297.536 420.954 297.227 421.588V431H294.969V417.792H297.105ZM313.121 427.936L316.392 417.792H318.699L313.963 431H312.242L307.457 417.792H309.764L313.121 427.936ZM326.182 431.244C324.392 431.244 322.935 430.658 321.812 429.486C320.689 428.306 320.127 426.732 320.127 424.762V424.347C320.127 423.037 320.376 421.869 320.872 420.844C321.377 419.81 322.076 419.005 322.972 418.427C323.875 417.841 324.852 417.548 325.901 417.548C327.618 417.548 328.953 418.113 329.905 419.245C330.857 420.376 331.333 421.995 331.333 424.103V425.043H322.386C322.418 426.345 322.797 427.399 323.521 428.205C324.253 429.002 325.181 429.401 326.304 429.401C327.102 429.401 327.777 429.238 328.331 428.913C328.884 428.587 329.368 428.156 329.783 427.619L331.163 428.693C330.056 430.394 328.396 431.244 326.182 431.244ZM325.901 419.403C324.99 419.403 324.225 419.737 323.606 420.404C322.988 421.063 322.605 421.991 322.459 423.188H329.075V423.017C329.01 421.869 328.701 420.982 328.147 420.355C327.594 419.721 326.845 419.403 325.901 419.403ZM341.648 427.497C341.648 426.886 341.417 426.414 340.953 426.081C340.497 425.739 339.695 425.446 338.548 425.202C337.409 424.958 336.501 424.665 335.826 424.323C335.158 423.981 334.662 423.574 334.336 423.102C334.019 422.63 333.86 422.069 333.86 421.417C333.86 420.335 334.316 419.42 335.228 418.671C336.147 417.922 337.319 417.548 338.743 417.548C340.241 417.548 341.453 417.934 342.381 418.708C343.317 419.481 343.785 420.469 343.785 421.674H341.514C341.514 421.055 341.25 420.522 340.721 420.075C340.2 419.627 339.541 419.403 338.743 419.403C337.921 419.403 337.278 419.582 336.814 419.94C336.351 420.299 336.119 420.766 336.119 421.344C336.119 421.889 336.334 422.3 336.766 422.577C337.197 422.854 337.974 423.118 339.097 423.371C340.228 423.623 341.144 423.924 341.844 424.274C342.544 424.624 343.06 425.047 343.394 425.543C343.736 426.032 343.907 426.63 343.907 427.338C343.907 428.518 343.435 429.466 342.491 430.182C341.547 430.89 340.322 431.244 338.816 431.244C337.758 431.244 336.823 431.057 336.009 430.683C335.195 430.308 334.556 429.787 334.092 429.12C333.637 428.445 333.409 427.716 333.409 426.935H335.667C335.708 427.692 336.009 428.294 336.57 428.742C337.14 429.181 337.889 429.401 338.816 429.401C339.671 429.401 340.354 429.23 340.867 428.888C341.388 428.538 341.648 428.074 341.648 427.497ZM349.913 414.594V417.792H352.378V419.538H349.913V427.729C349.913 428.257 350.022 428.656 350.242 428.925C350.462 429.185 350.836 429.315 351.365 429.315C351.626 429.315 351.984 429.267 352.439 429.169V431C351.845 431.163 351.268 431.244 350.706 431.244C349.697 431.244 348.936 430.939 348.423 430.329C347.911 429.718 347.654 428.852 347.654 427.729V419.538H345.25V417.792H347.654V414.594H349.913ZM357.481 431H355.223V417.792H357.481V431ZM355.04 414.289C355.04 413.922 355.149 413.613 355.369 413.361C355.597 413.109 355.931 412.982 356.37 412.982C356.81 412.982 357.143 413.109 357.371 413.361C357.599 413.613 357.713 413.922 357.713 414.289C357.713 414.655 357.599 414.96 357.371 415.204C357.143 415.448 356.81 415.57 356.37 415.57C355.931 415.57 355.597 415.448 355.369 415.204C355.149 414.96 355.04 414.655 355.04 414.289ZM360.569 424.286C360.569 422.227 361.045 420.591 361.998 419.379C362.95 418.158 364.211 417.548 365.782 417.548C367.393 417.548 368.65 418.118 369.554 419.257L369.664 417.792H371.727V430.683C371.727 432.392 371.218 433.738 370.201 434.723C369.192 435.708 367.833 436.2 366.124 436.2C365.171 436.2 364.24 435.997 363.328 435.59C362.417 435.183 361.721 434.625 361.241 433.917L362.413 432.562C363.381 433.759 364.565 434.357 365.965 434.357C367.063 434.357 367.918 434.048 368.528 433.429C369.147 432.811 369.456 431.94 369.456 430.817V429.682C368.553 430.723 367.32 431.244 365.757 431.244C364.211 431.244 362.958 430.622 361.998 429.376C361.045 428.131 360.569 426.435 360.569 424.286ZM362.84 424.542C362.84 426.032 363.145 427.204 363.755 428.058C364.366 428.904 365.22 429.328 366.319 429.328C367.743 429.328 368.789 428.681 369.456 427.387V421.356C368.764 420.095 367.727 419.464 366.343 419.464C365.245 419.464 364.386 419.892 363.768 420.746C363.149 421.601 362.84 422.866 362.84 424.542ZM383.299 431C383.169 430.74 383.063 430.276 382.981 429.608C381.932 430.699 380.678 431.244 379.222 431.244C377.92 431.244 376.849 430.878 376.011 430.146C375.181 429.405 374.766 428.469 374.766 427.338C374.766 425.963 375.287 424.896 376.329 424.14C377.378 423.375 378.851 422.992 380.748 422.992H382.945V421.955C382.945 421.165 382.709 420.539 382.237 420.075C381.765 419.603 381.069 419.367 380.149 419.367C379.344 419.367 378.668 419.57 378.123 419.977C377.578 420.384 377.305 420.876 377.305 421.454H375.035C375.035 420.795 375.267 420.16 375.73 419.55C376.202 418.931 376.837 418.443 377.635 418.085C378.44 417.727 379.323 417.548 380.284 417.548C381.806 417.548 382.998 417.93 383.86 418.695C384.723 419.452 385.171 420.498 385.203 421.833V427.912C385.203 429.124 385.358 430.089 385.667 430.805V431H383.299ZM379.551 429.279C380.259 429.279 380.931 429.096 381.565 428.729C382.2 428.363 382.66 427.887 382.945 427.301V424.591H381.175C378.408 424.591 377.024 425.401 377.024 427.021C377.024 427.729 377.26 428.282 377.732 428.681C378.204 429.079 378.811 429.279 379.551 429.279ZM391.807 414.594V417.792H394.273V419.538H391.807V427.729C391.807 428.257 391.917 428.656 392.137 428.925C392.356 429.185 392.731 429.315 393.26 429.315C393.52 429.315 393.878 429.267 394.334 429.169V431C393.74 431.163 393.162 431.244 392.601 431.244C391.591 431.244 390.831 430.939 390.318 430.329C389.805 429.718 389.549 428.852 389.549 427.729V419.538H387.144V417.792H389.549V414.594H391.807ZM399.375 431H397.117V417.792H399.375V431ZM396.934 414.289C396.934 413.922 397.044 413.613 397.264 413.361C397.492 413.109 397.825 412.982 398.265 412.982C398.704 412.982 399.038 413.109 399.266 413.361C399.493 413.613 399.607 413.922 399.607 414.289C399.607 414.655 399.493 414.96 399.266 415.204C399.038 415.448 398.704 415.57 398.265 415.57C397.825 415.57 397.492 415.448 397.264 415.204C397.044 414.96 396.934 414.655 396.934 414.289ZM402.403 424.274C402.403 422.98 402.655 421.816 403.16 420.783C403.672 419.749 404.38 418.952 405.284 418.39C406.195 417.829 407.233 417.548 408.396 417.548C410.195 417.548 411.648 418.17 412.754 419.416C413.869 420.661 414.427 422.317 414.427 424.384V424.542C414.427 425.828 414.179 426.984 413.682 428.009C413.194 429.027 412.49 429.82 411.57 430.39C410.659 430.959 409.609 431.244 408.421 431.244C406.631 431.244 405.178 430.622 404.063 429.376C402.956 428.131 402.403 426.483 402.403 424.433V424.274ZM404.673 424.542C404.673 426.007 405.011 427.183 405.687 428.07C406.37 428.957 407.282 429.401 408.421 429.401C409.568 429.401 410.48 428.953 411.155 428.058C411.831 427.155 412.168 425.893 412.168 424.274C412.168 422.825 411.823 421.653 411.131 420.758C410.447 419.855 409.536 419.403 408.396 419.403C407.282 419.403 406.382 419.847 405.699 420.734C405.015 421.621 404.673 422.89 404.673 424.542ZM419.395 417.792L419.468 419.452C420.477 418.183 421.796 417.548 423.423 417.548C426.215 417.548 427.623 419.123 427.647 422.272V431H425.389V422.26C425.381 421.308 425.161 420.604 424.729 420.148C424.306 419.692 423.643 419.464 422.74 419.464C422.007 419.464 421.364 419.66 420.811 420.05C420.258 420.441 419.826 420.954 419.517 421.588V431H417.259V417.792H419.395Z" fill="#565656"/>
<rect x="51.5" y="326.5" width="606" height="51" rx="8.5" stroke="#C4C4C4" stroke-width="3"/>
<rect x="51.5" y="397.5" width="606" height="51" rx="8.5" stroke="#C4C4C4" stroke-width="3"/>
<path d="M627.5 363L616.675 345.75H638.325L627.5 363Z" fill="#C4C4C4"/>
<path d="M627.5 434L616.675 416.75H638.325L627.5 434Z" fill="#C4C4C4"/>
<defs>
<filter id="filter0_bd" x="-85" y="-95" width="889" height="411" filterUnits="userSpaceOnUse" color-interpolation-filters="sRGB">
<feFlood flood-opacity="0" result="BackgroundImageFix"/>
<feGaussianBlur in="BackgroundImage" stdDeviation="50"/>
<feComposite in2="SourceAlpha" operator="in" result="effect1_backgroundBlur"/>
<feColorMatrix in="SourceAlpha" type="matrix" values="0 0 0 0 0 0 0 0 0 0 0 0 0 0 0 0 0 0 127 0"/>
<feMorphology radius="5" operator="dilate" in="SourceAlpha" result="effect2_dropShadow"/>
<feOffset dy="10"/>
<feGaussianBlur stdDeviation="5"/>
<feColorMatrix type="matrix" values="0 0 0 0 0.06375 0 0 0 0 0.144217 0 0 0 0 0.566667 0 0 0 0.1 0"/>
<feBlend mode="normal" in2="effect1_backgroundBlur" result="effect2_dropShadow"/>
<feBlend mode="normal" in="SourceGraphic" in2="effect2_dropShadow" result="shape"/>
</filter>
<filter id="filter1_bd" x="-84" y="162" width="889" height="422" filterUnits="userSpaceOnUse" color-interpolation-filters="sRGB">
<feFlood flood-opacity="0" result="BackgroundImageFix"/>
<feGaussianBlur in="BackgroundImage" stdDeviation="50"/>
<feComposite in2="SourceAlpha" operator="in" result="effect1_backgroundBlur"/>
<feColorMatrix in="SourceAlpha" type="matrix" values="0 0 0 0 0 0 0 0 0 0 0 0 0 0 0 0 0 0 127 0"/>
<feMorphology radius="5" operator="dilate" in="SourceAlpha" result="effect2_dropShadow"/>
<feOffset dy="10"/>
<feGaussianBlur stdDeviation="5"/>
<feColorMatrix type="matrix" values="0 0 0 0 0.06375 0 0 0 0 0.144217 0 0 0 0 0.566667 0 0 0 0.1 0"/>
<feBlend mode="normal" in2="effect1_backgroundBlur" result="effect2_dropShadow"/>
<feBlend mode="normal" in="SourceGraphic" in2="effect2_dropShadow" result="shape"/>
</filter>
</defs>
</svg>
