<svg width="720" height="509" viewBox="0 0 720 509" fill="none" xmlns="http://www.w3.org/2000/svg">
<rect x="340" y="176" width="29" height="105" fill="white"/>
<g filter="url(#filter0_bd)">
<rect x="15" y="5" width="689" height="211" rx="20" fill="white" fill-opacity="0.9"/>
</g>
<g filter="url(#filter1_bd)">
<rect x="16" y="262" width="689" height="222" rx="20" fill="white" fill-opacity="0.9"/>
</g>
<path d="M62.438 300.68H56.5664L55.541 304H50.9634L57.4819 286.227H61.5103L68.0776 304H63.4756L62.438 300.68ZM57.5918 297.372H61.4126L59.4961 291.207L57.5918 297.372ZM74.7793 301.07C75.3571 301.07 75.8047 300.916 76.1221 300.606C76.4395 300.289 76.5941 299.85 76.5859 299.288H80.4434C80.4434 300.737 79.9225 301.925 78.8809 302.853C77.8473 303.78 76.5127 304.244 74.877 304.244C72.9564 304.244 71.4427 303.642 70.3359 302.438C69.2292 301.233 68.6758 299.565 68.6758 297.433V297.262C68.6758 295.927 68.9199 294.751 69.4082 293.734C69.9046 292.708 70.6167 291.923 71.5444 291.378C72.4722 290.825 73.5708 290.548 74.8403 290.548C76.5575 290.548 77.9206 291.024 78.9297 291.976C79.9388 292.928 80.4434 294.218 80.4434 295.846H76.5859C76.5859 295.162 76.4191 294.637 76.0854 294.271C75.7518 293.905 75.3042 293.722 74.7427 293.722C73.6766 293.722 73.054 294.401 72.875 295.76C72.818 296.192 72.7896 296.786 72.7896 297.542C72.7896 298.869 72.9482 299.789 73.2656 300.301C73.583 300.814 74.0876 301.07 74.7793 301.07ZM86.9741 287.508V290.792H89.147V293.648H86.9741V299.691C86.9741 300.187 87.0636 300.533 87.2427 300.729C87.4217 300.924 87.7757 301.021 88.3047 301.021C88.7116 301.021 89.0534 300.997 89.3301 300.948V303.89C88.5895 304.126 87.8164 304.244 87.0107 304.244C85.5947 304.244 84.549 303.91 83.8735 303.243C83.1981 302.576 82.8604 301.563 82.8604 300.204V293.648H81.1758V290.792H82.8604V287.508H86.9741ZM95.1162 304H90.9902V290.792H95.1162V304ZM90.7461 287.386C90.7461 286.8 90.9577 286.32 91.3809 285.946C91.804 285.571 92.3534 285.384 93.0288 285.384C93.7043 285.384 94.2536 285.571 94.6768 285.946C95.0999 286.32 95.3115 286.8 95.3115 287.386C95.3115 287.972 95.0999 288.452 94.6768 288.827C94.2536 289.201 93.7043 289.388 93.0288 289.388C92.3534 289.388 91.804 289.201 91.3809 288.827C90.9577 288.452 90.7461 287.972 90.7461 287.386ZM97.1426 297.274C97.1426 295.956 97.3989 294.784 97.9116 293.758C98.4243 292.725 99.1608 291.931 100.121 291.378C101.081 290.825 102.208 290.548 103.502 290.548C105.48 290.548 107.038 291.162 108.178 292.391C109.317 293.612 109.887 295.276 109.887 297.384V297.53C109.887 299.589 109.313 301.225 108.166 302.438C107.026 303.642 105.48 304.244 103.527 304.244C101.647 304.244 100.137 303.683 98.998 302.56C97.8587 301.428 97.2443 299.898 97.1548 297.97L97.1426 297.274ZM101.256 297.53C101.256 298.751 101.448 299.646 101.83 300.216C102.213 300.785 102.778 301.07 103.527 301.07C104.992 301.07 105.74 299.943 105.773 297.689V297.274C105.773 294.906 105.016 293.722 103.502 293.722C102.127 293.722 101.382 294.743 101.269 296.786L101.256 297.53ZM115.478 290.792L115.612 292.342C116.523 291.146 117.781 290.548 119.384 290.548C120.759 290.548 121.785 290.959 122.46 291.781C123.144 292.603 123.498 293.84 123.522 295.492V304H119.396V295.663C119.396 294.995 119.262 294.507 118.993 294.198C118.725 293.88 118.236 293.722 117.528 293.722C116.723 293.722 116.125 294.039 115.734 294.674V304H111.62V290.792H115.478Z" fill="black"/>
<rect x="16" y="77" width="688" height="2" fill="#E5E5E5"/>
<rect x="55" y="79" width="3" height="137" fill="#E5E5E5"/>
<path d="M36.8608 123H34.5903V107.949L30.0371 109.621V107.57L36.5068 105.141H36.8608V123ZM41.0845 152H29.439V150.376L35.5913 143.541C36.5028 142.507 37.1294 141.669 37.4712 141.026C37.8211 140.375 37.9961 139.703 37.9961 139.012C37.9961 138.084 37.7153 137.323 37.1538 136.729C36.5923 136.135 35.8436 135.838 34.9077 135.838C33.7847 135.838 32.9098 136.159 32.2832 136.802C31.6647 137.437 31.3555 138.324 31.3555 139.463H29.0972C29.0972 137.828 29.6221 136.505 30.6719 135.496C31.7298 134.487 33.1418 133.982 34.9077 133.982C36.5597 133.982 37.8659 134.418 38.8262 135.289C39.7865 136.151 40.2666 137.303 40.2666 138.743C40.2666 140.493 39.1517 142.576 36.9219 144.993L32.1611 150.157H41.0845V152ZM32.7227 171.015H34.4194C35.4855 170.998 36.3237 170.718 36.9341 170.172C37.5444 169.627 37.8496 168.891 37.8496 167.963C37.8496 165.88 36.812 164.838 34.7368 164.838C33.7603 164.838 32.979 165.119 32.3931 165.68C31.8153 166.234 31.5264 166.97 31.5264 167.89H29.2681C29.2681 166.482 29.7808 165.314 30.8062 164.386C31.8397 163.45 33.1499 162.982 34.7368 162.982C36.4132 162.982 37.7275 163.426 38.6797 164.313C39.6318 165.2 40.1079 166.433 40.1079 168.012C40.1079 168.785 39.8556 169.534 39.3511 170.258C38.8547 170.982 38.1751 171.523 37.3125 171.881C38.2891 172.191 39.0418 172.703 39.5708 173.419C40.1079 174.136 40.3765 175.01 40.3765 176.044C40.3765 177.639 39.8556 178.904 38.814 179.84C37.7723 180.776 36.4173 181.244 34.749 181.244C33.0807 181.244 31.7217 180.792 30.6719 179.889C29.6302 178.986 29.1094 177.794 29.1094 176.312H31.3799C31.3799 177.248 31.6851 177.997 32.2954 178.559C32.9058 179.12 33.7236 179.401 34.749 179.401C35.8395 179.401 36.6737 179.116 37.2515 178.546C37.8293 177.977 38.1182 177.159 38.1182 176.093C38.1182 175.059 37.8008 174.266 37.166 173.712C36.5312 173.159 35.6157 172.874 34.4194 172.858H32.7227V171.015Z" fill="#C4C4C4"/>
<path d="M81.4067 354.042V361H79.063V343.227H85.6182C87.5632 343.227 89.085 343.723 90.1836 344.716C91.2904 345.709 91.8438 347.023 91.8438 348.659C91.8438 350.384 91.3026 351.715 90.2202 352.65C89.146 353.578 87.6038 354.042 85.5938 354.042H81.4067ZM81.4067 352.125H85.6182C86.8714 352.125 87.8317 351.833 88.499 351.247C89.1663 350.653 89.5 349.798 89.5 348.683C89.5 347.625 89.1663 346.779 88.499 346.144C87.8317 345.509 86.9162 345.18 85.7524 345.155H81.4067V352.125ZM102.488 361C102.358 360.74 102.252 360.276 102.171 359.608C101.121 360.699 99.8678 361.244 98.4111 361.244C97.109 361.244 96.0389 360.878 95.2007 360.146C94.3706 359.405 93.9556 358.469 93.9556 357.338C93.9556 355.963 94.4764 354.896 95.5181 354.14C96.5679 353.375 98.0409 352.992 99.937 352.992H102.134V351.955C102.134 351.165 101.898 350.539 101.426 350.075C100.954 349.603 100.258 349.367 99.3389 349.367C98.5332 349.367 97.8577 349.57 97.3125 349.977C96.7673 350.384 96.4946 350.876 96.4946 351.454H94.2241C94.2241 350.795 94.4561 350.16 94.9199 349.55C95.3919 348.931 96.0267 348.443 96.8242 348.085C97.6299 347.727 98.5129 347.548 99.4731 347.548C100.995 347.548 102.187 347.93 103.05 348.695C103.912 349.452 104.36 350.498 104.393 351.833V357.912C104.393 359.124 104.547 360.089 104.856 360.805V361H102.488ZM98.7407 359.279C99.4487 359.279 100.12 359.096 100.755 358.729C101.39 358.363 101.849 357.887 102.134 357.301V354.591H100.364C97.5973 354.591 96.2139 355.401 96.2139 357.021C96.2139 357.729 96.4499 358.282 96.9219 358.681C97.3939 359.079 98.0002 359.279 98.7407 359.279ZM107.396 354.286C107.396 352.227 107.872 350.591 108.824 349.379C109.776 348.158 111.037 347.548 112.608 347.548C114.219 347.548 115.477 348.118 116.38 349.257L116.49 347.792H118.553V360.683C118.553 362.392 118.044 363.738 117.027 364.723C116.018 365.708 114.659 366.2 112.95 366.2C111.998 366.2 111.066 365.997 110.154 365.59C109.243 365.183 108.547 364.625 108.067 363.917L109.239 362.562C110.207 363.759 111.391 364.357 112.791 364.357C113.89 364.357 114.744 364.048 115.354 363.429C115.973 362.811 116.282 361.94 116.282 360.817V359.682C115.379 360.723 114.146 361.244 112.583 361.244C111.037 361.244 109.784 360.622 108.824 359.376C107.872 358.131 107.396 356.435 107.396 354.286ZM109.666 354.542C109.666 356.032 109.971 357.204 110.582 358.058C111.192 358.904 112.046 359.328 113.145 359.328C114.569 359.328 115.615 358.681 116.282 357.387V351.356C115.59 350.095 114.553 349.464 113.169 349.464C112.071 349.464 111.212 349.892 110.594 350.746C109.975 351.601 109.666 352.866 109.666 354.542ZM127.452 361.244C125.661 361.244 124.205 360.658 123.082 359.486C121.958 358.306 121.397 356.732 121.397 354.762V354.347C121.397 353.037 121.645 351.869 122.142 350.844C122.646 349.81 123.346 349.005 124.241 348.427C125.145 347.841 126.121 347.548 127.171 347.548C128.888 347.548 130.223 348.113 131.175 349.245C132.127 350.376 132.603 351.995 132.603 354.103V355.043H123.655C123.688 356.345 124.066 357.399 124.791 358.205C125.523 359.002 126.451 359.401 127.574 359.401C128.371 359.401 129.047 359.238 129.6 358.913C130.153 358.587 130.638 358.156 131.053 357.619L132.432 358.693C131.325 360.394 129.665 361.244 127.452 361.244ZM127.171 349.403C126.259 349.403 125.494 349.737 124.876 350.404C124.257 351.063 123.875 351.991 123.729 353.188H130.345V353.017C130.28 351.869 129.97 350.982 129.417 350.355C128.864 349.721 128.115 349.403 127.171 349.403ZM141.612 349.818C141.27 349.761 140.9 349.733 140.501 349.733C139.02 349.733 138.015 350.364 137.486 351.625V361H135.228V347.792H137.425L137.461 349.318C138.202 348.138 139.252 347.548 140.611 347.548C141.05 347.548 141.384 347.605 141.612 347.719V349.818ZM144.053 361V343.227H149.07C150.617 343.227 151.984 343.568 153.172 344.252C154.36 344.936 155.276 345.908 155.918 347.169C156.569 348.431 156.899 349.879 156.907 351.515V352.65C156.907 354.327 156.582 355.796 155.931 357.057C155.288 358.319 154.364 359.287 153.16 359.962C151.963 360.638 150.568 360.984 148.973 361H144.053ZM146.397 345.155V359.083H148.863C150.669 359.083 152.073 358.522 153.074 357.399C154.083 356.276 154.588 354.677 154.588 352.602V351.564C154.588 349.546 154.112 347.979 153.16 346.864C152.216 345.741 150.873 345.172 149.131 345.155H146.397ZM168.26 359.694C167.381 360.727 166.091 361.244 164.39 361.244C162.982 361.244 161.908 360.837 161.167 360.023C160.435 359.201 160.065 357.989 160.057 356.386V347.792H162.315V356.325C162.315 358.327 163.129 359.328 164.756 359.328C166.482 359.328 167.629 358.685 168.199 357.399V347.792H170.457V361H168.309L168.26 359.694ZM176.963 344.594V347.792H179.429V349.538H176.963V357.729C176.963 358.257 177.073 358.656 177.293 358.925C177.513 359.185 177.887 359.315 178.416 359.315C178.676 359.315 179.035 359.267 179.49 359.169V361C178.896 361.163 178.318 361.244 177.757 361.244C176.748 361.244 175.987 360.939 175.474 360.329C174.961 359.718 174.705 358.852 174.705 357.729V349.538H172.3V347.792H174.705V344.594H176.963ZM186.399 357.692L189.476 347.792H191.893L186.583 363.039C185.761 365.236 184.454 366.334 182.664 366.334L182.237 366.298L181.395 366.139V364.308L182.005 364.357C182.77 364.357 183.364 364.202 183.787 363.893C184.218 363.584 184.572 363.018 184.849 362.196L185.35 360.854L180.638 347.792H183.104L186.399 357.692ZM202.989 361H200.645V343.227H202.989V361ZM209.068 347.792L209.141 349.452C210.15 348.183 211.469 347.548 213.096 347.548C215.888 347.548 217.295 349.123 217.32 352.272V361H215.062V352.26C215.053 351.308 214.834 350.604 214.402 350.148C213.979 349.692 213.316 349.464 212.413 349.464C211.68 349.464 211.037 349.66 210.484 350.05C209.931 350.441 209.499 350.954 209.19 351.588V361H206.932V347.792H209.068ZM223.79 344.594V347.792H226.255V349.538H223.79V357.729C223.79 358.257 223.899 358.656 224.119 358.925C224.339 359.185 224.713 359.315 225.242 359.315C225.503 359.315 225.861 359.267 226.316 359.169V361C225.722 361.163 225.145 361.244 224.583 361.244C223.574 361.244 222.813 360.939 222.3 360.329C221.788 359.718 221.531 358.852 221.531 357.729V349.538H219.126V347.792H221.531V344.594H223.79ZM234.385 361.244C232.595 361.244 231.138 360.658 230.015 359.486C228.892 358.306 228.331 356.732 228.331 354.762V354.347C228.331 353.037 228.579 351.869 229.075 350.844C229.58 349.81 230.28 349.005 231.175 348.427C232.078 347.841 233.055 347.548 234.104 347.548C235.822 347.548 237.156 348.113 238.108 349.245C239.061 350.376 239.537 351.995 239.537 354.103V355.043H230.589C230.621 356.345 231 357.399 231.724 358.205C232.457 359.002 233.384 359.401 234.507 359.401C235.305 359.401 235.98 359.238 236.534 358.913C237.087 358.587 237.571 358.156 237.986 357.619L239.366 358.693C238.259 360.394 236.599 361.244 234.385 361.244ZM234.104 349.403C233.193 349.403 232.428 349.737 231.81 350.404C231.191 351.063 230.809 351.991 230.662 353.188H237.278V353.017C237.213 351.869 236.904 350.982 236.351 350.355C235.797 349.721 235.049 349.403 234.104 349.403ZM241.624 354.286C241.624 352.227 242.1 350.591 243.052 349.379C244.004 348.158 245.266 347.548 246.836 347.548C248.448 347.548 249.705 348.118 250.608 349.257L250.718 347.792H252.781V360.683C252.781 362.392 252.273 363.738 251.255 364.723C250.246 365.708 248.887 366.2 247.178 366.2C246.226 366.2 245.294 365.997 244.383 365.59C243.471 365.183 242.776 364.625 242.295 363.917L243.467 362.562C244.436 363.759 245.62 364.357 247.02 364.357C248.118 364.357 248.973 364.048 249.583 363.429C250.201 362.811 250.511 361.94 250.511 360.817V359.682C249.607 360.723 248.375 361.244 246.812 361.244C245.266 361.244 244.013 360.622 243.052 359.376C242.1 358.131 241.624 356.435 241.624 354.286ZM243.895 354.542C243.895 356.032 244.2 357.204 244.81 358.058C245.42 358.904 246.275 359.328 247.374 359.328C248.798 359.328 249.843 358.681 250.511 357.387V351.356C249.819 350.095 248.781 349.464 247.398 349.464C246.299 349.464 245.441 349.892 244.822 350.746C244.204 351.601 243.895 352.866 243.895 354.542ZM262.583 349.818C262.242 349.761 261.871 349.733 261.473 349.733C259.992 349.733 258.986 350.364 258.458 351.625V361H256.199V347.792H258.396L258.433 349.318C259.174 348.138 260.223 347.548 261.583 347.548C262.022 347.548 262.356 347.605 262.583 347.719V349.818ZM272.337 361C272.207 360.74 272.101 360.276 272.02 359.608C270.97 360.699 269.716 361.244 268.26 361.244C266.958 361.244 265.888 360.878 265.049 360.146C264.219 359.405 263.804 358.469 263.804 357.338C263.804 355.963 264.325 354.896 265.367 354.14C266.417 353.375 267.889 352.992 269.786 352.992H271.983V351.955C271.983 351.165 271.747 350.539 271.275 350.075C270.803 349.603 270.107 349.367 269.188 349.367C268.382 349.367 267.706 349.57 267.161 349.977C266.616 350.384 266.343 350.876 266.343 351.454H264.073C264.073 350.795 264.305 350.16 264.769 349.55C265.241 348.931 265.875 348.443 266.673 348.085C267.479 347.727 268.361 347.548 269.322 347.548C270.844 347.548 272.036 347.93 272.898 348.695C273.761 349.452 274.209 350.498 274.241 351.833V357.912C274.241 359.124 274.396 360.089 274.705 360.805V361H272.337ZM268.589 359.279C269.297 359.279 269.969 359.096 270.604 358.729C271.238 358.363 271.698 357.887 271.983 357.301V354.591H270.213C267.446 354.591 266.062 355.401 266.062 357.021C266.062 357.729 266.299 358.282 266.771 358.681C267.243 359.079 267.849 359.279 268.589 359.279ZM280.845 344.594V347.792H283.311V349.538H280.845V357.729C280.845 358.257 280.955 358.656 281.175 358.925C281.395 359.185 281.769 359.315 282.298 359.315C282.558 359.315 282.916 359.267 283.372 359.169V361C282.778 361.163 282.2 361.244 281.639 361.244C280.63 361.244 279.869 360.939 279.356 360.329C278.843 359.718 278.587 358.852 278.587 357.729V349.538H276.182V347.792H278.587V344.594H280.845ZM288.414 361H286.155V347.792H288.414V361ZM285.972 344.289C285.972 343.922 286.082 343.613 286.302 343.361C286.53 343.109 286.863 342.982 287.303 342.982C287.742 342.982 288.076 343.109 288.304 343.361C288.532 343.613 288.646 343.922 288.646 344.289C288.646 344.655 288.532 344.96 288.304 345.204C288.076 345.448 287.742 345.57 287.303 345.57C286.863 345.57 286.53 345.448 286.302 345.204C286.082 344.96 285.972 344.655 285.972 344.289ZM291.441 354.274C291.441 352.98 291.693 351.816 292.198 350.783C292.71 349.749 293.418 348.952 294.322 348.39C295.233 347.829 296.271 347.548 297.435 347.548C299.233 347.548 300.686 348.17 301.792 349.416C302.907 350.661 303.465 352.317 303.465 354.384V354.542C303.465 355.828 303.217 356.984 302.72 358.009C302.232 359.027 301.528 359.82 300.608 360.39C299.697 360.959 298.647 361.244 297.459 361.244C295.669 361.244 294.216 360.622 293.101 359.376C291.994 358.131 291.441 356.483 291.441 354.433V354.274ZM293.711 354.542C293.711 356.007 294.049 357.183 294.725 358.07C295.408 358.957 296.32 359.401 297.459 359.401C298.606 359.401 299.518 358.953 300.193 358.058C300.869 357.155 301.207 355.893 301.207 354.274C301.207 352.825 300.861 351.653 300.169 350.758C299.485 349.855 298.574 349.403 297.435 349.403C296.32 349.403 295.42 349.847 294.737 350.734C294.053 351.621 293.711 352.89 293.711 354.542ZM308.433 347.792L308.506 349.452C309.515 348.183 310.834 347.548 312.461 347.548C315.253 347.548 316.661 349.123 316.685 352.272V361H314.427V352.26C314.419 351.308 314.199 350.604 313.768 350.148C313.344 349.692 312.681 349.464 311.778 349.464C311.045 349.464 310.403 349.66 309.849 350.05C309.296 350.441 308.864 350.954 308.555 351.588V361H306.297V347.792H308.433Z" fill="#565656"/>
<path d="M85.5815 423.81H81.4067V431H79.0508V413.227H84.9346C86.9365 413.227 88.4746 413.682 89.5488 414.594C90.6312 415.505 91.1724 416.832 91.1724 418.573C91.1724 419.68 90.8713 420.644 90.269 421.466C89.675 422.288 88.8449 422.903 87.7788 423.31L91.9536 430.854V431H89.439L85.5815 423.81ZM81.4067 421.894H85.0078C86.1715 421.894 87.0952 421.592 87.7788 420.99C88.4705 420.388 88.8164 419.582 88.8164 418.573C88.8164 417.475 88.4868 416.632 87.8276 416.046C87.1766 415.46 86.2326 415.163 84.9956 415.155H81.4067V421.894ZM102.269 431C102.138 430.74 102.033 430.276 101.951 429.608C100.901 430.699 99.6481 431.244 98.1914 431.244C96.8893 431.244 95.8192 430.878 94.981 430.146C94.1509 429.405 93.7358 428.469 93.7358 427.338C93.7358 425.963 94.2567 424.896 95.2983 424.14C96.3481 423.375 97.8211 422.992 99.7173 422.992H101.915V421.955C101.915 421.165 101.679 420.539 101.207 420.075C100.735 419.603 100.039 419.367 99.1191 419.367C98.3135 419.367 97.638 419.57 97.0928 419.977C96.5475 420.384 96.2749 420.876 96.2749 421.454H94.0044C94.0044 420.795 94.2363 420.16 94.7002 419.55C95.1722 418.931 95.807 418.443 96.6045 418.085C97.4102 417.727 98.2931 417.548 99.2534 417.548C100.775 417.548 101.967 417.93 102.83 418.695C103.693 419.452 104.14 420.498 104.173 421.833V427.912C104.173 429.124 104.327 430.089 104.637 430.805V431H102.269ZM98.521 429.279C99.229 429.279 99.9004 429.096 100.535 428.729C101.17 428.363 101.63 427.887 101.915 427.301V424.591H100.145C97.3776 424.591 95.9941 425.401 95.9941 427.021C95.9941 427.729 96.2301 428.282 96.7021 428.681C97.1742 429.079 97.7804 429.279 98.521 429.279ZM110.167 431H107.908V417.792H110.167V431ZM107.725 414.289C107.725 413.922 107.835 413.613 108.055 413.361C108.283 413.109 108.616 412.982 109.056 412.982C109.495 412.982 109.829 413.109 110.057 413.361C110.285 413.613 110.398 413.922 110.398 414.289C110.398 414.655 110.285 414.96 110.057 415.204C109.829 415.448 109.495 415.57 109.056 415.57C108.616 415.57 108.283 415.448 108.055 415.204C107.835 414.96 107.725 414.655 107.725 414.289ZM121.482 427.497C121.482 426.886 121.25 426.414 120.787 426.081C120.331 425.739 119.529 425.446 118.382 425.202C117.243 424.958 116.335 424.665 115.66 424.323C114.992 423.981 114.496 423.574 114.17 423.102C113.853 422.63 113.694 422.069 113.694 421.417C113.694 420.335 114.15 419.42 115.062 418.671C115.981 417.922 117.153 417.548 118.577 417.548C120.075 417.548 121.287 417.934 122.215 418.708C123.151 419.481 123.619 420.469 123.619 421.674H121.348C121.348 421.055 121.084 420.522 120.555 420.075C120.034 419.627 119.375 419.403 118.577 419.403C117.755 419.403 117.112 419.582 116.648 419.94C116.185 420.299 115.953 420.766 115.953 421.344C115.953 421.889 116.168 422.3 116.6 422.577C117.031 422.854 117.808 423.118 118.931 423.371C120.062 423.623 120.978 423.924 121.678 424.274C122.378 424.624 122.894 425.047 123.228 425.543C123.57 426.032 123.741 426.63 123.741 427.338C123.741 428.518 123.269 429.466 122.325 430.182C121.381 430.89 120.156 431.244 118.65 431.244C117.592 431.244 116.657 431.057 115.843 430.683C115.029 430.308 114.39 429.787 113.926 429.12C113.471 428.445 113.243 427.716 113.243 426.935H115.501C115.542 427.692 115.843 428.294 116.404 428.742C116.974 429.181 117.723 429.401 118.65 429.401C119.505 429.401 120.188 429.23 120.701 428.888C121.222 428.538 121.482 428.074 121.482 427.497ZM132.164 431.244C130.373 431.244 128.917 430.658 127.793 429.486C126.67 428.306 126.109 426.732 126.109 424.762V424.347C126.109 423.037 126.357 421.869 126.854 420.844C127.358 419.81 128.058 419.005 128.953 418.427C129.856 417.841 130.833 417.548 131.883 417.548C133.6 417.548 134.935 418.113 135.887 419.245C136.839 420.376 137.315 421.995 137.315 424.103V425.043H128.367C128.4 426.345 128.778 427.399 129.502 428.205C130.235 429.002 131.163 429.401 132.286 429.401C133.083 429.401 133.759 429.238 134.312 428.913C134.865 428.587 135.35 428.156 135.765 427.619L137.144 428.693C136.037 430.394 134.377 431.244 132.164 431.244ZM131.883 419.403C130.971 419.403 130.206 419.737 129.588 420.404C128.969 421.063 128.587 421.991 128.44 423.188H135.057V423.017C134.992 421.869 134.682 420.982 134.129 420.355C133.576 419.721 132.827 419.403 131.883 419.403ZM145.591 424.286C145.591 422.26 146.071 420.632 147.032 419.403C147.992 418.166 149.249 417.548 150.804 417.548C152.35 417.548 153.575 418.077 154.478 419.135V412.25H156.736V431H154.661L154.551 429.584C153.648 430.691 152.391 431.244 150.779 431.244C149.249 431.244 148 430.618 147.032 429.364C146.071 428.111 145.591 426.475 145.591 424.457V424.286ZM147.85 424.542C147.85 426.04 148.159 427.212 148.777 428.058C149.396 428.904 150.25 429.328 151.341 429.328C152.773 429.328 153.819 428.685 154.478 427.399V421.332C153.803 420.087 152.765 419.464 151.365 419.464C150.258 419.464 149.396 419.892 148.777 420.746C148.159 421.601 147.85 422.866 147.85 424.542ZM168.406 431C168.276 430.74 168.17 430.276 168.089 429.608C167.039 430.699 165.786 431.244 164.329 431.244C163.027 431.244 161.957 430.878 161.119 430.146C160.289 429.405 159.874 428.469 159.874 427.338C159.874 425.963 160.394 424.896 161.436 424.14C162.486 423.375 163.959 422.992 165.855 422.992H168.052V421.955C168.052 421.165 167.816 420.539 167.344 420.075C166.872 419.603 166.176 419.367 165.257 419.367C164.451 419.367 163.776 419.57 163.23 419.977C162.685 420.384 162.413 420.876 162.413 421.454H160.142C160.142 420.795 160.374 420.16 160.838 419.55C161.31 418.931 161.945 418.443 162.742 418.085C163.548 417.727 164.431 417.548 165.391 417.548C166.913 417.548 168.105 417.93 168.968 418.695C169.83 419.452 170.278 420.498 170.311 421.833V427.912C170.311 429.124 170.465 430.089 170.774 430.805V431H168.406ZM164.659 429.279C165.367 429.279 166.038 429.096 166.673 428.729C167.308 428.363 167.767 427.887 168.052 427.301V424.591H166.282C163.515 424.591 162.132 425.401 162.132 427.021C162.132 427.729 162.368 428.282 162.84 428.681C163.312 429.079 163.918 429.279 164.659 429.279ZM176.915 414.594V417.792H179.38V419.538H176.915V427.729C176.915 428.257 177.024 428.656 177.244 428.925C177.464 429.185 177.838 429.315 178.367 429.315C178.628 429.315 178.986 429.267 179.441 429.169V431C178.847 431.163 178.27 431.244 177.708 431.244C176.699 431.244 175.938 430.939 175.425 430.329C174.913 429.718 174.656 428.852 174.656 427.729V419.538H172.251V417.792H174.656V414.594H176.915ZM190.184 431C190.053 430.74 189.948 430.276 189.866 429.608C188.816 430.699 187.563 431.244 186.106 431.244C184.804 431.244 183.734 430.878 182.896 430.146C182.066 429.405 181.651 428.469 181.651 427.338C181.651 425.963 182.172 424.896 183.213 424.14C184.263 423.375 185.736 422.992 187.632 422.992H189.83V421.955C189.83 421.165 189.594 420.539 189.122 420.075C188.65 419.603 187.954 419.367 187.034 419.367C186.229 419.367 185.553 419.57 185.008 419.977C184.463 420.384 184.19 420.876 184.19 421.454H181.919C181.919 420.795 182.151 420.16 182.615 419.55C183.087 418.931 183.722 418.443 184.52 418.085C185.325 417.727 186.208 417.548 187.168 417.548C188.69 417.548 189.882 417.93 190.745 418.695C191.608 419.452 192.055 420.498 192.088 421.833V427.912C192.088 429.124 192.243 430.089 192.552 430.805V431H190.184ZM186.436 429.279C187.144 429.279 187.815 429.096 188.45 428.729C189.085 428.363 189.545 427.887 189.83 427.301V424.591H188.06C185.293 424.591 183.909 425.401 183.909 427.021C183.909 427.729 184.145 428.282 184.617 428.681C185.089 429.079 185.695 429.279 186.436 429.279ZM204.283 431H202.024V417.792H204.283V431ZM201.841 414.289C201.841 413.922 201.951 413.613 202.171 413.361C202.399 413.109 202.732 412.982 203.172 412.982C203.611 412.982 203.945 413.109 204.173 413.361C204.401 413.613 204.515 413.922 204.515 414.289C204.515 414.655 204.401 414.96 204.173 415.204C203.945 415.448 203.611 415.57 203.172 415.57C202.732 415.57 202.399 415.448 202.171 415.204C201.951 414.96 201.841 414.655 201.841 414.289ZM210.044 417.792L210.118 419.452C211.127 418.183 212.445 417.548 214.073 417.548C216.864 417.548 218.272 419.123 218.296 422.272V431H216.038V422.26C216.03 421.308 215.81 420.604 215.379 420.148C214.956 419.692 214.292 419.464 213.389 419.464C212.657 419.464 212.014 419.66 211.46 420.05C210.907 420.441 210.476 420.954 210.167 421.588V431H207.908V417.792H210.044ZM224.766 414.594V417.792H227.232V419.538H224.766V427.729C224.766 428.257 224.876 428.656 225.096 428.925C225.315 429.185 225.69 429.315 226.219 429.315C226.479 429.315 226.837 429.267 227.293 429.169V431C226.699 431.163 226.121 431.244 225.56 431.244C224.55 431.244 223.79 430.939 223.277 430.329C222.764 429.718 222.508 428.852 222.508 427.729V419.538H220.103V417.792H222.508V414.594H224.766ZM235.362 431.244C233.571 431.244 232.115 430.658 230.992 429.486C229.869 428.306 229.307 426.732 229.307 424.762V424.347C229.307 423.037 229.555 421.869 230.052 420.844C230.556 419.81 231.256 419.005 232.151 418.427C233.055 417.841 234.031 417.548 235.081 417.548C236.798 417.548 238.133 418.113 239.085 419.245C240.037 420.376 240.513 421.995 240.513 424.103V425.043H231.565C231.598 426.345 231.976 427.399 232.701 428.205C233.433 429.002 234.361 429.401 235.484 429.401C236.281 429.401 236.957 429.238 237.51 428.913C238.064 428.587 238.548 428.156 238.963 427.619L240.342 428.693C239.236 430.394 237.575 431.244 235.362 431.244ZM235.081 419.403C234.17 419.403 233.405 419.737 232.786 420.404C232.168 421.063 231.785 421.991 231.639 423.188H238.255V423.017C238.19 421.869 237.881 420.982 237.327 420.355C236.774 419.721 236.025 419.403 235.081 419.403ZM242.601 424.286C242.601 422.227 243.077 420.591 244.029 419.379C244.981 418.158 246.242 417.548 247.813 417.548C249.424 417.548 250.682 418.118 251.585 419.257L251.695 417.792H253.758V430.683C253.758 432.392 253.249 433.738 252.232 434.723C251.223 435.708 249.864 436.2 248.155 436.2C247.203 436.2 246.271 435.997 245.359 435.59C244.448 435.183 243.752 434.625 243.272 433.917L244.444 432.562C245.412 433.759 246.596 434.357 247.996 434.357C249.095 434.357 249.949 434.048 250.56 433.429C251.178 432.811 251.487 431.94 251.487 430.817V429.682C250.584 430.723 249.351 431.244 247.789 431.244C246.242 431.244 244.989 430.622 244.029 429.376C243.077 428.131 242.601 426.435 242.601 424.286ZM244.871 424.542C244.871 426.032 245.176 427.204 245.787 428.058C246.397 428.904 247.251 429.328 248.35 429.328C249.774 429.328 250.82 428.681 251.487 427.387V421.356C250.796 420.095 249.758 419.464 248.375 419.464C247.276 419.464 246.417 419.892 245.799 420.746C245.18 421.601 244.871 422.866 244.871 424.542ZM263.56 419.818C263.218 419.761 262.848 419.733 262.449 419.733C260.968 419.733 259.963 420.364 259.434 421.625V431H257.176V417.792H259.373L259.41 419.318C260.15 418.138 261.2 417.548 262.559 417.548C262.999 417.548 263.332 417.605 263.56 417.719V419.818ZM268.101 431H265.843V417.792H268.101V431ZM265.66 414.289C265.66 413.922 265.77 413.613 265.989 413.361C266.217 413.109 266.551 412.982 266.99 412.982C267.43 412.982 267.763 413.109 267.991 413.361C268.219 413.613 268.333 413.922 268.333 414.289C268.333 414.655 268.219 414.96 267.991 415.204C267.763 415.448 267.43 415.57 266.99 415.57C266.551 415.57 266.217 415.448 265.989 415.204C265.77 414.96 265.66 414.655 265.66 414.289ZM274.791 414.594V417.792H277.256V419.538H274.791V427.729C274.791 428.257 274.9 428.656 275.12 428.925C275.34 429.185 275.714 429.315 276.243 429.315C276.504 429.315 276.862 429.267 277.317 429.169V431C276.723 431.163 276.146 431.244 275.584 431.244C274.575 431.244 273.814 430.939 273.301 430.329C272.789 429.718 272.532 428.852 272.532 427.729V419.538H270.127V417.792H272.532V414.594H274.791ZM284.227 427.692L287.303 417.792H289.72L284.41 433.039C283.588 435.236 282.282 436.334 280.491 436.334L280.064 436.298L279.222 436.139V434.308L279.832 434.357C280.597 434.357 281.191 434.202 281.614 433.893C282.046 433.584 282.4 433.018 282.676 432.196L283.177 430.854L278.465 417.792H280.931L284.227 427.692ZM300.657 429.083H309.08V431H298.301V413.227H300.657V429.083ZM316.88 431.244C315.09 431.244 313.633 430.658 312.51 429.486C311.387 428.306 310.826 426.732 310.826 424.762V424.347C310.826 423.037 311.074 421.869 311.57 420.844C312.075 419.81 312.775 419.005 313.67 418.427C314.573 417.841 315.55 417.548 316.6 417.548C318.317 417.548 319.651 418.113 320.604 419.245C321.556 420.376 322.032 421.995 322.032 424.103V425.043H313.084C313.117 426.345 313.495 427.399 314.219 428.205C314.952 429.002 315.879 429.401 317.002 429.401C317.8 429.401 318.475 429.238 319.029 428.913C319.582 428.587 320.066 428.156 320.481 427.619L321.861 428.693C320.754 430.394 319.094 431.244 316.88 431.244ZM316.6 419.403C315.688 419.403 314.923 419.737 314.305 420.404C313.686 421.063 313.304 421.991 313.157 423.188H319.773V423.017C319.708 421.869 319.399 420.982 318.846 420.355C318.292 419.721 317.544 419.403 316.6 419.403ZM328.843 427.936L332.115 417.792H334.422L329.686 431H327.964L323.179 417.792H325.486L328.843 427.936ZM341.905 431.244C340.114 431.244 338.658 430.658 337.535 429.486C336.412 428.306 335.85 426.732 335.85 424.762V424.347C335.85 423.037 336.098 421.869 336.595 420.844C337.099 419.81 337.799 419.005 338.694 418.427C339.598 417.841 340.574 417.548 341.624 417.548C343.341 417.548 344.676 418.113 345.628 419.245C346.58 420.376 347.056 421.995 347.056 424.103V425.043H338.108C338.141 426.345 338.519 427.399 339.244 428.205C339.976 429.002 340.904 429.401 342.027 429.401C342.824 429.401 343.5 429.238 344.053 428.913C344.607 428.587 345.091 428.156 345.506 427.619L346.885 428.693C345.778 430.394 344.118 431.244 341.905 431.244ZM341.624 419.403C340.713 419.403 339.948 419.737 339.329 420.404C338.711 421.063 338.328 421.991 338.182 423.188H344.798V423.017C344.733 421.869 344.424 420.982 343.87 420.355C343.317 419.721 342.568 419.403 341.624 419.403ZM352.134 431H349.876V412.25H352.134V431ZM373.375 431H361.729V429.376L367.881 422.541C368.793 421.507 369.419 420.669 369.761 420.026C370.111 419.375 370.286 418.703 370.286 418.012C370.286 417.084 370.005 416.323 369.444 415.729C368.882 415.135 368.134 414.838 367.198 414.838C366.075 414.838 365.2 415.159 364.573 415.802C363.955 416.437 363.646 417.324 363.646 418.463H361.387C361.387 416.828 361.912 415.505 362.962 414.496C364.02 413.487 365.432 412.982 367.198 412.982C368.85 412.982 370.156 413.418 371.116 414.289C372.076 415.151 372.557 416.303 372.557 417.743C372.557 419.493 371.442 421.576 369.212 423.993L364.451 429.157H373.375V431ZM390.354 431C390.224 430.74 390.118 430.276 390.037 429.608C388.987 430.699 387.734 431.244 386.277 431.244C384.975 431.244 383.905 430.878 383.067 430.146C382.237 429.405 381.822 428.469 381.822 427.338C381.822 425.963 382.343 424.896 383.384 424.14C384.434 423.375 385.907 422.992 387.803 422.992H390V421.955C390 421.165 389.764 420.539 389.292 420.075C388.82 419.603 388.125 419.367 387.205 419.367C386.399 419.367 385.724 419.57 385.179 419.977C384.633 420.384 384.361 420.876 384.361 421.454H382.09C382.09 420.795 382.322 420.16 382.786 419.55C383.258 418.931 383.893 418.443 384.69 418.085C385.496 417.727 386.379 417.548 387.339 417.548C388.861 417.548 390.053 417.93 390.916 418.695C391.779 419.452 392.226 420.498 392.259 421.833V427.912C392.259 429.124 392.413 430.089 392.723 430.805V431H390.354ZM386.607 429.279C387.315 429.279 387.986 429.096 388.621 428.729C389.256 428.363 389.716 427.887 390 427.301V424.591H388.23C385.464 424.591 384.08 425.401 384.08 427.021C384.08 427.729 384.316 428.282 384.788 428.681C385.26 429.079 385.866 429.279 386.607 429.279ZM398.252 431H395.994V412.25H398.252V431ZM407.359 431.244C405.569 431.244 404.112 430.658 402.989 429.486C401.866 428.306 401.304 426.732 401.304 424.762V424.347C401.304 423.037 401.552 421.869 402.049 420.844C402.553 419.81 403.253 419.005 404.148 418.427C405.052 417.841 406.028 417.548 407.078 417.548C408.795 417.548 410.13 418.113 411.082 419.245C412.034 420.376 412.51 421.995 412.51 424.103V425.043H403.562C403.595 426.345 403.973 427.399 404.698 428.205C405.43 429.002 406.358 429.401 407.481 429.401C408.278 429.401 408.954 429.238 409.507 428.913C410.061 428.587 410.545 428.156 410.96 427.619L412.339 428.693C411.233 430.394 409.572 431.244 407.359 431.244ZM407.078 419.403C406.167 419.403 405.402 419.737 404.783 420.404C404.165 421.063 403.782 421.991 403.636 423.188H410.252V423.017C410.187 421.869 409.878 420.982 409.324 420.355C408.771 419.721 408.022 419.403 407.078 419.403ZM421.519 419.818C421.177 419.761 420.807 419.733 420.408 419.733C418.927 419.733 417.922 420.364 417.393 421.625V431H415.135V417.792H417.332L417.369 419.318C418.109 418.138 419.159 417.548 420.518 417.548C420.958 417.548 421.291 417.605 421.519 417.719V419.818ZM427.281 414.594V417.792H429.747V419.538H427.281V427.729C427.281 428.257 427.391 428.656 427.61 428.925C427.83 429.185 428.204 429.315 428.733 429.315C428.994 429.315 429.352 429.267 429.808 429.169V431C429.214 431.163 428.636 431.244 428.074 431.244C427.065 431.244 426.304 430.939 425.792 430.329C425.279 429.718 425.022 428.852 425.022 427.729V419.538H422.618V417.792H425.022V414.594H427.281Z" fill="#565656"/>
<rect x="51.5" y="326.5" width="606" height="51" rx="8.5" stroke="#C4C4C4" stroke-width="3"/>
<rect x="51.5" y="397.5" width="606" height="51" rx="8.5" stroke="#C4C4C4" stroke-width="3"/>
<path d="M627.5 363L616.675 345.75H638.325L627.5 363Z" fill="#C4C4C4"/>
<path d="M627.5 434L616.675 416.75H638.325L627.5 434Z" fill="#C4C4C4"/>
<path d="M57.7227 40.9819C57.6657 42.2189 57.332 43.3135 56.7217 44.2656C56.1113 45.2096 55.2528 45.9421 54.146 46.4629C53.0474 46.9837 51.79 47.2441 50.374 47.2441C48.0384 47.2441 46.1992 46.4832 44.8564 44.9614C43.5137 43.4396 42.8423 41.2912 42.8423 38.5161V37.6372C42.8423 35.8957 43.1434 34.3739 43.7456 33.0718C44.356 31.7616 45.2308 30.7524 46.3701 30.0444C47.5094 29.3283 48.8278 28.9702 50.3252 28.9702C52.4818 28.9702 54.2152 29.5399 55.5254 30.6792C56.8356 31.8104 57.5802 33.3729 57.7593 35.3667H53.4868C53.4543 34.2843 53.1816 33.5072 52.6689 33.0352C52.1562 32.5632 51.375 32.3271 50.3252 32.3271C49.2591 32.3271 48.4779 32.7259 47.9814 33.5234C47.485 34.321 47.2246 35.5946 47.2002 37.3442V38.6016C47.2002 40.4977 47.4362 41.8527 47.9082 42.6665C48.3883 43.4803 49.2103 43.8872 50.374 43.8872C51.3587 43.8872 52.1115 43.6553 52.6323 43.1914C53.1532 42.7275 53.4299 41.991 53.4624 40.9819H57.7227ZM63.582 35.208C64.4609 34.1012 65.584 33.5479 66.9512 33.5479C68.4079 33.5479 69.5065 33.9792 70.2471 34.8418C70.9876 35.7044 71.366 36.978 71.3823 38.6626V47H67.2563V38.7603C67.2563 38.0604 67.1139 37.5477 66.8291 37.2222C66.5443 36.8885 66.0601 36.7217 65.3765 36.7217C64.5301 36.7217 63.932 36.9902 63.582 37.5273V47H59.4683V28.25H63.582V35.208ZM80.0615 47.2441C78.0352 47.2441 76.3953 46.6419 75.1421 45.4375C73.8888 44.2249 73.2622 42.6502 73.2622 40.7134V40.3716C73.2622 39.0207 73.5104 37.8285 74.0068 36.7949C74.5114 35.7614 75.2438 34.9639 76.2041 34.4023C77.1644 33.8327 78.3037 33.5479 79.6221 33.5479C81.4775 33.5479 82.9424 34.1257 84.0166 35.2812C85.0908 36.4287 85.6279 38.0319 85.6279 40.0908V41.6899H77.4492C77.5957 42.4305 77.9172 43.0124 78.4136 43.4355C78.91 43.8587 79.5529 44.0703 80.3423 44.0703C81.6444 44.0703 82.6616 43.6146 83.394 42.7031L85.2739 44.9248C84.7612 45.6328 84.0329 46.1984 83.0889 46.6216C82.153 47.0366 81.1439 47.2441 80.0615 47.2441ZM79.5977 36.7217C78.3932 36.7217 77.6771 37.5192 77.4492 39.1143H81.5996V38.7969C81.6159 38.1377 81.4491 37.6291 81.0991 37.271C80.7492 36.9048 80.2487 36.7217 79.5977 36.7217ZM92.8789 44.0703C93.4567 44.0703 93.9043 43.9157 94.2217 43.6064C94.5391 43.2891 94.6937 42.8496 94.6855 42.2881H98.543C98.543 43.7367 98.0221 44.9248 96.9805 45.8525C95.9469 46.7803 94.6123 47.2441 92.9766 47.2441C91.056 47.2441 89.5423 46.6419 88.4355 45.4375C87.3288 44.2331 86.7754 42.5648 86.7754 40.4326V40.2617C86.7754 38.9271 87.0195 37.7511 87.5078 36.7339C88.0042 35.7085 88.7163 34.9232 89.644 34.3779C90.5718 33.8245 91.6704 33.5479 92.9399 33.5479C94.6571 33.5479 96.0202 34.0239 97.0293 34.9761C98.0384 35.9282 98.543 37.2181 98.543 38.8457H94.6855C94.6855 38.1621 94.5187 37.6372 94.1851 37.271C93.8514 36.9048 93.4038 36.7217 92.8423 36.7217C91.7762 36.7217 91.1536 37.4012 90.9746 38.7603C90.9176 39.1916 90.8892 39.7856 90.8892 40.5425C90.8892 41.869 91.0479 42.7886 91.3652 43.3013C91.6826 43.814 92.1872 44.0703 92.8789 44.0703ZM105.586 42.0806L104.427 43.2402V47H100.313V28.2378H104.427V38.1987L104.842 37.6494L107.942 33.792H112.874L108.248 39.2241L113.179 47H108.467L105.586 42.0806ZM121.089 47V36.6484H119.173V33.792H121.089V32.7422C121.089 31.2367 121.533 30.0688 122.42 29.2388C123.307 28.4087 124.552 27.9937 126.155 27.9937C126.741 27.9937 127.384 28.0791 128.084 28.25L128.096 31.2773C127.844 31.2041 127.506 31.1675 127.083 31.1675C125.838 31.1675 125.215 31.7046 125.215 32.7788V33.792H127.791V36.6484H125.215V47H121.089ZM128.719 40.2739C128.719 38.9556 128.975 37.7837 129.488 36.7583C130 35.7248 130.737 34.9313 131.697 34.3779C132.658 33.8245 133.785 33.5479 135.079 33.5479C137.056 33.5479 138.615 34.1623 139.754 35.3911C140.893 36.6118 141.463 38.276 141.463 40.3838V40.5303C141.463 42.5892 140.889 44.2249 139.742 45.4375C138.602 46.6419 137.056 47.2441 135.103 47.2441C133.223 47.2441 131.714 46.6826 130.574 45.5596C129.435 44.4284 128.82 42.8984 128.731 40.9697L128.719 40.2739ZM132.833 40.5303C132.833 41.751 133.024 42.6462 133.406 43.2158C133.789 43.7855 134.354 44.0703 135.103 44.0703C136.568 44.0703 137.317 42.9432 137.349 40.689V40.2739C137.349 37.9058 136.592 36.7217 135.079 36.7217C133.703 36.7217 132.959 37.743 132.845 39.7856L132.833 40.5303ZM151.265 37.5151L149.91 37.4175C148.616 37.4175 147.786 37.8244 147.42 38.6382V47H143.306V33.792H147.164L147.298 35.4888C147.99 34.1948 148.954 33.5479 150.191 33.5479C150.63 33.5479 151.013 33.5967 151.338 33.6943L151.265 37.5151ZM158.455 40.2739C158.455 38.9556 158.711 37.7837 159.224 36.7583C159.737 35.7248 160.473 34.9313 161.434 34.3779C162.394 33.8245 163.521 33.5479 164.815 33.5479C166.792 33.5479 168.351 34.1623 169.49 35.3911C170.63 36.6118 171.199 38.276 171.199 40.3838V40.5303C171.199 42.5892 170.625 44.2249 169.478 45.4375C168.339 46.6419 166.792 47.2441 164.839 47.2441C162.959 47.2441 161.45 46.6826 160.311 45.5596C159.171 44.4284 158.557 42.8984 158.467 40.9697L158.455 40.2739ZM162.569 40.5303C162.569 41.751 162.76 42.6462 163.143 43.2158C163.525 43.7855 164.091 44.0703 164.839 44.0703C166.304 44.0703 167.053 42.9432 167.085 40.689V40.2739C167.085 37.9058 166.329 36.7217 164.815 36.7217C163.44 36.7217 162.695 37.743 162.581 39.7856L162.569 40.5303ZM178.084 42.105L180.171 33.792H184.505L180.196 47H175.997L171.688 33.792H176.033L178.084 42.105ZM191.951 47.2441C189.925 47.2441 188.285 46.6419 187.032 45.4375C185.778 44.2249 185.152 42.6502 185.152 40.7134V40.3716C185.152 39.0207 185.4 37.8285 185.896 36.7949C186.401 35.7614 187.133 34.9639 188.094 34.4023C189.054 33.8327 190.193 33.5479 191.512 33.5479C193.367 33.5479 194.832 34.1257 195.906 35.2812C196.98 36.4287 197.518 38.0319 197.518 40.0908V41.6899H189.339C189.485 42.4305 189.807 43.0124 190.303 43.4355C190.8 43.8587 191.443 44.0703 192.232 44.0703C193.534 44.0703 194.551 43.6146 195.284 42.7031L197.164 44.9248C196.651 45.6328 195.923 46.1984 194.979 46.6216C194.043 47.0366 193.034 47.2441 191.951 47.2441ZM191.487 36.7217C190.283 36.7217 189.567 37.5192 189.339 39.1143H193.489V38.7969C193.506 38.1377 193.339 37.6291 192.989 37.271C192.639 36.9048 192.138 36.7217 191.487 36.7217ZM207.173 37.5151L205.818 37.4175C204.524 37.4175 203.694 37.8244 203.328 38.6382V47H199.214V33.792H203.072L203.206 35.4888C203.898 34.1948 204.862 33.5479 206.099 33.5479C206.539 33.5479 206.921 33.5967 207.247 33.6943L207.173 37.5151ZM217.854 31.2529C217.155 31.196 216.565 31.1675 216.084 31.1675C214.489 31.1675 213.692 31.79 213.692 33.0352V33.792H216.268V36.6484H213.692V47H209.566V36.6484H207.649V33.792H209.566V32.9375C209.574 31.3587 210.083 30.1421 211.092 29.2876C212.109 28.425 213.562 27.9937 215.45 27.9937C216.792 27.9937 218.973 28.0791 221.993 28.25V47H217.854V31.2529ZM223.982 40.2739C223.982 38.9556 224.239 37.7837 224.751 36.7583C225.264 35.7248 226.001 34.9313 226.961 34.3779C227.921 33.8245 229.048 33.5479 230.342 33.5479C232.32 33.5479 233.878 34.1623 235.018 35.3911C236.157 36.6118 236.727 38.276 236.727 40.3838V40.5303C236.727 42.5892 236.153 44.2249 235.005 45.4375C233.866 46.6419 232.32 47.2441 230.367 47.2441C228.487 47.2441 226.977 46.6826 225.838 45.5596C224.699 44.4284 224.084 42.8984 223.995 40.9697L223.982 40.2739ZM228.096 40.5303C228.096 41.751 228.287 42.6462 228.67 43.2158C229.052 43.7855 229.618 44.0703 230.367 44.0703C231.832 44.0703 232.58 42.9432 232.613 40.689V40.2739C232.613 37.9058 231.856 36.7217 230.342 36.7217C228.967 36.7217 228.222 37.743 228.108 39.7856L228.096 40.5303ZM249.947 41.5801L251.277 33.792H255.22L252.107 47H248.628L246.443 39.1631L244.246 47H240.767L237.654 33.792H241.597L242.903 41.7632L245.003 33.792H247.872L249.947 41.5801ZM261.043 47H256.917V33.792H261.043V47ZM256.673 30.3862C256.673 29.8003 256.884 29.3201 257.308 28.9458C257.731 28.5715 258.28 28.3843 258.956 28.3843C259.631 28.3843 260.18 28.5715 260.604 28.9458C261.027 29.3201 261.238 29.8003 261.238 30.3862C261.238 30.9722 261.027 31.4523 260.604 31.8267C260.18 32.201 259.631 32.3882 258.956 32.3882C258.28 32.3882 257.731 32.201 257.308 31.8267C256.884 31.4523 256.673 30.9722 256.673 30.3862ZM267.366 33.792L267.5 35.3423C268.412 34.146 269.669 33.5479 271.272 33.5479C272.648 33.5479 273.673 33.9588 274.349 34.7808C275.032 35.6027 275.386 36.8397 275.411 38.4917V47H271.285V38.6626C271.285 37.9953 271.15 37.507 270.882 37.1978C270.613 36.8804 270.125 36.7217 269.417 36.7217C268.611 36.7217 268.013 37.0391 267.623 37.6738V47H263.509V33.792H267.366ZM277.217 40.2983C277.217 38.9637 277.437 37.7837 277.876 36.7583C278.316 35.7329 278.947 34.9435 279.769 34.3901C280.59 33.8286 281.547 33.5479 282.637 33.5479C284.013 33.5479 285.087 34.0117 285.86 34.9395L286.006 33.792H289.742V46.4995C289.742 47.6632 289.469 48.6724 288.924 49.5269C288.387 50.3895 287.605 51.0487 286.58 51.5044C285.555 51.9683 284.367 52.2002 283.016 52.2002C282.047 52.2002 281.107 52.0171 280.196 51.6509C279.292 51.2847 278.601 50.8086 278.121 50.2227L279.842 47.8057C280.607 48.709 281.616 49.1606 282.869 49.1606C284.692 49.1606 285.604 48.2248 285.604 46.353V45.938C284.814 46.8088 283.817 47.2441 282.613 47.2441C281.001 47.2441 279.699 46.6297 278.707 45.4009C277.714 44.1639 277.217 42.5119 277.217 40.4448V40.2983ZM281.343 40.5547C281.343 41.637 281.547 42.4956 281.954 43.1304C282.361 43.757 282.93 44.0703 283.663 44.0703C284.55 44.0703 285.197 43.7733 285.604 43.1792V37.625C285.205 37.0228 284.566 36.7217 283.687 36.7217C282.955 36.7217 282.381 37.0513 281.966 37.7104C281.551 38.3615 281.343 39.3096 281.343 40.5547ZM302.645 47H298.519V33.792H302.645V47ZM298.274 30.3862C298.274 29.8003 298.486 29.3201 298.909 28.9458C299.332 28.5715 299.882 28.3843 300.557 28.3843C301.233 28.3843 301.782 28.5715 302.205 28.9458C302.628 29.3201 302.84 29.8003 302.84 30.3862C302.84 30.9722 302.628 31.4523 302.205 31.8267C301.782 32.201 301.233 32.3882 300.557 32.3882C299.882 32.3882 299.332 32.201 298.909 31.8267C298.486 31.4523 298.274 30.9722 298.274 30.3862ZM308.968 33.792L309.102 35.3423C310.014 34.146 311.271 33.5479 312.874 33.5479C314.249 33.5479 315.275 33.9588 315.95 34.7808C316.634 35.6027 316.988 36.8397 317.012 38.4917V47H312.886V38.6626C312.886 37.9953 312.752 37.507 312.483 37.1978C312.215 36.8804 311.727 36.7217 311.019 36.7217C310.213 36.7217 309.615 37.0391 309.224 37.6738V47H305.11V33.792H308.968ZM324.092 30.5083V33.792H326.265V36.6484H324.092V42.6909C324.092 43.1873 324.182 43.5332 324.361 43.7285C324.54 43.9238 324.894 44.0215 325.423 44.0215C325.83 44.0215 326.172 43.9971 326.448 43.9482V46.8901C325.708 47.1261 324.935 47.2441 324.129 47.2441C322.713 47.2441 321.667 46.9105 320.992 46.2432C320.316 45.5758 319.979 44.5627 319.979 43.2036V36.6484H318.294V33.792H319.979V30.5083H324.092ZM334.285 47.2441C332.259 47.2441 330.619 46.6419 329.366 45.4375C328.112 44.2249 327.486 42.6502 327.486 40.7134V40.3716C327.486 39.0207 327.734 37.8285 328.23 36.7949C328.735 35.7614 329.467 34.9639 330.428 34.4023C331.388 33.8327 332.527 33.5479 333.846 33.5479C335.701 33.5479 337.166 34.1257 338.24 35.2812C339.314 36.4287 339.852 38.0319 339.852 40.0908V41.6899H331.673C331.819 42.4305 332.141 43.0124 332.637 43.4355C333.134 43.8587 333.777 44.0703 334.566 44.0703C335.868 44.0703 336.885 43.6146 337.618 42.7031L339.498 44.9248C338.985 45.6328 338.257 46.1984 337.312 46.6216C336.377 47.0366 335.368 47.2441 334.285 47.2441ZM333.821 36.7217C332.617 36.7217 331.901 37.5192 331.673 39.1143H335.823V38.7969C335.84 38.1377 335.673 37.6291 335.323 37.271C334.973 36.9048 334.472 36.7217 333.821 36.7217ZM341.036 40.2983C341.036 38.9637 341.255 37.7837 341.695 36.7583C342.134 35.7329 342.765 34.9435 343.587 34.3901C344.409 33.8286 345.365 33.5479 346.456 33.5479C347.831 33.5479 348.905 34.0117 349.678 34.9395L349.825 33.792H353.56V46.4995C353.56 47.6632 353.287 48.6724 352.742 49.5269C352.205 50.3895 351.424 51.0487 350.398 51.5044C349.373 51.9683 348.185 52.2002 346.834 52.2002C345.866 52.2002 344.926 52.0171 344.014 51.6509C343.111 51.2847 342.419 50.8086 341.939 50.2227L343.66 47.8057C344.425 48.709 345.434 49.1606 346.688 49.1606C348.51 49.1606 349.422 48.2248 349.422 46.353V45.938C348.632 46.8088 347.636 47.2441 346.431 47.2441C344.82 47.2441 343.518 46.6297 342.525 45.4009C341.532 44.1639 341.036 42.5119 341.036 40.4448V40.2983ZM345.162 40.5547C345.162 41.637 345.365 42.4956 345.772 43.1304C346.179 43.757 346.749 44.0703 347.481 44.0703C348.368 44.0703 349.015 43.7733 349.422 43.1792V37.625C349.023 37.0228 348.384 36.7217 347.505 36.7217C346.773 36.7217 346.199 37.0513 345.784 37.7104C345.369 38.3615 345.162 39.3096 345.162 40.5547ZM362.288 47.2441C360.262 47.2441 358.622 46.6419 357.369 45.4375C356.115 44.2249 355.489 42.6502 355.489 40.7134V40.3716C355.489 39.0207 355.737 37.8285 356.233 36.7949C356.738 35.7614 357.47 34.9639 358.431 34.4023C359.391 33.8327 360.53 33.5479 361.849 33.5479C363.704 33.5479 365.169 34.1257 366.243 35.2812C367.317 36.4287 367.854 38.0319 367.854 40.0908V41.6899H359.676C359.822 42.4305 360.144 43.0124 360.64 43.4355C361.137 43.8587 361.779 44.0703 362.569 44.0703C363.871 44.0703 364.888 43.6146 365.621 42.7031L367.5 44.9248C366.988 45.6328 366.259 46.1984 365.315 46.6216C364.38 47.0366 363.37 47.2441 362.288 47.2441ZM361.824 36.7217C360.62 36.7217 359.904 37.5192 359.676 39.1143H363.826V38.7969C363.842 38.1377 363.676 37.6291 363.326 37.271C362.976 36.9048 362.475 36.7217 361.824 36.7217ZM377.51 37.5151L376.155 37.4175C374.861 37.4175 374.031 37.8244 373.665 38.6382V47H369.551V33.792H373.409L373.543 35.4888C374.235 34.1948 375.199 33.5479 376.436 33.5479C376.875 33.5479 377.258 33.5967 377.583 33.6943L377.51 37.5151ZM385.909 43.2891C385.909 42.9391 385.726 42.6584 385.359 42.4468C384.993 42.2352 384.297 42.0155 383.272 41.7876C382.247 41.5597 381.4 41.2627 380.733 40.8965C380.066 40.5221 379.557 40.0705 379.207 39.5415C378.857 39.0125 378.682 38.4062 378.682 37.7227C378.682 36.5101 379.183 35.5132 380.184 34.7319C381.185 33.9425 382.495 33.5479 384.114 33.5479C385.856 33.5479 387.256 33.9425 388.313 34.7319C389.371 35.5213 389.9 36.5589 389.9 37.8447H385.774C385.774 36.7868 385.217 36.2578 384.102 36.2578C383.671 36.2578 383.309 36.3799 383.016 36.624C382.723 36.86 382.576 37.1571 382.576 37.5151C382.576 37.8813 382.755 38.1784 383.113 38.4062C383.471 38.6341 384.041 38.8213 384.822 38.9678C385.612 39.1143 386.303 39.2892 386.897 39.4927C388.883 40.1763 389.876 41.401 389.876 43.167C389.876 44.3714 389.339 45.3521 388.265 46.1089C387.199 46.8657 385.815 47.2441 384.114 47.2441C382.983 47.2441 381.974 47.0407 381.087 46.6338C380.2 46.2269 379.508 45.6735 379.012 44.9736C378.515 44.2738 378.267 43.5373 378.267 42.7642H382.112C382.129 43.3745 382.332 43.8221 382.723 44.1069C383.113 44.3836 383.614 44.522 384.224 44.522C384.786 44.522 385.205 44.408 385.481 44.1802C385.766 43.9523 385.909 43.6553 385.909 43.2891Z" fill="black"/>
<path d="M90.8032 118.337C90.8032 117.645 90.5591 117.116 90.0708 116.75C89.5825 116.376 88.7036 115.985 87.4341 115.578C86.1646 115.163 85.1595 114.756 84.4189 114.357C82.4007 113.267 81.3916 111.798 81.3916 109.951C81.3916 108.99 81.6602 108.136 82.1973 107.387C82.7425 106.63 83.5197 106.04 84.5288 105.617C85.5461 105.194 86.6854 104.982 87.9468 104.982C89.2163 104.982 90.3475 105.214 91.3403 105.678C92.3332 106.134 93.1022 106.781 93.6475 107.619C94.2008 108.457 94.4775 109.41 94.4775 110.476H90.8154C90.8154 109.662 90.5591 109.031 90.0464 108.583C89.5337 108.128 88.8135 107.9 87.8857 107.9C86.9906 107.9 86.2948 108.091 85.7983 108.474C85.3019 108.848 85.0537 109.344 85.0537 109.963C85.0537 110.541 85.3426 111.025 85.9204 111.416C86.5063 111.806 87.3649 112.172 88.4961 112.514C90.5794 113.141 92.0972 113.918 93.0493 114.846C94.0015 115.773 94.4775 116.929 94.4775 118.312C94.4775 119.851 93.8957 121.059 92.7319 121.938C91.5682 122.809 90.0016 123.244 88.0322 123.244C86.665 123.244 85.4199 122.996 84.2969 122.5C83.1738 121.995 82.3153 121.307 81.7212 120.437C81.1353 119.566 80.8423 118.557 80.8423 117.409H84.5166C84.5166 119.37 85.6885 120.351 88.0322 120.351C88.903 120.351 89.5825 120.176 90.0708 119.826C90.5591 119.468 90.8032 118.972 90.8032 118.337ZM107.661 115.297H100.63V120.058H108.882V123H96.9678V105.227H108.857V108.193H100.63V112.429H107.661V115.297ZM114.692 120.058H122.468V123H111.03V105.227H114.692V120.058ZM135.273 115.297H128.242V120.058H136.494V123H124.58V105.227H136.47V108.193H128.242V112.429H135.273V115.297ZM152.595 117.08C152.457 118.992 151.749 120.498 150.471 121.596C149.202 122.695 147.525 123.244 145.442 123.244C143.163 123.244 141.369 122.479 140.059 120.949C138.757 119.411 138.105 117.303 138.105 114.626V113.54C138.105 111.831 138.407 110.325 139.009 109.023C139.611 107.721 140.47 106.724 141.584 106.032C142.708 105.332 144.01 104.982 145.491 104.982C147.542 104.982 149.194 105.532 150.447 106.63C151.7 107.729 152.424 109.271 152.62 111.257H148.958C148.868 110.109 148.547 109.279 147.993 108.767C147.448 108.246 146.614 107.985 145.491 107.985C144.27 107.985 143.354 108.425 142.744 109.304C142.142 110.174 141.833 111.529 141.816 113.369V114.711C141.816 116.632 142.105 118.036 142.683 118.923C143.269 119.81 144.189 120.253 145.442 120.253C146.573 120.253 147.415 119.997 147.969 119.484C148.53 118.964 148.852 118.162 148.933 117.08H152.595ZM168.013 108.193H162.568V123H158.906V108.193H153.535V105.227H168.013V108.193ZM95.4297 146.873L97.8223 134.227H101.472L97.5293 152H93.8428L90.9497 140.11L88.0566 152H84.3701L80.4272 134.227H84.0771L86.4819 146.849L89.4116 134.227H92.5122L95.4297 146.873ZM117.927 152H114.265V144.383H107.124V152H103.462V134.227H107.124V141.429H114.265V134.227H117.927V152ZM131.831 144.297H124.8V149.058H133.052V152H121.138V134.227H133.027V137.193H124.8V141.429H131.831V144.297ZM141.78 145.494H138.862V152H135.2V134.227H141.804C143.904 134.227 145.523 134.694 146.663 135.63C147.802 136.566 148.372 137.889 148.372 139.598C148.372 140.81 148.107 141.823 147.578 142.637C147.057 143.443 146.264 144.086 145.198 144.566L149.043 151.829V152H145.112L141.78 145.494ZM138.862 142.527H141.816C142.736 142.527 143.448 142.295 143.953 141.832C144.457 141.36 144.709 140.713 144.709 139.891C144.709 139.052 144.469 138.393 143.989 137.913C143.517 137.433 142.789 137.193 141.804 137.193H138.862V142.527ZM161.86 144.297H154.829V149.058H163.081V152H151.167V134.227H163.057V137.193H154.829V141.429H161.86V144.297Z" fill="#113D96"/>
<path d="M178.755 111L175.068 109.902L175.63 108.059L179.316 109.426L179.207 105.227H181.074L180.952 109.487L184.578 108.144L185.139 110L181.392 111.11L183.809 114.418L182.295 115.566L180.024 112.05L177.827 115.48L176.301 114.37L178.755 111ZM261.201 123C261.071 122.74 260.965 122.276 260.884 121.608C259.834 122.699 258.581 123.244 257.124 123.244C255.822 123.244 254.752 122.878 253.914 122.146C253.083 121.405 252.668 120.469 252.668 119.338C252.668 117.963 253.189 116.896 254.231 116.14C255.281 115.375 256.754 114.992 258.65 114.992H260.847V113.955C260.847 113.165 260.611 112.539 260.139 112.075C259.667 111.603 258.971 111.367 258.052 111.367C257.246 111.367 256.571 111.57 256.025 111.977C255.48 112.384 255.208 112.876 255.208 113.454H252.937C252.937 112.795 253.169 112.16 253.633 111.55C254.105 110.931 254.74 110.443 255.537 110.085C256.343 109.727 257.226 109.548 258.186 109.548C259.708 109.548 260.9 109.93 261.763 110.695C262.625 111.452 263.073 112.498 263.105 113.833V119.912C263.105 121.124 263.26 122.089 263.569 122.805V123H261.201ZM257.454 121.279C258.162 121.279 258.833 121.096 259.468 120.729C260.103 120.363 260.562 119.887 260.847 119.301V116.591H259.077C256.31 116.591 254.927 117.401 254.927 119.021C254.927 119.729 255.163 120.282 255.635 120.681C256.107 121.079 256.713 121.279 257.454 121.279ZM271.943 121.401C272.749 121.401 273.453 121.157 274.055 120.668C274.657 120.18 274.991 119.57 275.056 118.837H277.192C277.152 119.594 276.891 120.314 276.411 120.998C275.931 121.682 275.288 122.227 274.482 122.634C273.685 123.041 272.839 123.244 271.943 123.244C270.145 123.244 268.713 122.646 267.646 121.45C266.589 120.245 266.06 118.601 266.06 116.518V116.14C266.06 114.854 266.296 113.71 266.768 112.709C267.24 111.708 267.915 110.931 268.794 110.378C269.681 109.825 270.727 109.548 271.931 109.548C273.412 109.548 274.641 109.991 275.618 110.878C276.602 111.765 277.127 112.917 277.192 114.333H275.056C274.991 113.479 274.666 112.779 274.08 112.233C273.502 111.68 272.786 111.403 271.931 111.403C270.784 111.403 269.893 111.818 269.258 112.648C268.631 113.47 268.318 114.663 268.318 116.225V116.652C268.318 118.174 268.631 119.346 269.258 120.168C269.884 120.99 270.78 121.401 271.943 121.401ZM285.029 121.401C285.835 121.401 286.539 121.157 287.141 120.668C287.743 120.18 288.077 119.57 288.142 118.837H290.278C290.238 119.594 289.977 120.314 289.497 120.998C289.017 121.682 288.374 122.227 287.568 122.634C286.771 123.041 285.924 123.244 285.029 123.244C283.231 123.244 281.799 122.646 280.732 121.45C279.674 120.245 279.146 118.601 279.146 116.518V116.14C279.146 114.854 279.382 113.71 279.854 112.709C280.326 111.708 281.001 110.931 281.88 110.378C282.767 109.825 283.813 109.548 285.017 109.548C286.498 109.548 287.727 109.991 288.704 110.878C289.688 111.765 290.213 112.917 290.278 114.333H288.142C288.077 113.479 287.751 112.779 287.166 112.233C286.588 111.68 285.872 111.403 285.017 111.403C283.87 111.403 282.979 111.818 282.344 112.648C281.717 113.47 281.404 114.663 281.404 116.225V116.652C281.404 118.174 281.717 119.346 282.344 120.168C282.97 120.99 283.866 121.401 285.029 121.401ZM292.219 116.274C292.219 114.98 292.472 113.816 292.976 112.783C293.489 111.749 294.197 110.952 295.1 110.39C296.012 109.829 297.049 109.548 298.213 109.548C300.011 109.548 301.464 110.17 302.571 111.416C303.686 112.661 304.243 114.317 304.243 116.384V116.542C304.243 117.828 303.995 118.984 303.499 120.009C303.01 121.027 302.306 121.82 301.387 122.39C300.475 122.959 299.425 123.244 298.237 123.244C296.447 123.244 294.994 122.622 293.879 121.376C292.773 120.131 292.219 118.483 292.219 116.433V116.274ZM294.49 116.542C294.49 118.007 294.827 119.183 295.503 120.07C296.187 120.957 297.098 121.401 298.237 121.401C299.385 121.401 300.296 120.953 300.972 120.058C301.647 119.155 301.985 117.893 301.985 116.274C301.985 114.825 301.639 113.653 300.947 112.758C300.264 111.855 299.352 111.403 298.213 111.403C297.098 111.403 296.199 111.847 295.515 112.734C294.832 113.621 294.49 114.89 294.49 116.542ZM315.229 121.694C314.351 122.727 313.061 123.244 311.36 123.244C309.952 123.244 308.878 122.837 308.137 122.023C307.405 121.201 307.035 119.989 307.026 118.386V109.792H309.285V118.325C309.285 120.327 310.098 121.328 311.726 121.328C313.451 121.328 314.599 120.685 315.168 119.399V109.792H317.427V123H315.278L315.229 121.694ZM323.005 109.792L323.079 111.452C324.088 110.183 325.406 109.548 327.034 109.548C329.825 109.548 331.233 111.123 331.257 114.272V123H328.999V114.26C328.991 113.308 328.771 112.604 328.34 112.148C327.917 111.692 327.253 111.464 326.35 111.464C325.618 111.464 324.975 111.66 324.421 112.05C323.868 112.441 323.437 112.954 323.127 113.588V123H320.869V109.792H323.005ZM337.727 106.594V109.792H340.193V111.538H337.727V119.729C337.727 120.257 337.837 120.656 338.057 120.925C338.276 121.185 338.651 121.315 339.18 121.315C339.44 121.315 339.798 121.267 340.254 121.169V123C339.66 123.163 339.082 123.244 338.521 123.244C337.511 123.244 336.75 122.939 336.238 122.329C335.725 121.718 335.469 120.852 335.469 119.729V111.538H333.064V109.792H335.469V106.594H337.727ZM350.532 119.497C350.532 118.886 350.3 118.414 349.836 118.081C349.381 117.739 348.579 117.446 347.432 117.202C346.292 116.958 345.385 116.665 344.709 116.323C344.042 115.981 343.546 115.574 343.22 115.102C342.903 114.63 342.744 114.069 342.744 113.417C342.744 112.335 343.2 111.42 344.111 110.671C345.031 109.922 346.203 109.548 347.627 109.548C349.124 109.548 350.337 109.934 351.265 110.708C352.201 111.481 352.668 112.469 352.668 113.674H350.398C350.398 113.055 350.133 112.522 349.604 112.075C349.084 111.627 348.424 111.403 347.627 111.403C346.805 111.403 346.162 111.582 345.698 111.94C345.234 112.299 345.002 112.766 345.002 113.344C345.002 113.889 345.218 114.3 345.649 114.577C346.081 114.854 346.858 115.118 347.981 115.371C349.112 115.623 350.028 115.924 350.728 116.274C351.427 116.624 351.944 117.047 352.278 117.543C352.62 118.032 352.791 118.63 352.791 119.338C352.791 120.518 352.319 121.466 351.375 122.182C350.431 122.89 349.206 123.244 347.7 123.244C346.642 123.244 345.706 123.057 344.893 122.683C344.079 122.308 343.44 121.787 342.976 121.12C342.52 120.445 342.292 119.716 342.292 118.935H344.551C344.591 119.692 344.893 120.294 345.454 120.742C346.024 121.181 346.772 121.401 347.7 121.401C348.555 121.401 349.238 121.23 349.751 120.888C350.272 120.538 350.532 120.074 350.532 119.497ZM174.617 135.594V138.792H177.083V140.538H174.617V148.729C174.617 149.257 174.727 149.656 174.946 149.925C175.166 150.185 175.54 150.315 176.069 150.315C176.33 150.315 176.688 150.267 177.144 150.169V152C176.549 152.163 175.972 152.244 175.41 152.244C174.401 152.244 173.64 151.939 173.127 151.329C172.615 150.718 172.358 149.852 172.358 148.729V140.538H169.954V138.792H172.358V135.594H174.617ZM178.889 145.274C178.889 143.98 179.141 142.816 179.646 141.783C180.159 140.749 180.867 139.952 181.77 139.39C182.681 138.829 183.719 138.548 184.883 138.548C186.681 138.548 188.134 139.17 189.241 140.416C190.356 141.661 190.913 143.317 190.913 145.384V145.542C190.913 146.828 190.665 147.984 190.168 149.009C189.68 150.027 188.976 150.82 188.057 151.39C187.145 151.959 186.095 152.244 184.907 152.244C183.117 152.244 181.664 151.622 180.549 150.376C179.443 149.131 178.889 147.483 178.889 145.433V145.274ZM181.16 145.542C181.16 147.007 181.497 148.183 182.173 149.07C182.856 149.957 183.768 150.401 184.907 150.401C186.055 150.401 186.966 149.953 187.642 149.058C188.317 148.155 188.655 146.893 188.655 145.274C188.655 143.825 188.309 142.653 187.617 141.758C186.934 140.855 186.022 140.403 184.883 140.403C183.768 140.403 182.869 140.847 182.185 141.734C181.501 142.621 181.16 143.89 181.16 145.542ZM196.809 135.594V138.792H199.275V140.538H196.809V148.729C196.809 149.257 196.919 149.656 197.139 149.925C197.358 150.185 197.733 150.315 198.262 150.315C198.522 150.315 198.88 150.267 199.336 150.169V152C198.742 152.163 198.164 152.244 197.603 152.244C196.593 152.244 195.833 151.939 195.32 151.329C194.807 150.718 194.551 149.852 194.551 148.729V140.538H192.146V138.792H194.551V135.594H196.809ZM210.078 152C209.948 151.74 209.842 151.276 209.761 150.608C208.711 151.699 207.458 152.244 206.001 152.244C204.699 152.244 203.629 151.878 202.791 151.146C201.96 150.405 201.545 149.469 201.545 148.338C201.545 146.963 202.066 145.896 203.108 145.14C204.158 144.375 205.631 143.992 207.527 143.992H209.724V142.955C209.724 142.165 209.488 141.539 209.016 141.075C208.544 140.603 207.848 140.367 206.929 140.367C206.123 140.367 205.448 140.57 204.902 140.977C204.357 141.384 204.084 141.876 204.084 142.454H201.814C201.814 141.795 202.046 141.16 202.51 140.55C202.982 139.931 203.617 139.443 204.414 139.085C205.22 138.727 206.103 138.548 207.063 138.548C208.585 138.548 209.777 138.93 210.64 139.695C211.502 140.452 211.95 141.498 211.982 142.833V148.912C211.982 150.124 212.137 151.089 212.446 151.805V152H210.078ZM206.331 150.279C207.039 150.279 207.71 150.096 208.345 149.729C208.979 149.363 209.439 148.887 209.724 148.301V145.591H207.954C205.187 145.591 203.804 146.401 203.804 148.021C203.804 148.729 204.04 149.282 204.512 149.681C204.984 150.079 205.59 150.279 206.331 150.279ZM217.976 152H215.718V133.25H217.976V152ZM231.123 153.843H219.941V152H231.123V153.843ZM241.035 152C240.905 151.74 240.799 151.276 240.718 150.608C239.668 151.699 238.415 152.244 236.958 152.244C235.656 152.244 234.586 151.878 233.748 151.146C232.917 150.405 232.502 149.469 232.502 148.338C232.502 146.963 233.023 145.896 234.065 145.14C235.115 144.375 236.588 143.992 238.484 143.992H240.681V142.955C240.681 142.165 240.445 141.539 239.973 141.075C239.501 140.603 238.805 140.367 237.886 140.367C237.08 140.367 236.405 140.57 235.859 140.977C235.314 141.384 235.042 141.876 235.042 142.454H232.771C232.771 141.795 233.003 141.16 233.467 140.55C233.939 139.931 234.574 139.443 235.371 139.085C236.177 138.727 237.06 138.548 238.02 138.548C239.542 138.548 240.734 138.93 241.597 139.695C242.459 140.452 242.907 141.498 242.939 142.833V148.912C242.939 150.124 243.094 151.089 243.403 151.805V152H241.035ZM237.288 150.279C237.996 150.279 238.667 150.096 239.302 149.729C239.937 149.363 240.396 148.887 240.681 148.301V145.591H238.911C236.144 145.591 234.761 146.401 234.761 148.021C234.761 148.729 234.997 149.282 235.469 149.681C235.941 150.079 236.547 150.279 237.288 150.279ZM248.604 138.792L248.665 140.257C249.633 139.118 250.939 138.548 252.583 138.548C254.43 138.548 255.688 139.256 256.355 140.672C256.794 140.037 257.364 139.524 258.064 139.134C258.772 138.743 259.606 138.548 260.566 138.548C263.464 138.548 264.937 140.082 264.985 143.15V152H262.727V143.284C262.727 142.34 262.511 141.636 262.08 141.172C261.649 140.7 260.924 140.464 259.907 140.464C259.069 140.464 258.373 140.717 257.82 141.221C257.266 141.718 256.945 142.389 256.855 143.235V152H254.585V143.345C254.585 141.425 253.645 140.464 251.765 140.464C250.284 140.464 249.271 141.095 248.726 142.356V152H246.467V138.792H248.604ZM267.805 145.274C267.805 143.98 268.057 142.816 268.562 141.783C269.075 140.749 269.783 139.952 270.686 139.39C271.597 138.829 272.635 138.548 273.799 138.548C275.597 138.548 277.05 139.17 278.157 140.416C279.272 141.661 279.829 143.317 279.829 145.384V145.542C279.829 146.828 279.581 147.984 279.084 149.009C278.596 150.027 277.892 150.82 276.973 151.39C276.061 151.959 275.011 152.244 273.823 152.244C272.033 152.244 270.58 151.622 269.465 150.376C268.359 149.131 267.805 147.483 267.805 145.433V145.274ZM270.076 145.542C270.076 147.007 270.413 148.183 271.089 149.07C271.772 149.957 272.684 150.401 273.823 150.401C274.971 150.401 275.882 149.953 276.558 149.058C277.233 148.155 277.571 146.893 277.571 145.274C277.571 143.825 277.225 142.653 276.533 141.758C275.85 140.855 274.938 140.403 273.799 140.403C272.684 140.403 271.785 140.847 271.101 141.734C270.417 142.621 270.076 143.89 270.076 145.542ZM290.815 150.694C289.937 151.727 288.647 152.244 286.946 152.244C285.538 152.244 284.464 151.837 283.723 151.023C282.991 150.201 282.62 148.989 282.612 147.386V138.792H284.871V147.325C284.871 149.327 285.684 150.328 287.312 150.328C289.037 150.328 290.185 149.685 290.754 148.399V138.792H293.013V152H290.864L290.815 150.694ZM298.591 138.792L298.665 140.452C299.674 139.183 300.992 138.548 302.62 138.548C305.411 138.548 306.819 140.123 306.843 143.272V152H304.585V143.26C304.577 142.308 304.357 141.604 303.926 141.148C303.503 140.692 302.839 140.464 301.936 140.464C301.204 140.464 300.561 140.66 300.007 141.05C299.454 141.441 299.023 141.954 298.713 142.588V152H296.455V138.792H298.591ZM313.313 135.594V138.792H315.779V140.538H313.313V148.729C313.313 149.257 313.423 149.656 313.643 149.925C313.862 150.185 314.237 150.315 314.766 150.315C315.026 150.315 315.384 150.267 315.84 150.169V152C315.246 152.163 314.668 152.244 314.106 152.244C313.097 152.244 312.336 151.939 311.824 151.329C311.311 150.718 311.055 149.852 311.055 148.729V140.538H308.65V138.792H311.055V135.594H313.313ZM332.625 144.065L324.556 140.904V138.584L334.98 143.199V144.981L324.556 149.607V147.264L332.625 144.065ZM355.305 152H343.66V150.376L349.812 143.541C350.723 142.507 351.35 141.669 351.692 141.026C352.042 140.375 352.217 139.703 352.217 139.012C352.217 138.084 351.936 137.323 351.375 136.729C350.813 136.135 350.064 135.838 349.128 135.838C348.005 135.838 347.131 136.159 346.504 136.802C345.885 137.437 345.576 138.324 345.576 139.463H343.318C343.318 137.828 343.843 136.505 344.893 135.496C345.951 134.487 347.362 133.982 349.128 133.982C350.78 133.982 352.087 134.418 353.047 135.289C354.007 136.151 354.487 137.303 354.487 138.743C354.487 140.493 353.372 142.576 351.143 144.993L346.382 150.157H355.305V152ZM357.856 155.54L356.575 154.661C357.34 153.595 357.738 152.496 357.771 151.365V149.327H359.98V151.097C359.98 151.919 359.777 152.741 359.37 153.562C358.971 154.384 358.467 155.044 357.856 155.54ZM370.027 152H367.756V136.949L363.203 138.621V136.57L369.673 134.141H370.027V152ZM386.177 146.031H388.643V147.874H386.177V152H383.906V147.874H375.813V146.543L383.772 134.227H386.177V146.031ZM378.376 146.031H383.906V137.315L383.638 137.803L378.376 146.031ZM402.156 135.496L394.795 152H392.427L399.763 136.082H390.144V134.227H402.156V135.496ZM404.878 155.54L403.596 154.661C404.361 153.595 404.76 152.496 404.792 151.365V149.327H407.002V151.097C407.002 151.919 406.799 152.741 406.392 153.562C405.993 154.384 405.488 155.044 404.878 155.54ZM419.16 146.031H421.626V147.874H419.16V152H416.89V147.874H408.796V146.543L416.755 134.227H419.16V146.031ZM411.36 146.031H416.89V137.315L416.621 137.803L411.36 146.031ZM434.443 138.865C434.443 139.752 434.207 140.542 433.735 141.233C433.271 141.925 432.641 142.466 431.843 142.857C432.771 143.256 433.503 143.838 434.041 144.603C434.586 145.368 434.858 146.234 434.858 147.203C434.858 148.741 434.338 149.965 433.296 150.877C432.262 151.788 430.899 152.244 429.207 152.244C427.498 152.244 426.126 151.788 425.093 150.877C424.067 149.957 423.555 148.733 423.555 147.203C423.555 146.242 423.815 145.376 424.336 144.603C424.865 143.829 425.593 143.243 426.521 142.845C425.732 142.454 425.109 141.913 424.653 141.221C424.198 140.529 423.97 139.744 423.97 138.865C423.97 137.368 424.45 136.18 425.41 135.301C426.37 134.422 427.636 133.982 429.207 133.982C430.769 133.982 432.03 134.422 432.991 135.301C433.959 136.18 434.443 137.368 434.443 138.865ZM432.6 147.154C432.6 146.161 432.283 145.351 431.648 144.725C431.021 144.098 430.199 143.785 429.182 143.785C428.165 143.785 427.347 144.094 426.729 144.712C426.118 145.331 425.813 146.145 425.813 147.154C425.813 148.163 426.11 148.956 426.704 149.534C427.306 150.112 428.14 150.401 429.207 150.401C430.264 150.401 431.095 150.112 431.697 149.534C432.299 148.948 432.6 148.155 432.6 147.154ZM429.207 135.838C428.319 135.838 427.599 136.115 427.046 136.668C426.501 137.213 426.228 137.958 426.228 138.902C426.228 139.805 426.497 140.538 427.034 141.099C427.579 141.653 428.303 141.929 429.207 141.929C430.11 141.929 430.83 141.653 431.367 141.099C431.912 140.538 432.185 139.805 432.185 138.902C432.185 137.999 431.904 137.262 431.343 136.692C430.781 136.123 430.069 135.838 429.207 135.838ZM440.986 142.015H442.683C443.749 141.998 444.587 141.718 445.198 141.172C445.808 140.627 446.113 139.891 446.113 138.963C446.113 136.88 445.076 135.838 443 135.838C442.024 135.838 441.243 136.119 440.657 136.68C440.079 137.234 439.79 137.97 439.79 138.89H437.532C437.532 137.482 438.044 136.314 439.07 135.386C440.103 134.45 441.414 133.982 443 133.982C444.677 133.982 445.991 134.426 446.943 135.313C447.896 136.2 448.372 137.433 448.372 139.012C448.372 139.785 448.119 140.534 447.615 141.258C447.118 141.982 446.439 142.523 445.576 142.881C446.553 143.191 447.306 143.703 447.834 144.419C448.372 145.136 448.64 146.01 448.64 147.044C448.64 148.639 448.119 149.904 447.078 150.84C446.036 151.776 444.681 152.244 443.013 152.244C441.344 152.244 439.985 151.792 438.936 150.889C437.894 149.986 437.373 148.794 437.373 147.312H439.644C439.644 148.248 439.949 148.997 440.559 149.559C441.169 150.12 441.987 150.401 443.013 150.401C444.103 150.401 444.937 150.116 445.515 149.546C446.093 148.977 446.382 148.159 446.382 147.093C446.382 146.059 446.064 145.266 445.43 144.712C444.795 144.159 443.879 143.874 442.683 143.858H440.986V142.015ZM451.899 155.54L450.618 154.661C451.383 153.595 451.781 152.496 451.814 151.365V149.327H454.023V151.097C454.023 151.919 453.82 152.741 453.413 153.562C453.014 154.384 452.51 155.044 451.899 155.54ZM465.51 134.214V136.131H465.095C463.337 136.163 461.938 136.684 460.896 137.693C459.854 138.702 459.252 140.123 459.089 141.954C460.025 140.879 461.303 140.342 462.922 140.342C464.469 140.342 465.701 140.888 466.621 141.978C467.549 143.069 468.013 144.476 468.013 146.202C468.013 148.033 467.512 149.498 466.511 150.596C465.518 151.695 464.184 152.244 462.507 152.244C460.806 152.244 459.427 151.593 458.369 150.291C457.311 148.981 456.782 147.296 456.782 145.237V144.371C456.782 141.099 457.478 138.601 458.87 136.875C460.269 135.142 462.349 134.255 465.107 134.214H465.51ZM462.544 142.222C461.771 142.222 461.059 142.454 460.408 142.918C459.757 143.382 459.305 143.964 459.053 144.664V145.494C459.053 146.958 459.382 148.139 460.042 149.034C460.701 149.929 461.523 150.376 462.507 150.376C463.525 150.376 464.322 150.002 464.9 149.253C465.486 148.505 465.779 147.524 465.779 146.312C465.779 145.091 465.482 144.106 464.888 143.357C464.302 142.601 463.521 142.222 462.544 142.222ZM480.22 146.031H482.686V147.874H480.22V152H477.949V147.874H469.856V146.543L477.815 134.227H480.22V146.031ZM472.419 146.031H477.949V137.315L477.681 137.803L472.419 146.031ZM496.199 135.496L488.838 152H486.47L493.806 136.082H484.187V134.227H496.199V135.496Z" fill="black"/>
<path d="M194.014 123V112.38H192.048V109.792H194.014V108.669C194.014 107.188 194.437 106.04 195.283 105.227C196.138 104.405 197.33 103.994 198.86 103.994C199.348 103.994 199.946 104.075 200.654 104.238L200.618 106.972C200.325 106.899 199.967 106.862 199.543 106.862C198.217 106.862 197.554 107.485 197.554 108.73V109.792H200.178V112.38H197.554V123H194.014ZM209.431 113.1C208.951 113.035 208.528 113.002 208.162 113.002C206.827 113.002 205.952 113.454 205.537 114.357V123H202.009V109.792H205.342L205.439 111.367C206.147 110.154 207.128 109.548 208.381 109.548C208.772 109.548 209.138 109.601 209.48 109.707L209.431 113.1ZM210.151 116.274C210.151 114.964 210.404 113.796 210.908 112.771C211.413 111.745 212.137 110.952 213.081 110.39C214.033 109.829 215.136 109.548 216.389 109.548C218.171 109.548 219.624 110.093 220.747 111.184C221.878 112.274 222.509 113.755 222.639 115.627L222.664 116.53C222.664 118.557 222.098 120.184 220.967 121.413C219.836 122.634 218.318 123.244 216.414 123.244C214.509 123.244 212.987 122.634 211.848 121.413C210.717 120.192 210.151 118.532 210.151 116.433V116.274ZM213.679 116.53C213.679 117.784 213.915 118.744 214.387 119.411C214.859 120.07 215.535 120.4 216.414 120.4C217.268 120.4 217.935 120.074 218.416 119.423C218.896 118.764 219.136 117.714 219.136 116.274C219.136 115.045 218.896 114.093 218.416 113.417C217.935 112.742 217.26 112.404 216.389 112.404C215.527 112.404 214.859 112.742 214.387 113.417C213.915 114.085 213.679 115.122 213.679 116.53ZM228.145 109.792L228.254 111.269C229.19 110.122 230.456 109.548 232.051 109.548C233.752 109.548 234.919 110.219 235.554 111.562C236.482 110.219 237.804 109.548 239.521 109.548C240.954 109.548 242.02 109.967 242.72 110.805C243.42 111.635 243.77 112.889 243.77 114.565V123H240.229V114.577C240.229 113.828 240.083 113.283 239.79 112.941C239.497 112.591 238.98 112.417 238.24 112.417C237.182 112.417 236.449 112.921 236.042 113.93L236.055 123H232.527V114.589C232.527 113.824 232.376 113.271 232.075 112.929C231.774 112.587 231.261 112.417 230.537 112.417C229.536 112.417 228.812 112.832 228.364 113.662V123H224.836V109.792H228.145Z" fill="#004DFF"/>
<defs>
<filter id="filter0_bd" x="-85" y="-95" width="889" height="411" filterUnits="userSpaceOnUse" color-interpolation-filters="sRGB">
<feFlood flood-opacity="0" result="BackgroundImageFix"/>
<feGaussianBlur in="BackgroundImage" stdDeviation="50"/>
<feComposite in2="SourceAlpha" operator="in" result="effect1_backgroundBlur"/>
<feColorMatrix in="SourceAlpha" type="matrix" values="0 0 0 0 0 0 0 0 0 0 0 0 0 0 0 0 0 0 127 0"/>
<feMorphology radius="5" operator="dilate" in="SourceAlpha" result="effect2_dropShadow"/>
<feOffset dy="10"/>
<feGaussianBlur stdDeviation="5"/>
<feColorMatrix type="matrix" values="0 0 0 0 0.06375 0 0 0 0 0.144217 0 0 0 0 0.566667 0 0 0 0.1 0"/>
<feBlend mode="normal" in2="effect1_backgroundBlur" result="effect2_dropShadow"/>
<feBlend mode="normal" in="SourceGraphic" in2="effect2_dropShadow" result="shape"/>
</filter>
<filter id="filter1_bd" x="-84" y="162" width="889" height="422" filterUnits="userSpaceOnUse" color-interpolation-filters="sRGB">
<feFlood flood-opacity="0" result="BackgroundImageFix"/>
<feGaussianBlur in="BackgroundImage" stdDeviation="50"/>
<feComposite in2="SourceAlpha" operator="in" result="effect1_backgroundBlur"/>
<feColorMatrix in="SourceAlpha" type="matrix" values="0 0 0 0 0 0 0 0 0 0 0 0 0 0 0 0 0 0 127 0"/>
<feMorphology radius="5" operator="dilate" in="SourceAlpha" result="effect2_dropShadow"/>
<feOffset dy="10"/>
<feGaussianBlur stdDeviation="5"/>
<feColorMatrix type="matrix" values="0 0 0 0 0.06375 0 0 0 0 0.144217 0 0 0 0 0.566667 0 0 0 0.1 0"/>
<feBlend mode="normal" in2="effect1_backgroundBlur" result="effect2_dropShadow"/>
<feBlend mode="normal" in="SourceGraphic" in2="effect2_dropShadow" result="shape"/>
</filter>
</defs>
</svg>
