<svg width="720" height="509" viewBox="0 0 720 509" fill="none" xmlns="http://www.w3.org/2000/svg">
<rect x="340" y="176" width="29" height="105" fill="white"/>
<g filter="url(#filter0_bd)">
<rect x="15" y="5" width="689" height="211" rx="20" fill="white" fill-opacity="0.9"/>
</g>
<g filter="url(#filter1_bd)">
<rect x="16" y="262" width="689" height="222" rx="20" fill="white" fill-opacity="0.9"/>
</g>
<path d="M62.438 300.68H56.5664L55.541 304H50.9634L57.4819 286.227H61.5103L68.0776 304H63.4756L62.438 300.68ZM57.5918 297.372H61.4126L59.4961 291.207L57.5918 297.372ZM74.7793 301.07C75.3571 301.07 75.8047 300.916 76.1221 300.606C76.4395 300.289 76.5941 299.85 76.5859 299.288H80.4434C80.4434 300.737 79.9225 301.925 78.8809 302.853C77.8473 303.78 76.5127 304.244 74.877 304.244C72.9564 304.244 71.4427 303.642 70.3359 302.438C69.2292 301.233 68.6758 299.565 68.6758 297.433V297.262C68.6758 295.927 68.9199 294.751 69.4082 293.734C69.9046 292.708 70.6167 291.923 71.5444 291.378C72.4722 290.825 73.5708 290.548 74.8403 290.548C76.5575 290.548 77.9206 291.024 78.9297 291.976C79.9388 292.928 80.4434 294.218 80.4434 295.846H76.5859C76.5859 295.162 76.4191 294.637 76.0854 294.271C75.7518 293.905 75.3042 293.722 74.7427 293.722C73.6766 293.722 73.054 294.401 72.875 295.76C72.818 296.192 72.7896 296.786 72.7896 297.542C72.7896 298.869 72.9482 299.789 73.2656 300.301C73.583 300.814 74.0876 301.07 74.7793 301.07ZM86.9741 287.508V290.792H89.147V293.648H86.9741V299.691C86.9741 300.187 87.0636 300.533 87.2427 300.729C87.4217 300.924 87.7757 301.021 88.3047 301.021C88.7116 301.021 89.0534 300.997 89.3301 300.948V303.89C88.5895 304.126 87.8164 304.244 87.0107 304.244C85.5947 304.244 84.549 303.91 83.8735 303.243C83.1981 302.576 82.8604 301.563 82.8604 300.204V293.648H81.1758V290.792H82.8604V287.508H86.9741ZM95.1162 304H90.9902V290.792H95.1162V304ZM90.7461 287.386C90.7461 286.8 90.9577 286.32 91.3809 285.946C91.804 285.571 92.3534 285.384 93.0288 285.384C93.7043 285.384 94.2536 285.571 94.6768 285.946C95.0999 286.32 95.3115 286.8 95.3115 287.386C95.3115 287.972 95.0999 288.452 94.6768 288.827C94.2536 289.201 93.7043 289.388 93.0288 289.388C92.3534 289.388 91.804 289.201 91.3809 288.827C90.9577 288.452 90.7461 287.972 90.7461 287.386ZM97.1426 297.274C97.1426 295.956 97.3989 294.784 97.9116 293.758C98.4243 292.725 99.1608 291.931 100.121 291.378C101.081 290.825 102.208 290.548 103.502 290.548C105.48 290.548 107.038 291.162 108.178 292.391C109.317 293.612 109.887 295.276 109.887 297.384V297.53C109.887 299.589 109.313 301.225 108.166 302.438C107.026 303.642 105.48 304.244 103.527 304.244C101.647 304.244 100.137 303.683 98.998 302.56C97.8587 301.428 97.2443 299.898 97.1548 297.97L97.1426 297.274ZM101.256 297.53C101.256 298.751 101.448 299.646 101.83 300.216C102.213 300.785 102.778 301.07 103.527 301.07C104.992 301.07 105.74 299.943 105.773 297.689V297.274C105.773 294.906 105.016 293.722 103.502 293.722C102.127 293.722 101.382 294.743 101.269 296.786L101.256 297.53ZM115.478 290.792L115.612 292.342C116.523 291.146 117.781 290.548 119.384 290.548C120.759 290.548 121.785 290.959 122.46 291.781C123.144 292.603 123.498 293.84 123.522 295.492V304H119.396V295.663C119.396 294.995 119.262 294.507 118.993 294.198C118.725 293.88 118.236 293.722 117.528 293.722C116.723 293.722 116.125 294.039 115.734 294.674V304H111.62V290.792H115.478Z" fill="black"/>
<rect x="16" y="77" width="688" height="2" fill="#E5E5E5"/>
<rect x="55" y="79" width="3" height="137" fill="#E5E5E5"/>
<path d="M36.8608 123H34.5903V107.949L30.0371 109.621V107.57L36.5068 105.141H36.8608V123ZM41.0845 152H29.439V150.376L35.5913 143.541C36.5028 142.507 37.1294 141.669 37.4712 141.026C37.8211 140.375 37.9961 139.703 37.9961 139.012C37.9961 138.084 37.7153 137.323 37.1538 136.729C36.5923 136.135 35.8436 135.838 34.9077 135.838C33.7847 135.838 32.9098 136.159 32.2832 136.802C31.6647 137.437 31.3555 138.324 31.3555 139.463H29.0972C29.0972 137.828 29.6221 136.505 30.6719 135.496C31.7298 134.487 33.1418 133.982 34.9077 133.982C36.5597 133.982 37.8659 134.418 38.8262 135.289C39.7865 136.151 40.2666 137.303 40.2666 138.743C40.2666 140.493 39.1517 142.576 36.9219 144.993L32.1611 150.157H41.0845V152ZM32.7227 171.015H34.4194C35.4855 170.998 36.3237 170.718 36.9341 170.172C37.5444 169.627 37.8496 168.891 37.8496 167.963C37.8496 165.88 36.812 164.838 34.7368 164.838C33.7603 164.838 32.979 165.119 32.3931 165.68C31.8153 166.234 31.5264 166.97 31.5264 167.89H29.2681C29.2681 166.482 29.7808 165.314 30.8062 164.386C31.8397 163.45 33.1499 162.982 34.7368 162.982C36.4132 162.982 37.7275 163.426 38.6797 164.313C39.6318 165.2 40.1079 166.433 40.1079 168.012C40.1079 168.785 39.8556 169.534 39.3511 170.258C38.8547 170.982 38.1751 171.523 37.3125 171.881C38.2891 172.191 39.0418 172.703 39.5708 173.419C40.1079 174.136 40.3765 175.01 40.3765 176.044C40.3765 177.639 39.8556 178.904 38.814 179.84C37.7723 180.776 36.4173 181.244 34.749 181.244C33.0807 181.244 31.7217 180.792 30.6719 179.889C29.6302 178.986 29.1094 177.794 29.1094 176.312H31.3799C31.3799 177.248 31.6851 177.997 32.2954 178.559C32.9058 179.12 33.7236 179.401 34.749 179.401C35.8395 179.401 36.6737 179.116 37.2515 178.546C37.8293 177.977 38.1182 177.159 38.1182 176.093C38.1182 175.059 37.8008 174.266 37.166 173.712C36.5312 173.159 35.6157 172.874 34.4194 172.858H32.7227V171.015Z" fill="#C4C4C4"/>
<path d="M91.3433 345.155H85.6304V361H83.2988V345.155H77.5981V343.227H91.3433V345.155ZM104.612 357.887L107.151 347.792H109.41L105.564 361H103.733L100.523 350.99L97.3979 361H95.5669L91.7339 347.792H93.98L96.5801 357.68L99.6562 347.792H101.475L104.612 357.887ZM114.17 361H111.912V347.792H114.17V361ZM111.729 344.289C111.729 343.922 111.839 343.613 112.059 343.361C112.286 343.109 112.62 342.982 113.06 342.982C113.499 342.982 113.833 343.109 114.061 343.361C114.288 343.613 114.402 343.922 114.402 344.289C114.402 344.655 114.288 344.96 114.061 345.204C113.833 345.448 113.499 345.57 113.06 345.57C112.62 345.57 112.286 345.448 112.059 345.204C111.839 344.96 111.729 344.655 111.729 344.289ZM120.25 361H117.991V342.25H120.25V361ZM126.329 361H124.07V347.792H126.329V361ZM123.887 344.289C123.887 343.922 123.997 343.613 124.217 343.361C124.445 343.109 124.778 342.982 125.218 342.982C125.657 342.982 125.991 343.109 126.219 343.361C126.447 343.613 126.561 343.922 126.561 344.289C126.561 344.655 126.447 344.96 126.219 345.204C125.991 345.448 125.657 345.57 125.218 345.57C124.778 345.57 124.445 345.448 124.217 345.204C123.997 344.96 123.887 344.655 123.887 344.289ZM129.356 354.274C129.356 352.98 129.608 351.816 130.113 350.783C130.625 349.749 131.333 348.952 132.237 348.39C133.148 347.829 134.186 347.548 135.35 347.548C137.148 347.548 138.601 348.17 139.708 349.416C140.822 350.661 141.38 352.317 141.38 354.384V354.542C141.38 355.828 141.132 356.984 140.635 358.009C140.147 359.027 139.443 359.82 138.523 360.39C137.612 360.959 136.562 361.244 135.374 361.244C133.584 361.244 132.131 360.622 131.016 359.376C129.909 358.131 129.356 356.483 129.356 354.433V354.274ZM131.626 354.542C131.626 356.007 131.964 357.183 132.64 358.07C133.323 358.957 134.235 359.401 135.374 359.401C136.521 359.401 137.433 358.953 138.108 358.058C138.784 357.155 139.122 355.893 139.122 354.274C139.122 352.825 138.776 351.653 138.084 350.758C137.4 349.855 136.489 349.403 135.35 349.403C134.235 349.403 133.335 349.847 132.652 350.734C131.968 351.621 131.626 352.89 131.626 354.542ZM153.282 361H150.938V343.227H153.282V361ZM159.361 347.792L159.434 349.452C160.443 348.183 161.762 347.548 163.389 347.548C166.181 347.548 167.588 349.123 167.613 352.272V361H165.354V352.26C165.346 351.308 165.127 350.604 164.695 350.148C164.272 349.692 163.609 349.464 162.706 349.464C161.973 349.464 161.33 349.66 160.777 350.05C160.223 350.441 159.792 350.954 159.483 351.588V361H157.225V347.792H159.361ZM174.083 344.594V347.792H176.548V349.538H174.083V357.729C174.083 358.257 174.192 358.656 174.412 358.925C174.632 359.185 175.006 359.315 175.535 359.315C175.796 359.315 176.154 359.267 176.609 359.169V361C176.015 361.163 175.438 361.244 174.876 361.244C173.867 361.244 173.106 360.939 172.593 360.329C172.081 359.718 171.824 358.852 171.824 357.729V349.538H169.419V347.792H171.824V344.594H174.083ZM184.678 361.244C182.888 361.244 181.431 360.658 180.308 359.486C179.185 358.306 178.624 356.732 178.624 354.762V354.347C178.624 353.037 178.872 351.869 179.368 350.844C179.873 349.81 180.573 349.005 181.468 348.427C182.371 347.841 183.348 347.548 184.397 347.548C186.115 347.548 187.449 348.113 188.401 349.245C189.354 350.376 189.83 351.995 189.83 354.103V355.043H180.882C180.914 356.345 181.293 357.399 182.017 358.205C182.75 359.002 183.677 359.401 184.8 359.401C185.598 359.401 186.273 359.238 186.827 358.913C187.38 358.587 187.864 358.156 188.279 357.619L189.659 358.693C188.552 360.394 186.892 361.244 184.678 361.244ZM184.397 349.403C183.486 349.403 182.721 349.737 182.103 350.404C181.484 351.063 181.102 351.991 180.955 353.188H187.571V353.017C187.506 351.869 187.197 350.982 186.644 350.355C186.09 349.721 185.341 349.403 184.397 349.403ZM191.917 354.286C191.917 352.227 192.393 350.591 193.345 349.379C194.297 348.158 195.559 347.548 197.129 347.548C198.741 347.548 199.998 348.118 200.901 349.257L201.011 347.792H203.074V360.683C203.074 362.392 202.566 363.738 201.548 364.723C200.539 365.708 199.18 366.2 197.471 366.2C196.519 366.2 195.587 365.997 194.676 365.59C193.764 365.183 193.069 364.625 192.588 363.917L193.76 362.562C194.729 363.759 195.913 364.357 197.312 364.357C198.411 364.357 199.266 364.048 199.876 363.429C200.494 362.811 200.804 361.94 200.804 360.817V359.682C199.9 360.723 198.667 361.244 197.105 361.244C195.559 361.244 194.306 360.622 193.345 359.376C192.393 358.131 191.917 356.435 191.917 354.286ZM194.188 354.542C194.188 356.032 194.493 357.204 195.103 358.058C195.713 358.904 196.568 359.328 197.667 359.328C199.091 359.328 200.136 358.681 200.804 357.387V351.356C200.112 350.095 199.074 349.464 197.691 349.464C196.592 349.464 195.734 349.892 195.115 350.746C194.497 351.601 194.188 352.866 194.188 354.542ZM212.876 349.818C212.535 349.761 212.164 349.733 211.766 349.733C210.285 349.733 209.279 350.364 208.75 351.625V361H206.492V347.792H208.689L208.726 349.318C209.467 348.138 210.516 347.548 211.875 347.548C212.315 347.548 212.649 347.605 212.876 347.719V349.818ZM222.63 361C222.5 360.74 222.394 360.276 222.312 359.608C221.263 360.699 220.009 361.244 218.553 361.244C217.251 361.244 216.181 360.878 215.342 360.146C214.512 359.405 214.097 358.469 214.097 357.338C214.097 355.963 214.618 354.896 215.66 354.14C216.709 353.375 218.182 352.992 220.079 352.992H222.276V351.955C222.276 351.165 222.04 350.539 221.568 350.075C221.096 349.603 220.4 349.367 219.48 349.367C218.675 349.367 217.999 349.57 217.454 349.977C216.909 350.384 216.636 350.876 216.636 351.454H214.366C214.366 350.795 214.598 350.16 215.062 349.55C215.534 348.931 216.168 348.443 216.966 348.085C217.771 347.727 218.654 347.548 219.615 347.548C221.137 347.548 222.329 347.93 223.191 348.695C224.054 349.452 224.502 350.498 224.534 351.833V357.912C224.534 359.124 224.689 360.089 224.998 360.805V361H222.63ZM218.882 359.279C219.59 359.279 220.262 359.096 220.896 358.729C221.531 358.363 221.991 357.887 222.276 357.301V354.591H220.506C217.739 354.591 216.355 355.401 216.355 357.021C216.355 357.729 216.591 358.282 217.063 358.681C217.535 359.079 218.142 359.279 218.882 359.279ZM231.138 344.594V347.792H233.604V349.538H231.138V357.729C231.138 358.257 231.248 358.656 231.468 358.925C231.688 359.185 232.062 359.315 232.591 359.315C232.851 359.315 233.209 359.267 233.665 359.169V361C233.071 361.163 232.493 361.244 231.932 361.244C230.923 361.244 230.162 360.939 229.649 360.329C229.136 359.718 228.88 358.852 228.88 357.729V349.538H226.475V347.792H228.88V344.594H231.138ZM238.707 361H236.448V347.792H238.707V361ZM236.265 344.289C236.265 343.922 236.375 343.613 236.595 343.361C236.823 343.109 237.156 342.982 237.596 342.982C238.035 342.982 238.369 343.109 238.597 343.361C238.825 343.613 238.938 343.922 238.938 344.289C238.938 344.655 238.825 344.96 238.597 345.204C238.369 345.448 238.035 345.57 237.596 345.57C237.156 345.57 236.823 345.448 236.595 345.204C236.375 344.96 236.265 344.655 236.265 344.289ZM241.734 354.274C241.734 352.98 241.986 351.816 242.491 350.783C243.003 349.749 243.711 348.952 244.615 348.39C245.526 347.829 246.564 347.548 247.728 347.548C249.526 347.548 250.979 348.17 252.085 349.416C253.2 350.661 253.758 352.317 253.758 354.384V354.542C253.758 355.828 253.51 356.984 253.013 358.009C252.525 359.027 251.821 359.82 250.901 360.39C249.99 360.959 248.94 361.244 247.752 361.244C245.962 361.244 244.509 360.622 243.394 359.376C242.287 358.131 241.734 356.483 241.734 354.433V354.274ZM244.004 354.542C244.004 356.007 244.342 357.183 245.018 358.07C245.701 358.957 246.613 359.401 247.752 359.401C248.899 359.401 249.811 358.953 250.486 358.058C251.162 357.155 251.5 355.893 251.5 354.274C251.5 352.825 251.154 351.653 250.462 350.758C249.778 349.855 248.867 349.403 247.728 349.403C246.613 349.403 245.713 349.847 245.03 350.734C244.346 351.621 244.004 352.89 244.004 354.542ZM258.726 347.792L258.799 349.452C259.808 348.183 261.127 347.548 262.754 347.548C265.546 347.548 266.954 349.123 266.978 352.272V361H264.72V352.26C264.712 351.308 264.492 350.604 264.061 350.148C263.637 349.692 262.974 349.464 262.071 349.464C261.338 349.464 260.695 349.66 260.142 350.05C259.589 350.441 259.157 350.954 258.848 351.588V361H256.59V347.792H258.726Z" fill="#565656"/>
<path d="M88.8774 426.361H81.4312L79.7588 431H77.3418L84.1289 413.227H86.1797L92.979 431H90.5742L88.8774 426.361ZM82.1392 424.433H88.1816L85.1543 416.12L82.1392 424.433ZM94.4683 424.286C94.4683 422.26 94.9484 420.632 95.9087 419.403C96.869 418.166 98.1263 417.548 99.6807 417.548C101.227 417.548 102.452 418.077 103.355 419.135V412.25H105.613V431H103.538L103.428 429.584C102.525 430.691 101.268 431.244 99.6562 431.244C98.1263 431.244 96.8771 430.618 95.9087 429.364C94.9484 428.111 94.4683 426.475 94.4683 424.457V424.286ZM96.7266 424.542C96.7266 426.04 97.0358 427.212 97.6543 428.058C98.2728 428.904 99.1273 429.328 100.218 429.328C101.65 429.328 102.696 428.685 103.355 427.399V421.332C102.68 420.087 101.642 419.464 100.242 419.464C99.1354 419.464 98.2728 419.892 97.6543 420.746C97.0358 421.601 96.7266 422.866 96.7266 424.542ZM108.58 424.286C108.58 422.26 109.06 420.632 110.02 419.403C110.98 418.166 112.238 417.548 113.792 417.548C115.338 417.548 116.563 418.077 117.466 419.135V412.25H119.725V431H117.649L117.54 429.584C116.636 430.691 115.379 431.244 113.768 431.244C112.238 431.244 110.988 430.618 110.02 429.364C109.06 428.111 108.58 426.475 108.58 424.457V424.286ZM110.838 424.542C110.838 426.04 111.147 427.212 111.766 428.058C112.384 428.904 113.239 429.328 114.329 429.328C115.761 429.328 116.807 428.685 117.466 427.399V421.332C116.791 420.087 115.753 419.464 114.354 419.464C113.247 419.464 112.384 419.892 111.766 420.746C111.147 421.601 110.838 422.866 110.838 424.542ZM137.596 429.694C136.717 430.727 135.427 431.244 133.726 431.244C132.318 431.244 131.244 430.837 130.503 430.023C129.771 429.201 129.401 427.989 129.393 426.386V417.792H131.651V426.325C131.651 428.327 132.465 429.328 134.092 429.328C135.818 429.328 136.965 428.685 137.535 427.399V417.792H139.793V431H137.645L137.596 429.694ZM150.926 427.497C150.926 426.886 150.694 426.414 150.23 426.081C149.774 425.739 148.973 425.446 147.825 425.202C146.686 424.958 145.778 424.665 145.103 424.323C144.436 423.981 143.939 423.574 143.614 423.102C143.296 422.63 143.138 422.069 143.138 421.417C143.138 420.335 143.593 419.42 144.505 418.671C145.424 417.922 146.596 417.548 148.021 417.548C149.518 417.548 150.73 417.934 151.658 418.708C152.594 419.481 153.062 420.469 153.062 421.674H150.792C150.792 421.055 150.527 420.522 149.998 420.075C149.477 419.627 148.818 419.403 148.021 419.403C147.199 419.403 146.556 419.582 146.092 419.94C145.628 420.299 145.396 420.766 145.396 421.344C145.396 421.889 145.612 422.3 146.043 422.577C146.474 422.854 147.251 423.118 148.375 423.371C149.506 423.623 150.421 423.924 151.121 424.274C151.821 424.624 152.338 425.047 152.671 425.543C153.013 426.032 153.184 426.63 153.184 427.338C153.184 428.518 152.712 429.466 151.768 430.182C150.824 430.89 149.599 431.244 148.094 431.244C147.036 431.244 146.1 431.057 145.286 430.683C144.472 430.308 143.833 429.787 143.37 429.12C142.914 428.445 142.686 427.716 142.686 426.935H144.944C144.985 427.692 145.286 428.294 145.848 428.742C146.417 429.181 147.166 429.401 148.094 429.401C148.948 429.401 149.632 429.23 150.145 428.888C150.665 428.538 150.926 428.074 150.926 427.497ZM161.607 431.244C159.817 431.244 158.36 430.658 157.237 429.486C156.114 428.306 155.552 426.732 155.552 424.762V424.347C155.552 423.037 155.8 421.869 156.297 420.844C156.801 419.81 157.501 419.005 158.396 418.427C159.3 417.841 160.276 417.548 161.326 417.548C163.043 417.548 164.378 418.113 165.33 419.245C166.282 420.376 166.758 421.995 166.758 424.103V425.043H157.811C157.843 426.345 158.222 427.399 158.946 428.205C159.678 429.002 160.606 429.401 161.729 429.401C162.527 429.401 163.202 429.238 163.755 428.913C164.309 428.587 164.793 428.156 165.208 427.619L166.587 428.693C165.481 430.394 163.82 431.244 161.607 431.244ZM161.326 419.403C160.415 419.403 159.65 419.737 159.031 420.404C158.413 421.063 158.03 421.991 157.884 423.188H164.5V423.017C164.435 421.869 164.126 420.982 163.572 420.355C163.019 419.721 162.27 419.403 161.326 419.403ZM175.767 419.818C175.425 419.761 175.055 419.733 174.656 419.733C173.175 419.733 172.17 420.364 171.641 421.625V431H169.383V417.792H171.58L171.617 419.318C172.357 418.138 173.407 417.548 174.766 417.548C175.206 417.548 175.539 417.605 175.767 417.719V419.818ZM187.12 414.594V417.792H189.585V419.538H187.12V427.729C187.12 428.257 187.229 428.656 187.449 428.925C187.669 429.185 188.043 429.315 188.572 429.315C188.833 429.315 189.191 429.267 189.646 429.169V431C189.052 431.163 188.475 431.244 187.913 431.244C186.904 431.244 186.143 430.939 185.63 430.329C185.118 429.718 184.861 428.852 184.861 427.729V419.538H182.457V417.792H184.861V414.594H187.12ZM191.392 424.274C191.392 422.98 191.644 421.816 192.149 420.783C192.662 419.749 193.37 418.952 194.273 418.39C195.184 417.829 196.222 417.548 197.386 417.548C199.184 417.548 200.637 418.17 201.744 419.416C202.859 420.661 203.416 422.317 203.416 424.384V424.542C203.416 425.828 203.168 426.984 202.671 428.009C202.183 429.027 201.479 429.82 200.56 430.39C199.648 430.959 198.598 431.244 197.41 431.244C195.62 431.244 194.167 430.622 193.052 429.376C191.945 428.131 191.392 426.483 191.392 424.433V424.274ZM193.663 424.542C193.663 426.007 194 427.183 194.676 428.07C195.359 428.957 196.271 429.401 197.41 429.401C198.558 429.401 199.469 428.953 200.145 428.058C200.82 427.155 201.158 425.893 201.158 424.274C201.158 422.825 200.812 421.653 200.12 420.758C199.437 419.855 198.525 419.403 197.386 419.403C196.271 419.403 195.372 419.847 194.688 420.734C194.004 421.621 193.663 422.89 193.663 424.542ZM216.807 427.936L220.079 417.792H222.386L217.649 431H215.928L211.143 417.792H213.45L216.807 427.936ZM232.518 431C232.387 430.74 232.282 430.276 232.2 429.608C231.15 430.699 229.897 431.244 228.44 431.244C227.138 431.244 226.068 430.878 225.23 430.146C224.4 429.405 223.985 428.469 223.985 427.338C223.985 425.963 224.506 424.896 225.547 424.14C226.597 423.375 228.07 422.992 229.966 422.992H232.164V421.955C232.164 421.165 231.928 420.539 231.456 420.075C230.984 419.603 230.288 419.367 229.368 419.367C228.562 419.367 227.887 419.57 227.342 419.977C226.797 420.384 226.524 420.876 226.524 421.454H224.253C224.253 420.795 224.485 420.16 224.949 419.55C225.421 418.931 226.056 418.443 226.854 418.085C227.659 417.727 228.542 417.548 229.502 417.548C231.024 417.548 232.216 417.93 233.079 418.695C233.942 419.452 234.389 420.498 234.422 421.833V427.912C234.422 429.124 234.576 430.089 234.886 430.805V431H232.518ZM228.77 429.279C229.478 429.279 230.149 429.096 230.784 428.729C231.419 428.363 231.879 427.887 232.164 427.301V424.591H230.394C227.627 424.591 226.243 425.401 226.243 427.021C226.243 427.729 226.479 428.282 226.951 428.681C227.423 429.079 228.029 429.279 228.77 429.279ZM243.26 429.401C244.065 429.401 244.769 429.157 245.372 428.668C245.974 428.18 246.307 427.57 246.373 426.837H248.509C248.468 427.594 248.208 428.314 247.728 428.998C247.247 429.682 246.604 430.227 245.799 430.634C245.001 431.041 244.155 431.244 243.26 431.244C241.461 431.244 240.029 430.646 238.963 429.45C237.905 428.245 237.376 426.601 237.376 424.518V424.14C237.376 422.854 237.612 421.71 238.084 420.709C238.556 419.708 239.231 418.931 240.11 418.378C240.997 417.825 242.043 417.548 243.248 417.548C244.729 417.548 245.958 417.991 246.934 418.878C247.919 419.765 248.444 420.917 248.509 422.333H246.373C246.307 421.479 245.982 420.779 245.396 420.233C244.818 419.68 244.102 419.403 243.248 419.403C242.1 419.403 241.209 419.818 240.574 420.648C239.948 421.47 239.634 422.663 239.634 424.225V424.652C239.634 426.174 239.948 427.346 240.574 428.168C241.201 428.99 242.096 429.401 243.26 429.401ZM256.346 429.401C257.151 429.401 257.855 429.157 258.458 428.668C259.06 428.18 259.393 427.57 259.458 426.837H261.595C261.554 427.594 261.294 428.314 260.813 428.998C260.333 429.682 259.69 430.227 258.885 430.634C258.087 431.041 257.241 431.244 256.346 431.244C254.547 431.244 253.115 430.646 252.049 429.45C250.991 428.245 250.462 426.601 250.462 424.518V424.14C250.462 422.854 250.698 421.71 251.17 420.709C251.642 419.708 252.317 418.931 253.196 418.378C254.083 417.825 255.129 417.548 256.333 417.548C257.815 417.548 259.043 417.991 260.02 418.878C261.005 419.765 261.53 420.917 261.595 422.333H259.458C259.393 421.479 259.068 420.779 258.482 420.233C257.904 419.68 257.188 419.403 256.333 419.403C255.186 419.403 254.295 419.818 253.66 420.648C253.034 421.47 252.72 422.663 252.72 424.225V424.652C252.72 426.174 253.034 427.346 253.66 428.168C254.287 428.99 255.182 429.401 256.346 429.401ZM266.587 431H264.329V417.792H266.587V431ZM264.146 414.289C264.146 413.922 264.256 413.613 264.476 413.361C264.703 413.109 265.037 412.982 265.477 412.982C265.916 412.982 266.25 413.109 266.478 413.361C266.705 413.613 266.819 413.922 266.819 414.289C266.819 414.655 266.705 414.96 266.478 415.204C266.25 415.448 265.916 415.57 265.477 415.57C265.037 415.57 264.703 415.448 264.476 415.204C264.256 414.96 264.146 414.655 264.146 414.289ZM272.349 417.792L272.422 419.452C273.431 418.183 274.75 417.548 276.377 417.548C279.169 417.548 280.577 419.123 280.601 422.272V431H278.343V422.26C278.335 421.308 278.115 420.604 277.684 420.148C277.26 419.692 276.597 419.464 275.694 419.464C274.961 419.464 274.319 419.66 273.765 420.05C273.212 420.441 272.78 420.954 272.471 421.588V431H270.213V417.792H272.349ZM289.488 431.244C287.697 431.244 286.241 430.658 285.118 429.486C283.995 428.306 283.433 426.732 283.433 424.762V424.347C283.433 423.037 283.681 421.869 284.178 420.844C284.682 419.81 285.382 419.005 286.277 418.427C287.181 417.841 288.157 417.548 289.207 417.548C290.924 417.548 292.259 418.113 293.211 419.245C294.163 420.376 294.639 421.995 294.639 424.103V425.043H285.691C285.724 426.345 286.102 427.399 286.827 428.205C287.559 429.002 288.487 429.401 289.61 429.401C290.407 429.401 291.083 429.238 291.636 428.913C292.19 428.587 292.674 428.156 293.089 427.619L294.468 428.693C293.361 430.394 291.701 431.244 289.488 431.244ZM289.207 419.403C288.296 419.403 287.531 419.737 286.912 420.404C286.294 421.063 285.911 421.991 285.765 423.188H292.381V423.017C292.316 421.869 292.007 420.982 291.453 420.355C290.9 419.721 290.151 419.403 289.207 419.403ZM302.867 424.274C302.867 422.98 303.119 421.816 303.624 420.783C304.136 419.749 304.844 418.952 305.748 418.39C306.659 417.829 307.697 417.548 308.86 417.548C310.659 417.548 312.111 418.17 313.218 419.416C314.333 420.661 314.891 422.317 314.891 424.384V424.542C314.891 425.828 314.642 426.984 314.146 428.009C313.658 429.027 312.954 429.82 312.034 430.39C311.123 430.959 310.073 431.244 308.885 431.244C307.094 431.244 305.642 430.622 304.527 429.376C303.42 428.131 302.867 426.483 302.867 424.433V424.274ZM305.137 424.542C305.137 426.007 305.475 427.183 306.15 428.07C306.834 428.957 307.745 429.401 308.885 429.401C310.032 429.401 310.944 428.953 311.619 428.058C312.295 427.155 312.632 425.893 312.632 424.274C312.632 422.825 312.286 421.653 311.595 420.758C310.911 419.855 310 419.403 308.86 419.403C307.745 419.403 306.846 419.847 306.163 420.734C305.479 421.621 305.137 422.89 305.137 424.542ZM325.877 429.694C324.998 430.727 323.708 431.244 322.007 431.244C320.599 431.244 319.525 430.837 318.785 430.023C318.052 429.201 317.682 427.989 317.674 426.386V417.792H319.932V426.325C319.932 428.327 320.746 429.328 322.374 429.328C324.099 429.328 325.246 428.685 325.816 427.399V417.792H328.074V431H325.926L325.877 429.694ZM334.581 414.594V417.792H337.046V419.538H334.581V427.729C334.581 428.257 334.69 428.656 334.91 428.925C335.13 429.185 335.504 429.315 336.033 429.315C336.294 429.315 336.652 429.267 337.107 429.169V431C336.513 431.163 335.936 431.244 335.374 431.244C334.365 431.244 333.604 430.939 333.091 430.329C332.579 429.718 332.322 428.852 332.322 427.729V419.538H329.917V417.792H332.322V414.594H334.581ZM346.08 419.818C345.738 419.761 345.368 419.733 344.969 419.733C343.488 419.733 342.483 420.364 341.954 421.625V431H339.695V417.792H341.893L341.929 419.318C342.67 418.138 343.72 417.548 345.079 417.548C345.518 417.548 345.852 417.605 346.08 417.719V419.818ZM353.404 431.244C351.613 431.244 350.157 430.658 349.034 429.486C347.911 428.306 347.349 426.732 347.349 424.762V424.347C347.349 423.037 347.597 421.869 348.094 420.844C348.598 419.81 349.298 419.005 350.193 418.427C351.097 417.841 352.073 417.548 353.123 417.548C354.84 417.548 356.175 418.113 357.127 419.245C358.079 420.376 358.555 421.995 358.555 424.103V425.043H349.607C349.64 426.345 350.018 427.399 350.743 428.205C351.475 429.002 352.403 429.401 353.526 429.401C354.323 429.401 354.999 429.238 355.552 428.913C356.106 428.587 356.59 428.156 357.005 427.619L358.384 428.693C357.278 430.394 355.617 431.244 353.404 431.244ZM353.123 419.403C352.212 419.403 351.447 419.737 350.828 420.404C350.21 421.063 349.827 421.991 349.681 423.188H356.297V423.017C356.232 421.869 355.923 420.982 355.369 420.355C354.816 419.721 354.067 419.403 353.123 419.403ZM369.334 431C369.204 430.74 369.098 430.276 369.017 429.608C367.967 430.699 366.714 431.244 365.257 431.244C363.955 431.244 362.885 430.878 362.046 430.146C361.216 429.405 360.801 428.469 360.801 427.338C360.801 425.963 361.322 424.896 362.364 424.14C363.414 423.375 364.887 422.992 366.783 422.992H368.98V421.955C368.98 421.165 368.744 420.539 368.272 420.075C367.8 419.603 367.104 419.367 366.185 419.367C365.379 419.367 364.703 419.57 364.158 419.977C363.613 420.384 363.34 420.876 363.34 421.454H361.07C361.07 420.795 361.302 420.16 361.766 419.55C362.238 418.931 362.872 418.443 363.67 418.085C364.476 417.727 365.359 417.548 366.319 417.548C367.841 417.548 369.033 417.93 369.896 418.695C370.758 419.452 371.206 420.498 371.238 421.833V427.912C371.238 429.124 371.393 430.089 371.702 430.805V431H369.334ZM365.586 429.279C366.294 429.279 366.966 429.096 367.601 428.729C368.235 428.363 368.695 427.887 368.98 427.301V424.591H367.21C364.443 424.591 363.06 425.401 363.06 427.021C363.06 427.729 363.296 428.282 363.768 428.681C364.24 429.079 364.846 429.279 365.586 429.279ZM380.076 429.401C380.882 429.401 381.586 429.157 382.188 428.668C382.79 428.18 383.124 427.57 383.189 426.837H385.325C385.285 427.594 385.024 428.314 384.544 428.998C384.064 429.682 383.421 430.227 382.615 430.634C381.818 431.041 380.971 431.244 380.076 431.244C378.278 431.244 376.845 430.646 375.779 429.45C374.721 428.245 374.192 426.601 374.192 424.518V424.14C374.192 422.854 374.428 421.71 374.9 420.709C375.372 419.708 376.048 418.931 376.927 418.378C377.814 417.825 378.86 417.548 380.064 417.548C381.545 417.548 382.774 417.991 383.75 418.878C384.735 419.765 385.26 420.917 385.325 422.333H383.189C383.124 421.479 382.798 420.779 382.212 420.233C381.635 419.68 380.918 419.403 380.064 419.403C378.917 419.403 378.025 419.818 377.391 420.648C376.764 421.47 376.451 422.663 376.451 424.225V424.652C376.451 426.174 376.764 427.346 377.391 428.168C378.017 428.99 378.912 429.401 380.076 429.401ZM390.123 419.391C391.124 418.162 392.426 417.548 394.029 417.548C396.82 417.548 398.228 419.123 398.252 422.272V431H395.994V422.26C395.986 421.308 395.766 420.604 395.335 420.148C394.912 419.692 394.249 419.464 393.345 419.464C392.613 419.464 391.97 419.66 391.417 420.05C390.863 420.441 390.432 420.954 390.123 421.588V431H387.864V412.25H390.123V419.391ZM410.899 414.594V417.792H413.365V419.538H410.899V427.729C410.899 428.257 411.009 428.656 411.229 428.925C411.448 429.185 411.823 429.315 412.352 429.315C412.612 429.315 412.97 429.267 413.426 429.169V431C412.832 431.163 412.254 431.244 411.692 431.244C410.683 431.244 409.922 430.939 409.41 430.329C408.897 429.718 408.641 428.852 408.641 427.729V419.538H406.236V417.792H408.641V414.594H410.899ZM421.495 431.244C419.704 431.244 418.248 430.658 417.125 429.486C416.001 428.306 415.44 426.732 415.44 424.762V424.347C415.44 423.037 415.688 421.869 416.185 420.844C416.689 419.81 417.389 419.005 418.284 418.427C419.188 417.841 420.164 417.548 421.214 417.548C422.931 417.548 424.266 418.113 425.218 419.245C426.17 420.376 426.646 421.995 426.646 424.103V425.043H417.698C417.731 426.345 418.109 427.399 418.833 428.205C419.566 429.002 420.494 429.401 421.617 429.401C422.414 429.401 423.09 429.238 423.643 428.913C424.196 428.587 424.681 428.156 425.096 427.619L426.475 428.693C425.368 430.394 423.708 431.244 421.495 431.244ZM421.214 419.403C420.302 419.403 419.537 419.737 418.919 420.404C418.3 421.063 417.918 421.991 417.771 423.188H424.388V423.017C424.323 421.869 424.013 420.982 423.46 420.355C422.907 419.721 422.158 419.403 421.214 419.403ZM433.702 422.614L436.631 417.792H439.268L434.947 424.323L439.402 431H436.79L433.738 426.056L430.687 431H428.062L432.518 424.323L428.196 417.792H430.809L433.702 422.614ZM444.737 414.594V417.792H447.203V419.538H444.737V427.729C444.737 428.257 444.847 428.656 445.066 428.925C445.286 429.185 445.66 429.315 446.189 429.315C446.45 429.315 446.808 429.267 447.264 429.169V431C446.67 431.163 446.092 431.244 445.53 431.244C444.521 431.244 443.76 430.939 443.248 430.329C442.735 429.718 442.479 428.852 442.479 427.729V419.538H440.074V417.792H442.479V414.594H444.737ZM463.743 427.497C463.743 426.886 463.511 426.414 463.047 426.081C462.592 425.739 461.79 425.446 460.643 425.202C459.503 424.958 458.596 424.665 457.92 424.323C457.253 423.981 456.757 423.574 456.431 423.102C456.114 422.63 455.955 422.069 455.955 421.417C455.955 420.335 456.411 419.42 457.322 418.671C458.242 417.922 459.414 417.548 460.838 417.548C462.335 417.548 463.548 417.934 464.476 418.708C465.411 419.481 465.879 420.469 465.879 421.674H463.609C463.609 421.055 463.344 420.522 462.815 420.075C462.295 419.627 461.635 419.403 460.838 419.403C460.016 419.403 459.373 419.582 458.909 419.94C458.445 420.299 458.213 420.766 458.213 421.344C458.213 421.889 458.429 422.3 458.86 422.577C459.292 422.854 460.069 423.118 461.192 423.371C462.323 423.623 463.239 423.924 463.938 424.274C464.638 424.624 465.155 425.047 465.489 425.543C465.831 426.032 466.001 426.63 466.001 427.338C466.001 428.518 465.529 429.466 464.585 430.182C463.641 430.89 462.417 431.244 460.911 431.244C459.853 431.244 458.917 431.057 458.104 430.683C457.29 430.308 456.651 429.787 456.187 429.12C455.731 428.445 455.503 427.716 455.503 426.935H457.762C457.802 427.692 458.104 428.294 458.665 428.742C459.235 429.181 459.983 429.401 460.911 429.401C461.766 429.401 462.449 429.23 462.962 428.888C463.483 428.538 463.743 428.074 463.743 427.497ZM474.424 431.244C472.634 431.244 471.177 430.658 470.054 429.486C468.931 428.306 468.37 426.732 468.37 424.762V424.347C468.37 423.037 468.618 421.869 469.114 420.844C469.619 419.81 470.319 419.005 471.214 418.427C472.117 417.841 473.094 417.548 474.144 417.548C475.861 417.548 477.195 418.113 478.147 419.245C479.1 420.376 479.576 421.995 479.576 424.103V425.043H470.628C470.66 426.345 471.039 427.399 471.763 428.205C472.496 429.002 473.423 429.401 474.546 429.401C475.344 429.401 476.019 429.238 476.573 428.913C477.126 428.587 477.61 428.156 478.025 427.619L479.405 428.693C478.298 430.394 476.638 431.244 474.424 431.244ZM474.144 419.403C473.232 419.403 472.467 419.737 471.849 420.404C471.23 421.063 470.848 421.991 470.701 423.188H477.317V423.017C477.252 421.869 476.943 420.982 476.39 420.355C475.836 419.721 475.088 419.403 474.144 419.403ZM481.651 424.286C481.651 422.211 482.127 420.571 483.079 419.367C484.031 418.154 485.309 417.548 486.912 417.548C488.475 417.548 489.708 418.073 490.611 419.123L490.708 417.792H492.784V436.078H490.525V429.779C489.614 430.756 488.401 431.244 486.888 431.244C485.293 431.244 484.019 430.626 483.067 429.389C482.123 428.144 481.651 426.496 481.651 424.445V424.286ZM483.909 424.542C483.909 426.056 484.227 427.244 484.861 428.107C485.504 428.97 486.367 429.401 487.449 429.401C488.792 429.401 489.817 428.807 490.525 427.619V421.149C489.809 419.985 488.792 419.403 487.474 419.403C486.383 419.403 485.516 419.839 484.874 420.709C484.231 421.572 483.909 422.85 483.909 424.542ZM504.563 429.694C503.685 430.727 502.395 431.244 500.694 431.244C499.286 431.244 498.212 430.837 497.471 430.023C496.739 429.201 496.368 427.989 496.36 426.386V417.792H498.619V426.325C498.619 428.327 499.432 429.328 501.06 429.328C502.785 429.328 503.933 428.685 504.502 427.399V417.792H506.761V431H504.612L504.563 429.694ZM515.684 431.244C513.894 431.244 512.437 430.658 511.314 429.486C510.191 428.306 509.629 426.732 509.629 424.762V424.347C509.629 423.037 509.878 421.869 510.374 420.844C510.879 419.81 511.578 419.005 512.474 418.427C513.377 417.841 514.354 417.548 515.403 417.548C517.12 417.548 518.455 418.113 519.407 419.245C520.359 420.376 520.835 421.995 520.835 424.103V425.043H511.888C511.92 426.345 512.299 427.399 513.023 428.205C513.755 429.002 514.683 429.401 515.806 429.401C516.604 429.401 517.279 429.238 517.833 428.913C518.386 428.587 518.87 428.156 519.285 427.619L520.665 428.693C519.558 430.394 517.898 431.244 515.684 431.244ZM515.403 419.403C514.492 419.403 513.727 419.737 513.108 420.404C512.49 421.063 512.107 421.991 511.961 423.188H518.577V423.017C518.512 421.869 518.203 420.982 517.649 420.355C517.096 419.721 516.347 419.403 515.403 419.403ZM525.596 417.792L525.669 419.452C526.679 418.183 527.997 417.548 529.625 417.548C532.416 417.548 533.824 419.123 533.848 422.272V431H531.59V422.26C531.582 421.308 531.362 420.604 530.931 420.148C530.507 419.692 529.844 419.464 528.941 419.464C528.208 419.464 527.566 419.66 527.012 420.05C526.459 420.441 526.028 420.954 525.718 421.588V431H523.46V417.792H525.596ZM542.552 429.401C543.357 429.401 544.061 429.157 544.664 428.668C545.266 428.18 545.599 427.57 545.665 426.837H547.801C547.76 427.594 547.5 428.314 547.02 428.998C546.539 429.682 545.896 430.227 545.091 430.634C544.293 431.041 543.447 431.244 542.552 431.244C540.753 431.244 539.321 430.646 538.255 429.45C537.197 428.245 536.668 426.601 536.668 424.518V424.14C536.668 422.854 536.904 421.71 537.376 420.709C537.848 419.708 538.523 418.931 539.402 418.378C540.289 417.825 541.335 417.548 542.54 417.548C544.021 417.548 545.25 417.991 546.226 418.878C547.211 419.765 547.736 420.917 547.801 422.333H545.665C545.599 421.479 545.274 420.779 544.688 420.233C544.11 419.68 543.394 419.403 542.54 419.403C541.392 419.403 540.501 419.818 539.866 420.648C539.24 421.47 538.926 422.663 538.926 424.225V424.652C538.926 426.174 539.24 427.346 539.866 428.168C540.493 428.99 541.388 429.401 542.552 429.401ZM555.821 431.244C554.03 431.244 552.574 430.658 551.451 429.486C550.328 428.306 549.766 426.732 549.766 424.762V424.347C549.766 423.037 550.014 421.869 550.511 420.844C551.015 419.81 551.715 419.005 552.61 418.427C553.514 417.841 554.49 417.548 555.54 417.548C557.257 417.548 558.592 418.113 559.544 419.245C560.496 420.376 560.972 421.995 560.972 424.103V425.043H552.024C552.057 426.345 552.435 427.399 553.16 428.205C553.892 429.002 554.82 429.401 555.943 429.401C556.74 429.401 557.416 429.238 557.969 428.913C558.523 428.587 559.007 428.156 559.422 427.619L560.801 428.693C559.694 430.394 558.034 431.244 555.821 431.244ZM555.54 419.403C554.629 419.403 553.864 419.737 553.245 420.404C552.627 421.063 552.244 421.991 552.098 423.188H558.714V423.017C558.649 421.869 558.34 420.982 557.786 420.355C557.233 419.721 556.484 419.403 555.54 419.403Z" fill="#565656"/>
<rect x="51.5" y="326.5" width="606" height="51" rx="8.5" stroke="#C4C4C4" stroke-width="3"/>
<rect x="51.5" y="397.5" width="606" height="51" rx="8.5" stroke="#C4C4C4" stroke-width="3"/>
<path d="M627.5 363L616.675 345.75H638.325L627.5 363Z" fill="#C4C4C4"/>
<path d="M627.5 434L616.675 416.75H638.325L627.5 434Z" fill="#C4C4C4"/>
<path d="M98.8032 129.337C98.8032 128.645 98.5591 128.116 98.0708 127.75C97.5825 127.376 96.7036 126.985 95.4341 126.578C94.1646 126.163 93.1595 125.756 92.4189 125.357C90.4007 124.267 89.3916 122.798 89.3916 120.951C89.3916 119.99 89.6602 119.136 90.1973 118.387C90.7425 117.63 91.5197 117.04 92.5288 116.617C93.5461 116.194 94.6854 115.982 95.9468 115.982C97.2163 115.982 98.3475 116.214 99.3403 116.678C100.333 117.134 101.102 117.781 101.647 118.619C102.201 119.457 102.478 120.41 102.478 121.476H98.8154C98.8154 120.662 98.5591 120.031 98.0464 119.583C97.5337 119.128 96.8135 118.9 95.8857 118.9C94.9906 118.9 94.2948 119.091 93.7983 119.474C93.3019 119.848 93.0537 120.344 93.0537 120.963C93.0537 121.541 93.3426 122.025 93.9204 122.416C94.5063 122.806 95.3649 123.172 96.4961 123.514C98.5794 124.141 100.097 124.918 101.049 125.846C102.001 126.773 102.478 127.929 102.478 129.312C102.478 130.851 101.896 132.059 100.732 132.938C99.5682 133.809 98.0016 134.244 96.0322 134.244C94.665 134.244 93.4199 133.996 92.2969 133.5C91.1738 132.995 90.3153 132.307 89.7212 131.437C89.1353 130.566 88.8423 129.557 88.8423 128.409H92.5166C92.5166 130.37 93.6885 131.351 96.0322 131.351C96.903 131.351 97.5825 131.176 98.0708 130.826C98.5591 130.468 98.8032 129.972 98.8032 129.337ZM115.661 126.297H108.63V131.058H116.882V134H104.968V116.227H116.857V119.193H108.63V123.429H115.661V126.297ZM122.692 131.058H130.468V134H119.03V116.227H122.692V131.058ZM143.273 126.297H136.242V131.058H144.494V134H132.58V116.227H144.47V119.193H136.242V123.429H143.273V126.297ZM160.595 128.08C160.457 129.992 159.749 131.498 158.471 132.596C157.202 133.695 155.525 134.244 153.442 134.244C151.163 134.244 149.369 133.479 148.059 131.949C146.757 130.411 146.105 128.303 146.105 125.626V124.54C146.105 122.831 146.407 121.325 147.009 120.023C147.611 118.721 148.47 117.724 149.584 117.032C150.708 116.332 152.01 115.982 153.491 115.982C155.542 115.982 157.194 116.532 158.447 117.63C159.7 118.729 160.424 120.271 160.62 122.257H156.958C156.868 121.109 156.547 120.279 155.993 119.767C155.448 119.246 154.614 118.985 153.491 118.985C152.27 118.985 151.354 119.425 150.744 120.304C150.142 121.174 149.833 122.529 149.816 124.369V125.711C149.816 127.632 150.105 129.036 150.683 129.923C151.269 130.81 152.189 131.253 153.442 131.253C154.573 131.253 155.415 130.997 155.969 130.484C156.53 129.964 156.852 129.162 156.933 128.08H160.595ZM176.013 119.193H170.568V134H166.906V119.193H161.535V116.227H176.013V119.193ZM103.43 157.873L105.822 145.227H109.472L105.529 163H101.843L98.9497 151.11L96.0566 163H92.3701L88.4272 145.227H92.0771L94.4819 157.849L97.4116 145.227H100.512L103.43 157.873ZM125.927 163H122.265V155.383H115.124V163H111.462V145.227H115.124V152.429H122.265V145.227H125.927V163ZM139.831 155.297H132.8V160.058H141.052V163H129.138V145.227H141.027V148.193H132.8V152.429H139.831V155.297ZM149.78 156.494H146.862V163H143.2V145.227H149.804C151.904 145.227 153.523 145.694 154.663 146.63C155.802 147.566 156.372 148.889 156.372 150.598C156.372 151.81 156.107 152.823 155.578 153.637C155.057 154.443 154.264 155.086 153.198 155.566L157.043 162.829V163H153.112L149.78 156.494ZM146.862 153.527H149.816C150.736 153.527 151.448 153.295 151.953 152.832C152.457 152.36 152.709 151.713 152.709 150.891C152.709 150.052 152.469 149.393 151.989 148.913C151.517 148.433 150.789 148.193 149.804 148.193H146.862V153.527ZM169.86 155.297H162.829V160.058H171.081V163H159.167V145.227H171.057V148.193H162.829V152.429H169.86V155.297ZM294.665 154.516C294.665 156.266 294.356 157.8 293.737 159.118C293.119 160.437 292.232 161.454 291.076 162.17C289.929 162.886 288.61 163.244 287.121 163.244C285.648 163.244 284.334 162.89 283.178 162.182C282.023 161.474 281.127 160.465 280.493 159.155C279.858 157.836 279.536 156.323 279.528 154.614V153.735C279.528 151.985 279.842 150.447 280.468 149.121C281.103 147.786 281.994 146.765 283.142 146.057C284.297 145.34 285.616 144.982 287.097 144.982C288.578 144.982 289.892 145.34 291.04 146.057C292.195 146.765 293.086 147.786 293.713 149.121C294.348 150.447 294.665 151.981 294.665 153.723V154.516ZM290.954 153.71C290.954 151.847 290.62 150.431 289.953 149.462C289.286 148.494 288.334 148.01 287.097 148.01C285.868 148.01 284.92 148.49 284.252 149.45C283.585 150.402 283.247 151.802 283.239 153.649V154.516C283.239 156.331 283.573 157.739 284.24 158.74C284.908 159.741 285.868 160.241 287.121 160.241C288.35 160.241 289.294 159.761 289.953 158.801C290.612 157.832 290.946 156.424 290.954 154.577V153.71ZM303.906 156.494H300.988V163H297.326V145.227H303.93C306.03 145.227 307.649 145.694 308.789 146.63C309.928 147.566 310.498 148.889 310.498 150.598C310.498 151.81 310.233 152.823 309.704 153.637C309.183 154.443 308.39 155.086 307.324 155.566L311.169 162.829V163H307.238L303.906 156.494ZM300.988 153.527H303.942C304.862 153.527 305.574 153.295 306.079 152.832C306.583 152.36 306.835 151.713 306.835 150.891C306.835 150.052 306.595 149.393 306.115 148.913C305.643 148.433 304.915 148.193 303.93 148.193H300.988V153.527Z" fill="#113D96"/>
<path d="M186.755 122L183.068 120.902L183.63 119.059L187.316 120.426L187.207 116.227H189.074L188.952 120.487L192.578 119.144L193.139 121L189.392 122.11L191.809 125.418L190.295 126.566L188.024 123.05L185.827 126.48L184.301 125.37L186.755 122ZM269.201 132.694C268.322 133.727 267.032 134.244 265.332 134.244C263.924 134.244 262.849 133.837 262.109 133.023C261.376 132.201 261.006 130.989 260.998 129.386V120.792H263.256V129.325C263.256 131.327 264.07 132.328 265.698 132.328C267.423 132.328 268.57 131.685 269.14 130.399V120.792H271.398V134H269.25L269.201 132.694ZM282.531 130.497C282.531 129.886 282.299 129.414 281.835 129.081C281.38 128.739 280.578 128.446 279.431 128.202C278.291 127.958 277.384 127.665 276.708 127.323C276.041 126.981 275.545 126.574 275.219 126.102C274.902 125.63 274.743 125.069 274.743 124.417C274.743 123.335 275.199 122.42 276.11 121.671C277.03 120.922 278.202 120.548 279.626 120.548C281.123 120.548 282.336 120.934 283.264 121.708C284.2 122.481 284.667 123.469 284.667 124.674H282.397C282.397 124.055 282.132 123.522 281.604 123.075C281.083 122.627 280.424 122.403 279.626 122.403C278.804 122.403 278.161 122.582 277.697 122.94C277.233 123.299 277.001 123.766 277.001 124.344C277.001 124.889 277.217 125.3 277.648 125.577C278.08 125.854 278.857 126.118 279.98 126.371C281.111 126.623 282.027 126.924 282.727 127.274C283.426 127.624 283.943 128.047 284.277 128.543C284.619 129.032 284.79 129.63 284.79 130.338C284.79 131.518 284.318 132.466 283.374 133.182C282.43 133.89 281.205 134.244 279.699 134.244C278.641 134.244 277.705 134.057 276.892 133.683C276.078 133.308 275.439 132.787 274.975 132.12C274.519 131.445 274.292 130.716 274.292 129.935H276.55C276.59 130.692 276.892 131.294 277.453 131.742C278.023 132.181 278.771 132.401 279.699 132.401C280.554 132.401 281.237 132.23 281.75 131.888C282.271 131.538 282.531 131.074 282.531 130.497ZM293.212 134.244C291.422 134.244 289.965 133.658 288.842 132.486C287.719 131.306 287.158 129.732 287.158 127.762V127.347C287.158 126.037 287.406 124.869 287.902 123.844C288.407 122.81 289.107 122.005 290.002 121.427C290.905 120.841 291.882 120.548 292.932 120.548C294.649 120.548 295.983 121.113 296.936 122.245C297.888 123.376 298.364 124.995 298.364 127.103V128.043H289.416C289.449 129.345 289.827 130.399 290.551 131.205C291.284 132.002 292.211 132.401 293.334 132.401C294.132 132.401 294.807 132.238 295.361 131.913C295.914 131.587 296.398 131.156 296.813 130.619L298.193 131.693C297.086 133.394 295.426 134.244 293.212 134.244ZM292.932 122.403C292.02 122.403 291.255 122.737 290.637 123.404C290.018 124.063 289.636 124.991 289.489 126.188H296.105V126.017C296.04 124.869 295.731 123.982 295.178 123.355C294.624 122.721 293.876 122.403 292.932 122.403ZM307.373 122.818C307.031 122.761 306.66 122.733 306.262 122.733C304.781 122.733 303.776 123.364 303.247 124.625V134H300.988V120.792H303.186L303.222 122.318C303.963 121.138 305.013 120.548 306.372 120.548C306.811 120.548 307.145 120.605 307.373 120.719V122.818ZM317.15 130.497C317.15 129.886 316.918 129.414 316.455 129.081C315.999 128.739 315.197 128.446 314.05 128.202C312.91 127.958 312.003 127.665 311.328 127.323C310.66 126.981 310.164 126.574 309.838 126.102C309.521 125.63 309.362 125.069 309.362 124.417C309.362 123.335 309.818 122.42 310.729 121.671C311.649 120.922 312.821 120.548 314.245 120.548C315.743 120.548 316.955 120.934 317.883 121.708C318.819 122.481 319.287 123.469 319.287 124.674H317.016C317.016 124.055 316.752 123.522 316.223 123.075C315.702 122.627 315.043 122.403 314.245 122.403C313.423 122.403 312.78 122.582 312.316 122.94C311.853 123.299 311.621 123.766 311.621 124.344C311.621 124.889 311.836 125.3 312.268 125.577C312.699 125.854 313.476 126.118 314.599 126.371C315.73 126.623 316.646 126.924 317.346 127.274C318.046 127.624 318.562 128.047 318.896 128.543C319.238 129.032 319.409 129.63 319.409 130.338C319.409 131.518 318.937 132.466 317.993 133.182C317.049 133.89 315.824 134.244 314.318 134.244C313.26 134.244 312.325 134.057 311.511 133.683C310.697 133.308 310.058 132.787 309.594 132.12C309.139 131.445 308.911 130.716 308.911 129.935H311.169C311.21 130.692 311.511 131.294 312.072 131.742C312.642 132.181 313.391 132.401 314.318 132.401C315.173 132.401 315.856 132.23 316.369 131.888C316.89 131.538 317.15 131.074 317.15 130.497ZM187.707 163C187.577 162.74 187.471 162.276 187.39 161.608C186.34 162.699 185.087 163.244 183.63 163.244C182.328 163.244 181.258 162.878 180.419 162.146C179.589 161.405 179.174 160.469 179.174 159.338C179.174 157.963 179.695 156.896 180.737 156.14C181.787 155.375 183.26 154.992 185.156 154.992H187.353V153.955C187.353 153.165 187.117 152.539 186.645 152.075C186.173 151.603 185.477 151.367 184.558 151.367C183.752 151.367 183.076 151.57 182.531 151.977C181.986 152.384 181.713 152.876 181.713 153.454H179.443C179.443 152.795 179.675 152.16 180.139 151.55C180.611 150.931 181.245 150.443 182.043 150.085C182.849 149.727 183.732 149.548 184.692 149.548C186.214 149.548 187.406 149.93 188.269 150.695C189.131 151.452 189.579 152.498 189.611 153.833V159.912C189.611 161.124 189.766 162.089 190.075 162.805V163H187.707ZM183.959 161.279C184.667 161.279 185.339 161.096 185.974 160.729C186.608 160.363 187.068 159.887 187.353 159.301V156.591H185.583C182.816 156.591 181.433 157.401 181.433 159.021C181.433 159.729 181.669 160.282 182.141 160.681C182.613 161.079 183.219 161.279 183.959 161.279ZM192.614 156.286C192.614 154.227 193.09 152.591 194.042 151.379C194.995 150.158 196.256 149.548 197.827 149.548C199.438 149.548 200.695 150.118 201.599 151.257L201.708 149.792H203.771V162.683C203.771 164.392 203.263 165.738 202.246 166.723C201.236 167.708 199.877 168.2 198.168 168.2C197.216 168.2 196.285 167.997 195.373 167.59C194.462 167.183 193.766 166.625 193.286 165.917L194.458 164.562C195.426 165.759 196.61 166.357 198.01 166.357C199.108 166.357 199.963 166.048 200.573 165.429C201.192 164.811 201.501 163.94 201.501 162.817V161.682C200.598 162.723 199.365 163.244 197.802 163.244C196.256 163.244 195.003 162.622 194.042 161.376C193.09 160.131 192.614 158.435 192.614 156.286ZM194.885 156.542C194.885 158.032 195.19 159.204 195.8 160.058C196.411 160.904 197.265 161.328 198.364 161.328C199.788 161.328 200.834 160.681 201.501 159.387V153.356C200.809 152.095 199.772 151.464 198.388 151.464C197.29 151.464 196.431 151.892 195.812 152.746C195.194 153.601 194.885 154.866 194.885 156.542ZM212.67 163.244C210.88 163.244 209.423 162.658 208.3 161.486C207.177 160.306 206.616 158.732 206.616 156.762V156.347C206.616 155.037 206.864 153.869 207.36 152.844C207.865 151.81 208.565 151.005 209.46 150.427C210.363 149.841 211.34 149.548 212.39 149.548C214.107 149.548 215.441 150.113 216.394 151.245C217.346 152.376 217.822 153.995 217.822 156.103V157.043H208.874C208.907 158.345 209.285 159.399 210.009 160.205C210.742 161.002 211.669 161.401 212.792 161.401C213.59 161.401 214.265 161.238 214.819 160.913C215.372 160.587 215.856 160.156 216.271 159.619L217.651 160.693C216.544 162.394 214.884 163.244 212.67 163.244ZM212.39 151.403C211.478 151.403 210.713 151.737 210.095 152.404C209.476 153.063 209.094 153.991 208.947 155.188H215.563V155.017C215.498 153.869 215.189 152.982 214.636 152.355C214.082 151.721 213.334 151.403 212.39 151.403ZM234.643 155.065L226.574 151.904V149.584L236.999 154.199V155.981L226.574 160.607V158.264L234.643 155.065ZM254.541 145.214V147.131H254.125C252.368 147.163 250.968 147.684 249.926 148.693C248.885 149.702 248.282 151.123 248.12 152.954C249.056 151.879 250.333 151.342 251.953 151.342C253.499 151.342 254.732 151.888 255.651 152.978C256.579 154.069 257.043 155.476 257.043 157.202C257.043 159.033 256.542 160.498 255.542 161.596C254.549 162.695 253.214 163.244 251.538 163.244C249.837 163.244 248.457 162.593 247.399 161.291C246.341 159.981 245.812 158.296 245.812 156.237V155.371C245.812 152.099 246.508 149.601 247.9 147.875C249.3 146.142 251.379 145.255 254.138 145.214H254.541ZM251.574 153.222C250.801 153.222 250.089 153.454 249.438 153.918C248.787 154.382 248.335 154.964 248.083 155.664V156.494C248.083 157.958 248.413 159.139 249.072 160.034C249.731 160.929 250.553 161.376 251.538 161.376C252.555 161.376 253.352 161.002 253.93 160.253C254.516 159.505 254.809 158.524 254.809 157.312C254.809 156.091 254.512 155.106 253.918 154.357C253.332 153.601 252.551 153.222 251.574 153.222ZM260.754 154.089L261.657 145.227H270.764V147.314H263.574L263.037 152.16C263.907 151.647 264.896 151.391 266.003 151.391C267.622 151.391 268.908 151.928 269.86 153.002C270.812 154.069 271.289 155.513 271.289 157.336C271.289 159.167 270.792 160.611 269.799 161.669C268.815 162.719 267.435 163.244 265.661 163.244C264.09 163.244 262.809 162.809 261.816 161.938C260.823 161.067 260.257 159.863 260.119 158.325H262.255C262.394 159.342 262.756 160.111 263.342 160.632C263.928 161.145 264.701 161.401 265.661 161.401C266.711 161.401 267.533 161.043 268.127 160.327C268.729 159.611 269.03 158.622 269.03 157.36C269.03 156.172 268.705 155.22 268.054 154.504C267.411 153.78 266.552 153.417 265.478 153.417C264.493 153.417 263.72 153.633 263.159 154.064L262.561 154.553L260.754 154.089ZM319.018 156.274C319.018 154.98 319.27 153.816 319.775 152.783C320.288 151.749 320.996 150.952 321.899 150.39C322.81 149.829 323.848 149.548 325.012 149.548C326.81 149.548 328.263 150.17 329.37 151.416C330.485 152.661 331.042 154.317 331.042 156.384V156.542C331.042 157.828 330.794 158.984 330.297 160.009C329.809 161.027 329.105 161.82 328.186 162.39C327.274 162.959 326.224 163.244 325.036 163.244C323.246 163.244 321.793 162.622 320.678 161.376C319.571 160.131 319.018 158.483 319.018 156.433V156.274ZM321.289 156.542C321.289 158.007 321.626 159.183 322.302 160.07C322.985 160.957 323.897 161.401 325.036 161.401C326.184 161.401 327.095 160.953 327.771 160.058C328.446 159.155 328.784 157.893 328.784 156.274C328.784 154.825 328.438 153.653 327.746 152.758C327.062 151.855 326.151 151.403 325.012 151.403C323.897 151.403 322.998 151.847 322.314 152.734C321.63 153.621 321.289 154.89 321.289 156.542ZM339.172 161.401C339.978 161.401 340.681 161.157 341.284 160.668C341.886 160.18 342.22 159.57 342.285 158.837H344.421C344.38 159.594 344.12 160.314 343.64 160.998C343.16 161.682 342.517 162.227 341.711 162.634C340.913 163.041 340.067 163.244 339.172 163.244C337.373 163.244 335.941 162.646 334.875 161.45C333.817 160.245 333.288 158.601 333.288 156.518V156.14C333.288 154.854 333.524 153.71 333.996 152.709C334.468 151.708 335.144 150.931 336.022 150.378C336.91 149.825 337.955 149.548 339.16 149.548C340.641 149.548 341.87 149.991 342.846 150.878C343.831 151.765 344.356 152.917 344.421 154.333H342.285C342.22 153.479 341.894 152.779 341.308 152.233C340.73 151.68 340.014 151.403 339.16 151.403C338.012 151.403 337.121 151.818 336.486 152.648C335.86 153.47 335.546 154.663 335.546 156.225V156.652C335.546 158.174 335.86 159.346 336.486 160.168C337.113 160.99 338.008 161.401 339.172 161.401ZM352.258 161.401C353.063 161.401 353.767 161.157 354.37 160.668C354.972 160.18 355.306 159.57 355.371 158.837H357.507C357.466 159.594 357.206 160.314 356.726 160.998C356.245 161.682 355.603 162.227 354.797 162.634C353.999 163.041 353.153 163.244 352.258 163.244C350.459 163.244 349.027 162.646 347.961 161.45C346.903 160.245 346.374 158.601 346.374 156.518V156.14C346.374 154.854 346.61 153.71 347.082 152.709C347.554 151.708 348.229 150.931 349.108 150.378C349.995 149.825 351.041 149.548 352.246 149.548C353.727 149.548 354.956 149.991 355.932 150.878C356.917 151.765 357.442 152.917 357.507 154.333H355.371C355.306 153.479 354.98 152.779 354.394 152.233C353.816 151.68 353.1 151.403 352.246 151.403C351.098 151.403 350.207 151.818 349.572 152.648C348.946 153.47 348.632 154.663 348.632 156.225V156.652C348.632 158.174 348.946 159.346 349.572 160.168C350.199 160.99 351.094 161.401 352.258 161.401ZM368.2 161.694C367.321 162.727 366.031 163.244 364.331 163.244C362.923 163.244 361.848 162.837 361.108 162.023C360.375 161.201 360.005 159.989 359.997 158.386V149.792H362.255V158.325C362.255 160.327 363.069 161.328 364.697 161.328C366.422 161.328 367.569 160.685 368.139 159.399V149.792H370.397V163H368.249L368.2 161.694ZM384.997 156.542C384.997 158.553 384.537 160.172 383.618 161.401C382.698 162.63 381.453 163.244 379.882 163.244C378.279 163.244 377.018 162.736 376.098 161.718V168.078H373.84V149.792H375.903L376.013 151.257C376.932 150.118 378.21 149.548 379.846 149.548C381.433 149.548 382.686 150.146 383.605 151.342C384.533 152.539 384.997 154.203 384.997 156.335V156.542ZM382.739 156.286C382.739 154.797 382.421 153.621 381.787 152.758C381.152 151.896 380.281 151.464 379.174 151.464C377.807 151.464 376.782 152.071 376.098 153.283V159.594C376.774 160.799 377.807 161.401 379.199 161.401C380.281 161.401 381.14 160.974 381.774 160.119C382.417 159.257 382.739 157.979 382.739 156.286ZM396.032 163C395.902 162.74 395.796 162.276 395.715 161.608C394.665 162.699 393.412 163.244 391.955 163.244C390.653 163.244 389.583 162.878 388.745 162.146C387.915 161.405 387.5 160.469 387.5 159.338C387.5 157.963 388.02 156.896 389.062 156.14C390.112 155.375 391.585 154.992 393.481 154.992H395.678V153.955C395.678 153.165 395.442 152.539 394.97 152.075C394.498 151.603 393.802 151.367 392.883 151.367C392.077 151.367 391.402 151.57 390.856 151.977C390.311 152.384 390.039 152.876 390.039 153.454H387.768C387.768 152.795 388 152.16 388.464 151.55C388.936 150.931 389.571 150.443 390.368 150.085C391.174 149.727 392.057 149.548 393.017 149.548C394.539 149.548 395.731 149.93 396.594 150.695C397.456 151.452 397.904 152.498 397.937 153.833V159.912C397.937 161.124 398.091 162.089 398.4 162.805V163H396.032ZM392.285 161.279C392.993 161.279 393.664 161.096 394.299 160.729C394.934 160.363 395.393 159.887 395.678 159.301V156.591H393.908C391.141 156.591 389.758 157.401 389.758 159.021C389.758 159.729 389.994 160.282 390.466 160.681C390.938 161.079 391.544 161.279 392.285 161.279ZM404.541 146.594V149.792H407.006V151.538H404.541V159.729C404.541 160.257 404.65 160.656 404.87 160.925C405.09 161.185 405.464 161.315 405.993 161.315C406.254 161.315 406.612 161.267 407.067 161.169V163C406.473 163.163 405.896 163.244 405.334 163.244C404.325 163.244 403.564 162.939 403.051 162.329C402.539 161.718 402.282 160.852 402.282 159.729V151.538H399.877V149.792H402.282V146.594H404.541ZM412.109 163H409.851V149.792H412.109V163ZM409.667 146.289C409.667 145.922 409.777 145.613 409.997 145.361C410.225 145.109 410.559 144.982 410.998 144.982C411.438 144.982 411.771 145.109 411.999 145.361C412.227 145.613 412.341 145.922 412.341 146.289C412.341 146.655 412.227 146.96 411.999 147.204C411.771 147.448 411.438 147.57 410.998 147.57C410.559 147.57 410.225 147.448 409.997 147.204C409.777 146.96 409.667 146.655 409.667 146.289ZM415.136 156.274C415.136 154.98 415.389 153.816 415.893 152.783C416.406 151.749 417.114 150.952 418.017 150.39C418.929 149.829 419.966 149.548 421.13 149.548C422.928 149.548 424.381 150.17 425.488 151.416C426.603 152.661 427.16 154.317 427.16 156.384V156.542C427.16 157.828 426.912 158.984 426.416 160.009C425.927 161.027 425.223 161.82 424.304 162.39C423.392 162.959 422.342 163.244 421.154 163.244C419.364 163.244 417.911 162.622 416.796 161.376C415.69 160.131 415.136 158.483 415.136 156.433V156.274ZM417.407 156.542C417.407 158.007 417.744 159.183 418.42 160.07C419.104 160.957 420.015 161.401 421.154 161.401C422.302 161.401 423.213 160.953 423.889 160.058C424.564 159.155 424.902 157.893 424.902 156.274C424.902 154.825 424.556 153.653 423.864 152.758C423.181 151.855 422.269 151.403 421.13 151.403C420.015 151.403 419.116 151.847 418.432 152.734C417.749 153.621 417.407 154.89 417.407 156.542ZM432.128 149.792L432.202 151.452C433.211 150.183 434.529 149.548 436.157 149.548C438.948 149.548 440.356 151.123 440.38 154.272V163H438.122V154.26C438.114 153.308 437.894 152.604 437.463 152.148C437.04 151.692 436.376 151.464 435.473 151.464C434.741 151.464 434.098 151.66 433.544 152.05C432.991 152.441 432.56 152.954 432.25 153.588V163H429.992V149.792H432.128ZM460.314 153.063H450.134V151.098H460.314V153.063ZM460.314 158.129H450.134V156.176H460.314V158.129ZM471.496 144.018L472.79 144.897C472.033 145.931 471.643 147.045 471.618 148.242V149.902H469.372V148.486C469.372 147.656 469.567 146.834 469.958 146.02C470.357 145.206 470.869 144.539 471.496 144.018ZM476.025 163V151.538H473.938V149.792H476.025V148.437C476.025 147.021 476.403 145.926 477.16 145.153C477.917 144.38 478.987 143.994 480.371 143.994C480.891 143.994 481.408 144.063 481.921 144.201L481.799 146.032C481.416 145.959 481.009 145.922 480.578 145.922C479.846 145.922 479.28 146.138 478.881 146.569C478.483 146.993 478.283 147.603 478.283 148.4V149.792H481.103V151.538H478.283V163H476.025ZM489.99 151.818C489.648 151.761 489.278 151.733 488.879 151.733C487.398 151.733 486.393 152.364 485.864 153.625V163H483.605V149.792H485.803L485.839 151.318C486.58 150.138 487.63 149.548 488.989 149.548C489.428 149.548 489.762 149.605 489.99 149.719V151.818ZM491.235 156.274C491.235 154.98 491.487 153.816 491.992 152.783C492.504 151.749 493.212 150.952 494.116 150.39C495.027 149.829 496.065 149.548 497.229 149.548C499.027 149.548 500.48 150.17 501.586 151.416C502.701 152.661 503.259 154.317 503.259 156.384V156.542C503.259 157.828 503.011 158.984 502.514 160.009C502.026 161.027 501.322 161.82 500.402 162.39C499.491 162.959 498.441 163.244 497.253 163.244C495.463 163.244 494.01 162.622 492.895 161.376C491.788 160.131 491.235 158.483 491.235 156.433V156.274ZM493.505 156.542C493.505 158.007 493.843 159.183 494.519 160.07C495.202 160.957 496.114 161.401 497.253 161.401C498.4 161.401 499.312 160.953 499.987 160.058C500.663 159.155 501 157.893 501 156.274C501 154.825 500.655 153.653 499.963 152.758C499.279 151.855 498.368 151.403 497.229 151.403C496.114 151.403 495.214 151.847 494.531 152.734C493.847 153.621 493.505 154.89 493.505 156.542ZM508.227 149.792L508.3 151.452C509.309 150.183 510.628 149.548 512.255 149.548C515.047 149.548 516.455 151.123 516.479 154.272V163H514.221V154.26C514.213 153.308 513.993 152.604 513.562 152.148C513.138 151.692 512.475 151.464 511.572 151.464C510.839 151.464 510.196 151.66 509.643 152.05C509.09 152.441 508.658 152.954 508.349 153.588V163H506.091V149.792H508.227ZM522.949 146.594V149.792H525.415V151.538H522.949V159.729C522.949 160.257 523.059 160.656 523.278 160.925C523.498 161.185 523.872 161.315 524.401 161.315C524.662 161.315 525.02 161.267 525.476 161.169V163C524.882 163.163 524.304 163.244 523.742 163.244C522.733 163.244 521.972 162.939 521.459 162.329C520.947 161.718 520.69 160.852 520.69 159.729V151.538H518.286V149.792H520.69V146.594H522.949ZM530.517 163H528.259V144.25H530.517V163ZM536.596 163H534.338V149.792H536.596V163ZM534.155 146.289C534.155 145.922 534.265 145.613 534.484 145.361C534.712 145.109 535.046 144.982 535.485 144.982C535.925 144.982 536.258 145.109 536.486 145.361C536.714 145.613 536.828 145.922 536.828 146.289C536.828 146.655 536.714 146.96 536.486 147.204C536.258 147.448 535.925 147.57 535.485 147.57C535.046 147.57 534.712 147.448 534.484 147.204C534.265 146.96 534.155 146.655 534.155 146.289ZM542.358 149.792L542.431 151.452C543.44 150.183 544.759 149.548 546.386 149.548C549.178 149.548 550.585 151.123 550.61 154.272V163H548.352V154.26C548.343 153.308 548.124 152.604 547.692 152.148C547.269 151.692 546.606 151.464 545.703 151.464C544.97 151.464 544.327 151.66 543.774 152.05C543.221 152.441 542.789 152.954 542.48 153.588V163H540.222V149.792H542.358ZM559.497 163.244C557.706 163.244 556.25 162.658 555.126 161.486C554.003 160.306 553.442 158.732 553.442 156.762V156.347C553.442 155.037 553.69 153.869 554.187 152.844C554.691 151.81 555.391 151.005 556.286 150.427C557.189 149.841 558.166 149.548 559.216 149.548C560.933 149.548 562.268 150.113 563.22 151.245C564.172 152.376 564.648 153.995 564.648 156.103V157.043H555.7C555.733 158.345 556.111 159.399 556.835 160.205C557.568 161.002 558.496 161.401 559.619 161.401C560.416 161.401 561.092 161.238 561.645 160.913C562.198 160.587 562.683 160.156 563.098 159.619L564.477 160.693C563.37 162.394 561.71 163.244 559.497 163.244ZM559.216 151.403C558.304 151.403 557.539 151.737 556.921 152.404C556.302 153.063 555.92 153.991 555.773 155.188H562.39V155.017C562.325 153.869 562.015 152.982 561.462 152.355C560.909 151.721 560.16 151.403 559.216 151.403ZM566.455 150.231L565.173 149.353C565.93 148.295 566.32 147.18 566.345 146.008V144.25H568.579V145.837C568.57 146.651 568.367 147.465 567.968 148.278C567.578 149.084 567.073 149.735 566.455 150.231Z" fill="black"/>
<path d="M202.014 134V123.38H200.048V120.792H202.014V119.669C202.014 118.188 202.437 117.04 203.283 116.227C204.138 115.405 205.33 114.994 206.86 114.994C207.348 114.994 207.946 115.075 208.654 115.238L208.618 117.972C208.325 117.899 207.967 117.862 207.543 117.862C206.217 117.862 205.554 118.485 205.554 119.73V120.792H208.178V123.38H205.554V134H202.014ZM217.431 124.1C216.951 124.035 216.528 124.002 216.162 124.002C214.827 124.002 213.952 124.454 213.537 125.357V134H210.009V120.792H213.342L213.439 122.367C214.147 121.154 215.128 120.548 216.381 120.548C216.772 120.548 217.138 120.601 217.48 120.707L217.431 124.1ZM218.151 127.274C218.151 125.964 218.404 124.796 218.908 123.771C219.413 122.745 220.137 121.952 221.081 121.39C222.033 120.829 223.136 120.548 224.389 120.548C226.171 120.548 227.624 121.093 228.747 122.184C229.878 123.274 230.509 124.755 230.639 126.627L230.664 127.53C230.664 129.557 230.098 131.184 228.967 132.413C227.836 133.634 226.318 134.244 224.414 134.244C222.509 134.244 220.987 133.634 219.848 132.413C218.717 131.192 218.151 129.532 218.151 127.433V127.274ZM221.679 127.53C221.679 128.784 221.915 129.744 222.387 130.411C222.859 131.07 223.535 131.4 224.414 131.4C225.268 131.4 225.935 131.074 226.416 130.423C226.896 129.764 227.136 128.714 227.136 127.274C227.136 126.045 226.896 125.093 226.416 124.417C225.935 123.742 225.26 123.404 224.389 123.404C223.527 123.404 222.859 123.742 222.387 124.417C221.915 125.085 221.679 126.122 221.679 127.53ZM236.145 120.792L236.254 122.269C237.19 121.122 238.456 120.548 240.051 120.548C241.752 120.548 242.919 121.219 243.554 122.562C244.482 121.219 245.804 120.548 247.521 120.548C248.954 120.548 250.02 120.967 250.72 121.805C251.42 122.635 251.77 123.889 251.77 125.565V134H248.229V125.577C248.229 124.828 248.083 124.283 247.79 123.941C247.497 123.591 246.98 123.417 246.24 123.417C245.182 123.417 244.449 123.921 244.042 124.93L244.055 134H240.527V125.589C240.527 124.824 240.376 124.271 240.075 123.929C239.774 123.587 239.261 123.417 238.537 123.417C237.536 123.417 236.812 123.832 236.364 124.662V134H232.836V120.792H236.145Z" fill="#004DFF"/>
<path d="M49.9468 40.7256H47.6274V47H43.3428V29.2266H50.3374C52.4451 29.2266 54.0931 29.6945 55.2812 30.6304C56.4694 31.5662 57.0635 32.8887 57.0635 34.5977C57.0635 35.8346 56.8112 36.86 56.3066 37.6738C55.8102 38.4876 55.029 39.1468 53.9629 39.6514L57.6738 46.8169V47H53.084L49.9468 40.7256ZM47.6274 37.4175H50.3374C51.1512 37.4175 51.7616 37.2059 52.1685 36.7827C52.5835 36.3514 52.791 35.7533 52.791 34.9883C52.791 34.2233 52.5835 33.6252 52.1685 33.1938C51.7534 32.7544 51.1431 32.5347 50.3374 32.5347H47.6274V37.4175ZM65.8525 47.2441C63.8262 47.2441 62.1864 46.6419 60.9331 45.4375C59.6799 44.2249 59.0532 42.6502 59.0532 40.7134V40.3716C59.0532 39.0207 59.3014 37.8285 59.7979 36.7949C60.3024 35.7614 61.0348 34.9639 61.9951 34.4023C62.9554 33.8327 64.0947 33.5479 65.4131 33.5479C67.2686 33.5479 68.7334 34.1257 69.8076 35.2812C70.8818 36.4287 71.4189 38.0319 71.4189 40.0908V41.6899H63.2402C63.3867 42.4305 63.7082 43.0124 64.2046 43.4355C64.701 43.8587 65.3439 44.0703 66.1333 44.0703C67.4354 44.0703 68.4526 43.6146 69.1851 42.7031L71.0649 44.9248C70.5522 45.6328 69.8239 46.1984 68.8799 46.6216C67.944 47.0366 66.9349 47.2441 65.8525 47.2441ZM65.3887 36.7217C64.1842 36.7217 63.4681 37.5192 63.2402 39.1143H67.3906V38.7969C67.4069 38.1377 67.2401 37.6291 66.8901 37.271C66.5402 36.9048 66.0397 36.7217 65.3887 36.7217ZM80.5254 47C80.3789 46.7314 80.2487 46.3368 80.1348 45.8159C79.3779 46.7681 78.32 47.2441 76.9609 47.2441C75.7158 47.2441 74.6579 46.8698 73.7871 46.1211C72.9163 45.3643 72.481 44.4162 72.481 43.2769C72.481 41.8446 73.0099 40.7622 74.0679 40.0298C75.1258 39.2974 76.6639 38.9312 78.6821 38.9312H79.9517V38.2354C79.9517 37.0228 79.4268 36.4165 78.377 36.4165C77.4004 36.4165 76.9121 36.8966 76.9121 37.8569H72.7983C72.7983 36.5793 73.3395 35.5417 74.4219 34.7441C75.5124 33.9466 76.8999 33.5479 78.5845 33.5479C80.269 33.5479 81.5996 33.9588 82.5762 34.7808C83.5527 35.6027 84.0532 36.7298 84.0776 38.1621V44.0093C84.0939 45.2218 84.2811 46.1496 84.6392 46.7925V47H80.5254ZM77.9497 44.3145C78.4624 44.3145 78.8856 44.2046 79.2192 43.9849C79.561 43.7651 79.8052 43.5169 79.9517 43.2402V41.1284H78.7554C77.3231 41.1284 76.6069 41.7713 76.6069 43.0571C76.6069 43.4315 76.7331 43.7367 76.9854 43.9727C77.2376 44.2005 77.5591 44.3145 77.9497 44.3145ZM91.9512 44.0703C92.529 44.0703 92.9766 43.9157 93.2939 43.6064C93.6113 43.2891 93.766 42.8496 93.7578 42.2881H97.6152C97.6152 43.7367 97.0944 44.9248 96.0527 45.8525C95.0192 46.7803 93.6846 47.2441 92.0488 47.2441C90.1283 47.2441 88.6146 46.6419 87.5078 45.4375C86.401 44.2331 85.8477 42.5648 85.8477 40.4326V40.2617C85.8477 38.9271 86.0918 37.7511 86.5801 36.7339C87.0765 35.7085 87.7886 34.9232 88.7163 34.3779C89.644 33.8245 90.7427 33.5479 92.0122 33.5479C93.7293 33.5479 95.0924 34.0239 96.1016 34.9761C97.1107 35.9282 97.6152 37.2181 97.6152 38.8457H93.7578C93.7578 38.1621 93.591 37.6372 93.2573 37.271C92.9237 36.9048 92.4761 36.7217 91.9146 36.7217C90.8485 36.7217 90.2259 37.4012 90.0469 38.7603C89.9899 39.1916 89.9614 39.7856 89.9614 40.5425C89.9614 41.869 90.1201 42.7886 90.4375 43.3013C90.7549 43.814 91.2594 44.0703 91.9512 44.0703ZM103.377 35.208C104.256 34.1012 105.379 33.5479 106.746 33.5479C108.203 33.5479 109.301 33.9792 110.042 34.8418C110.783 35.7044 111.161 36.978 111.177 38.6626V47H107.051V38.7603C107.051 38.0604 106.909 37.5477 106.624 37.2222C106.339 36.8885 105.855 36.7217 105.171 36.7217C104.325 36.7217 103.727 36.9902 103.377 37.5273V47H99.2632V28.25H103.377V35.208ZM119.173 40.2739C119.173 38.9556 119.429 37.7837 119.942 36.7583C120.455 35.7248 121.191 34.9313 122.151 34.3779C123.112 33.8245 124.239 33.5479 125.533 33.5479C127.51 33.5479 129.069 34.1623 130.208 35.3911C131.347 36.6118 131.917 38.276 131.917 40.3838V40.5303C131.917 42.5892 131.343 44.2249 130.196 45.4375C129.056 46.6419 127.51 47.2441 125.557 47.2441C123.677 47.2441 122.168 46.6826 121.028 45.5596C119.889 44.4284 119.275 42.8984 119.185 40.9697L119.173 40.2739ZM123.287 40.5303C123.287 41.751 123.478 42.6462 123.86 43.2158C124.243 43.7855 124.808 44.0703 125.557 44.0703C127.022 44.0703 127.771 42.9432 127.803 40.689V40.2739C127.803 37.9058 127.046 36.7217 125.533 36.7217C124.157 36.7217 123.413 37.743 123.299 39.7856L123.287 40.5303ZM141.597 45.5718C140.726 46.6867 139.55 47.2441 138.069 47.2441C136.621 47.2441 135.522 46.825 134.773 45.9868C134.033 45.1405 133.663 43.9279 133.663 42.3491V33.792H137.776V42.3735C137.776 43.5047 138.326 44.0703 139.424 44.0703C140.368 44.0703 141.04 43.7326 141.438 43.0571V33.792H145.577V47H141.719L141.597 45.5718ZM152.632 30.5083V33.792H154.805V36.6484H152.632V42.6909C152.632 43.1873 152.722 43.5332 152.901 43.7285C153.08 43.9238 153.434 44.0215 153.963 44.0215C154.37 44.0215 154.712 43.9971 154.988 43.9482V46.8901C154.248 47.1261 153.475 47.2441 152.669 47.2441C151.253 47.2441 150.207 46.9105 149.532 46.2432C148.856 45.5758 148.519 44.5627 148.519 43.2036V36.6484H146.834V33.792H148.519V30.5083H152.632ZM167.452 30.5083V33.792H169.625V36.6484H167.452V42.6909C167.452 43.1873 167.541 43.5332 167.72 43.7285C167.899 43.9238 168.253 44.0215 168.782 44.0215C169.189 44.0215 169.531 43.9971 169.808 43.9482V46.8901C169.067 47.1261 168.294 47.2441 167.488 47.2441C166.072 47.2441 165.027 46.9105 164.351 46.2432C163.676 45.5758 163.338 44.5627 163.338 43.2036V36.6484H161.653V33.792H163.338V30.5083H167.452ZM170.369 40.2739C170.369 38.9556 170.625 37.7837 171.138 36.7583C171.651 35.7248 172.387 34.9313 173.348 34.3779C174.308 33.8245 175.435 33.5479 176.729 33.5479C178.707 33.5479 180.265 34.1623 181.404 35.3911C182.544 36.6118 183.113 38.276 183.113 40.3838V40.5303C183.113 42.5892 182.54 44.2249 181.392 45.4375C180.253 46.6419 178.707 47.2441 176.753 47.2441C174.874 47.2441 173.364 46.6826 172.225 45.5596C171.085 44.4284 170.471 42.8984 170.381 40.9697L170.369 40.2739ZM174.483 40.5303C174.483 41.751 174.674 42.6462 175.057 43.2158C175.439 43.7855 176.005 44.0703 176.753 44.0703C178.218 44.0703 178.967 42.9432 179 40.689V40.2739C179 37.9058 178.243 36.7217 176.729 36.7217C175.354 36.7217 174.609 37.743 174.495 39.7856L174.483 40.5303ZM197.542 47.2441C195.516 47.2441 193.876 46.6419 192.623 45.4375C191.369 44.2249 190.743 42.6502 190.743 40.7134V40.3716C190.743 39.0207 190.991 37.8285 191.487 36.7949C191.992 35.7614 192.724 34.9639 193.685 34.4023C194.645 33.8327 195.784 33.5479 197.103 33.5479C198.958 33.5479 200.423 34.1257 201.497 35.2812C202.571 36.4287 203.108 38.0319 203.108 40.0908V41.6899H194.93C195.076 42.4305 195.398 43.0124 195.894 43.4355C196.39 43.8587 197.033 44.0703 197.823 44.0703C199.125 44.0703 200.142 43.6146 200.875 42.7031L202.754 44.9248C202.242 45.6328 201.513 46.1984 200.569 46.6216C199.633 47.0366 198.624 47.2441 197.542 47.2441ZM197.078 36.7217C195.874 36.7217 195.158 37.5192 194.93 39.1143H199.08V38.7969C199.096 38.1377 198.93 37.6291 198.58 37.271C198.23 36.9048 197.729 36.7217 197.078 36.7217ZM209.114 47H204.988V28.25H209.114V47ZM211.141 40.2983C211.141 38.2069 211.592 36.5589 212.496 35.3545C213.399 34.1501 214.66 33.5479 216.28 33.5479C217.46 33.5479 218.453 34.0117 219.258 34.9395V28.25H223.384V47H219.686L219.478 45.584C218.632 46.6908 217.557 47.2441 216.255 47.2441C214.685 47.2441 213.44 46.6419 212.52 45.4375C211.6 44.2331 211.141 42.52 211.141 40.2983ZM215.254 40.5547C215.254 42.8984 215.938 44.0703 217.305 44.0703C218.217 44.0703 218.868 43.6878 219.258 42.9229V37.8936C218.884 37.1123 218.241 36.7217 217.33 36.7217C216.06 36.7217 215.372 37.7471 215.267 39.7979L215.254 40.5547ZM232.112 47.2441C230.086 47.2441 228.446 46.6419 227.193 45.4375C225.94 44.2249 225.313 42.6502 225.313 40.7134V40.3716C225.313 39.0207 225.561 37.8285 226.058 36.7949C226.562 35.7614 227.295 34.9639 228.255 34.4023C229.215 33.8327 230.354 33.5479 231.673 33.5479C233.528 33.5479 234.993 34.1257 236.067 35.2812C237.142 36.4287 237.679 38.0319 237.679 40.0908V41.6899H229.5C229.646 42.4305 229.968 43.0124 230.464 43.4355C230.961 43.8587 231.604 44.0703 232.393 44.0703C233.695 44.0703 234.712 43.6146 235.445 42.7031L237.325 44.9248C236.812 45.6328 236.084 46.1984 235.14 46.6216C234.204 47.0366 233.195 47.2441 232.112 47.2441ZM231.648 36.7217C230.444 36.7217 229.728 37.5192 229.5 39.1143H233.65V38.7969C233.667 38.1377 233.5 37.6291 233.15 37.271C232.8 36.9048 232.299 36.7217 231.648 36.7217ZM247.334 37.5151L245.979 37.4175C244.686 37.4175 243.855 37.8244 243.489 38.6382V47H239.375V33.792H243.233L243.367 35.4888C244.059 34.1948 245.023 33.5479 246.26 33.5479C246.7 33.5479 247.082 33.5967 247.408 33.6943L247.334 37.5151ZM253.157 47H249.031V28.25H253.157V47ZM260.982 41.2383L263.179 33.792H267.586L262.203 49.2095L261.971 49.771C261.206 51.48 259.855 52.3345 257.918 52.3345C257.381 52.3345 256.815 52.2531 256.221 52.0903V49.1484H256.758C257.336 49.1484 257.776 49.063 258.077 48.8921C258.386 48.7293 258.614 48.4323 258.76 48.001L259.09 47.1221L254.5 33.792H258.895L260.982 41.2383ZM287.154 40.4937C287.154 42.5444 286.69 44.1842 285.762 45.4131C284.843 46.6338 283.597 47.2441 282.027 47.2441C280.814 47.2441 279.817 46.8006 279.036 45.9136V52.0781H274.922V33.792H278.768L278.89 35.0127C279.679 34.0361 280.717 33.5479 282.002 33.5479C283.63 33.5479 284.896 34.1501 285.799 35.3545C286.702 36.5508 287.154 38.1987 287.154 40.2983V40.4937ZM283.04 40.2373C283.04 37.8936 282.356 36.7217 280.989 36.7217C280.013 36.7217 279.362 37.0716 279.036 37.7715V42.9717C279.394 43.7041 280.053 44.0703 281.014 44.0703C282.324 44.0703 282.999 42.9391 283.04 40.6768V40.2373ZM296.419 47C296.272 46.7314 296.142 46.3368 296.028 45.8159C295.271 46.7681 294.214 47.2441 292.854 47.2441C291.609 47.2441 290.551 46.8698 289.681 46.1211C288.81 45.3643 288.375 44.4162 288.375 43.2769C288.375 41.8446 288.903 40.7622 289.961 40.0298C291.019 39.2974 292.557 38.9312 294.576 38.9312H295.845V38.2354C295.845 37.0228 295.32 36.4165 294.271 36.4165C293.294 36.4165 292.806 36.8966 292.806 37.8569H288.692C288.692 36.5793 289.233 35.5417 290.315 34.7441C291.406 33.9466 292.793 33.5479 294.478 33.5479C296.163 33.5479 297.493 33.9588 298.47 34.7808C299.446 35.6027 299.947 36.7298 299.971 38.1621V44.0093C299.987 45.2218 300.175 46.1496 300.533 46.7925V47H296.419ZM293.843 44.3145C294.356 44.3145 294.779 44.2046 295.113 43.9849C295.455 43.7651 295.699 43.5169 295.845 43.2402V41.1284H294.649C293.217 41.1284 292.5 41.7713 292.5 43.0571C292.5 43.4315 292.627 43.7367 292.879 43.9727C293.131 44.2005 293.453 44.3145 293.843 44.3145ZM307.051 30.5083V33.792H309.224V36.6484H307.051V42.6909C307.051 43.1873 307.141 43.5332 307.32 43.7285C307.499 43.9238 307.853 44.0215 308.382 44.0215C308.789 44.0215 309.131 43.9971 309.407 43.9482V46.8901C308.667 47.1261 307.894 47.2441 307.088 47.2441C305.672 47.2441 304.626 46.9105 303.951 46.2432C303.275 45.5758 302.938 44.5627 302.938 43.2036V36.6484H301.253V33.792H302.938V30.5083H307.051ZM315.193 47H311.067V33.792H315.193V47ZM310.823 30.3862C310.823 29.8003 311.035 29.3201 311.458 28.9458C311.881 28.5715 312.431 28.3843 313.106 28.3843C313.781 28.3843 314.331 28.5715 314.754 28.9458C315.177 29.3201 315.389 29.8003 315.389 30.3862C315.389 30.9722 315.177 31.4523 314.754 31.8267C314.331 32.201 313.781 32.3882 313.106 32.3882C312.431 32.3882 311.881 32.201 311.458 31.8267C311.035 31.4523 310.823 30.9722 310.823 30.3862ZM324.129 47.2441C322.103 47.2441 320.463 46.6419 319.209 45.4375C317.956 44.2249 317.33 42.6502 317.33 40.7134V40.3716C317.33 39.0207 317.578 37.8285 318.074 36.7949C318.579 35.7614 319.311 34.9639 320.271 34.4023C321.232 33.8327 322.371 33.5479 323.689 33.5479C325.545 33.5479 327.01 34.1257 328.084 35.2812C329.158 36.4287 329.695 38.0319 329.695 40.0908V41.6899H321.517C321.663 42.4305 321.985 43.0124 322.481 43.4355C322.977 43.8587 323.62 44.0703 324.41 44.0703C325.712 44.0703 326.729 43.6146 327.461 42.7031L329.341 44.9248C328.829 45.6328 328.1 46.1984 327.156 46.6216C326.22 47.0366 325.211 47.2441 324.129 47.2441ZM323.665 36.7217C322.461 36.7217 321.744 37.5192 321.517 39.1143H325.667V38.7969C325.683 38.1377 325.516 37.6291 325.167 37.271C324.817 36.9048 324.316 36.7217 323.665 36.7217ZM335.14 33.792L335.274 35.3423C336.185 34.146 337.443 33.5479 339.046 33.5479C340.421 33.5479 341.447 33.9588 342.122 34.7808C342.806 35.6027 343.16 36.8397 343.184 38.4917V47H339.058V38.6626C339.058 37.9953 338.924 37.507 338.655 37.1978C338.387 36.8804 337.898 36.7217 337.19 36.7217C336.385 36.7217 335.787 37.0391 335.396 37.6738V47H331.282V33.792H335.14ZM350.264 30.5083V33.792H352.437V36.6484H350.264V42.6909C350.264 43.1873 350.354 43.5332 350.533 43.7285C350.712 43.9238 351.066 44.0215 351.595 44.0215C352.002 44.0215 352.343 43.9971 352.62 43.9482V46.8901C351.88 47.1261 351.106 47.2441 350.301 47.2441C348.885 47.2441 347.839 46.9105 347.164 46.2432C346.488 45.5758 346.15 44.5627 346.15 43.2036V36.6484H344.466V33.792H346.15V30.5083H350.264ZM360.982 43.2891C360.982 42.9391 360.799 42.6584 360.433 42.4468C360.066 42.2352 359.371 42.0155 358.345 41.7876C357.32 41.5597 356.473 41.2627 355.806 40.8965C355.139 40.5221 354.63 40.0705 354.28 39.5415C353.93 39.0125 353.755 38.4062 353.755 37.7227C353.755 36.5101 354.256 35.5132 355.257 34.7319C356.258 33.9425 357.568 33.5479 359.188 33.5479C360.929 33.5479 362.329 33.9425 363.387 34.7319C364.445 35.5213 364.974 36.5589 364.974 37.8447H360.848C360.848 36.7868 360.29 36.2578 359.175 36.2578C358.744 36.2578 358.382 36.3799 358.089 36.624C357.796 36.86 357.649 37.1571 357.649 37.5151C357.649 37.8813 357.828 38.1784 358.187 38.4062C358.545 38.6341 359.114 38.8213 359.896 38.9678C360.685 39.1143 361.377 39.2892 361.971 39.4927C363.956 40.1763 364.949 41.401 364.949 43.167C364.949 44.3714 364.412 45.3521 363.338 46.1089C362.272 46.8657 360.888 47.2441 359.188 47.2441C358.056 47.2441 357.047 47.0407 356.16 46.6338C355.273 46.2269 354.581 45.6735 354.085 44.9736C353.589 44.2738 353.34 43.5373 353.34 42.7642H357.186C357.202 43.3745 357.405 43.8221 357.796 44.1069C358.187 44.3836 358.687 44.522 359.297 44.522C359.859 44.522 360.278 44.408 360.555 44.1802C360.84 43.9523 360.982 43.6553 360.982 43.2891ZM374.019 47V36.6484H372.103V33.792H374.019V32.7422C374.019 31.2367 374.463 30.0688 375.35 29.2388C376.237 28.4087 377.482 27.9937 379.085 27.9937C379.671 27.9937 380.314 28.0791 381.014 28.25L381.026 31.2773C380.774 31.2041 380.436 31.1675 380.013 31.1675C378.768 31.1675 378.145 31.7046 378.145 32.7788V33.792H380.721V36.6484H378.145V47H374.019ZM381.648 40.2739C381.648 38.9556 381.905 37.7837 382.417 36.7583C382.93 35.7248 383.667 34.9313 384.627 34.3779C385.587 33.8245 386.714 33.5479 388.008 33.5479C389.986 33.5479 391.544 34.1623 392.684 35.3911C393.823 36.6118 394.393 38.276 394.393 40.3838V40.5303C394.393 42.5892 393.819 44.2249 392.671 45.4375C391.532 46.6419 389.986 47.2441 388.033 47.2441C386.153 47.2441 384.643 46.6826 383.504 45.5596C382.365 44.4284 381.75 42.8984 381.661 40.9697L381.648 40.2739ZM385.762 40.5303C385.762 41.751 385.953 42.6462 386.336 43.2158C386.718 43.7855 387.284 44.0703 388.033 44.0703C389.498 44.0703 390.246 42.9432 390.279 40.689V40.2739C390.279 37.9058 389.522 36.7217 388.008 36.7217C386.633 36.7217 385.888 37.743 385.774 39.7856L385.762 40.5303ZM404.195 37.5151L402.84 37.4175C401.546 37.4175 400.716 37.8244 400.35 38.6382V47H396.236V33.792H400.093L400.228 35.4888C400.919 34.1948 401.884 33.5479 403.121 33.5479C403.56 33.5479 403.943 33.5967 404.268 33.6943L404.195 37.5151ZM417.171 42.105L419.258 33.792H423.592L419.283 47H415.083L410.774 33.792H415.12L417.171 42.105ZM432.063 47C431.917 46.7314 431.787 46.3368 431.673 45.8159C430.916 46.7681 429.858 47.2441 428.499 47.2441C427.254 47.2441 426.196 46.8698 425.325 46.1211C424.454 45.3643 424.019 44.4162 424.019 43.2769C424.019 41.8446 424.548 40.7622 425.606 40.0298C426.664 39.2974 428.202 38.9312 430.22 38.9312H431.49V38.2354C431.49 37.0228 430.965 36.4165 429.915 36.4165C428.938 36.4165 428.45 36.8966 428.45 37.8569H424.336C424.336 36.5793 424.878 35.5417 425.96 34.7441C427.05 33.9466 428.438 33.5479 430.123 33.5479C431.807 33.5479 433.138 33.9588 434.114 34.7808C435.091 35.6027 435.591 36.7298 435.616 38.1621V44.0093C435.632 45.2218 435.819 46.1496 436.177 46.7925V47H432.063ZM429.488 44.3145C430 44.3145 430.424 44.2046 430.757 43.9849C431.099 43.7651 431.343 43.5169 431.49 43.2402V41.1284H430.293C428.861 41.1284 428.145 41.7713 428.145 43.0571C428.145 43.4315 428.271 43.7367 428.523 43.9727C428.776 44.2005 429.097 44.3145 429.488 44.3145ZM443.489 44.0703C444.067 44.0703 444.515 43.9157 444.832 43.6064C445.149 43.2891 445.304 42.8496 445.296 42.2881H449.153C449.153 43.7367 448.632 44.9248 447.591 45.8525C446.557 46.7803 445.223 47.2441 443.587 47.2441C441.666 47.2441 440.153 46.6419 439.046 45.4375C437.939 44.2331 437.386 42.5648 437.386 40.4326V40.2617C437.386 38.9271 437.63 37.7511 438.118 36.7339C438.615 35.7085 439.327 34.9232 440.254 34.3779C441.182 33.8245 442.281 33.5479 443.55 33.5479C445.267 33.5479 446.631 34.0239 447.64 34.9761C448.649 35.9282 449.153 37.2181 449.153 38.8457H445.296C445.296 38.1621 445.129 37.6372 444.795 37.271C444.462 36.9048 444.014 36.7217 443.453 36.7217C442.387 36.7217 441.764 37.4012 441.585 38.7603C441.528 39.1916 441.5 39.7856 441.5 40.5425C441.5 41.869 441.658 42.7886 441.976 43.3013C442.293 43.814 442.798 44.0703 443.489 44.0703ZM456.478 44.0703C457.055 44.0703 457.503 43.9157 457.82 43.6064C458.138 43.2891 458.292 42.8496 458.284 42.2881H462.142C462.142 43.7367 461.621 44.9248 460.579 45.8525C459.546 46.7803 458.211 47.2441 456.575 47.2441C454.655 47.2441 453.141 46.6419 452.034 45.4375C450.927 44.2331 450.374 42.5648 450.374 40.4326V40.2617C450.374 38.9271 450.618 37.7511 451.106 36.7339C451.603 35.7085 452.315 34.9232 453.243 34.3779C454.17 33.8245 455.269 33.5479 456.539 33.5479C458.256 33.5479 459.619 34.0239 460.628 34.9761C461.637 35.9282 462.142 37.2181 462.142 38.8457H458.284C458.284 38.1621 458.117 37.6372 457.784 37.271C457.45 36.9048 457.002 36.7217 456.441 36.7217C455.375 36.7217 454.752 37.4012 454.573 38.7603C454.516 39.1916 454.488 39.7856 454.488 40.5425C454.488 41.869 454.646 42.7886 454.964 43.3013C455.281 43.814 455.786 44.0703 456.478 44.0703ZM468.221 47H464.095V33.792H468.221V47ZM463.851 30.3862C463.851 29.8003 464.062 29.3201 464.485 28.9458C464.909 28.5715 465.458 28.3843 466.133 28.3843C466.809 28.3843 467.358 28.5715 467.781 28.9458C468.204 29.3201 468.416 29.8003 468.416 30.3862C468.416 30.9722 468.204 31.4523 467.781 31.8267C467.358 32.201 466.809 32.3882 466.133 32.3882C465.458 32.3882 464.909 32.201 464.485 31.8267C464.062 31.4523 463.851 30.9722 463.851 30.3862ZM474.544 33.792L474.678 35.3423C475.59 34.146 476.847 33.5479 478.45 33.5479C479.826 33.5479 480.851 33.9588 481.526 34.7808C482.21 35.6027 482.564 36.8397 482.588 38.4917V47H478.462V38.6626C478.462 37.9953 478.328 37.507 478.06 37.1978C477.791 36.8804 477.303 36.7217 476.595 36.7217C475.789 36.7217 475.191 37.0391 474.8 37.6738V47H470.687V33.792H474.544ZM491.268 47.2441C489.241 47.2441 487.601 46.6419 486.348 45.4375C485.095 44.2249 484.468 42.6502 484.468 40.7134V40.3716C484.468 39.0207 484.716 37.8285 485.213 36.7949C485.717 35.7614 486.45 34.9639 487.41 34.4023C488.37 33.8327 489.51 33.5479 490.828 33.5479C492.684 33.5479 494.148 34.1257 495.223 35.2812C496.297 36.4287 496.834 38.0319 496.834 40.0908V41.6899H488.655C488.802 42.4305 489.123 43.0124 489.62 43.4355C490.116 43.8587 490.759 44.0703 491.548 44.0703C492.85 44.0703 493.868 43.6146 494.6 42.7031L496.48 44.9248C495.967 45.6328 495.239 46.1984 494.295 46.6216C493.359 47.0366 492.35 47.2441 491.268 47.2441ZM490.804 36.7217C489.599 36.7217 488.883 37.5192 488.655 39.1143H492.806V38.7969C492.822 38.1377 492.655 37.6291 492.305 37.271C491.955 36.9048 491.455 36.7217 490.804 36.7217ZM504.207 40.2739C504.207 38.9556 504.463 37.7837 504.976 36.7583C505.489 35.7248 506.225 34.9313 507.186 34.3779C508.146 33.8245 509.273 33.5479 510.567 33.5479C512.544 33.5479 514.103 34.1623 515.242 35.3911C516.382 36.6118 516.951 38.276 516.951 40.3838V40.5303C516.951 42.5892 516.377 44.2249 515.23 45.4375C514.091 46.6419 512.544 47.2441 510.591 47.2441C508.711 47.2441 507.202 46.6826 506.062 45.5596C504.923 44.4284 504.309 42.8984 504.219 40.9697L504.207 40.2739ZM508.321 40.5303C508.321 41.751 508.512 42.6462 508.895 43.2158C509.277 43.7855 509.843 44.0703 510.591 44.0703C512.056 44.0703 512.805 42.9432 512.837 40.689V40.2739C512.837 37.9058 512.081 36.7217 510.567 36.7217C509.192 36.7217 508.447 37.743 508.333 39.7856L508.321 40.5303ZM526.631 45.5718C525.761 46.6867 524.585 47.2441 523.104 47.2441C521.655 47.2441 520.556 46.825 519.808 45.9868C519.067 45.1405 518.697 43.9279 518.697 42.3491V33.792H522.811V42.3735C522.811 43.5047 523.36 44.0703 524.458 44.0703C525.403 44.0703 526.074 43.7326 526.473 43.0571V33.792H530.611V47H526.753L526.631 45.5718ZM537.667 30.5083V33.792H539.839V36.6484H537.667V42.6909C537.667 43.1873 537.756 43.5332 537.935 43.7285C538.114 43.9238 538.468 44.0215 538.997 44.0215C539.404 44.0215 539.746 43.9971 540.022 43.9482V46.8901C539.282 47.1261 538.509 47.2441 537.703 47.2441C536.287 47.2441 535.241 46.9105 534.566 46.2432C533.89 45.5758 533.553 44.5627 533.553 43.2036V36.6484H531.868V33.792H533.553V30.5083H537.667ZM549.458 37.5151L548.104 37.4175C546.81 37.4175 545.979 37.8244 545.613 38.6382V47H541.5V33.792H545.357L545.491 35.4888C546.183 34.1948 547.147 33.5479 548.384 33.5479C548.824 33.5479 549.206 33.5967 549.532 33.6943L549.458 37.5151ZM557.088 47.2441C555.062 47.2441 553.422 46.6419 552.168 45.4375C550.915 44.2249 550.289 42.6502 550.289 40.7134V40.3716C550.289 39.0207 550.537 37.8285 551.033 36.7949C551.538 35.7614 552.27 34.9639 553.23 34.4023C554.191 33.8327 555.33 33.5479 556.648 33.5479C558.504 33.5479 559.969 34.1257 561.043 35.2812C562.117 36.4287 562.654 38.0319 562.654 40.0908V41.6899H554.476C554.622 42.4305 554.944 43.0124 555.44 43.4355C555.936 43.8587 556.579 44.0703 557.369 44.0703C558.671 44.0703 559.688 43.6146 560.42 42.7031L562.3 44.9248C561.788 45.6328 561.059 46.1984 560.115 46.6216C559.179 47.0366 558.17 47.2441 557.088 47.2441ZM556.624 36.7217C555.42 36.7217 554.703 37.5192 554.476 39.1143H558.626V38.7969C558.642 38.1377 558.475 37.6291 558.125 37.271C557.776 36.9048 557.275 36.7217 556.624 36.7217ZM571.761 47C571.614 46.7314 571.484 46.3368 571.37 45.8159C570.613 46.7681 569.555 47.2441 568.196 47.2441C566.951 47.2441 565.893 46.8698 565.022 46.1211C564.152 45.3643 563.716 44.4162 563.716 43.2769C563.716 41.8446 564.245 40.7622 565.303 40.0298C566.361 39.2974 567.899 38.9312 569.917 38.9312H571.187V38.2354C571.187 37.0228 570.662 36.4165 569.612 36.4165C568.636 36.4165 568.147 36.8966 568.147 37.8569H564.034C564.034 36.5793 564.575 35.5417 565.657 34.7441C566.748 33.9466 568.135 33.5479 569.82 33.5479C571.504 33.5479 572.835 33.9588 573.812 34.7808C574.788 35.6027 575.289 36.7298 575.313 38.1621V44.0093C575.329 45.2218 575.516 46.1496 575.875 46.7925V47H571.761ZM569.185 44.3145C569.698 44.3145 570.121 44.2046 570.455 43.9849C570.796 43.7651 571.041 43.5169 571.187 43.2402V41.1284H569.991C568.558 41.1284 567.842 41.7713 567.842 43.0571C567.842 43.4315 567.968 43.7367 568.221 43.9727C568.473 44.2005 568.794 44.3145 569.185 44.3145ZM583.187 44.0703C583.764 44.0703 584.212 43.9157 584.529 43.6064C584.847 43.2891 585.001 42.8496 584.993 42.2881H588.851C588.851 43.7367 588.33 44.9248 587.288 45.8525C586.255 46.7803 584.92 47.2441 583.284 47.2441C581.364 47.2441 579.85 46.6419 578.743 45.4375C577.636 44.2331 577.083 42.5648 577.083 40.4326V40.2617C577.083 38.9271 577.327 37.7511 577.815 36.7339C578.312 35.7085 579.024 34.9232 579.952 34.3779C580.879 33.8245 581.978 33.5479 583.248 33.5479C584.965 33.5479 586.328 34.0239 587.337 34.9761C588.346 35.9282 588.851 37.2181 588.851 38.8457H584.993C584.993 38.1621 584.826 37.6372 584.493 37.271C584.159 36.9048 583.711 36.7217 583.15 36.7217C582.084 36.7217 581.461 37.4012 581.282 38.7603C581.225 39.1916 581.197 39.7856 581.197 40.5425C581.197 41.869 581.355 42.7886 581.673 43.3013C581.99 43.814 582.495 44.0703 583.187 44.0703ZM594.612 35.208C595.491 34.1012 596.614 33.5479 597.981 33.5479C599.438 33.5479 600.537 33.9792 601.277 34.8418C602.018 35.7044 602.396 36.978 602.413 38.6626V47H598.287V38.7603C598.287 38.0604 598.144 37.5477 597.859 37.2222C597.575 36.8885 597.09 36.7217 596.407 36.7217C595.56 36.7217 594.962 36.9902 594.612 37.5273V47H590.499V28.25H594.612V35.208Z" fill="black"/>
<defs>
<filter id="filter0_bd" x="-85" y="-95" width="889" height="411" filterUnits="userSpaceOnUse" color-interpolation-filters="sRGB">
<feFlood flood-opacity="0" result="BackgroundImageFix"/>
<feGaussianBlur in="BackgroundImage" stdDeviation="50"/>
<feComposite in2="SourceAlpha" operator="in" result="effect1_backgroundBlur"/>
<feColorMatrix in="SourceAlpha" type="matrix" values="0 0 0 0 0 0 0 0 0 0 0 0 0 0 0 0 0 0 127 0"/>
<feMorphology radius="5" operator="dilate" in="SourceAlpha" result="effect2_dropShadow"/>
<feOffset dy="10"/>
<feGaussianBlur stdDeviation="5"/>
<feColorMatrix type="matrix" values="0 0 0 0 0.06375 0 0 0 0 0.144217 0 0 0 0 0.566667 0 0 0 0.1 0"/>
<feBlend mode="normal" in2="effect1_backgroundBlur" result="effect2_dropShadow"/>
<feBlend mode="normal" in="SourceGraphic" in2="effect2_dropShadow" result="shape"/>
</filter>
<filter id="filter1_bd" x="-84" y="162" width="889" height="422" filterUnits="userSpaceOnUse" color-interpolation-filters="sRGB">
<feFlood flood-opacity="0" result="BackgroundImageFix"/>
<feGaussianBlur in="BackgroundImage" stdDeviation="50"/>
<feComposite in2="SourceAlpha" operator="in" result="effect1_backgroundBlur"/>
<feColorMatrix in="SourceAlpha" type="matrix" values="0 0 0 0 0 0 0 0 0 0 0 0 0 0 0 0 0 0 127 0"/>
<feMorphology radius="5" operator="dilate" in="SourceAlpha" result="effect2_dropShadow"/>
<feOffset dy="10"/>
<feGaussianBlur stdDeviation="5"/>
<feColorMatrix type="matrix" values="0 0 0 0 0.06375 0 0 0 0 0.144217 0 0 0 0 0.566667 0 0 0 0.1 0"/>
<feBlend mode="normal" in2="effect1_backgroundBlur" result="effect2_dropShadow"/>
<feBlend mode="normal" in="SourceGraphic" in2="effect2_dropShadow" result="shape"/>
</filter>
</defs>
</svg>
