<svg width="143" height="31" viewBox="0 0 143 31" fill="none" xmlns="http://www.w3.org/2000/svg">
<path d="M0.40625 24H15.1506V19.2273H6.32955V2.18182H0.40625V24ZM24.0137 24.2983C29.3404 24.2983 32.4938 20.8892 32.4938 15.8608C32.4938 10.8324 29.3404 7.4233 24.0137 7.4233C18.687 7.4233 15.5336 10.8324 15.5336 15.8608C15.5336 20.8892 18.687 24.2983 24.0137 24.2983ZM24.0563 19.9517C22.4796 19.9517 21.5421 18.3857 21.5421 15.8182C21.5421 13.2507 22.4796 11.6847 24.0563 11.6847C25.5478 11.6847 26.4853 13.2507 26.4853 15.8182C26.4853 18.3857 25.5478 19.9517 24.0563 19.9517ZM41.2637 30.4773C46.4412 30.4773 49.8716 28.1122 49.8716 23.9574V7.63636H43.9909V10.4915H43.8631C43.2239 8.82955 41.6898 7.4233 39.2608 7.4233C36.0222 7.4233 32.8688 9.89489 32.8688 15.8182C32.8688 21.4858 35.8091 23.7869 39.3034 23.7869C41.5194 23.7869 43.2665 22.8494 43.9057 21.1875H44.0762V23.9574C44.0762 25.8857 42.9576 26.5142 41.4341 26.5142C40.0811 26.5142 39.0904 26.1094 38.9199 25.0653H33.2523C33.476 28.2188 36.3418 30.4773 41.2637 30.4773ZM41.4767 19.6108C39.8574 19.6108 38.9199 18.2472 38.9199 15.8182C38.9199 13.3892 39.8574 11.9403 41.4767 11.9403C43.0961 11.9403 44.0762 13.3892 44.0762 15.8182C44.0762 18.2045 43.0961 19.6108 41.4767 19.6108ZM51.3626 24H57.2433V7.63636H51.3626V24ZM54.3029 5.93182C55.9009 5.93182 57.2006 4.72798 57.2006 3.24716C57.2006 1.76633 55.9009 0.5625 54.3029 0.5625C52.7049 0.5625 51.4052 1.76633 51.4052 3.24716C51.4052 4.72798 52.7049 5.93182 54.3029 5.93182ZM66.623 24.2983C71.4703 24.2983 74.4426 21.5178 74.5066 17.1818H69.052C68.9242 18.897 67.9973 19.8239 66.7083 19.8239C65.1635 19.8239 64.1515 18.5028 64.1515 15.8182C64.1515 13.1335 65.1635 11.8125 66.7083 11.8125C68.008 11.8125 68.8922 12.7393 69.052 14.4545H74.5066C74.4746 10.1932 71.4384 7.4233 66.623 7.4233C61.2963 7.4233 58.1429 10.8324 58.1429 15.8608C58.1429 20.8892 61.2963 24.2983 66.623 24.2983ZM75.3477 24H90.092V19.2273H81.271V2.18182H75.3477V24ZM98.9551 24.2983C104.282 24.2983 107.435 20.8892 107.435 15.8608C107.435 10.8324 104.282 7.4233 98.9551 7.4233C93.6284 7.4233 90.475 10.8324 90.475 15.8608C90.475 20.8892 93.6284 24.2983 98.9551 24.2983ZM98.9977 19.9517C97.421 19.9517 96.4835 18.3857 96.4835 15.8182C96.4835 13.2507 97.421 11.6847 98.9977 11.6847C100.489 11.6847 101.427 13.2507 101.427 15.8182C101.427 18.3857 100.489 19.9517 98.9977 19.9517ZM116.205 24.2983C121.532 24.2983 124.685 20.8892 124.685 15.8608C124.685 10.8324 121.532 7.4233 116.205 7.4233C110.878 7.4233 107.725 10.8324 107.725 15.8608C107.725 20.8892 110.878 24.2983 116.205 24.2983ZM116.248 19.9517C114.671 19.9517 113.733 18.3857 113.733 15.8182C113.733 13.2507 114.671 11.6847 116.248 11.6847C117.739 11.6847 118.677 13.2507 118.677 15.8182C118.677 18.3857 117.739 19.9517 116.248 19.9517ZM125.572 30.1364H131.452V21.3153H131.537C132.219 22.9773 133.796 24.2131 136.097 24.2131C139.591 24.2131 142.532 21.4858 142.532 15.8182C142.532 9.89489 139.378 7.4233 136.14 7.4233C133.711 7.4233 132.177 8.82955 131.537 10.4915H131.41V7.63636H125.572V30.1364ZM131.324 15.8182C131.324 13.3892 132.305 11.9403 133.924 11.9403C135.543 11.9403 136.481 13.3892 136.481 15.8182C136.481 18.2472 135.543 19.696 133.924 19.696C132.305 19.696 131.324 18.2045 131.324 15.8182Z" fill="black"/>
</svg>
